<?xml version="1.0" encoding="UTF-8" standalone="no"?>
<!-- Generator: Adobe Illustrator 14.0.0, SVG Export Plug-In . SVG Version: 6.00 Build 43363)  -->

<svg
   xmlns:dc="http://purl.org/dc/elements/1.1/"
   xmlns:cc="http://creativecommons.org/ns#"
   xmlns:rdf="http://www.w3.org/1999/02/22-rdf-syntax-ns#"
   xmlns:svg="http://www.w3.org/2000/svg"
   xmlns="http://www.w3.org/2000/svg"
   xmlns:sodipodi="http://sodipodi.sourceforge.net/DTD/sodipodi-0.dtd"
   xmlns:inkscape="http://www.inkscape.org/namespaces/inkscape"
   version="1.1"
   id="Layer_1"
   x="0px"
   y="0px"
   width="294.944"
   height="186.76199"
   viewBox="0 0 294.94401 186.76199"
   enable-background="new 0 0 338.4 201.6"
   xml:space="preserve"
   inkscape:version="0.48.1 r9760"
   sodipodi:docname="little_rascals_logo_final.svg"
   inkscape:export-filename="/home/tnks/src/scm/littlerascals.site/public/images/logo.png"
   inkscape:export-xdpi="180"
   inkscape:export-ydpi="180"><metadata
   id="metadata147"><rdf:RDF><cc:Work
       rdf:about=""><dc:format>image/svg+xml</dc:format><dc:type
         rdf:resource="http://purl.org/dc/dcmitype/StillImage" /></cc:Work></rdf:RDF></metadata><defs
   id="defs145">
	
	
	
	
	
	
	
	
	
	
	
	
	
	
	
	
	
	
	
	
	
	
	
	
	
	
	
	
	
	
	
	
	
	
	
	
	
	
	
	

	
	
	

		
		
		
		
		
		
		
		
		
		
		
		
		
	</defs><sodipodi:namedview
   pagecolor="#ffffff"
   bordercolor="#666666"
   borderopacity="1"
   objecttolerance="10"
   gridtolerance="10"
   guidetolerance="10"
   inkscape:pageopacity="0"
   inkscape:pageshadow="2"
   inkscape:window-width="1396"
   inkscape:window-height="1011"
   id="namedview143"
   showgrid="false"
   inkscape:zoom="4.2514003"
   inkscape:cx="147.472"
   inkscape:cy="93.380997"
   inkscape:window-x="0"
   inkscape:window-y="17"
   inkscape:window-maximized="0"
   inkscape:current-layer="Layer_1"
   fit-margin-top="0"
   fit-margin-left="0"
   fit-margin-right="0"
   fit-margin-bottom="0" />
<g
   id="g3"
   transform="translate(-21.546,-5.2890049)">
	<path
   d="m 70.574,169.248 h 2.148 v 3.069 c 0.849,-1.166 1.825,-2.041 2.929,-2.624 1.104,-0.584 2.335,-0.875 3.694,-0.875 2.371,0 4.4,0.854 6.086,2.562 1.687,1.709 2.53,3.766 2.53,6.17 0,2.455 -0.836,4.539 -2.507,6.253 -1.671,1.714 -3.687,2.57 -6.048,2.57 -1.329,0 -2.55,-0.276 -3.664,-0.828 -1.114,-0.553 -2.121,-1.376 -3.021,-2.471 v 8.977 h -2.148 v -22.803 z m 8.594,1.643 c -1.857,0 -3.422,0.648 -4.692,1.946 -1.27,1.298 -1.906,2.913 -1.906,4.844 0,1.268 0.283,2.406 0.85,3.418 0.567,1.013 1.378,1.814 2.435,2.407 1.057,0.593 2.172,0.889 3.346,0.889 1.153,0 2.237,-0.299 3.253,-0.896 1.016,-0.597 1.825,-1.434 2.427,-2.507 0.603,-1.072 0.903,-2.196 0.903,-3.372 0,-1.186 -0.298,-2.31 -0.896,-3.372 -0.598,-1.062 -1.401,-1.888 -2.411,-2.476 -1.012,-0.587 -2.115,-0.881 -3.309,-0.881 z"
   id="path5"
   inkscape:connector-curvature="0"
   style="fill:#6cb6b3" />
	<path
   d="m 107.925,180.405 1.811,0.951 c -0.594,1.166 -1.279,2.107 -2.058,2.823 -0.779,0.716 -1.654,1.261 -2.627,1.635 -0.973,0.373 -2.074,0.56 -3.303,0.56 -2.724,0 -4.854,-0.893 -6.39,-2.678 -1.536,-1.785 -2.304,-3.803 -2.304,-6.054 0,-2.118 0.649,-4.006 1.95,-5.662 1.648,-2.108 3.855,-3.162 6.62,-3.162 2.847,0 5.12,1.08 6.82,3.238 1.208,1.524 1.822,3.428 1.843,5.708 H 95.265 c 0.04,1.939 0.66,3.529 1.858,4.77 1.199,1.24 2.679,1.86 4.44,1.86 0.851,0 1.678,-0.147 2.481,-0.443 0.805,-0.295 1.487,-0.688 2.052,-1.177 0.564,-0.489 1.174,-1.279 1.829,-2.369 z m 0,-4.497 c -0.287,-1.146 -0.704,-2.062 -1.252,-2.747 -0.549,-0.686 -1.273,-1.237 -2.175,-1.657 -0.901,-0.419 -1.849,-0.629 -2.842,-0.629 -1.64,0 -3.048,0.526 -4.226,1.58 -0.86,0.768 -1.511,1.919 -1.951,3.453 h 12.446 z"
   id="path7"
   inkscape:connector-curvature="0"
   style="fill:#6cb6b3" />
	<path
   d="m 118.052,163.048 h 2.148 v 6.2 h 3.407 v 1.856 H 120.2 v 14.84 h -2.148 v -14.84 h -2.931 v -1.856 h 2.931 v -6.2 z"
   id="path9"
   inkscape:connector-curvature="0"
   style="fill:#6cb6b3" />
	<path
   d="m 147.696,171.074 -1.381,1.428 c -1.149,-1.116 -2.272,-1.673 -3.369,-1.673 -0.698,0 -1.295,0.229 -1.793,0.69 -0.498,0.461 -0.746,0.997 -0.746,1.611 0,0.542 0.205,1.059 0.615,1.55 0.41,0.501 1.271,1.089 2.584,1.765 1.599,0.829 2.686,1.627 3.26,2.394 0.563,0.778 0.846,1.653 0.846,2.625 0,1.371 -0.481,2.532 -1.444,3.483 -0.964,0.951 -2.168,1.427 -3.612,1.427 -0.963,0 -1.883,-0.209 -2.759,-0.629 -0.876,-0.419 -1.601,-0.997 -2.175,-1.734 l 1.351,-1.534 c 1.098,1.238 2.261,1.856 3.492,1.856 0.86,0 1.594,-0.275 2.199,-0.828 0.604,-0.553 0.907,-1.202 0.907,-1.949 0,-0.613 -0.2,-1.161 -0.6,-1.642 -0.4,-0.471 -1.302,-1.064 -2.706,-1.781 -1.508,-0.777 -2.533,-1.544 -3.076,-2.302 -0.544,-0.756 -0.815,-1.621 -0.815,-2.593 0,-1.269 0.433,-2.322 1.299,-3.161 0.866,-0.84 1.96,-1.259 3.282,-1.259 1.537,0 3.085,0.752 4.641,2.256 z"
   id="path11"
   inkscape:connector-curvature="0"
   style="fill:#6cb6b3" />
	<path
   d="m 167.445,180.405 1.81,0.951 c -0.593,1.166 -1.279,2.107 -2.057,2.823 -0.779,0.716 -1.654,1.261 -2.627,1.635 -0.974,0.373 -2.074,0.56 -3.303,0.56 -2.724,0 -4.854,-0.893 -6.39,-2.678 -1.536,-1.785 -2.304,-3.803 -2.304,-6.054 0,-2.118 0.649,-4.006 1.95,-5.662 1.648,-2.108 3.855,-3.162 6.62,-3.162 2.847,0 5.12,1.08 6.819,3.238 1.208,1.524 1.823,3.428 1.843,5.708 h -15.023 c 0.04,1.939 0.66,3.529 1.858,4.77 1.198,1.241 2.679,1.86 4.44,1.86 0.851,0 1.678,-0.147 2.481,-0.443 0.805,-0.295 1.487,-0.688 2.051,-1.177 0.568,-0.489 1.177,-1.279 1.832,-2.369 z m 0,-4.497 c -0.287,-1.146 -0.704,-2.062 -1.253,-2.747 -0.548,-0.686 -1.272,-1.237 -2.174,-1.657 -0.901,-0.419 -1.849,-0.629 -2.843,-0.629 -1.639,0 -3.047,0.526 -4.225,1.58 -0.861,0.768 -1.512,1.919 -1.952,3.453 h 12.447 z"
   id="path13"
   inkscape:connector-curvature="0"
   style="fill:#6cb6b3" />
	<path
   d="m 174.887,169.248 h 2.194 v 2.439 c 0.655,-0.961 1.346,-1.68 2.072,-2.155 0.726,-0.475 1.483,-0.714 2.271,-0.714 0.593,0 1.228,0.189 1.902,0.568 l -1.12,1.811 c -0.45,-0.194 -0.829,-0.292 -1.136,-0.292 -0.716,0 -1.407,0.295 -2.071,0.882 -0.666,0.589 -1.172,1.502 -1.52,2.74 -0.266,0.951 -0.399,2.875 -0.399,5.77 v 5.647 h -2.194 v -16.696 z"
   id="path15"
   inkscape:connector-curvature="0"
   style="fill:#6cb6b3" />
	<path
   d="m 185.459,169.248 h 2.286 l 5.604,12.171 5.537,-12.171 h 2.302 l -7.643,16.696 h -0.398 l -7.688,-16.696 z"
   id="path17"
   inkscape:connector-curvature="0"
   style="fill:#6cb6b3" />
	<path
   d="m 207.088,162.373 c 0.488,0 0.906,0.174 1.252,0.522 0.347,0.347 0.52,0.767 0.52,1.258 0,0.48 -0.173,0.896 -0.52,1.243 -0.346,0.348 -0.764,0.521 -1.252,0.521 -0.479,0 -0.892,-0.174 -1.238,-0.521 -0.346,-0.347 -0.52,-0.763 -0.52,-1.243 0,-0.491 0.173,-0.911 0.52,-1.258 0.346,-0.348 0.758,-0.522 1.238,-0.522 z m -1.067,6.875 h 2.148 v 16.696 h -2.148 v -16.696 z"
   id="path19"
   inkscape:connector-curvature="0"
   style="fill:#6cb6b3" />
	<path
   d="m 230.727,172.716 -1.704,1.06 c -1.471,-1.954 -3.479,-2.931 -6.024,-2.931 -2.033,0 -3.722,0.653 -5.065,1.962 -1.344,1.308 -2.016,2.896 -2.016,4.767 0,1.216 0.309,2.361 0.927,3.434 0.619,1.073 1.467,1.906 2.545,2.499 1.078,0.593 2.286,0.889 3.625,0.889 2.452,0 4.455,-0.977 6.009,-2.931 l 1.704,1.12 c -0.799,1.202 -1.87,2.134 -3.216,2.797 -1.345,0.662 -2.877,0.993 -4.596,0.993 -2.64,0 -4.829,-0.839 -6.568,-2.517 -1.739,-1.678 -2.608,-3.719 -2.608,-6.123 0,-1.616 0.406,-3.117 1.22,-4.504 0.813,-1.386 1.931,-2.468 3.353,-3.246 1.423,-0.776 3.013,-1.166 4.773,-1.166 1.104,0 2.171,0.169 3.199,0.507 1.028,0.337 1.9,0.777 2.617,1.319 0.714,0.543 1.323,1.233 1.825,2.071 z"
   id="path21"
   inkscape:connector-curvature="0"
   style="fill:#6cb6b3" />
	<path
   d="m 250.797,180.405 1.811,0.951 c -0.594,1.166 -1.279,2.107 -2.059,2.823 -0.778,0.716 -1.653,1.261 -2.626,1.635 -0.974,0.373 -2.074,0.56 -3.303,0.56 -2.724,0 -4.854,-0.893 -6.39,-2.678 -1.536,-1.785 -2.304,-3.803 -2.304,-6.054 0,-2.118 0.649,-4.006 1.95,-5.662 1.648,-2.108 3.855,-3.162 6.62,-3.162 2.847,0 5.12,1.08 6.819,3.238 1.209,1.524 1.823,3.428 1.844,5.708 h -15.024 c 0.041,1.939 0.661,3.529 1.859,4.77 1.198,1.241 2.679,1.86 4.44,1.86 0.851,0 1.678,-0.147 2.481,-0.443 0.805,-0.295 1.487,-0.688 2.051,-1.177 0.564,-0.489 1.176,-1.279 1.831,-2.369 z m 0,-4.497 c -0.287,-1.146 -0.705,-2.062 -1.253,-2.747 -0.548,-0.685 -1.272,-1.237 -2.174,-1.657 -0.901,-0.419 -1.849,-0.629 -2.843,-0.629 -1.639,0 -3.047,0.526 -4.225,1.58 -0.861,0.768 -1.512,1.919 -1.952,3.453 h 12.447 z"
   id="path23"
   inkscape:connector-curvature="0"
   style="fill:#6cb6b3" />
	<path
   d="m 267.445,171.074 -1.381,1.428 c -1.149,-1.116 -2.272,-1.673 -3.369,-1.673 -0.698,0 -1.296,0.229 -1.793,0.69 -0.498,0.461 -0.746,0.997 -0.746,1.611 0,0.542 0.205,1.059 0.615,1.55 0.41,0.501 1.271,1.089 2.583,1.765 1.6,0.829 2.687,1.627 3.261,2.394 0.563,0.778 0.846,1.653 0.846,2.625 0,1.371 -0.481,2.532 -1.444,3.483 -0.964,0.951 -2.168,1.427 -3.612,1.427 -0.963,0 -1.883,-0.209 -2.759,-0.629 -0.876,-0.419 -1.601,-0.997 -2.175,-1.734 l 1.351,-1.534 c 1.098,1.238 2.261,1.856 3.491,1.856 0.861,0 1.595,-0.275 2.2,-0.828 0.604,-0.553 0.907,-1.202 0.907,-1.949 0,-0.613 -0.2,-1.161 -0.6,-1.642 -0.4,-0.471 -1.302,-1.064 -2.706,-1.781 -1.508,-0.777 -2.533,-1.544 -3.076,-2.302 -0.544,-0.756 -0.815,-1.621 -0.815,-2.593 0,-1.269 0.433,-2.322 1.299,-3.161 0.866,-0.84 1.96,-1.259 3.282,-1.259 1.536,0 3.085,0.752 4.641,2.256 z"
   id="path25"
   inkscape:connector-curvature="0"
   style="fill:#6cb6b3" />
</g>
<g
   id="g3228"
   transform="translate(-21.546,-5.2890049)"><path
     style="fill:#695c57"
     inkscape:connector-curvature="0"
     id="path31"
     d="m 31.471,134.423 c 0,3.309 0,12.915 0.064,14.888 0.062,1.082 0.317,1.973 1.653,1.973 h 2.863 c 0.572,0 0.7,0.19 0.7,0.572 v 1.081 c 0,0.382 -0.128,0.637 -0.382,0.637 -0.445,0 -3.245,-0.19 -7.189,-0.19 -4.072,0 -6.617,0.19 -7.189,0.19 -0.318,0 -0.445,-0.255 -0.445,-0.637 v -1.081 c 0,-0.445 0.127,-0.572 0.827,-0.572 h 3.054 c 0.7,0 1.336,-0.446 1.399,-1.591 0.063,-1.973 0.063,-12.915 0.063,-16.605 v -4.008 c 0,-4.518 -0.063,-10.307 -0.19,-11.962 -0.127,-2.163 -1.146,-3.181 -3.182,-3.817 l -1.272,-0.445 c -0.317,-0.127 -0.381,-0.19 -0.381,-0.317 v -0.509 c 0,-0.191 0.19,-0.318 0.572,-0.445 2.227,-1.019 5.09,-2.164 7.443,-3.69 0.573,-0.382 0.955,-0.51 1.337,-0.51 0.444,0 0.572,0.318 0.509,1.146 -0.064,3.5 -0.255,16.732 -0.255,20.232 v 5.66 z" /><path
     style="fill:#695c57"
     inkscape:connector-curvature="0"
     id="path35"
     d="m 64.809,145.43 c 0,4.771 2.163,5.599 3.309,5.599 1.463,0 3.308,-0.255 4.199,-0.827 0.317,-0.19 0.572,-0.127 0.763,0.128 l 0.318,0.572 c 0.19,0.254 0.064,0.509 -0.127,0.699 -0.637,0.637 -3.245,2.546 -7.062,2.546 -3.117,0 -6.171,-2.991 -6.171,-5.408 0,-2.608 0.19,-8.208 0.19,-9.098 v -1.4 c 0,-1.146 0.063,-5.408 0.128,-8.08 h -3.881 c -0.573,0 -0.955,-0.255 -0.955,-0.763 0,-0.51 0.382,-0.7 1.146,-1.146 1.526,-0.892 6.426,-5.854 7.253,-8.017 0.19,-0.509 0.509,-0.637 0.891,-0.637 0.509,0 0.636,0.445 0.636,0.955 l -0.317,6.298 h 8.843 c 0.383,0 0.573,0.318 0.446,0.572 l -0.637,2.228 c -0.063,0.318 -0.191,0.509 -0.572,0.509 H 65 c -0.128,2.927 -0.191,5.98 -0.191,8.907 v 6.363 z" /><path
     style="fill:#695c57"
     inkscape:connector-curvature="0"
     id="path37"
     d="m 85.103,145.43 c 0,4.771 2.163,5.599 3.309,5.599 1.464,0 3.309,-0.255 4.199,-0.827 0.318,-0.19 0.572,-0.127 0.763,0.128 l 0.318,0.572 c 0.191,0.254 0.064,0.509 -0.127,0.699 -0.636,0.637 -3.245,2.546 -7.062,2.546 -3.118,0 -6.172,-2.991 -6.172,-5.408 0,-2.608 0.191,-8.208 0.191,-9.098 v -1.4 c 0,-1.146 0.063,-5.408 0.127,-8.08 h -3.881 c -0.573,0 -0.955,-0.255 -0.955,-0.763 0,-0.51 0.382,-0.7 1.146,-1.146 1.527,-0.892 6.426,-5.854 7.253,-8.017 0.191,-0.509 0.51,-0.637 0.891,-0.637 0.51,0 0.637,0.445 0.637,0.955 l -0.318,6.298 h 8.844 c 0.382,0 0.572,0.318 0.445,0.572 l -0.637,2.228 c -0.063,0.318 -0.19,0.509 -0.572,0.509 h -8.207 c -0.128,2.927 -0.191,5.98 -0.191,8.907 v 6.363 z" /><path
     style="fill:#695c57"
     inkscape:connector-curvature="0"
     id="path39"
     d="m 105.333,134.423 c 0,3.309 0,12.915 0.064,14.888 0.063,1.082 0.318,1.973 1.653,1.973 h 2.863 c 0.572,0 0.7,0.19 0.7,0.572 v 1.081 c 0,0.382 -0.128,0.637 -0.382,0.637 -0.445,0 -3.245,-0.19 -7.189,-0.19 -4.072,0 -6.617,0.19 -7.189,0.19 -0.318,0 -0.445,-0.255 -0.445,-0.637 v -1.081 c 0,-0.445 0.127,-0.572 0.827,-0.572 h 3.054 c 0.7,0 1.336,-0.446 1.399,-1.591 0.064,-1.973 0.064,-12.915 0.064,-16.605 v -4.008 c 0,-4.518 -0.064,-10.307 -0.191,-11.962 -0.127,-2.163 -1.145,-3.181 -3.182,-3.817 l -1.271,-0.445 c -0.318,-0.127 -0.382,-0.19 -0.382,-0.317 v -0.509 c 0,-0.191 0.19,-0.318 0.572,-0.445 2.227,-1.019 5.09,-2.164 7.443,-3.69 0.573,-0.382 0.955,-0.51 1.337,-0.51 0.445,0 0.572,0.318 0.509,1.146 -0.063,3.5 -0.255,16.732 -0.255,20.232 v 5.66 z" /><path
     style="fill:#695c57"
     inkscape:connector-curvature="0"
     id="path41"
     d="m 118.249,136.459 c -0.127,0.572 -0.191,1.59 -0.191,3.054 0,6.235 3.945,10.942 9.034,10.942 3.881,0 6.617,-2.226 7.699,-4.325 0.127,-0.255 0.381,-0.382 0.572,-0.318 l 0.827,0.445 c 0.19,0.063 0.317,0.254 0,0.954 -1.146,2.545 -4.453,6.936 -10.116,6.936 -3.626,0 -7.635,-1.082 -9.988,-4.518 -2.227,-3.245 -2.8,-5.599 -2.8,-10.053 0,-2.481 0.637,-6.744 4.009,-10.115 2.735,-2.8 5.916,-3.372 9.098,-3.372 7.316,0 9.353,6.871 9.353,9.353 0,0.89 -0.764,1.018 -1.781,1.018 h -15.716 z m 10.115,-1.909 c 1.209,0 1.718,-0.317 1.718,-0.89 0,-1.464 -0.763,-5.663 -4.898,-5.663 -2.799,0 -5.472,1.845 -6.681,6.553 h 9.861 z" /><path
     style="fill:#695c57"
     inkscape:connector-curvature="0"
     id="path43"
     d="m 160.365,136.459 c 0,-3.245 -0.509,-3.881 -2.29,-4.836 l -1.209,-0.636 c -0.382,-0.127 -0.509,-0.19 -0.509,-0.445 v -0.382 c 0,-0.255 0.127,-0.382 0.509,-0.573 l 6.299,-3.244 c 0.382,-0.19 0.636,-0.254 0.891,-0.254 0.382,0 0.445,0.381 0.445,0.763 l 0.318,4.391 h 0.254 c 1.909,-2.927 4.899,-5.536 7.636,-5.536 2.163,0 3.244,1.337 3.244,2.8 0,1.846 -1.527,3.117 -2.672,3.117 -0.7,0 -1.337,-0.254 -1.846,-0.509 -0.509,-0.317 -1.272,-0.509 -2.099,-0.509 -1.019,0 -2.673,0.637 -3.755,2.673 -0.381,0.699 -0.636,1.845 -0.636,2.035 v 13.36 c 0,1.973 0.445,2.609 1.781,2.609 h 2.99 c 0.382,0 0.445,0.19 0.445,0.572 v 1.146 c 0,0.382 -0.063,0.572 -0.318,0.572 -0.381,0 -3.308,-0.19 -6.743,-0.19 -3.945,0 -6.617,0.19 -6.999,0.19 -0.254,0 -0.381,-0.127 -0.381,-0.637 v -1.081 c 0,-0.445 0.127,-0.572 0.699,-0.572 h 2.481 c 0.954,0 1.399,-0.382 1.399,-1.209 0.063,-2.1 0.063,-4.326 0.063,-7.635 v -5.98 z" /><path
     style="fill:#695c57"
     inkscape:connector-curvature="0"
     id="path45"
     d="m 197.583,145.812 c 0,3.626 0.764,4.771 1.909,4.771 1.018,0 1.908,-0.509 2.227,-0.954 0.255,-0.318 0.382,-0.445 0.637,-0.255 l 0.636,0.509 c 0.19,0.191 0.318,0.51 -0.063,1.146 -0.509,0.954 -1.718,3.118 -4.963,3.118 -2.29,0 -3.944,-1.654 -4.518,-4.264 h -0.127 c -1.336,1.591 -3.436,2.927 -6.299,3.881 -1.209,0.383 -2.354,0.383 -3.753,0.383 -1.527,0 -3.818,-1.273 -3.818,-5.281 0,-2.927 1.337,-5.472 6.362,-7.698 2.863,-1.272 6.172,-2.8 7.19,-3.69 v -4.071 c -0.128,-1.082 -0.191,-2.736 -0.892,-3.563 -0.699,-0.826 -1.972,-1.399 -3.817,-1.399 -1.272,0 -3.244,0.509 -4.135,1.336 -0.891,0.827 -0.318,1.782 -0.318,2.927 0,2.227 -0.764,3.626 -3.372,3.626 -1.019,0 -1.527,-0.571 -1.527,-2.035 0,-2.036 1.782,-4.454 4.391,-5.98 2.672,-1.591 4.898,-2.227 7.762,-2.227 2.99,0 4.199,0.891 5.09,1.717 1.336,1.337 1.399,2.8 1.399,4.518 v 9.734 3.751 z m -4.644,-6.426 c -2.291,1.718 -8.526,2.99 -8.526,8.271 0,2.354 1.399,3.499 3.309,3.499 1.845,0 5.218,-2.227 5.218,-3.944 v -7.826 z" /><path
     style="fill:#695c57"
     inkscape:connector-curvature="0"
     id="path47"
     d="m 207.508,152.301 c -0.318,-0.19 -0.318,-0.572 -0.382,-0.891 l -1.082,-6.044 c -0.063,-0.318 0.128,-0.445 0.382,-0.509 l 0.827,-0.191 c 0.255,-0.063 0.445,0.063 0.572,0.382 l 1.591,3.118 c 1.272,2.354 2.163,3.944 5.535,3.944 2.227,0 5.026,-1.337 5.026,-4.326 0,-2.863 -1.399,-4.518 -6.171,-5.854 -3.754,-1.082 -7.508,-3.054 -7.508,-8.081 0,-4.389 4.136,-7.761 8.907,-7.761 3.054,0 4.708,0.763 5.854,1.335 0.954,0.446 1.081,0.764 1.145,1.146 l 0.955,4.454 c 0,0.255 -0.128,0.445 -0.446,0.572 l -0.763,0.254 c -0.255,0.064 -0.382,0 -0.573,-0.317 l -2.163,-2.927 c -0.764,-1.208 -1.973,-2.481 -4.453,-2.481 -2.418,0 -4.899,1.463 -4.899,4.199 0,3.69 2.991,4.391 6.108,5.281 4.644,1.336 7.57,3.244 7.634,8.144 -0.063,5.153 -4.263,8.398 -9.67,8.398 -3.118,0 -5.663,-1.273 -6.426,-1.845 z" /><path
     style="fill:#695c57"
     inkscape:connector-curvature="0"
     id="path49"
     d="m 233.02,137.985 c 0,3.437 1.526,7.317 3.244,9.671 2.1,2.736 4.772,3.245 6.936,3.245 3.181,0 4.835,-0.7 6.998,-2.735 0.127,-0.128 0.318,-0.191 0.509,0 l 0.637,0.636 c 0.254,0.254 0.318,0.445 0,0.827 -1.845,2.1 -5.917,4.518 -10.243,4.518 -3.372,0 -6.936,-0.764 -9.862,-4.454 -2.354,-3.118 -2.862,-5.789 -2.862,-8.652 0,-7.444 5.217,-14.951 13.615,-14.951 6.616,0 8.652,3.816 8.652,5.153 -0.063,1.463 -1.019,2.227 -2.354,2.227 -1.464,0 -2.546,-0.827 -3.5,-2.545 -1.399,-2.608 -2.735,-2.8 -4.263,-2.8 -3.627,-0.001 -7.507,3.308 -7.507,9.86 z" /><path
     style="fill:#695c57"
     inkscape:connector-curvature="0"
     id="path51"
     d="m 274.182,145.812 c 0,3.626 0.764,4.771 1.909,4.771 1.018,0 1.908,-0.509 2.227,-0.954 0.255,-0.318 0.382,-0.445 0.636,-0.255 l 0.637,0.509 c 0.19,0.191 0.317,0.51 -0.063,1.146 -0.51,0.954 -1.719,3.118 -4.963,3.118 -2.29,0 -3.944,-1.654 -4.518,-4.264 h -0.127 c -1.336,1.591 -3.436,2.927 -6.299,3.881 -1.209,0.383 -2.354,0.383 -3.753,0.383 -1.527,0 -3.818,-1.273 -3.818,-5.281 0,-2.927 1.337,-5.472 6.362,-7.698 2.863,-1.272 6.172,-2.8 7.189,-3.69 v -4.071 c -0.127,-1.082 -0.19,-2.736 -0.891,-3.563 -0.699,-0.826 -1.972,-1.399 -3.817,-1.399 -1.272,0 -3.244,0.509 -4.135,1.336 -0.891,0.827 -0.318,1.782 -0.318,2.927 0,2.227 -0.764,3.626 -3.372,3.626 -1.019,0 -1.527,-0.571 -1.527,-2.035 0,-2.036 1.782,-4.454 4.39,-5.98 2.673,-1.591 4.899,-2.227 7.763,-2.227 2.99,0 4.199,0.891 5.09,1.717 1.336,1.337 1.399,2.8 1.399,4.518 v 9.734 3.751 z m -4.645,-6.426 c -2.29,1.718 -8.525,2.99 -8.525,8.271 0,2.354 1.399,3.499 3.309,3.499 1.845,0 5.217,-2.227 5.217,-3.944 v -7.826 z" /><path
     style="fill:#695c57"
     inkscape:connector-curvature="0"
     id="path53"
     d="m 290.658,134.423 c 0,3.309 0,12.915 0.064,14.888 0.063,1.082 0.318,1.973 1.653,1.973 h 2.863 c 0.572,0 0.7,0.19 0.7,0.572 v 1.081 c 0,0.382 -0.128,0.637 -0.382,0.637 -0.445,0 -3.245,-0.19 -7.189,-0.19 -4.072,0 -6.616,0.19 -7.189,0.19 -0.318,0 -0.445,-0.255 -0.445,-0.637 v -1.081 c 0,-0.445 0.127,-0.572 0.827,-0.572 h 3.054 c 0.7,0 1.337,-0.446 1.399,-1.591 0.063,-1.973 0.063,-12.915 0.063,-16.605 v -4.008 c 0,-4.518 -0.063,-10.307 -0.19,-11.962 -0.127,-2.163 -1.145,-3.181 -3.181,-3.817 l -1.272,-0.445 c -0.318,-0.127 -0.382,-0.19 -0.382,-0.317 v -0.509 c 0,-0.191 0.19,-0.318 0.572,-0.445 2.228,-1.019 5.09,-2.164 7.444,-3.69 0.572,-0.382 0.954,-0.51 1.336,-0.51 0.445,0 0.572,0.318 0.509,1.146 -0.063,3.5 -0.255,16.732 -0.255,20.232 v 5.66 z" /><path
     style="fill:#695c57"
     inkscape:connector-curvature="0"
     id="path55"
     d="m 300.393,152.301 c -0.317,-0.19 -0.317,-0.572 -0.382,-0.891 l -1.081,-6.044 c -0.063,-0.318 0.127,-0.445 0.382,-0.509 l 0.827,-0.191 c 0.254,-0.063 0.445,0.063 0.572,0.382 l 1.591,3.118 c 1.272,2.354 2.163,3.944 5.535,3.944 2.227,0 5.026,-1.337 5.026,-4.326 0,-2.863 -1.4,-4.518 -6.172,-5.854 -3.754,-1.082 -7.507,-3.054 -7.507,-8.081 0,-4.389 4.135,-7.761 8.907,-7.761 3.054,0 4.707,0.763 5.853,1.335 0.954,0.446 1.082,0.764 1.146,1.146 l 0.954,4.454 c 0,0.255 -0.127,0.445 -0.445,0.572 l -0.764,0.254 c -0.254,0.064 -0.382,0 -0.572,-0.317 l -2.163,-2.927 c -0.764,-1.208 -1.973,-2.481 -4.454,-2.481 -2.417,0 -4.898,1.463 -4.898,4.199 0,3.69 2.99,4.391 6.107,5.281 4.645,1.336 7.571,3.244 7.635,8.144 -0.063,5.153 -4.263,8.398 -9.67,8.398 -3.119,0 -5.664,-1.273 -6.427,-1.845 z" /><g
     id="g3224"><path
       style="fill:#695c57"
       d="m 43.559,134.868 c 0,-2.163 -0.382,-3.308 -3.562,-3.817 -0.445,-0.063 -0.573,-0.19 -0.573,-0.445 v -0.572 c 0,-0.191 0.128,-0.318 0.446,-0.446 2.035,-0.763 4.453,-1.781 6.871,-3.117 0.508,-0.254 0.826,-0.381 1.208,-0.381 0.318,0 0.382,0.317 0.318,0.763 -0.127,1.082 -0.127,5.09 -0.127,10.371 v 6.935 c 0,2.481 0,4.771 0.063,5.472 0.127,1.208 0.318,1.654 1.019,1.654 h 2.926 c 0.509,0 0.637,0.19 0.637,0.572 v 1.081 c 0,0.446 -0.128,0.637 -0.572,0.637 -0.51,0 -3.437,-0.19 -6.108,-0.19 -3.69,0 -6.172,0.19 -6.871,0.19 -0.318,0 -0.509,-0.127 -0.509,-0.509 v -1.272 c 0,-0.382 0.19,-0.509 0.636,-0.509 h 3.118 c 0.699,0 0.954,-0.255 1.018,-1.272 0.063,-1.909 0.063,-3.881 0.063,-5.79 v -9.355 z"
       id="path3222"
       inkscape:connector-curvature="0" /><path
       style="fill:#e45a2f"
       inkscape:connector-curvature="0"
       id="path59"
       d="m 46.210087,123.40356 c -1.988,-1.569 -4.297,-3.056 -5.715,-5.225 -0.999,-1.523 -1.54,-4.458 1.066,-4.682 1.506,-0.127 2.48,1.042 3.433,1.994 l 0.585,0.585 c 0.927,-1.237 2.311,-2.71 4.014,-2.651 1.156,0.041 1.888,1.092 1.868,2.145 -0.031,1.856 -1.184,3.288 -2.38,4.597 -0.242,0.268 -2.916,3.203 -2.871,3.237 z" /></g></g>
<g
   id="g3931"><g
     id="g3913"><path
       style="fill:#dfd5c4"
       inkscape:connector-curvature="0"
       id="path111"
       d="m 166.722,73.272995 c -1.314,-0.357 -3.82,0.016 -4.949,0.745 -1.874,1.192 -0.548,3.199 0.026,4.917 -1.549,0.155 -3.311,0.203 -4.779,0.804 0.798,2.171 3.806,2.198 5.658,2.571 2.097,0.42 4.188,0.835 6.28,1.25 l 5.667,-0.453 c 0,0 -1.043,2.991 4.174,3.587 2.287,0.255 10.781,1.958 11.336,-1.794 0.298,-2.017 -5.567,-1.985 -6.408,-1.793 0.367,-0.08 1.83,-2.182 1.969,-2.582 0.475,-1.277 -0.271,-2.863 -1.33,-3.608 -1.49,-1.049 -3.151,-0.219 -4.822,-0.219 -0.001,0.002 -12.8,-3.42 -12.822,-3.425 z" /><path
       style="fill:#dfd5c4"
       inkscape:connector-curvature="0"
       id="path113"
       d="m 171.348,64.320995 c -1.113,1.756 -2.385,3.48 -3.316,5.333 -1.4,2.794 -1.703,5.982 -2.134,9.032 -0.33,2.379 -1.687,7.829 1.379,8.76 2.438,0.74 2.528,-1.783 3.172,-3.438 0.063,-0.128 3.044,0.271 3.134,0.447 0.724,1.544 2.55,4.769 4.652,3.492 3.593,-2.183 2.581,-10.464 2.075,-13.87 -0.127,-0.82 -2.405,-10.847 -2.709,-10.799 l -6.253,1.043 z" /><path
       style="fill:#dfd5c4"
       inkscape:connector-curvature="0"
       id="path115"
       d="m 180.74,76.550995 3.577,4.024 c 2.395,-2.054 5.188,-3.891 7.265,-6.275 4.577,-5.269 0.687,-10.458 -3.252,-14.609 0.373,1.432 0.725,2.89 0.996,4.343 0.372,2.033 0.553,4.029 -0.57,5.759 -1.958,3.034 -4.321,4.88 -7.419,6.61" /><path
       style="fill:#6cb6b3"
       inkscape:connector-curvature="0"
       id="path117"
       d="m 171.348,62.590995 6.951,0.356 2.597,12.055 c 0,0 -14.247,-0.298 -14.27,-0.298 -0.315,-0.01 4.018,-10.804 4.722,-12.113 z" /><path
       style="fill:#dfd5c4"
       inkscape:connector-curvature="0"
       id="path119"
       d="m 161.203,44.032995 c -0.516,-1.405 -7.723,-19.312 -0.873,-17.486 3.529,0.939 4.045,6.562 5.291,9.354 0.638,1.403 1.404,2.744 2.139,4.095 -1.038,-1.945 11.299,-1.743 11.187,-1.479 0,0 1.783,-3.707 1.794,-3.73 1.039,-2.164 2.295,-4.487 4.577,-5.551 1.214,-0.567 2.465,-0.846 3.773,-1.161 0.261,2.26 0.442,4.341 0.395,6.603 -0.086,4.316 -1.22,8.252 -2.486,12.342 -1.702,5.555 -0.394,11.486 -5.747,15.414 -4.471,3.289 -10.085,2.873 -13.477,-1.661 -3.62,-4.845 -4.54,-11.176 -6.573,-16.74 z" /><path
       style="fill:#695c57"
       inkscape:connector-curvature="0"
       id="path121"
       d="m 174.152,47.500995 c 0,1.003 -0.814,1.817 -1.815,1.817 -1.006,0 -1.82,-0.814 -1.82,-1.817 0,-1.001 0.814,-1.821 1.82,-1.821 1.001,0 1.815,0.82 1.815,1.821 z" /><path
       style="fill:#695c57"
       inkscape:connector-curvature="0"
       id="path123"
       d="m 179.08,47.241995 c 0,1.001 -0.813,1.813 -1.814,1.813 -1.012,0 -1.815,-0.812 -1.815,-1.813 0,-1.005 0.804,-1.814 1.815,-1.814 1,-0.001 1.814,0.808 1.814,1.814 z" /><path
       style="fill:#695c57"
       inkscape:connector-curvature="0"
       id="path125"
       d="m 177.005,58.396995 c 0,1.006 -0.814,1.821 -1.814,1.821 -1.006,0 -1.815,-0.814 -1.815,-1.821 0,-1 0.81,-1.814 1.815,-1.814 0.999,0 1.814,0.814 1.814,1.814 z" /><path
       style="fill:#695c57"
       inkscape:connector-curvature="0"
       id="path127"
       d="m 174.796,62.623995 c -0.128,0 -0.271,0 -0.404,-0.016 -0.149,-0.011 -0.25,-0.139 -0.239,-0.282 0.005,-0.139 0.144,-0.25 0.281,-0.234 1.82,0.139 3.29,-0.814 4.37,-2.831 0.068,-0.128 0.224,-0.17 0.352,-0.106 0.121,0.069 0.17,0.224 0.111,0.356 -1.113,2.064 -2.614,3.113 -4.471,3.113 l 0,0 z" /><polygon
       style="fill:#6cb6b3"
       id="polygon129"
       points="204.707,41.645 204.012,40.91 203.223,40.354 201.92,39.486 201.051,40.458 199.742,42.19 199.189,42.983 199.588,43.407 200.067,43.821 200.573,44.132 201.413,44.236 200.194,44.955 199.312,45.852 198.45,46.823 197.598,47.625 196.99,48.252 199.333,48.821 199.439,49.91 199.621,50.655 199.839,51.201 200.488,50.546 201.175,49.801 202.207,48.777 202.894,48.135 203.569,47.422 204.16,46.858 204.634,46.293 204.798,46.025 204.921,45.666 204.921,45.229 205.103,45.218 205.256,45.309 205.263,46.145 205.283,47.704 205.64,49.346 205.879,51.525 206.055,53.074 205.954,53.364 206.715,52.821 207.401,52.292 207.911,51.957 208.822,52.475 209.515,52.787 210.445,53.135 209.956,51.268 209.621,49.346 209.392,48.183 209.115,47.18 209.823,47.129 210.419,46.969 210.723,46.927 210.845,46.025 210.893,45.243 210.781,44.593 210.729,43.885 210.686,43.255 210.648,42.408 209.711,42.384 208.577,42.512 207.769,42.784 206.769,43.172 206.071,43.733 205.746,44.167 205.288,44.016 205.358,43.494 205.336,42.908 205.112,42.185 "
       transform="translate(-21.546,-5.2890049)" /></g><g
     id="g3925"><path
       style="fill:#dfd5c4;fill-rule:evenodd"
       inkscape:connector-curvature="0"
       id="path131"
       d="M 215.702,-4.8698264e-6 C 220.62,2.3889951 217.368,7.2959951 218.443,10.949995 c 2.229,7.555 8.93,11.076 11.863,17.342 15.413,8.324 40.145,7.323 47.468,23.729 3.982,1.192 8.068,2.278 10.948,4.566 -3.545,8.148 -15.913,1.543 -18.255,-2.741 0.085,8.398 10.31,30.438 -1.825,31.034 3.927,-7.494 2.47,-16.669 -4.562,-20.081 -4.14,3.774 2.188,18.011 -7.303,16.43 -2.629,-3.518 2.901,-5.189 2.736,-9.123 -0.437,-8.388 -9.937,-7.707 -10.038,-16.435 -5.312,0.474 -8.968,2.597 -13.688,3.657 -3.188,14.327 3.149,39.799 -10.954,37.42 6.26,-7.52 5.179,-25.344 0.91,-34.685 -5.492,7.898 1.399,28.17 -11.869,28.293 -2.293,-3.428 3.343,-5.413 3.651,-9.127 -0.409,-21.789 -3.868,-40.545 -12.773,-53.85 -4.416,-0.756 -9.176,-1.163 -11.867,-3.651 0.664,-2.789 -1.57,-2.685 -0.91,-5.477 7.228,-3.414 16.982,-4.308 17.338,-14.6009999 1.853,0.58 0.603,4.268 2.737,4.561 1.518,-2.442 3.11,-4.802 3.652,-8.2109999698264 z"
       clip-rule="evenodd" /><path
       style="fill:#695c57"
       inkscape:connector-curvature="0"
       id="path133"
       d="m 206.181,16.088995 c 0,0.907 -0.739,1.644 -1.644,1.644 -0.912,0 -1.65,-0.737 -1.65,-1.644 0,-0.915 0.738,-1.65 1.65,-1.65 0.904,0 1.644,0.735 1.644,1.65 z" /><path
       style="fill:#695c57"
       inkscape:connector-curvature="0"
       id="path135"
       d="m 191.801,19.814995 c 0,0.865 0.771,1.567 1.725,1.567 0.947,0 1.719,-0.703 1.719,-1.567 0,-0.863 -0.771,-1.568 -1.719,-1.568 -0.954,0 -1.725,0.705 -1.725,1.568 z" /><polygon
       style="fill:#e45a2f"
       id="polygon137"
       points="236.269,33.959 234.311,34.25 232.527,34.901 229.669,36.005 230.26,38.504 231.579,42.55 232.234,44.332 233.368,44.162 234.566,43.856 235.646,43.391 236.743,42.161 236.524,44.917 236.987,47.342 237.578,49.83 237.914,52.095 238.238,53.779 241.782,50.647 243.646,51.693 245.062,52.241 246.174,52.507 245.86,50.725 245.423,48.79 244.933,45.969 244.673,44.151 244.279,42.265 244.028,40.692 243.662,39.29 243.406,38.723 242.976,38.127 242.267,37.64 242.464,37.336 242.772,37.188 244.124,38.111 246.663,39.83 249.691,41.099 253.476,43.151 256.147,44.606 256.509,45.093 256.493,43.26 256.403,41.565 256.445,40.367 258.298,39.492 259.569,38.718 261.183,37.6 257.622,36.312 254.151,34.691 252.038,33.752 250.117,33.084 250.819,31.884 251.23,30.748 251.501,30.21 250.192,29.001 248.989,28.054 247.813,27.498 246.62,26.791 245.562,26.154 244.156,25.271 243.071,26.743 242.006,28.706 241.533,30.319 241.038,32.355 241.16,34.116 241.49,35.117 240.729,35.681 239.968,34.989 239.005,34.361 237.583,33.914 "
       transform="translate(-21.546,-5.2890049)" /></g><g
     transform="translate(-21.546,-5.2890049)"
     id="g3164"><path
       style="fill:#dfd5c4"
       inkscape:connector-curvature="0"
       id="path63"
       d="m 109.777,58.425 c -2.247,0.536 -4.492,1.014 -6.77,1.387 -6.009,0.974 -11.794,0 -17.824,-0.165 -5.897,-0.16 -11.81,-0.5 -17.713,-0.415 -11.171,0.17 -26.797,0.127 -30.677,13.641 -0.495,1.729 -0.106,3.523 -0.292,5.285 -0.458,4.476 1.485,8.957 5.897,10.746 1.613,0.654 3.188,1.224 4.354,-0.484 2.619,-3.843 -3.204,-5.498 -5.86,-5.333 1.979,-0.123 5.104,-4.093 6.344,-5.508 l 1.341,-1.336 c 9.952,2.07 19.772,3.593 29.98,3.455 7.876,-0.096 15.492,-0.681 23.29,-1.831 10.042,-1.479 19.655,-4.311 29.378,-7.137 l -8.851,-15.356 c -4.23,0.885 -8.397,2.051 -12.597,3.051 z" /><path
       style="fill:#dfd5c4"
       inkscape:connector-curvature="0"
       id="path65"
       d="m 50.743,74.07 c -0.196,2.731 -0.718,5.456 -0.639,8.202 0.048,1.65 0.82,3.4 1.325,5.024 0.98,3.177 3.917,3.944 6.472,4.082 1.507,0.085 5.551,0.298 5.978,-2.134 0.181,-1.048 -0.847,-3.305 -1.48,-3.959 -1.181,-1.203 -2.869,-0.697 -4.306,-0.75 L 60.6,77.031" /><path
       style="fill:#dfd5c4"
       inkscape:connector-curvature="0"
       id="path67"
       d="m 117.032,73.905 c -0.234,2.288 -0.958,4.561 -1.193,6.844 -0.351,3.375 4.115,1.831 5.194,4.071 0.99,2.05 -1.378,4.284 -3.124,4.923 -4.257,1.549 -7.781,-2.182 -8.116,-6.077 -0.213,-2.401 0.133,-4.854 0.223,-7.255" /><path
       style="fill:#dfd5c4"
       inkscape:connector-curvature="0"
       id="path69"
       d="m 122.375,70.962 c -0.075,4.167 -1.554,12.049 0.666,15.567 0.606,0.963 2.038,2.374 2.89,2.592 2.214,0.564 7.658,0.697 8.787,-2.358 0.522,-1.41 -0.473,-3.949 -1.31,-4.901 -1.362,-1.549 -3.315,-0.975 -5.024,-1.054 l 2.842,-11.081" /><path
       style="fill:#dfd5c4"
       inkscape:connector-curvature="0"
       id="path71"
       d="m 44.9,64.634 c -4.035,-3.145 -6.936,-6.833 -10.522,-10.275 -2.625,-2.517 -5.11,-1.529 -6.254,2.244 -2.415,7.952 7.995,10.123 13.525,11.039" /><path
       style="fill:#dfd5c4"
       inkscape:connector-curvature="0"
       id="path73"
       d="m 126.144,41.759 c 2.873,-1.461 5.907,-1.546 9.127,-0.546 7.562,2.358 10.542,9.921 18.25,12.125 l 4.923,1.402 h 5.274 c 1,5.652 0.106,13.098 -6.046,16.015 -2.821,1.341 -7.951,2.672 -10.969,2.486 -7.111,-0.437 -16.776,-2.406 -22.411,-6.52 -1.581,-1.149 -5.865,-2.517 -6.813,-4.098 -4.061,-6.742 2.453,-17.706 8.665,-20.864 z" /><path
       style="fill:#695c57"
       inkscape:connector-curvature="0"
       id="path75"
       d="m 160.205,54.386 c 0,1.945 1.571,3.523 3.514,3.523 1.948,0 3.518,-1.578 3.518,-3.523 0,-1.94 -1.57,-3.516 -3.518,-3.516 -1.944,0.001 -3.514,1.576 -3.514,3.516 z" /><path
       style="fill:#695c57"
       inkscape:connector-curvature="0"
       id="path77"
       d="m 141.194,53.002 c 0,1.844 -1.5,3.342 -3.343,3.342 -1.847,0 -3.342,-1.498 -3.342,-3.342 0,-1.844 1.495,-3.337 3.342,-3.337 1.843,0 3.343,1.493 3.343,3.337 z" /><path
       style="fill:#695c57"
       inkscape:connector-curvature="0"
       id="path79"
       d="m 158.896,69.541 c -2.326,0 -4.987,-0.288 -6.541,-1.9 -0.975,-1.017 -1.421,-2.47 -1.315,-4.311 0.021,-0.277 0.25,-0.495 0.527,-0.474 0.277,0.016 0.489,0.25 0.474,0.527 -0.091,1.581 0.25,2.746 1.043,3.561 1.123,1.165 3.113,1.66 6.466,1.591 0.277,0.026 0.495,0.207 0.506,0.49 0.005,0.277 -0.213,0.506 -0.49,0.511 -0.218,0 -0.442,0.005 -0.67,0.005 l 0,0 z" /><polygon
       style="fill:#e45a2f"
       id="polygon81"
       points="117.143,81.724 118.149,73.373 107.819,72.527 109.799,82.059 " /><polygon
       style="fill:#e45a2f"
       id="polygon83"
       points="129.167,80.822 130.172,71.475 119.841,70.521 121.821,81.199 " /><path
       style="fill:#6cb6b3"
       inkscape:connector-curvature="0"
       id="path85"
       d="m 113.71,56.006 c 0,0 2.789,3.837 2.789,3.837 l 4.179,3.486 3.842,1.394 8.062,6.297 -10.505,2.757 c -5.333,1.31 -10.712,2.501 -16.011,3.942 -5.861,1.593 -12.445,1.461 -18.487,1.987 l -17.771,0.346 -2.443,-20.906 13.939,0.346 c 0,0 12.51,0.695 12.55,0.697 4.19,0.233 8.271,-0.183 12.237,-1.57 0.647,-0.225 7.389,-2.929 7.619,-2.613 z" /><path
       style="fill:#695c57"
       inkscape:connector-curvature="0"
       id="path87"
       d="m 126.792,38.914 c 0.937,-0.447 2.214,10.006 2.193,10.807 -0.102,4.627 -1.118,9.59 -3.188,13.752 -4.413,8.882 -19.539,9.298 -17.063,-3.23 2.352,-11.868 7.557,-16.273 18.058,-21.329 z" /><polygon
       style="fill:#e45a2f"
       id="polygon89"
       points="74.736,67.316 74.198,66.22 72.979,66.044 73.853,65.182 73.65,63.974 74.736,64.543 75.821,63.974 75.614,65.182 76.492,66.044 75.284,66.22 " /><polygon
       style="fill:#e45a2f"
       id="polygon91"
       points="106.052,69.094 105.504,67.998 104.291,67.817 105.167,66.96 104.961,65.746 106.052,66.321 107.138,65.746 106.93,66.96 107.802,67.817 106.595,67.998 " /><polygon
       style="fill:#e45a2f"
       id="polygon93"
       points="102.698,73.16 102.155,72.059 100.943,71.883 101.815,71.031 101.607,69.818 102.698,70.388 103.784,69.818 103.577,71.031 104.455,71.883 103.241,72.059 " /><polygon
       style="fill:#e45a2f"
       id="polygon95"
       points="90.607,75.044 89.58,74.054 88.18,74.341 88.803,73.059 88.105,71.819 89.517,72.021 90.474,70.967 90.723,72.373 92.022,72.958 90.771,73.634 " /><polygon
       style="fill:#e45a2f"
       id="polygon97"
       points="87.653,65.208 86.291,64.799 85.172,65.688 85.151,64.267 83.954,63.484 85.306,63.016 85.672,61.643 86.536,62.771 87.961,62.708 87.146,63.873 " /><polygon
       style="fill:#e45a2f"
       id="polygon99"
       points="99.953,67.987 99.25,66.566 97.68,66.337 98.813,65.23 98.548,63.666 99.953,64.399 101.364,63.666 101.092,65.23 102.23,66.337 100.66,66.566 " /><polygon
       style="fill:#e45a2f"
       id="polygon101"
       points="75.012,78.487 74.22,76.88 72.453,76.625 73.73,75.379 73.432,73.618 75.012,74.448 76.593,73.618 76.295,75.379 77.573,76.625 75.806,76.88 " /><path
       style="fill:#e45a2f"
       inkscape:connector-curvature="0"
       id="path103"
       d="m 97.77,75.842 -1.682,-1.032 -1.804,0.808 0.463,-1.921 -1.33,-1.464 1.969,-0.16 0.984,-1.708 0.767,1.815 1.926,0.415 -1.495,1.283 0.202,1.964 0,0 z m -1.666,-1.314 1.369,0.831 -0.17,-1.586 1.213,-1.038 -1.565,-0.336 -0.618,-1.469 -0.792,1.383 -1.591,0.128 1.064,1.181 -0.367,1.56 1.457,-0.654 0,0 z" /><path
       style="fill:#e45a2f"
       inkscape:connector-curvature="0"
       id="path105"
       d="m 83.091,71.872 -1.687,-1.027 -1.799,0.803 0.453,-1.921 -1.32,-1.463 1.969,-0.16 0.985,-1.714 0.756,1.826 1.932,0.41 -1.5,1.282 0.211,1.964 0,0 z m -1.671,-1.314 1.362,0.835 -0.165,-1.586 1.214,-1.043 -1.56,-0.33 -0.611,-1.474 -0.804,1.384 -1.591,0.133 1.069,1.182 -0.372,1.554 1.458,-0.655 0,0 z" /><path
       style="fill:#e45a2f"
       inkscape:connector-curvature="0"
       id="path107"
       d="m 126.505,71.872 -1.688,-1.027 -1.798,0.803 0.452,-1.921 -1.319,-1.463 1.969,-0.16 0.979,-1.714 0.761,1.826 1.937,0.41 -1.506,1.282 0.213,1.964 0,0 z m -1.666,-1.314 1.357,0.835 -0.17,-1.586 1.219,-1.043 -1.565,-0.33 -0.617,-1.474 -0.793,1.384 -1.591,0.133 1.07,1.182 -0.374,1.554 1.464,-0.655 0,0 z" /><path
       style="fill:#e45a2f"
       inkscape:connector-curvature="0"
       id="path109"
       d="m 95.109,66.858 -1.676,-1.021 -1.805,0.798 0.452,-1.911 -1.319,-1.468 1.97,-0.16 0.984,-1.708 0.756,1.82 1.932,0.404 -1.5,1.288 0.206,1.958 0,0 z m -1.66,-1.309 1.362,0.835 -0.176,-1.586 1.224,-1.043 -1.57,-0.335 -0.612,-1.469 -0.798,1.389 -1.591,0.122 1.075,1.188 -0.378,1.554 1.464,-0.655 0,0 z" /><polygon
       style="fill:#e45a2f"
       id="polygon139"
       points="69.807,80.053 67.96,80.154 65.187,59.171 67.364,59.147 " /></g></g>
</svg>