<?xml version="1.0" encoding="utf-8"?>
<!-- Generator: Adobe Illustrator 14.0.0, SVG Export Plug-In . SVG Version: 6.00 Build 43363)  -->
<!DOCTYPE svg PUBLIC "-//W3C//DTD SVG 1.1//EN" "http://www.w3.org/Graphics/SVG/1.1/DTD/svg11.dtd">
<svg version="1.1" id="Layer_1" xmlns="http://www.w3.org/2000/svg" xmlns:xlink="http://www.w3.org/1999/xlink" x="0px" y="0px"
	 width="360px" height="360px" viewBox="0 0 360 360" enable-background="new 0 0 360 360" xml:space="preserve">
<g>
	<g>
		<path fill="#695C57" d="M19.946,242.48c0,3.839,0,14.978,0.071,17.266c0.078,1.255,0.372,2.289,1.922,2.289h3.319
			c0.663,0,0.814,0.22,0.814,0.665v1.254c0,0.439-0.151,0.736-0.446,0.736c-0.517,0-3.762-0.219-8.337-0.219
			c-4.721,0-7.675,0.219-8.337,0.219c-0.371,0-0.514-0.297-0.514-0.736V262.7c0-0.517,0.143-0.665,0.959-0.665h3.539
			c0.814,0,1.548-0.521,1.625-1.846c0.074-2.288,0.074-14.979,0.074-19.258v-4.648c0-5.24-0.074-11.951-0.222-13.875
			c-0.149-2.507-1.329-3.686-3.691-4.424l-1.479-0.52c-0.363-0.145-0.438-0.22-0.438-0.366v-0.588c0-0.223,0.223-0.371,0.663-0.52
			c2.58-1.18,5.904-2.509,8.632-4.278c0.662-0.443,1.107-0.592,1.551-0.592c0.517,0,0.666,0.371,0.591,1.328
			c-0.074,4.062-0.297,19.406-0.297,23.467V242.48z"/>
		<path fill="#695C57" d="M58.612,255.245c0,5.538,2.508,6.496,3.836,6.496c1.696,0,3.838-0.295,4.87-0.958
			c0.368-0.223,0.663-0.151,0.885,0.146l0.368,0.664c0.22,0.293,0.075,0.591-0.145,0.809c-0.74,0.739-3.768,2.956-8.195,2.956
			c-3.61,0-7.155-3.472-7.155-6.274c0-3.024,0.223-9.519,0.223-10.553v-1.62c0-1.331,0.072-6.271,0.148-9.374h-4.504
			c-0.663,0-1.105-0.294-1.105-0.886c0-0.586,0.442-0.811,1.328-1.328c1.771-1.03,7.455-6.786,8.412-9.295
			c0.22-0.588,0.588-0.739,1.034-0.739c0.588,0,0.737,0.518,0.737,1.106l-0.372,7.306h10.254c0.448,0,0.671,0.368,0.52,0.662
			l-0.737,2.585c-0.077,0.372-0.223,0.589-0.662,0.589h-9.521c-0.148,3.396-0.22,6.938-0.22,10.331V255.245z"/>
		<path fill="#695C57" d="M82.146,255.245c0,5.538,2.51,6.496,3.836,6.496c1.702,0,3.839-0.295,4.873-0.958
			c0.372-0.223,0.666-0.151,0.889,0.146l0.368,0.664c0.22,0.293,0.072,0.591-0.151,0.809c-0.734,0.739-3.765,2.956-8.189,2.956
			c-3.619,0-7.158-3.472-7.158-6.274c0-3.024,0.223-9.519,0.223-10.553v-1.62c0-1.331,0.074-6.271,0.148-9.374h-4.501
			c-0.666,0-1.108-0.294-1.108-0.886c0-0.586,0.443-0.811,1.329-1.328c1.773-1.03,7.449-6.786,8.415-9.295
			c0.22-0.588,0.588-0.739,1.028-0.739c0.591,0,0.743,0.518,0.743,1.106l-0.372,7.306h10.256c0.443,0,0.664,0.368,0.518,0.662
			l-0.74,2.585c-0.075,0.372-0.22,0.589-0.663,0.589h-9.52c-0.149,3.396-0.223,6.938-0.223,10.331V255.245z"/>
		<path fill="#695C57" d="M105.61,242.48c0,3.839,0,14.978,0.074,17.266c0.071,1.255,0.368,2.289,1.919,2.289h3.319
			c0.662,0,0.811,0.22,0.811,0.665v1.254c0,0.439-0.148,0.736-0.443,0.736c-0.516,0-3.761-0.219-8.337-0.219
			c-4.719,0-7.675,0.219-8.341,0.219c-0.368,0-0.514-0.297-0.514-0.736V262.7c0-0.517,0.146-0.665,0.959-0.665H98.6
			c0.812,0,1.551-0.521,1.623-1.846c0.074-2.288,0.074-14.979,0.074-19.258v-4.648c0-5.24-0.074-11.951-0.223-13.875
			c-0.146-2.507-1.326-3.686-3.688-4.424l-1.477-0.52c-0.368-0.145-0.44-0.22-0.44-0.366v-0.588c0-0.223,0.22-0.371,0.662-0.52
			c2.583-1.18,5.904-2.509,8.635-4.278c0.663-0.443,1.105-0.592,1.551-0.592c0.514,0,0.66,0.371,0.589,1.328
			c-0.075,4.062-0.297,19.406-0.297,23.467V242.48z"/>
		<path fill="#695C57" d="M120.588,244.843c-0.146,0.665-0.222,1.842-0.222,3.539c0,7.234,4.576,12.692,10.479,12.692
			c4.501,0,7.675-2.581,8.926-5.016c0.151-0.297,0.446-0.442,0.666-0.367l0.96,0.514c0.222,0.075,0.365,0.297,0,1.107
			c-1.329,2.954-5.165,8.045-11.734,8.045c-4.205,0-8.852-1.257-11.583-5.239c-2.582-3.765-3.247-6.495-3.247-11.662
			c0-2.877,0.739-7.817,4.65-11.728c3.173-3.251,6.864-3.914,10.548-3.914c8.489,0,10.851,7.973,10.851,10.848
			c0,1.031-0.886,1.181-2.068,1.181H120.588z M132.322,242.627c1.4,0,1.991-0.369,1.991-1.032c0-1.695-0.886-6.563-5.681-6.563
			c-3.245,0-6.347,2.137-7.75,7.596H132.322z"/>
		<path fill="#695C57" d="M169.434,244.843c0-3.766-0.588-4.505-2.656-5.607l-1.399-0.739c-0.448-0.146-0.591-0.221-0.591-0.515
			v-0.445c0-0.294,0.143-0.442,0.591-0.663l7.304-3.761c0.443-0.224,0.734-0.298,1.034-0.298c0.44,0,0.514,0.442,0.514,0.886
			l0.369,5.093h0.297c2.213-3.396,5.682-6.418,8.852-6.418c2.511,0,3.765,1.548,3.765,3.241c0,2.143-1.771,3.619-3.1,3.619
			c-0.811,0-1.551-0.297-2.14-0.591c-0.592-0.369-1.473-0.592-2.437-0.592c-1.179,0-3.099,0.74-4.352,3.103
			c-0.44,0.808-0.74,2.139-0.74,2.355v15.5c0,2.285,0.52,3.024,2.065,3.024h3.471c0.445,0,0.52,0.22,0.52,0.665v1.326
			c0,0.445-0.075,0.664-0.369,0.664c-0.442,0-3.839-0.219-7.826-0.219c-4.573,0-7.675,0.219-8.115,0.219
			c-0.294,0-0.443-0.146-0.443-0.736V262.7c0-0.517,0.148-0.665,0.812-0.665h2.879c1.108,0,1.623-0.442,1.623-1.403
			c0.074-2.434,0.074-5.016,0.074-8.854V244.843z"/>
		<path fill="#695C57" d="M212.598,255.691c0,4.205,0.886,5.529,2.214,5.529c1.181,0,2.213-0.589,2.58-1.103
			c0.3-0.372,0.448-0.521,0.743-0.297l0.732,0.592c0.224,0.219,0.375,0.588-0.071,1.328c-0.591,1.104-1.993,3.616-5.755,3.616
			c-2.656,0-4.576-1.917-5.24-4.944h-0.146c-1.554,1.842-3.985,3.39-7.308,4.499c-1.402,0.445-2.724,0.445-4.352,0.445
			c-1.771,0-4.425-1.48-4.425-6.128c0-3.393,1.548-6.347,7.374-8.929c3.322-1.474,7.156-3.244,8.341-4.279v-4.72
			c-0.148-1.255-0.22-3.174-1.031-4.134c-0.811-0.957-2.288-1.623-4.427-1.623c-1.48,0-3.765,0.592-4.8,1.549
			c-1.032,0.959-0.37,2.067-0.37,3.396c0,2.583-0.88,4.204-3.907,4.204c-1.18,0-1.771-0.661-1.771-2.358
			c0-2.362,2.067-5.167,5.092-6.938c3.101-1.843,5.682-2.583,9.001-2.583c3.467,0,4.87,1.034,5.904,1.991
			c1.546,1.551,1.621,3.247,1.621,5.241v11.29V255.691z M207.212,248.237c-2.657,1.992-9.89,3.466-9.89,9.59
			c0,2.733,1.622,4.059,3.837,4.059c2.143,0,6.053-2.581,6.053-4.573V248.237z"/>
		<path fill="#695C57" d="M224.106,263.217c-0.366-0.222-0.366-0.665-0.442-1.033l-1.254-7.01c-0.075-0.371,0.147-0.517,0.442-0.588
			l0.96-0.223c0.294-0.078,0.516,0.074,0.666,0.439l1.845,3.619c1.476,2.728,2.507,4.573,6.421,4.573
			c2.582,0,5.826-1.549,5.826-5.016c0-3.322-1.622-5.24-7.155-6.793c-4.35-1.254-8.708-3.538-8.708-9.369
			c0-5.089,4.799-9.003,10.331-9.003c3.541,0,5.461,0.886,6.79,1.548c1.102,0.519,1.253,0.889,1.324,1.332l1.111,5.164
			c0,0.297-0.154,0.516-0.516,0.662l-0.886,0.297c-0.298,0.074-0.446,0-0.67-0.368l-2.504-3.396
			c-0.889-1.402-2.292-2.875-5.167-2.875c-2.806,0-5.685,1.695-5.685,4.869c0,4.279,3.471,5.09,7.09,6.124
			c5.38,1.55,8.777,3.762,8.849,9.445c-0.071,5.977-4.941,9.741-11.215,9.741C227.944,265.357,224.998,263.877,224.106,263.217z"/>
		<path fill="#695C57" d="M253.698,246.613c0,3.984,1.768,8.486,3.759,11.214c2.438,3.174,5.541,3.766,8.046,3.766
			c3.688,0,5.606-0.81,8.118-3.171c0.144-0.148,0.368-0.224,0.587,0l0.74,0.736c0.294,0.297,0.366,0.514,0,0.96
			c-2.142,2.434-6.863,5.239-11.879,5.239c-3.913,0-8.046-0.886-11.44-5.168c-2.727-3.62-3.318-6.712-3.318-10.034
			c0-8.635,6.053-17.341,15.79-17.341c7.672,0,10.036,4.428,10.036,5.979c-0.074,1.696-1.183,2.581-2.732,2.581
			c-1.697,0-2.952-0.958-4.057-2.952c-1.622-3.024-3.174-3.244-4.944-3.244C258.199,235.178,253.698,239.014,253.698,246.613z"/>
		<path fill="#695C57" d="M301.436,255.691c0,4.205,0.888,5.529,2.216,5.529c1.18,0,2.211-0.589,2.583-1.103
			c0.29-0.372,0.442-0.521,0.739-0.297l0.733,0.592c0.224,0.219,0.372,0.588-0.073,1.328c-0.589,1.104-1.994,3.616-5.754,3.616
			c-2.659,0-4.575-1.917-5.241-4.944h-0.148c-1.548,1.842-3.981,3.39-7.304,4.499c-1.399,0.445-2.728,0.445-4.353,0.445
			c-1.771,0-4.427-1.48-4.427-6.128c0-3.393,1.547-6.347,7.38-8.929c3.319-1.474,7.155-3.244,8.335-4.279v-4.72
			c-0.146-1.255-0.217-3.174-1.033-4.134c-0.809-0.957-2.288-1.623-4.425-1.623c-1.478,0-3.763,0.592-4.799,1.549
			c-1.031,0.959-0.366,2.067-0.366,3.396c0,2.583-0.886,4.204-3.91,4.204c-1.182,0-1.773-0.661-1.773-2.358
			c0-2.362,2.065-5.167,5.09-6.938c3.102-1.843,5.684-2.583,9.003-2.583c3.469,0,4.869,1.034,5.904,1.991
			c1.55,1.551,1.623,3.247,1.623,5.241v11.29V255.691z M296.047,248.237c-2.652,1.992-9.885,3.466-9.885,9.59
			c0,2.733,1.625,4.059,3.836,4.059c2.14,0,6.049-2.581,6.049-4.573V248.237z"/>
		<path fill="#695C57" d="M320.544,242.48c0,3.839,0,14.978,0.071,17.266c0.077,1.255,0.374,2.289,1.922,2.289h3.322
			c0.662,0,0.811,0.22,0.811,0.665v1.254c0,0.439-0.148,0.736-0.445,0.736c-0.511,0-3.765-0.219-8.338-0.219
			c-4.721,0-7.675,0.219-8.334,0.219c-0.374,0-0.52-0.297-0.52-0.736V262.7c0-0.517,0.146-0.665,0.962-0.665h3.539
			c0.813,0,1.551-0.521,1.625-1.846c0.074-2.288,0.074-14.979,0.074-19.258v-4.648c0-5.24-0.074-11.951-0.226-13.875
			c-0.146-2.507-1.324-3.686-3.685-4.424l-1.479-0.52c-0.365-0.145-0.44-0.22-0.44-0.366v-0.588c0-0.223,0.221-0.371,0.664-0.52
			c2.585-1.18,5.901-2.509,8.632-4.278c0.667-0.443,1.107-0.592,1.55-0.592c0.517,0,0.666,0.371,0.592,1.328
			c-0.075,4.062-0.297,19.406-0.297,23.467V242.48z"/>
		<path fill="#695C57" d="M331.835,263.217c-0.369-0.222-0.369-0.665-0.446-1.033l-1.248-7.01c-0.076-0.371,0.146-0.517,0.438-0.588
			l0.962-0.223c0.295-0.078,0.518,0.074,0.663,0.439l1.848,3.619c1.472,2.728,2.505,4.573,6.418,4.573
			c2.582,0,5.831-1.549,5.831-5.016c0-3.322-1.627-5.24-7.162-6.793c-4.35-1.254-8.703-3.538-8.703-9.369
			c0-5.089,4.793-9.003,10.329-9.003c3.542,0,5.458,0.886,6.786,1.548c1.107,0.519,1.257,0.889,1.331,1.332l1.103,5.164
			c0,0.297-0.143,0.516-0.514,0.662l-0.884,0.297c-0.297,0.074-0.447,0-0.665-0.368l-2.51-3.396
			c-0.886-1.402-2.288-2.875-5.165-2.875c-2.803,0-5.684,1.695-5.684,4.869c0,4.279,3.47,5.09,7.083,6.124
			c5.388,1.55,8.781,3.762,8.857,9.445c-0.076,5.977-4.941,9.741-11.213,9.741C335.671,265.357,332.72,263.877,331.835,263.217z"/>
		<path fill="#695C57" d="M43.925,262.035h-3.391c-0.814,0-1.034-0.521-1.182-1.917c-0.072-0.813-0.072-3.471-0.072-6.347v-8.043
			c0-6.124,0-10.771,0.146-12.028c0.075-0.517,0-0.886-0.371-0.886c-0.44,0-0.812,0.148-1.403,0.442
			c-2.802,1.549-5.604,2.731-7.963,3.616c-0.369,0.146-0.52,0.295-0.52,0.52v0.66c0,0.297,0.151,0.443,0.666,0.515
			c3.687,0.594,4.13,1.922,4.13,4.427v10.852c0,2.213,0,4.498-0.071,6.715c-0.077,1.181-0.372,1.475-1.183,1.475h-3.616
			c-0.514,0-0.74,0.148-0.74,0.592v1.474c0,0.444,0.226,0.59,0.594,0.59c0.812,0,3.688-0.219,7.966-0.219
			c3.099,0,6.495,0.219,7.086,0.219c0.512,0,0.666-0.219,0.666-0.736V262.7C44.667,262.255,44.514,262.035,43.925,262.035z"/>
		<path fill="#E2592F" d="M37.659,226.611c-2.305-1.823-4.981-3.545-6.627-6.058c-1.16-1.77-1.785-5.174,1.24-5.431
			c1.742-0.148,2.87,1.207,3.976,2.311l0.682,0.683c1.071-1.437,2.676-3.145,4.65-3.076c1.346,0.045,2.191,1.266,2.17,2.485
			c-0.037,2.15-1.373,3.815-2.762,5.332C40.708,223.169,37.61,226.571,37.659,226.611z"/>
	</g>
	<g>
		<path fill-rule="evenodd" clip-rule="evenodd" fill="#EDCD48" d="M249.325,74.599c9.831,5.967,21.284,6.37,29.359,2.588
			c4.173-1.957,8.697-5.096,10.697-11.491c1.979-6.332,0.148-11.201-2.068-15.249c-4.146-7.565-13.955-14.385-25.175-15.122
			c-4.957-0.319-9.452,0.285-13.895,2.325c-3.504,1.613-9.459,5.563-10.824,12.461c-1.497,7.568,1.913,13.438,4.433,18.57
			c-1.443,8.017-6.234,11.976-10,15.655C237.971,82.788,244.089,79.337,249.325,74.599z"/>
		<path fill="#FFFFFF" d="M259.802,70.028c-3.079-5.115-6.931-10.309-8.258-16.277c-0.929-4.186,0.311-11.112,6.247-9.43
			c3.427,0.971,4.609,4.362,5.912,7.252l0.807,1.771c3.075-1.954,7.352-4.053,11.048-2.514c2.519,1.055,3.259,3.985,2.345,6.291
			c-1.622,4.061-5.35,6.266-9.066,8.159C268.077,65.667,259.736,69.917,259.802,70.028z"/>
		<g>
			<path fill="#DCD3C1" d="M89.666,181.587c7.82-11.037,6.755-15.19,8.531-24.733c1.332-7.144-4.278-27.274-2.316-40.031
				c-2.854-9.54-14.339-9.369-21.262-4.256c-7.569,5.593-14.716,20.926-19.298,28.789c-4.493,7.72-13.95,11.647-18.319,19.299
				c-2.395,4.202-3.251,10.375-1.52,15.504c-2.908,1.412-5.916,1.532-8.978,0.32c-7.386-2.913-13.901-12.922-15.704-20.517
				c-3.845-16.187,2.462-28.683,20.454-40.52c0.905-0.594,1.156-1.811,0.562-2.719c-0.6-0.905-1.814-1.157-2.719-0.562
				c-13.179,8.671-27.609,21.587-22.12,44.707c1.754,7.386,8.526,19.486,18.086,23.265c1.877,0.74,3.765,1.111,5.639,1.111
				c2.219,0,4.41-0.523,6.529-1.551c1.343,1.934,3.224,3.539,5.761,4.535c6.815,2.691,22.59,0.089,29.991-0.022
				c-4.11,3.279-15.701,16.029-2.714,15.407c5.242-0.249,10.565-10.702,11.346-15.502c3.25,3.776,10.557,17.099,17.514,14.419
				C108.312,195,92.631,183.82,89.666,181.587z"/>
			<path fill="#DCD3C1" d="M47.896,70.602c-0.597,4.108,0.094,10.092,3.768,12.226c3.699,2.148,11.171-6.004,13.087-4.287
				C59.529,73.876,55.493,70.024,47.896,70.602z"/>
			<path fill="#E977AF" d="M57.118,75.79c-1.754-1.133-3.673-1.802-6.292-1.605c-0.348,2.405,0.031,5.855,2.051,7.264
				C53.771,79.395,55.219,77.47,57.118,75.79z"/>
			<path fill="#DCD3C1" d="M114.062,60.751c1.765,3.765,2.848,9.689-0.046,12.793c-2.911,3.136-12.43-2.487-13.77-0.284
				C103.885,67.278,106.626,62.415,114.062,60.751z"/>
			<path fill="#E977AF" d="M112.308,71.968c0.014-0.009,0.028-0.02,0.04-0.031c1.759-1.888,1.1-5.487,0.028-7.772
				c-2.656,0.594-4.325,1.865-5.698,3.547C108.963,68.797,110.888,70.237,112.308,71.968z"/>
			<g>
				<path fill="#DCD3C1" d="M118.86,84.732c-2.008-13.479-18.926-22.13-37.789-19.323c-18.866,2.805-32.534,16.01-30.528,29.489
					c1.051,7.081,6.229,12.825,13.636,16.281c0.374-18.709,14.021-35.881,18.297-36.519c3.854-0.572,21.571,9.986,28.124,29.574
					C116.652,98.78,119.911,91.796,118.86,84.732z"/>
				<path fill="#DCD3C1" d="M82.476,74.661c-4.275,0.637-17.923,17.81-18.297,36.519c6.689,3.119,15.199,4.373,24.156,3.042
					c8.975-1.337,16.772-5.03,22.265-9.986C104.047,84.647,86.33,74.089,82.476,74.661z"/>
			</g>
			<path fill="#E977AF" d="M90.366,103.45c0.251,1.662-1.342,3.279-2.848,3.502c-1.504,0.225-3.499-0.854-3.744-2.522
				c-0.249-1.665,1.1-2.091,2.922-2.359C88.518,101.8,90.121,101.785,90.366,103.45z"/>
			<g>
				<g>
					<path fill="none" stroke="#695C57" d="M81.491,105.704c0,0-30.343-2.635-50.725,0.4"/>
					<path fill="none" stroke="#695C57" d="M81.703,108.766c0,0-30.085,4.733-49.143,12.574"/>
				</g>
				<g>
					<path fill="none" stroke="#695C57" d="M92.919,104.004c0,0,28.263-11.356,48.644-14.39"/>
					<path fill="none" stroke="#695C57" d="M93.611,106.995c0,0,30.156-4.233,50.673-2.28"/>
				</g>
			</g>
			<path fill="#FFFFFF" d="M92.936,154.441c0,9.577-4.167,17.335-9.311,17.335c-5.145,0-9.317-7.758-9.317-17.335
				c0-9.574,4.173-17.338,9.317-17.338C88.769,137.103,92.936,144.867,92.936,154.441z"/>
			<g>
				<path fill="#58595B" d="M243.737,157.057c1.359,0.143,3.051-5.281,3.779-12.128c-1.574,0.098-3.248,0.195-5.026,0.263
					C241.895,151.687,242.424,156.917,243.737,157.057z"/>
				<path fill="#58595B" d="M251.615,157.886c1.371,0.142,3.074-5.34,3.799-12.246c0.029-0.3,0.057-0.6,0.083-0.894
					c-1.517-0.108-3.177-0.08-5.005,0.011c-0.011,0.123-0.027,0.24-0.037,0.36C249.727,152.024,250.248,157.74,251.615,157.886z"/>
				<path fill="#58595B" d="M235.547,159.16c1.37,0.14,3.069-5.338,3.794-12.245c0.06-0.56,0.104-1.111,0.149-1.657
					c-1.58,0.011-3.233-0.023-4.967-0.126c-0.049,0.417-0.097,0.834-0.144,1.26C233.654,153.298,234.178,159.017,235.547,159.16z"/>
				<path fill="#58595B" d="M259.19,161.647c1.374,0.143,3.065-5.339,3.796-12.248c0.18-1.722,0.283-3.376,0.316-4.881
					c-1.699,0.137-3.279,0.263-4.712,0.306c-0.221,1.271-0.415,2.63-0.563,4.056C257.3,155.781,257.822,161.501,259.19,161.647z"/>
			</g>
			<path fill="#DCD3C1" d="M343.855,123.227l-0.062-0.894c-0.077-1.083-0.978-1.889-2.093-1.823c-1.084,0.075-1.9,1.009-1.823,2.094
				l0.063,0.894c0.699,10.023,1.358,19.497-4.616,27.809c-5.336,7.424-13.685,12.865-22.327,14.556
				c-3.346,0.651-7.538,0.675-11.482-0.114c-0.731-5.501-3.134-11.439-8.486-15.19c-10.795-7.561-21.603-6.701-29.727-6.041
				c-0.033,1.505-0.137,3.159-0.316,4.881c-0.73,6.909-2.422,12.391-3.796,12.248c-1.368-0.146-1.891-5.867-1.163-12.768
				c0.148-1.425,0.343-2.785,0.563-4.056c-0.963,0.032-1.863,0.023-2.694-0.052c-0.131-0.014-0.266-0.02-0.399-0.025
				c-0.026,0.294-0.054,0.594-0.083,0.894c-0.725,6.906-2.428,12.388-3.799,12.246c-1.367-0.146-1.889-5.861-1.16-12.768
				c0.01-0.12,0.026-0.237,0.037-0.36c-0.945,0.046-1.938,0.109-2.976,0.171c-0.729,6.847-2.42,12.271-3.779,12.128
				c-1.313-0.14-1.843-5.37-1.247-11.865c-0.972,0.035-1.966,0.06-3,0.066c-0.045,0.545-0.09,1.097-0.149,1.657
				c-0.725,6.907-2.424,12.385-3.794,12.245c-1.369-0.143-1.893-5.861-1.167-12.768c0.047-0.426,0.095-0.842,0.144-1.26
				c-6.752-0.383-14.682-1.782-23.933-5.675c-6.562-2.762-6.834,0.037-12.904,0.037l-0.715,0.356
				c0.918,15.545-13.094,18.178-24.556,18.767c-2.53,0.131-6.109-1.637-8.177-1.637c-4.907,0-5.961,1.714-6.473,4.722
				c-1.545,9.037,26.595,5.615,32.065,6.721c-0.786,1.694-4.271,4.938-8.518,7.261c-1.763,0.965-4.496,0.495-5.884,1.719
				c-2.845,2.5-3.576,6.915-2.576,8.746c3.482,6.364,20.727-1.202,25.19-4.499c7.285-5.378,10.253-13.313,19.268-9.303
				c15.773,7.018,33.439-3.973,40.206,1.574c9.474,7.771-3.333,10.845-11.613,13.073c-2.617,0.702-3.708-2.196-6.195,0.465
				c-10.552,11.288,13.09,7.426,18.154,7.115c14.353-0.883,41.942-6.013,43.739-21.87c0.104-0.917,0.162-1.909,0.165-2.934
				c1.981,0.328,3.973,0.499,5.886,0.499c2.188,0,4.271-0.199,6.096-0.557c9.603-1.876,18.857-7.901,24.765-16.112
				C345.314,144.13,344.571,133.504,343.855,123.227z"/>
			<path fill="#DCD3C1" d="M158.04,110.811c0.124,4.153,1.834,9.929,5.819,11.397c4.013,1.482,9.968-7.832,12.157-6.475
				C170.068,112.037,165.427,108.935,158.04,110.811z"/>
			<path fill="#E977AF" d="M168.02,114.338c-1.919-0.816-3.928-1.146-6.472-0.503c0.072,2.434,1.04,5.764,3.268,6.807
				C165.344,118.466,166.44,116.32,168.02,114.338z"/>
			<path fill="#DCD3C1" d="M221.529,89.729c2.386,3.402,4.474,9.054,2.157,12.61c-2.331,3.593-12.674-0.314-13.619,2.085
				C212.627,97.906,214.495,92.645,221.529,89.729z"/>
			<path fill="#E977AF" d="M221.735,101.08c0.005-0.015,0.023-0.022,0.034-0.041c1.403-2.162,0.138-5.592-1.311-7.657
				c-2.517,1.042-3.938,2.576-5.008,4.47C217.888,98.529,220.036,99.62,221.735,101.08z"/>
			<g>
				<path fill="#DCD3C1" d="M222.527,119.322c-0.369-1.108,3.173-3.312,8.274-5.292c-0.143-0.694-0.32-1.391-0.549-2.077
					c-0.097-0.297-0.212-0.594-0.328-0.886c-5.318,1.489-9.525,1.849-9.895,0.735c-0.351-1.054,2.822-3.1,7.516-4.996
					c-4.742-6.333-13.616-9.892-23.76-9.785c0.93,4.075,1.028,7.069,0.098,7.38c-1.021,0.334-2.964-2.631-4.813-7.075
					c-1.027,0.12-2.066,0.277-3.113,0.476c1.978,6.234,2.582,11.475,1.333,11.893c-1.276,0.425-4.015-4.342-6.177-10.714
					c-0.475,0.14-0.939,0.284-1.408,0.44c-0.472,0.157-0.932,0.323-1.392,0.491c2.077,6.401,2.734,11.854,1.455,12.279
					c-1.246,0.415-3.902-4.148-6.048-10.326c-0.951,0.466-1.879,0.963-2.779,1.479c1.179,4.665,1.396,8.207,0.375,8.546
					c-0.929,0.308-2.643-2.146-4.339-5.97c-8.186,5.985-13.171,14.139-13.182,22.054c4.896-1.285,8.661-1.547,9.012-0.491
					c0.368,1.114-3.213,3.339-8.369,5.33c0.08,0.302,0.166,0.605,0.263,0.908c0.229,0.686,0.505,1.343,0.809,1.988
					c5.272-1.465,9.425-1.816,9.794-0.705c0.336,1.02-2.651,2.976-7.116,4.833c7.198,8.423,22.148,11.371,37.067,6.418
					c14.917-4.956,25.136-16.258,25.866-27.321C226.432,120.125,222.866,120.342,222.527,119.322z"/>
				<path fill="#DCD3C1" d="M197.29,109.694c1.249-0.417,0.645-5.659-1.333-11.893c-1.605,0.304-3.222,0.695-4.844,1.178
					C193.275,105.353,196.014,110.12,197.29,109.694z"/>
				<path fill="#DCD3C1" d="M189.769,112.19c1.279-0.426,0.622-5.878-1.455-12.279c-1.591,0.58-3.121,1.237-4.593,1.954
					C185.866,108.042,188.522,112.605,189.769,112.19z"/>
				<path fill="#DCD3C1" d="M203.884,104.401c0.931-0.312,0.832-3.305-0.098-7.38c-1.545,0.013-3.121,0.116-4.716,0.305
					C200.92,101.771,202.863,104.736,203.884,104.401z"/>
				<path fill="#DCD3C1" d="M181.316,111.891c1.021-0.34,0.805-3.882-0.375-8.546c-1.392,0.803-2.713,1.665-3.964,2.576
					C178.674,109.745,180.387,112.199,181.316,111.891z"/>
				<path fill="#DCD3C1" d="M172.808,127.483c-0.352-1.056-4.117-0.794-9.012,0.491c0,1.634,0.208,3.25,0.643,4.839
					C169.594,130.822,173.175,128.597,172.808,127.483z"/>
				<path fill="#DCD3C1" d="M175.304,135.004c-0.369-1.111-4.522-0.76-9.794,0.705c0.699,1.491,1.605,2.868,2.678,4.127
					C172.653,137.98,175.641,136.023,175.304,135.004z"/>
				<path fill="#DCD3C1" d="M220.03,111.802c0.369,1.114,4.576,0.754,9.895-0.735c-0.6-1.533-1.399-2.956-2.379-4.261
					C222.853,108.703,219.68,110.748,220.03,111.802z"/>
				<path fill="#DCD3C1" d="M222.527,119.322c0.339,1.02,3.904,0.803,8.594-0.389c0.108-1.647,0.007-3.287-0.319-4.904
					C225.7,116.011,222.158,118.214,222.527,119.322z"/>
			</g>
			<path fill="#E977AF" d="M204.458,133.77c0.531,1.597-0.761,3.459-2.205,3.939c-1.448,0.483-3.594-0.242-4.124-1.839
				c-0.531-1.597,0.725-2.248,2.47-2.831C202.347,132.461,203.921,132.17,204.458,133.77z"/>
			<g>
				<g>
					<path fill="none" stroke="#695C57" d="M196.454,136.4c0,0-27.16,2.779-44.758,8.617"/>
					<path fill="none" stroke="#695C57" d="M197.052,138.899c0,0-25.93,8.835-41.705,18.44"/>
				</g>
				<g>
					<path fill="none" stroke="#695C57" d="M206.318,133.124c0,0,23.426-14.021,41.021-19.862"/>
					<path fill="none" stroke="#695C57" d="M207.328,135.489c0,0,26.072-8.435,44.456-10.171"/>
				</g>
			</g>
			<g>
				<path fill="none" stroke="#231E20" d="M194.503,128.988c0,0-4.156-3.973-7.854-3.079c-3.693,0.889-5.152,5.156-5.152,5.156"/>
				<path fill="none" stroke="#231E20" d="M217.68,123.396c0,0-4.162-3.97-7.854-3.082c-3.691,0.892-5.156,5.156-5.156,5.156"/>
			</g>
			<g>
				<path fill="none" stroke="#231E20" d="M80.577,93.838c0,0-3.393-4.642-7.189-4.415c-3.793,0.225-5.979,4.164-5.979,4.164"/>
				<path fill="none" stroke="#231E20" d="M104.379,92.425c0,0-3.396-4.647-7.189-4.421c-3.793,0.229-5.984,4.167-5.984,4.167"/>
			</g>
			<polygon fill="#6CB4B0" points="343.717,132.365 342.874,132.085 343.003,131.127 342.962,130.051 342.555,128.722 
				341.809,127.731 340.531,126.383 339.084,125.367 336.693,123.773 335.099,125.555 332.699,128.734 331.683,130.191 
				332.414,130.968 333.295,131.73 334.22,132.295 335.765,132.49 333.524,133.81 331.906,135.452 330.323,137.237 328.761,138.708 
				327.646,139.859 331.945,140.904 332.141,142.901 332.478,144.269 332.874,145.272 334.064,144.066 335.325,142.701 
				337.219,140.822 338.479,139.645 339.718,138.337 340.805,137.3 341.675,136.264 341.975,135.772 342.203,135.112 
				342.203,134.31 342.534,134.289 342.814,134.458 342.828,135.992 342.865,138.854 343.52,141.864 343.96,145.867 
				344.282,148.708 344.097,149.239 345.494,148.243 346.753,147.271 347.689,146.657 349.361,147.609 350.633,148.18 
				352.337,148.823 351.44,145.392 350.825,141.864 350.405,139.733 349.9,137.892 351.2,137.8 352.292,137.503 352.85,137.429 
				353.074,135.772 353.16,134.335 352.956,133.144 352.86,131.841 352.782,130.688 352.714,129.134 350.992,129.091 
				348.91,129.323 347.425,129.825 345.593,130.536 344.312,131.567 			"/>
			<polygon fill="#E2592F" points="84.602,122.21 83.459,122.319 83.105,121.122 82.502,119.865 81.306,118.508 79.915,117.729 
				77.701,116.803 75.438,116.355 71.783,115.706 70.826,118.669 69.652,123.695 69.212,125.952 70.495,126.492 71.931,126.926 
				73.342,127.12 75.253,126.535 73.297,129.26 72.254,132.064 71.303,135.018 70.232,137.577 69.51,139.528 75.15,138.505 
				76.43,140.759 77.553,142.219 78.541,143.192 79.335,141.148 80.097,138.862 81.36,135.63 82.231,133.582 83.008,131.374 
				83.733,129.588 84.236,127.903 84.327,127.155 84.253,126.267 83.825,125.315 84.222,125.124 84.633,125.161 85.456,126.969 
				87.009,130.348 89.355,133.567 91.991,138.074 93.848,141.262 93.919,141.996 95.053,140.083 96.024,138.265 96.821,137.049 
				99.292,137.309 101.097,137.3 103.474,137.151 100.586,133.582 98.003,129.722 96.404,127.42 94.833,125.518 96.312,124.715 
				97.452,123.795 98.072,123.407 97.472,121.333 96.821,119.591 95.95,118.277 95.156,116.795 94.456,115.466 93.553,113.67 
				91.505,114.515 89.166,115.884 87.661,117.261 85.87,119.057 84.89,120.965 			"/>
		</g>
	</g>
</g>
<g>
	<path fill="#6AB4B0" d="M107.971,289.144l-2.219,1.381c-1.917-2.547-4.533-3.819-7.849-3.819c-2.649,0-4.849,0.853-6.6,2.556
		c-1.75,1.703-2.626,3.774-2.626,6.211c0,1.584,0.403,3.076,1.208,4.475c0.805,1.396,1.911,2.482,3.314,3.255
		c1.406,0.772,2.98,1.158,4.723,1.158c3.197,0,5.806-1.272,7.83-3.819l2.219,1.46c-1.04,1.564-2.437,2.78-4.189,3.643
		c-1.752,0.865-3.749,1.297-5.988,1.297c-3.439,0-6.291-1.094-8.558-3.279c-2.266-2.187-3.399-4.846-3.399-7.979
		c0-2.107,0.53-4.061,1.59-5.868c1.06-1.806,2.516-3.217,4.369-4.229c1.852-1.013,3.926-1.52,6.218-1.52
		c1.44,0,2.829,0.22,4.169,0.659c1.339,0.44,2.476,1.013,3.408,1.72C106.524,287.151,107.318,288.052,107.971,289.144z"/>
	<path fill="#6AB4B0" d="M135.022,284.625v21.753h-2.759v-3.737c-1.172,1.426-2.489,2.498-3.948,3.218
		c-1.459,0.721-3.057,1.081-4.789,1.081c-3.079,0-5.708-1.118-7.887-3.35c-2.18-2.232-3.27-4.948-3.27-8.148
		c0-3.131,1.1-5.81,3.299-8.037c2.199-2.226,4.846-3.339,7.937-3.339c1.787,0,3.402,0.38,4.849,1.14
		c1.447,0.76,2.717,1.898,3.809,3.419v-3.999H135.022z M123.836,286.765c-1.558,0-2.997,0.383-4.314,1.148
		c-1.318,0.765-2.366,1.841-3.145,3.226c-0.778,1.385-1.168,2.849-1.168,4.393c0,1.531,0.393,2.997,1.178,4.396
		c0.786,1.397,1.841,2.485,3.165,3.266c1.325,0.777,2.746,1.167,4.264,1.167c1.531,0,2.982-0.386,4.354-1.158
		c1.371-0.772,2.425-1.817,3.165-3.135c0.738-1.318,1.108-2.804,1.108-4.455c0-2.517-0.829-4.619-2.486-6.311
		C128.299,287.609,126.259,286.765,123.836,286.765z"/>
	<path fill="#6AB4B0" d="M143.76,276.548h2.798v8.077h4.439v2.419h-4.439v19.334h-2.798v-19.334h-3.819v-2.419h3.819V276.548z"/>
	<path fill="#6AB4B0" d="M177.47,287.005l-1.799,1.859c-1.497-1.452-2.961-2.181-4.39-2.181c-0.909,0-1.688,0.301-2.335,0.901
		c-0.648,0.6-0.973,1.299-0.973,2.099c0,0.707,0.268,1.38,0.801,2.019c0.534,0.653,1.657,1.421,3.366,2.301
		c2.083,1.079,3.5,2.118,4.248,3.119c0.735,1.013,1.103,2.15,1.103,3.418c0,1.786-0.627,3.299-1.882,4.539
		c-1.255,1.239-2.823,1.86-4.706,1.86c-1.255,0-2.453-0.273-3.595-0.821c-1.141-0.546-2.086-1.299-2.833-2.259l1.76-1.999
		c1.429,1.612,2.946,2.419,4.548,2.419c1.123,0,2.078-0.359,2.866-1.079c0.789-0.72,1.183-1.567,1.183-2.54
		c0-0.8-0.26-1.512-0.782-2.139c-0.521-0.614-1.696-1.388-3.526-2.32c-1.964-1.012-3.3-2.012-4.007-2.998
		c-0.708-0.986-1.063-2.112-1.063-3.38c0-1.652,0.564-3.026,1.692-4.119c1.129-1.092,2.554-1.639,4.276-1.639
		C173.424,284.065,175.44,285.045,177.47,287.005z"/>
	<path fill="#6AB4B0" d="M183.398,275.667c0.638,0,1.182,0.229,1.632,0.681c0.451,0.452,0.677,1,0.677,1.64
		c0,0.627-0.226,1.166-0.677,1.619c-0.45,0.453-0.994,0.681-1.632,0.681c-0.625,0-1.161-0.228-1.612-0.681s-0.677-0.992-0.677-1.619
		c0-0.64,0.226-1.188,0.677-1.64S182.773,275.667,183.398,275.667z M182.008,284.625h2.801v21.753h-2.801V284.625z"/>
	<path fill="#6AB4B0" d="M193.065,276.548h2.799v8.077h4.438v2.419h-4.438v19.334h-2.799v-19.334h-3.819v-2.419h3.819V276.548z"/>
	<path fill="#6AB4B0" d="M206.941,276.548h2.799v8.077h4.44v2.419h-4.44v19.334h-2.799v-19.334h-3.818v-2.419h3.818V276.548z"/>
	<path fill="#6AB4B0" d="M219.348,275.667c0.637,0,1.181,0.229,1.633,0.681c0.451,0.452,0.676,1,0.676,1.64
		c0,0.627-0.225,1.166-0.676,1.619c-0.452,0.453-0.996,0.681-1.633,0.681c-0.624,0-1.16-0.228-1.612-0.681
		c-0.451-0.453-0.678-0.992-0.678-1.619c0-0.64,0.227-1.188,0.678-1.64C218.188,275.896,218.724,275.667,219.348,275.667z
		 M217.958,284.625h2.799v21.753h-2.799V284.625z"/>
	<path fill="#6AB4B0" d="M226.575,284.625h2.8v3.899c1.119-1.492,2.358-2.61,3.719-3.35c1.359-0.738,2.84-1.109,4.438-1.109
		c1.627,0,3.069,0.413,4.328,1.24c1.261,0.826,2.19,1.939,2.79,3.339c0.601,1.398,0.899,3.579,0.899,6.538v11.195h-2.8v-10.376
		c0-2.506-0.104-4.18-0.311-5.019c-0.324-1.438-0.946-2.522-1.866-3.249c-0.921-0.728-2.12-1.089-3.6-1.089
		c-1.692,0-3.211,0.56-4.551,1.679c-1.339,1.119-2.222,2.507-2.648,4.159c-0.267,1.079-0.399,3.053-0.399,5.918v7.977h-2.8V284.625z
		"/>
	<path fill="#6AB4B0" d="M270.303,284.625h2.799v17.336c0,3.051-0.267,5.285-0.8,6.697c-0.732,1.999-2.006,3.538-3.819,4.618
		c-1.812,1.08-3.991,1.62-6.537,1.62c-1.866,0-3.542-0.264-5.028-0.793c-1.487-0.526-2.696-1.236-3.63-2.125
		c-0.932-0.89-1.792-2.188-2.579-3.901h3.04c0.826,1.44,1.895,2.508,3.203,3.2c1.307,0.692,2.93,1.039,4.864,1.039
		c1.907,0,3.519-0.354,4.834-1.065c1.314-0.711,2.253-1.604,2.812-2.68c0.562-1.076,0.842-2.813,0.842-5.211v-1.121
		c-1.055,1.333-2.342,2.357-3.863,3.069c-1.521,0.713-3.135,1.069-4.844,1.069c-2.001,0-3.882-0.496-5.643-1.489
		c-1.763-0.992-3.123-2.329-4.083-4.008c-0.962-1.68-1.441-3.526-1.441-5.539c0-2.012,0.5-3.888,1.501-5.628
		c1.001-1.739,2.385-3.117,4.153-4.129c1.768-1.013,3.633-1.52,5.594-1.52c1.628,0,3.145,0.337,4.552,1.01
		c1.409,0.673,2.766,1.782,4.074,3.329V284.625z M262.046,286.765c-1.587,0-3.061,0.383-4.419,1.149
		c-1.36,0.768-2.427,1.826-3.199,3.18c-0.772,1.352-1.16,2.815-1.16,4.389c0,2.386,0.8,4.358,2.4,5.917
		c1.598,1.561,3.67,2.34,6.217,2.34c2.573,0,4.643-0.772,6.208-2.318c1.567-1.547,2.349-3.579,2.349-6.099
		c0-1.64-0.358-3.102-1.078-4.39c-0.72-1.286-1.74-2.302-3.06-3.048C264.984,287.138,263.565,286.765,262.046,286.765z"/>
</g>
</svg>
