<?xml version="1.0" encoding="utf-8"?>
<!-- Generator: Adobe Illustrator 14.0.0, SVG Export Plug-In . SVG Version: 6.00 Build 43363)  -->
<!DOCTYPE svg PUBLIC "-//W3C//DTD SVG 1.1//EN" "http://www.w3.org/Graphics/SVG/1.1/DTD/svg11.dtd">
<svg version="1.1" id="Layer_1" xmlns="http://www.w3.org/2000/svg" xmlns:xlink="http://www.w3.org/1999/xlink" x="0px" y="0px"
	 width="144px" height="252px" viewBox="0 0 144 252" enable-background="new 0 0 144 252" xml:space="preserve">
<g>
	<rect fill="#6CB4B0" width="144" height="252"/>
	<g>
		<path fill-rule="evenodd" clip-rule="evenodd" fill="#EDCD48" d="M51.189,117.956c17.466,10.603,37.81,11.312,52.151,4.597
			c7.414-3.473,15.451-9.051,19.003-20.412c3.517-11.247,0.264-19.901-3.675-27.088c-7.359-13.438-24.789-25.549-44.722-26.86
			c-8.801-0.569-16.784,0.501-24.674,4.131c-6.229,2.861-16.806,9.876-19.23,22.132c-2.659,13.443,3.4,23.87,7.875,32.988
			c-2.562,14.245-11.078,21.272-17.765,27.808C31.02,132.502,41.888,126.371,51.189,117.956z"/>
		<path fill="#FFFFFF" d="M69.797,109.835c-5.465-9.086-12.307-18.312-14.666-28.911c-1.649-7.435,0.552-19.737,11.096-16.751
			c6.089,1.726,8.189,7.749,10.506,12.887l1.43,3.142c5.465-3.47,13.06-7.199,19.623-4.464c4.475,1.873,5.789,7.079,4.165,11.172
			c-2.879,7.215-9.504,11.131-16.104,14.496C84.495,102.09,69.682,109.641,69.797,109.835z"/>
	</g>
</g>
</svg>
