<?xml version="1.0" encoding="utf-8"?>
<!-- Generator: Adobe Illustrator 14.0.0, SVG Export Plug-In . SVG Version: 6.00 Build 43363)  -->
<!DOCTYPE svg PUBLIC "-//W3C//DTD SVG 1.1//EN" "http://www.w3.org/Graphics/SVG/1.1/DTD/svg11.dtd">
<svg version="1.1" id="Layer_1" xmlns="http://www.w3.org/2000/svg" xmlns:xlink="http://www.w3.org/1999/xlink" x="0px" y="0px"
	 width="144px" height="252px" viewBox="0 0 144 252" enable-background="new 0 0 144 252" xml:space="preserve">
<rect y="-0.021" fill="#FFFFFF" width="144" height="252"/>
<g>
	<g>
		<path fill="#6BB5B1" d="M33.401,93.697h0.843V94.9c0.333-0.457,0.715-0.8,1.148-1.028c0.432-0.229,0.915-0.344,1.448-0.344
			c0.929,0,1.726,0.335,2.386,1.005c0.661,0.67,0.991,1.477,0.991,2.419c0,0.963-0.326,1.779-0.981,2.451
			c-0.655,0.673-1.446,1.008-2.372,1.008c-0.52,0-0.999-0.107-1.437-0.324c-0.437-0.217-0.831-0.539-1.184-0.969v3.52h-0.843V93.697
			z M36.771,94.341c-0.728,0-1.342,0.254-1.839,0.764c-0.499,0.509-0.749,1.142-0.749,1.898c0,0.498,0.112,0.944,0.334,1.341
			c0.223,0.396,0.541,0.711,0.955,0.944c0.414,0.231,0.852,0.348,1.312,0.348c0.452,0,0.878-0.117,1.276-0.352
			c0.397-0.234,0.715-0.562,0.951-0.982c0.235-0.421,0.354-0.861,0.354-1.322c0-0.465-0.116-0.906-0.352-1.322
			c-0.233-0.416-0.549-0.74-0.945-0.971C37.672,94.456,37.239,94.341,36.771,94.341z"/>
		<path fill="#6BB5B1" d="M48.046,98.071l0.71,0.373c-0.232,0.457-0.502,0.826-0.807,1.107c-0.305,0.28-0.648,0.494-1.03,0.641
			s-0.812,0.219-1.295,0.219c-1.067,0-1.903-0.35-2.505-1.049c-0.604-0.7-0.903-1.491-0.903-2.374c0-0.831,0.254-1.571,0.765-2.22
			c0.646-0.827,1.512-1.24,2.596-1.24c1.116,0,2.007,0.424,2.674,1.27c0.473,0.598,0.714,1.344,0.723,2.238h-5.891
			c0.017,0.761,0.259,1.385,0.729,1.871c0.47,0.485,1.051,0.729,1.741,0.729c0.333,0,0.658-0.058,0.973-0.174
			c0.315-0.115,0.583-0.27,0.805-0.461C47.55,98.809,47.789,98.499,48.046,98.071z M48.046,96.309
			c-0.112-0.449-0.276-0.809-0.491-1.077c-0.214-0.27-0.499-0.485-0.853-0.649c-0.353-0.165-0.725-0.247-1.114-0.247
			c-0.644,0-1.194,0.206-1.656,0.619c-0.338,0.301-0.593,0.753-0.766,1.354H48.046z"/>
		<path fill="#6BB5B1" d="M52.017,91.266h0.843v2.432h1.336v0.728h-1.336v5.818h-0.843v-5.818h-1.148v-0.728h1.148V91.266z"/>
		<path fill="#6BB5B1" d="M63.64,94.413l-0.542,0.56c-0.45-0.438-0.89-0.655-1.32-0.655c-0.273,0-0.509,0.09-0.703,0.27
			c-0.194,0.182-0.293,0.392-0.293,0.633c0,0.213,0.081,0.415,0.241,0.607c0.161,0.196,0.499,0.427,1.013,0.691
			c0.629,0.326,1.055,0.639,1.279,0.939c0.221,0.305,0.332,0.647,0.332,1.029c0,0.537-0.189,0.992-0.567,1.365
			s-0.85,0.559-1.416,0.559c-0.378,0-0.737-0.081-1.081-0.246c-0.344-0.164-0.628-0.391-0.853-0.68l0.528-0.602
			c0.432,0.486,0.888,0.728,1.37,0.728c0.337,0,0.624-0.107,0.862-0.325c0.236-0.216,0.354-0.471,0.354-0.764
			c0-0.24-0.077-0.455-0.234-0.643c-0.156-0.186-0.511-0.418-1.061-0.699c-0.591-0.305-0.993-0.605-1.206-0.902
			s-0.32-0.637-0.32-1.018c0-0.496,0.17-0.91,0.51-1.238c0.34-0.33,0.769-0.494,1.287-0.494
			C62.423,93.528,63.029,93.823,63.64,94.413z"/>
		<path fill="#6BB5B1" d="M71.383,98.071l0.71,0.373c-0.232,0.457-0.502,0.826-0.808,1.107c-0.305,0.28-0.647,0.494-1.028,0.641
			c-0.382,0.146-0.812,0.219-1.296,0.219c-1.067,0-1.903-0.35-2.504-1.049c-0.604-0.7-0.904-1.491-0.904-2.374
			c0-0.831,0.255-1.571,0.765-2.22c0.646-0.827,1.512-1.24,2.596-1.24c1.116,0,2.008,0.424,2.673,1.27
			c0.475,0.598,0.716,1.344,0.724,2.238h-5.891c0.017,0.761,0.26,1.385,0.729,1.871c0.471,0.485,1.051,0.729,1.741,0.729
			c0.334,0,0.658-0.058,0.973-0.174c0.316-0.115,0.584-0.27,0.805-0.461C70.888,98.809,71.126,98.499,71.383,98.071z M71.383,96.309
			c-0.112-0.449-0.275-0.809-0.49-1.077c-0.216-0.27-0.499-0.485-0.853-0.649c-0.354-0.165-0.726-0.247-1.115-0.247
			c-0.643,0-1.194,0.206-1.656,0.619c-0.338,0.301-0.592,0.753-0.766,1.354H71.383z"/>
		<path fill="#6BB5B1" d="M74.301,93.697h0.86v0.956c0.257-0.377,0.527-0.658,0.812-0.845s0.582-0.28,0.891-0.28
			c0.232,0,0.481,0.074,0.745,0.223l-0.438,0.711c-0.177-0.077-0.325-0.115-0.444-0.115c-0.281,0-0.552,0.115-0.813,0.346
			c-0.261,0.231-0.459,0.589-0.596,1.074c-0.104,0.373-0.156,1.128-0.156,2.263v2.214h-0.86V93.697z"/>
		<path fill="#6BB5B1" d="M78.446,93.697h0.896l2.197,4.772l2.171-4.772h0.901l-2.995,6.546h-0.156L78.446,93.697z"/>
		<path fill="#6BB5B1" d="M86.926,91.001c0.191,0,0.355,0.068,0.492,0.205c0.136,0.137,0.203,0.301,0.203,0.494
			c0,0.188-0.067,0.351-0.203,0.486c-0.137,0.137-0.301,0.205-0.492,0.205c-0.188,0-0.349-0.068-0.484-0.205
			c-0.137-0.136-0.204-0.299-0.204-0.486c0-0.193,0.067-0.357,0.204-0.494C86.577,91.069,86.738,91.001,86.926,91.001z
			 M86.508,93.697h0.843v6.546h-0.843V93.697z"/>
		<path fill="#6BB5B1" d="M96.195,95.057l-0.668,0.415c-0.577-0.766-1.365-1.148-2.363-1.148c-0.796,0-1.459,0.256-1.985,0.77
			c-0.527,0.512-0.79,1.135-0.79,1.868c0,0.478,0.121,0.927,0.362,1.347c0.243,0.421,0.576,0.747,0.998,0.98
			c0.423,0.231,0.896,0.348,1.422,0.348c0.961,0,1.746-0.383,2.356-1.148l0.668,0.438c-0.313,0.472-0.733,0.837-1.262,1.097
			c-0.527,0.26-1.128,0.389-1.802,0.389c-1.035,0-1.894-0.328-2.574-0.986c-0.683-0.658-1.024-1.457-1.024-2.4
			c0-0.634,0.16-1.223,0.479-1.766c0.318-0.544,0.756-0.968,1.314-1.273c0.558-0.304,1.182-0.457,1.871-0.457
			c0.434,0,0.852,0.066,1.255,0.199c0.402,0.132,0.745,0.305,1.025,0.518C95.76,94.457,95.998,94.729,96.195,95.057z"/>
		<path fill="#6BB5B1" d="M104.063,98.071l0.71,0.373c-0.232,0.457-0.5,0.826-0.807,1.107c-0.306,0.28-0.648,0.494-1.029,0.641
			c-0.382,0.146-0.814,0.219-1.295,0.219c-1.068,0-1.903-0.35-2.506-1.049c-0.602-0.7-0.903-1.491-0.903-2.374
			c0-0.831,0.256-1.571,0.765-2.22c0.646-0.827,1.512-1.24,2.596-1.24c1.116,0,2.009,0.424,2.675,1.27
			c0.474,0.598,0.715,1.344,0.722,2.238h-5.89c0.016,0.761,0.259,1.385,0.729,1.871c0.47,0.485,1.05,0.729,1.741,0.729
			c0.333,0,0.657-0.058,0.973-0.174c0.315-0.115,0.583-0.27,0.804-0.461C103.567,98.809,103.808,98.499,104.063,98.071z
			 M104.063,96.309c-0.112-0.449-0.276-0.809-0.491-1.077c-0.215-0.27-0.499-0.485-0.853-0.649
			c-0.353-0.165-0.724-0.247-1.113-0.247c-0.643,0-1.195,0.206-1.657,0.619c-0.337,0.301-0.593,0.753-0.765,1.354H104.063z"/>
		<path fill="#6BB5B1" d="M110.592,94.413l-0.541,0.56c-0.451-0.438-0.892-0.655-1.321-0.655c-0.273,0-0.508,0.09-0.703,0.27
			c-0.194,0.182-0.293,0.392-0.293,0.633c0,0.213,0.08,0.415,0.241,0.607c0.161,0.196,0.499,0.427,1.013,0.691
			c0.627,0.326,1.054,0.639,1.279,0.939c0.221,0.305,0.331,0.647,0.331,1.029c0,0.537-0.189,0.992-0.565,1.365
			c-0.379,0.373-0.852,0.559-1.417,0.559c-0.378,0-0.738-0.081-1.081-0.246c-0.344-0.164-0.628-0.391-0.854-0.68l0.529-0.602
			c0.431,0.486,0.887,0.728,1.369,0.728c0.338,0,0.625-0.107,0.863-0.325c0.236-0.216,0.355-0.471,0.355-0.764
			c0-0.24-0.079-0.455-0.234-0.643c-0.158-0.186-0.511-0.418-1.062-0.699c-0.591-0.305-0.993-0.605-1.206-0.902
			s-0.319-0.637-0.319-1.018c0-0.496,0.17-0.91,0.509-1.238c0.341-0.33,0.769-0.494,1.287-0.494
			C109.374,93.528,109.98,93.823,110.592,94.413z"/>
	</g>
	<g>
		<g>
			<path fill="#6A5D57" d="M18.069,80.042c0,1.298,0,5.064,0.025,5.838c0.024,0.424,0.124,0.773,0.647,0.773h1.123
				c0.225,0,0.274,0.074,0.274,0.225v0.424c0,0.149-0.05,0.25-0.149,0.25c-0.175,0-1.272-0.075-2.819-0.075
				c-1.596,0-2.594,0.075-2.818,0.075c-0.125,0-0.175-0.101-0.175-0.25v-0.424c0-0.175,0.05-0.225,0.324-0.225h1.197
				c0.274,0,0.523-0.176,0.549-0.623c0.025-0.773,0.025-5.064,0.025-6.512v-1.571c0-1.771-0.025-4.041-0.075-4.69
				c-0.05-0.848-0.449-1.247-1.247-1.497l-0.499-0.175c-0.125-0.05-0.149-0.075-0.149-0.125v-0.2c0-0.075,0.074-0.125,0.224-0.174
				c0.874-0.399,1.996-0.848,2.919-1.447c0.225-0.15,0.374-0.2,0.524-0.2c0.174,0,0.225,0.125,0.199,0.449
				c-0.025,1.372-0.1,6.561-0.1,7.934V80.042z"/>
			<path fill="#6A5D57" d="M22.809,80.218c0-0.849-0.15-1.297-1.396-1.497c-0.175-0.024-0.225-0.075-0.225-0.175v-0.225
				c0-0.074,0.05-0.125,0.175-0.176c0.798-0.299,1.746-0.697,2.693-1.221c0.199-0.1,0.324-0.15,0.474-0.15
				c0.125,0,0.15,0.125,0.125,0.3c-0.049,0.425-0.049,1.995-0.049,4.066v2.719c0,0.974,0,1.871,0.024,2.146
				c0.05,0.473,0.125,0.648,0.399,0.648h1.147c0.199,0,0.249,0.074,0.249,0.225v0.424c0,0.175-0.05,0.25-0.225,0.25
				c-0.199,0-1.348-0.075-2.395-0.075c-1.447,0-2.42,0.075-2.694,0.075c-0.125,0-0.199-0.051-0.199-0.199v-0.5
				c0-0.149,0.074-0.199,0.249-0.199h1.223c0.273,0,0.374-0.1,0.399-0.499c0.024-0.748,0.024-1.521,0.024-2.271V80.218z
				 M21.687,72.609c0-0.624,0.523-1.297,1.521-1.297c0.873,0,1.297,0.673,1.297,1.222c0,0.649-0.449,1.373-1.447,1.373
				C22.509,73.906,21.687,73.407,21.687,72.609z"/>
			<path fill="#6A5D57" d="M31.141,84.358c0,1.871,0.849,2.195,1.298,2.195c0.573,0,1.297-0.1,1.646-0.324
				c0.125-0.075,0.225-0.051,0.299,0.05l0.126,0.224c0.074,0.1,0.024,0.2-0.05,0.275c-0.25,0.249-1.272,0.998-2.77,0.998
				c-1.222,0-2.42-1.174-2.42-2.121c0-1.022,0.075-3.219,0.075-3.566V81.54c0-0.449,0.025-2.121,0.05-3.168h-1.521
				c-0.225,0-0.374-0.101-0.374-0.3c0-0.2,0.149-0.274,0.449-0.449c0.599-0.349,2.52-2.295,2.844-3.143
				c0.074-0.2,0.199-0.25,0.349-0.25c0.2,0,0.25,0.175,0.25,0.375l-0.125,2.47h3.468c0.149,0,0.225,0.125,0.174,0.224l-0.249,0.873
				c-0.025,0.126-0.075,0.201-0.225,0.201h-3.218c-0.05,1.146-0.075,2.344-0.075,3.492V84.358z"/>
			<path fill="#6A5D57" d="M39.099,84.358c0,1.871,0.847,2.195,1.297,2.195c0.574,0,1.296-0.1,1.646-0.324
				c0.125-0.075,0.226-0.051,0.299,0.05l0.125,0.224c0.075,0.1,0.026,0.2-0.049,0.275c-0.25,0.249-1.272,0.998-2.77,0.998
				c-1.223,0-2.421-1.174-2.421-2.121c0-1.022,0.077-3.219,0.077-3.566V81.54c0-0.449,0.024-2.121,0.05-3.168h-1.521
				c-0.226,0-0.376-0.101-0.376-0.3c0-0.2,0.15-0.274,0.449-0.449c0.6-0.349,2.52-2.295,2.845-3.143c0.075-0.2,0.198-0.25,0.35-0.25
				c0.199,0,0.249,0.175,0.249,0.375l-0.126,2.47h3.468c0.151,0,0.225,0.125,0.176,0.224l-0.25,0.873
				c-0.024,0.126-0.075,0.201-0.225,0.201h-3.218c-0.05,1.146-0.074,2.344-0.074,3.492V84.358z"/>
			<path fill="#6A5D57" d="M47.029,80.042c0,1.298,0,5.064,0.025,5.838c0.024,0.424,0.125,0.773,0.649,0.773h1.121
				c0.225,0,0.275,0.074,0.275,0.225v0.424c0,0.149-0.051,0.25-0.149,0.25c-0.176,0-1.273-0.075-2.819-0.075
				c-1.597,0-2.595,0.075-2.819,0.075c-0.124,0-0.175-0.101-0.175-0.25v-0.424c0-0.175,0.051-0.225,0.325-0.225h1.196
				c0.275,0,0.525-0.176,0.55-0.623c0.024-0.773,0.024-5.064,0.024-6.512v-1.571c0-1.771-0.024-4.041-0.075-4.69
				c-0.049-0.848-0.448-1.247-1.247-1.497l-0.498-0.175c-0.125-0.05-0.15-0.075-0.15-0.125v-0.2c0-0.075,0.075-0.125,0.225-0.174
				c0.873-0.399,1.996-0.848,2.919-1.447c0.225-0.15,0.374-0.2,0.524-0.2c0.174,0,0.224,0.125,0.199,0.449
				c-0.025,1.372-0.101,6.561-0.101,7.934V80.042z"/>
			<path fill="#6A5D57" d="M52.094,80.841c-0.05,0.225-0.075,0.623-0.075,1.197c0,2.445,1.547,4.291,3.542,4.291
				c1.522,0,2.595-0.873,3.019-1.696c0.05-0.1,0.15-0.149,0.225-0.124l0.324,0.174c0.075,0.024,0.126,0.1,0,0.374
				c-0.449,0.998-1.745,2.72-3.966,2.72c-1.422,0-2.994-0.424-3.916-1.771c-0.873-1.272-1.099-2.195-1.099-3.941
				c0-0.973,0.25-2.645,1.572-3.967c1.072-1.098,2.319-1.322,3.566-1.322c2.869,0,3.669,2.695,3.669,3.668
				c0,0.349-0.301,0.398-0.699,0.398H52.094z M56.06,80.093c0.475,0,0.675-0.125,0.675-0.35c0-0.574-0.299-2.22-1.922-2.22
				c-1.097,0-2.146,0.724-2.619,2.569H56.06z"/>
			<path fill="#6A5D57" d="M68.607,80.841c0-1.272-0.199-1.521-0.898-1.896l-0.475-0.248c-0.148-0.051-0.198-0.075-0.198-0.176
				v-0.148c0-0.101,0.05-0.15,0.198-0.227l2.471-1.271c0.149-0.075,0.249-0.101,0.35-0.101c0.149,0,0.174,0.15,0.174,0.3
				l0.125,1.722h0.1c0.748-1.148,1.921-2.172,2.994-2.172c0.848,0,1.271,0.525,1.271,1.099c0,0.724-0.599,1.222-1.047,1.222
				c-0.274,0-0.524-0.1-0.724-0.199c-0.2-0.124-0.499-0.199-0.823-0.199c-0.399,0-1.048,0.25-1.472,1.048
				c-0.15,0.274-0.25,0.724-0.25,0.798v5.238c0,0.773,0.175,1.023,0.699,1.023h1.171c0.15,0,0.176,0.074,0.176,0.225v0.449
				c0,0.149-0.025,0.225-0.125,0.225c-0.149,0-1.297-0.075-2.645-0.075c-1.546,0-2.594,0.075-2.744,0.075
				c-0.1,0-0.148-0.051-0.148-0.25v-0.424c0-0.175,0.049-0.225,0.273-0.225h0.974c0.374,0,0.548-0.15,0.548-0.475
				c0.025-0.822,0.025-1.695,0.025-2.993V80.841z"/>
			<path fill="#6A5D57" d="M83.199,84.509c0,1.421,0.301,1.87,0.749,1.87c0.398,0,0.748-0.2,0.873-0.374
				c0.1-0.125,0.15-0.175,0.249-0.1l0.25,0.199c0.074,0.074,0.124,0.199-0.025,0.449c-0.199,0.374-0.674,1.223-1.946,1.223
				c-0.897,0-1.546-0.648-1.771-1.672h-0.05c-0.523,0.623-1.347,1.147-2.47,1.521c-0.475,0.15-0.923,0.15-1.472,0.15
				c-0.598,0-1.497-0.5-1.497-2.071c0-1.147,0.523-2.146,2.494-3.019c1.123-0.498,2.421-1.098,2.82-1.447v-1.596
				c-0.051-0.424-0.076-1.073-0.35-1.396c-0.274-0.324-0.773-0.549-1.497-0.549c-0.499,0-1.272,0.199-1.62,0.523
				c-0.351,0.324-0.126,0.699-0.126,1.147c0,0.873-0.299,1.422-1.321,1.422c-0.4,0-0.601-0.225-0.601-0.798
				c0-0.799,0.699-1.746,1.722-2.346c1.049-0.623,1.922-0.873,3.044-0.873c1.172,0,1.646,0.35,1.996,0.674
				c0.523,0.523,0.548,1.098,0.548,1.771v3.816V84.509z M81.379,81.989c-0.897,0.673-3.343,1.172-3.343,3.242
				c0,0.923,0.548,1.371,1.297,1.371c0.724,0,2.046-0.872,2.046-1.546V81.989z"/>
			<path fill="#6A5D57" d="M87.091,87.052c-0.125-0.074-0.125-0.224-0.15-0.349l-0.424-2.37c-0.024-0.124,0.051-0.174,0.15-0.199
				l0.324-0.074c0.1-0.025,0.174,0.023,0.224,0.149l0.625,1.222c0.499,0.924,0.847,1.547,2.17,1.547c0.873,0,1.97-0.523,1.97-1.696
				c0-1.122-0.549-1.771-2.418-2.295c-1.473-0.425-2.944-1.197-2.944-3.169c0-1.721,1.621-3.043,3.492-3.043
				c1.198,0,1.846,0.3,2.295,0.523c0.374,0.176,0.425,0.301,0.449,0.449l0.374,1.747c0,0.1-0.051,0.175-0.175,0.224l-0.299,0.1
				c-0.101,0.025-0.149,0-0.226-0.124l-0.848-1.147c-0.299-0.474-0.773-0.973-1.746-0.973c-0.948,0-1.921,0.572-1.921,1.646
				c0,1.447,1.173,1.721,2.395,2.07c1.821,0.523,2.969,1.271,2.994,3.193c-0.025,2.02-1.672,3.293-3.792,3.293
				C88.388,87.776,87.39,87.276,87.091,87.052z"/>
			<path fill="#6A5D57" d="M97.094,81.439c0,1.347,0.599,2.868,1.272,3.792c0.823,1.072,1.871,1.271,2.719,1.271
				c1.247,0,1.896-0.273,2.743-1.072c0.051-0.05,0.126-0.074,0.2,0l0.25,0.25c0.1,0.1,0.125,0.174,0,0.324
				c-0.724,0.823-2.32,1.771-4.017,1.771c-1.322,0-2.72-0.3-3.866-1.746c-0.923-1.223-1.123-2.271-1.123-3.393
				c0-2.92,2.046-5.863,5.339-5.863c2.594,0,3.393,1.497,3.393,2.021c-0.025,0.573-0.4,0.873-0.923,0.873
				c-0.574,0-0.999-0.324-1.372-0.998c-0.549-1.023-1.072-1.098-1.672-1.098C98.615,77.573,97.094,78.87,97.094,81.439z"/>
			<path fill="#6A5D57" d="M113.233,84.509c0,1.421,0.3,1.87,0.748,1.87c0.398,0,0.748-0.2,0.873-0.374
				c0.101-0.125,0.149-0.175,0.25-0.1l0.249,0.199c0.074,0.074,0.124,0.199-0.024,0.449c-0.2,0.374-0.675,1.223-1.946,1.223
				c-0.898,0-1.547-0.648-1.771-1.672h-0.049c-0.524,0.623-1.348,1.147-2.471,1.521c-0.474,0.15-0.922,0.15-1.472,0.15
				c-0.598,0-1.497-0.5-1.497-2.071c0-1.147,0.523-2.146,2.495-3.019c1.122-0.498,2.42-1.098,2.818-1.447v-1.596
				c-0.05-0.424-0.074-1.073-0.349-1.396c-0.274-0.324-0.773-0.549-1.497-0.549c-0.499,0-1.271,0.199-1.621,0.523
				s-0.125,0.699-0.125,1.147c0,0.873-0.299,1.422-1.321,1.422c-0.4,0-0.601-0.225-0.601-0.798c0-0.799,0.699-1.746,1.722-2.346
				c1.049-0.623,1.922-0.873,3.045-0.873c1.172,0,1.646,0.35,1.994,0.674c0.524,0.523,0.55,1.098,0.55,1.771v3.816V84.509z
				 M111.411,81.989c-0.896,0.673-3.342,1.172-3.342,3.242c0,0.923,0.549,1.371,1.297,1.371c0.724,0,2.045-0.872,2.045-1.546V81.989
				z"/>
			<path fill="#6A5D57" d="M119.693,80.042c0,1.298,0,5.064,0.024,5.838c0.025,0.424,0.126,0.773,0.648,0.773h1.123
				c0.225,0,0.274,0.074,0.274,0.225v0.424c0,0.149-0.05,0.25-0.15,0.25c-0.174,0-1.271-0.075-2.818-0.075
				c-1.597,0-2.595,0.075-2.819,0.075c-0.124,0-0.174-0.101-0.174-0.25v-0.424c0-0.175,0.05-0.225,0.325-0.225h1.196
				c0.274,0,0.525-0.176,0.549-0.623c0.024-0.773,0.024-5.064,0.024-6.512v-1.571c0-1.771-0.024-4.041-0.074-4.69
				c-0.05-0.848-0.448-1.247-1.247-1.497l-0.499-0.175c-0.125-0.05-0.149-0.075-0.149-0.125v-0.2c0-0.075,0.074-0.125,0.225-0.174
				c0.873-0.399,1.996-0.848,2.918-1.447c0.225-0.15,0.374-0.2,0.523-0.2c0.175,0,0.226,0.125,0.2,0.449
				c-0.025,1.372-0.1,6.561-0.1,7.934V80.042z"/>
			<path fill="#6A5D57" d="M123.51,87.052c-0.124-0.074-0.124-0.224-0.149-0.349l-0.424-2.37c-0.024-0.124,0.049-0.174,0.149-0.199
				l0.324-0.074c0.1-0.025,0.175,0.023,0.224,0.149l0.624,1.222c0.499,0.924,0.849,1.547,2.171,1.547
				c0.873,0,1.972-0.523,1.972-1.696c0-1.122-0.551-1.771-2.421-2.295c-1.473-0.425-2.944-1.197-2.944-3.169
				c0-1.721,1.623-3.043,3.493-3.043c1.197,0,1.846,0.3,2.295,0.523c0.375,0.176,0.424,0.301,0.449,0.449l0.374,1.747
				c0,0.1-0.05,0.175-0.175,0.224l-0.299,0.1c-0.1,0.025-0.15,0-0.225-0.124l-0.849-1.147c-0.3-0.474-0.773-0.973-1.746-0.973
				c-0.947,0-1.92,0.572-1.92,1.646c0,1.447,1.172,1.721,2.394,2.07c1.821,0.523,2.969,1.271,2.994,3.193
				c-0.025,2.02-1.672,3.293-3.792,3.293C124.807,87.776,123.809,87.276,123.51,87.052z"/>
		</g>
		<rect x="20.129" y="68.354" fill="#FFFFFF" width="5.415" height="7.22"/>
		<path fill="#E35A2E" d="M24.058,74.677c-0.779-0.615-1.686-1.198-2.241-2.048c-0.392-0.597-0.604-1.748,0.418-1.835
			c0.591-0.049,0.973,0.408,1.347,0.782l0.229,0.229c0.364-0.485,0.906-1.062,1.574-1.039c0.453,0.016,0.739,0.428,0.732,0.841
			c-0.013,0.728-0.464,1.289-0.934,1.802C25.088,73.513,24.04,74.664,24.058,74.677z"/>
	</g>
	<g>
		<path fill="#DED5C3" d="M48.772,50.245c-0.882,0.21-1.761,0.397-2.654,0.543c-2.356,0.382-4.625,0-6.988-0.064
			c-2.312-0.063-4.631-0.196-6.945-0.163c-4.38,0.066-10.508,0.05-12.028,5.348c-0.194,0.678-0.042,1.382-0.115,2.072
			c-0.18,1.755,0.583,3.512,2.312,4.213c0.633,0.256,1.25,0.479,1.707-0.19c1.026-1.507-1.256-2.156-2.297-2.091
			c0.775-0.048,2-1.604,2.487-2.16l0.525-0.524c3.902,0.812,7.753,1.409,11.755,1.354c3.089-0.038,6.074-0.267,9.133-0.718
			c3.937-0.581,7.705-1.69,11.518-2.798l-3.47-6.021C52.052,49.396,50.418,49.853,48.772,50.245z"/>
		<path fill="#DED5C3" d="M25.625,56.379c-0.076,1.071-0.281,2.139-0.25,3.216c0.02,0.646,0.321,1.333,0.521,1.97
			c0.384,1.246,1.535,1.546,2.537,1.601c0.591,0.033,2.177,0.117,2.344-0.837c0.07-0.411-0.332-1.296-0.58-1.553
			c-0.464-0.472-1.125-0.273-1.688-0.294l0.983-2.942"/>
		<path fill="#DED5C3" d="M51.616,56.314c-0.092,0.897-0.375,1.789-0.468,2.684c-0.138,1.323,1.614,0.718,2.037,1.596
			c0.388,0.804-0.54,1.68-1.225,1.93c-1.67,0.607-3.051-0.855-3.183-2.382c-0.083-0.941,0.053-1.904,0.088-2.845"/>
		<path fill="#DED5C3" d="M53.712,55.16c-0.029,1.634-0.609,4.725,0.261,6.104c0.237,0.378,0.799,0.931,1.133,1.017
			c0.869,0.221,3.003,0.273,3.445-0.925c0.205-0.553-0.186-1.548-0.514-1.921c-0.534-0.608-1.3-0.382-1.97-0.414l1.114-4.345"/>
		<path fill="#DED5C3" d="M23.335,52.68c-1.582-1.233-2.72-2.68-4.126-4.029c-1.029-0.987-2.004-0.599-2.452,0.88
			c-0.947,3.118,3.135,3.969,5.303,4.328"/>
		<path fill="#DED5C3" d="M55.189,43.711c1.126-0.573,2.316-0.606,3.578-0.214c2.966,0.925,4.134,3.89,7.155,4.754l1.932,0.55h2.067
			c0.393,2.216,0.041,5.135-2.37,6.279c-1.106,0.526-3.118,1.048-4.302,0.975c-2.788-0.171-6.577-0.944-8.786-2.556
			c-0.621-0.451-2.301-0.987-2.672-1.607C50.2,49.248,52.754,44.949,55.189,43.711z"/>
		<path fill="#6A5D57" d="M68.544,48.661c0,0.763,0.615,1.381,1.378,1.381c0.765,0,1.38-0.619,1.38-1.381
			c0-0.76-0.615-1.378-1.38-1.378C69.159,47.283,68.544,47.901,68.544,48.661z"/>
		<circle fill="#6A5D57" cx="59.78" cy="48.119" r="1.311"/>
		<path fill="#6A5D57" d="M68.031,54.604c-0.912,0-1.956-0.113-2.564-0.745c-0.384-0.398-0.558-0.968-0.517-1.69
			c0.009-0.108,0.099-0.194,0.208-0.186c0.108,0.006,0.191,0.098,0.185,0.207c-0.035,0.619,0.099,1.076,0.41,1.396
			c0.439,0.457,1.22,0.651,2.534,0.624c0.109,0.01,0.195,0.082,0.198,0.192c0.002,0.108-0.082,0.198-0.191,0.2
			C68.208,54.601,68.12,54.604,68.031,54.604L68.031,54.604z"/>
		<polygon fill="#E35A2E" points="48.78,59.511 51.661,59.38 52.056,56.106 48.004,55.774 		"/>
		<polygon fill="#E35A2E" points="53.494,59.174 56.374,59.026 56.769,55.362 52.718,54.987 		"/>
		<path fill="#6BB5B1" d="M50.314,49.296c0,0,1.094,1.505,1.094,1.505l1.638,1.367l1.507,0.547l3.161,2.469l-4.119,1.081
			c-2.091,0.513-4.2,0.981-6.277,1.545c-2.299,0.625-4.881,0.573-7.249,0.779l-6.968,0.136l-0.958-8.197l5.466,0.136
			c0,0,4.904,0.272,4.92,0.273c1.644,0.091,3.244-0.072,4.799-0.616C47.581,50.233,50.225,49.173,50.314,49.296z"/>
		<path fill="#6A5D57" d="M55.444,42.595c0.366-0.175,0.866,3.923,0.858,4.237c-0.04,1.814-0.438,3.76-1.249,5.392
			c-1.73,3.482-7.66,3.646-6.69-1.267C49.286,46.305,51.327,44.577,55.444,42.595z"/>
		<polygon fill="#E35A2E" points="35.033,52.644 35.458,52.42 35.378,52.895 35.721,53.232 35.248,53.301 35.033,53.731 
			34.823,53.301 34.344,53.232 34.687,52.895 34.608,52.42 		"/>
		<polygon fill="#E35A2E" points="47.312,53.341 47.736,53.115 47.656,53.591 47.998,53.927 47.524,53.998 47.312,54.428 
			47.097,53.998 46.621,53.927 46.965,53.591 46.885,53.115 		"/>
		<polygon fill="#E35A2E" points="45.997,54.936 46.423,54.712 46.341,55.188 46.686,55.521 46.21,55.59 45.997,56.022 
			45.784,55.59 45.309,55.521 45.65,55.188 45.569,54.712 		"/>
		<polygon fill="#E35A2E" points="40.828,55.576 41.204,55.163 41.302,55.713 41.811,55.943 41.32,56.208 41.256,56.761 
			40.853,56.373 40.304,56.485 40.549,55.983 40.274,55.497 		"/>
		<polygon fill="#E35A2E" points="39.178,52.045 39.321,51.507 39.66,51.949 40.218,51.924 39.899,52.381 40.098,52.904 
			39.564,52.744 39.125,53.092 39.116,52.535 38.647,52.229 		"/>
		<polygon fill="#E35A2E" points="44.92,52.587 45.474,52.3 45.367,52.913 45.813,53.347 45.197,53.437 44.92,53.994 44.645,53.437 
			44.029,53.347 44.474,52.913 44.37,52.3 		"/>
		<polygon fill="#E35A2E" points="35.142,56.527 35.761,56.202 35.645,56.893 36.146,57.381 35.453,57.481 35.142,58.111 
			34.831,57.481 34.139,57.381 34.64,56.893 34.521,56.202 		"/>
		<path fill="#E35A2E" d="M44.064,57.074l-0.659-0.404l-0.707,0.317l0.182-0.753l-0.521-0.574l0.771-0.062l0.387-0.67l0.301,0.712
			l0.755,0.163l-0.587,0.503L44.064,57.074L44.064,57.074z M43.412,56.559l0.536,0.326l-0.067-0.622l0.477-0.407l-0.614-0.131
			l-0.242-0.576L43.19,55.69l-0.625,0.05l0.418,0.464l-0.143,0.611L43.412,56.559L43.412,56.559z"/>
		<path fill="#E35A2E" d="M38.31,55.517l-0.662-0.402l-0.705,0.315l0.177-0.753l-0.517-0.574l0.771-0.062l0.386-0.672l0.298,0.715
			l0.757,0.161l-0.589,0.503L38.31,55.517L38.31,55.517z M37.654,55.002l0.533,0.328l-0.064-0.622l0.477-0.409l-0.612-0.13
			l-0.239-0.578l-0.315,0.542l-0.624,0.052l0.419,0.463l-0.145,0.61L37.654,55.002L37.654,55.002z"/>
		<path fill="#E35A2E" d="M55.331,55.517l-0.662-0.402l-0.705,0.315l0.177-0.753l-0.517-0.574l0.772-0.062l0.383-0.672l0.3,0.715
			l0.759,0.161l-0.591,0.503L55.331,55.517L55.331,55.517z M54.678,55.002l0.532,0.328l-0.066-0.622l0.478-0.409l-0.613-0.13
			l-0.242-0.578l-0.312,0.542l-0.623,0.052l0.42,0.463l-0.146,0.61L54.678,55.002L54.678,55.002z"/>
		<path fill="#E35A2E" d="M43.021,53.551l-0.657-0.4l-0.708,0.312l0.178-0.749l-0.518-0.576l0.772-0.062l0.386-0.669l0.296,0.713
			l0.758,0.159l-0.588,0.505L43.021,53.551L43.021,53.551z M42.371,53.038l0.533,0.328l-0.069-0.622l0.48-0.409l-0.616-0.131
			l-0.239-0.576l-0.313,0.545l-0.623,0.048l0.421,0.465l-0.148,0.609L42.371,53.038L42.371,53.038z"/>
		<path fill="#DED5C3" d="M79.548,58.141c-0.516-0.14-1.499,0.006-1.941,0.292c-0.735,0.467-0.215,1.254,0.01,1.928
			c-0.606,0.061-1.297,0.08-1.873,0.315c0.313,0.852,1.492,0.862,2.219,1.008c0.822,0.165,1.642,0.328,2.462,0.491l2.222-0.177
			c0,0-0.408,1.172,1.637,1.406c0.897,0.1,4.227,0.768,4.445-0.704c0.116-0.791-2.184-0.778-2.513-0.703
			c0.144-0.031,0.718-0.856,0.772-1.013c0.185-0.5-0.107-1.123-0.522-1.415c-0.585-0.412-1.235-0.086-1.891-0.086
			C84.574,59.484,79.556,58.143,79.548,58.141z"/>
		<path fill="#DED5C3" d="M81.361,54.631c-0.438,0.688-0.936,1.364-1.301,2.09c-0.549,1.096-0.668,2.346-0.836,3.542
			c-0.13,0.933-0.661,3.069,0.54,3.435c0.956,0.291,0.991-0.699,1.244-1.348c0.024-0.051,1.193,0.106,1.229,0.175
			c0.283,0.605,1,1.87,1.824,1.37c1.409-0.856,1.012-4.103,0.813-5.438c-0.051-0.321-0.942-4.253-1.062-4.234L81.361,54.631z"/>
		<path fill="#DED5C3" d="M85.044,59.426l1.403,1.578c0.938-0.805,2.033-1.526,2.848-2.46c1.794-2.066,0.27-4.1-1.275-5.728
			c0.146,0.562,0.284,1.133,0.39,1.703c0.147,0.797,0.218,1.58-0.223,2.258c-0.769,1.189-1.694,1.914-2.909,2.592"/>
		<path fill="#6BB5B1" d="M81.361,53.952l2.725,0.14l1.019,4.727c0,0-5.586-0.117-5.595-0.117
			C79.386,58.698,81.086,54.465,81.361,53.952z"/>
		<path fill="#DED5C3" d="M77.384,46.676c-0.203-0.551-3.029-7.572-0.343-6.856c1.384,0.368,1.586,2.573,2.075,3.667
			c0.25,0.55,0.551,1.075,0.838,1.605c-0.406-0.763,4.431-0.683,4.386-0.58c0,0,0.699-1.454,0.704-1.463
			c0.407-0.848,0.899-1.759,1.794-2.177c0.477-0.222,0.967-0.332,1.479-0.455c0.103,0.886,0.174,1.702,0.155,2.589
			c-0.033,1.692-0.478,3.235-0.975,4.839c-0.668,2.178-0.154,4.503-2.254,6.044c-1.753,1.29-3.953,1.126-5.283-0.651
			C78.542,51.34,78.181,48.857,77.384,46.676z"/>
		<circle fill="#6A5D57" cx="81.748" cy="48.036" r="0.713"/>
		<path fill="#6A5D57" d="M84.394,47.934c0,0.393-0.32,0.711-0.712,0.711c-0.396,0-0.712-0.318-0.712-0.711
			c0-0.394,0.315-0.711,0.712-0.711C84.073,47.223,84.394,47.54,84.394,47.934z"/>
		<circle fill="#6A5D57" cx="82.868" cy="52.308" r="0.711"/>
		<path fill="#6A5D57" d="M82.714,53.965c-0.051,0-0.107,0-0.159-0.006c-0.059-0.005-0.098-0.055-0.094-0.111
			c0.001-0.055,0.056-0.098,0.11-0.092c0.714,0.054,1.29-0.319,1.713-1.11c0.026-0.05,0.087-0.066,0.138-0.042
			c0.048,0.026,0.067,0.087,0.044,0.14C84.03,53.554,83.441,53.965,82.714,53.965L82.714,53.965z"/>
		<polygon fill="#6BB5B1" points="86.4,44.655 86.221,44.595 86.249,44.391 86.239,44.161 86.152,43.877 85.993,43.666 
			85.72,43.378 85.411,43.16 84.9,42.819 84.56,43.2 84.047,43.879 83.83,44.191 83.985,44.356 84.174,44.519 84.371,44.641 
			84.701,44.682 84.224,44.964 83.878,45.315 83.539,45.696 83.206,46.01 82.968,46.256 83.886,46.479 83.928,46.906 83.999,47.198 
			84.084,47.412 84.339,47.156 84.607,46.864 85.013,46.462 85.282,46.21 85.547,45.931 85.778,45.71 85.965,45.488 86.029,45.383 
			86.077,45.242 86.077,45.071 86.147,45.066 86.208,45.103 86.211,45.43 86.219,46.042 86.358,46.686 86.452,47.54 86.521,48.146 
			86.481,48.26 86.78,48.048 87.05,47.84 87.25,47.709 87.606,47.912 87.877,48.034 88.243,48.171 88.051,47.439 87.92,46.686 
			87.829,46.229 87.722,45.836 87.999,45.816 88.233,45.753 88.352,45.737 88.399,45.383 88.418,45.076 88.375,44.822 
			88.354,44.544 88.337,44.297 88.322,43.965 87.955,43.956 87.511,44.005 87.193,44.112 86.801,44.265 86.528,44.485 		"/>
		<path fill-rule="evenodd" clip-rule="evenodd" fill="#DED5C3" d="M98.752,29.411c1.928,0.937,0.653,2.861,1.075,4.293
			c0.874,2.962,3.501,4.343,4.65,6.799c6.044,3.264,15.74,2.871,18.611,9.304c1.562,0.467,3.164,0.893,4.294,1.791
			c-1.391,3.195-6.24,0.605-7.158-1.075c0.034,3.292,4.042,11.934-0.717,12.167c1.54-2.938,0.97-6.536-1.787-7.874
			c-1.624,1.48,0.857,7.062-2.864,6.442c-1.029-1.379,1.138-2.035,1.073-3.577c-0.171-3.289-3.896-3.021-3.935-6.444
			c-2.084,0.186-3.517,1.019-5.368,1.434c-1.25,5.618,1.236,15.604-4.295,14.672c2.455-2.949,2.031-9.938,0.357-13.6
			c-2.153,3.097,0.549,11.045-4.653,11.093c-0.899-1.344,1.311-2.122,1.431-3.579c-0.16-8.543-1.517-15.897-5.007-21.114
			c-1.731-0.297-3.599-0.456-4.653-1.432c0.26-1.094-0.616-1.053-0.358-2.147c2.836-1.338,6.66-1.689,6.799-5.725
			c0.727,0.227,0.236,1.673,1.074,1.788C97.915,31.673,98.539,30.748,98.752,29.411z"/>
		<circle fill="#6A5D57" cx="94.373" cy="35.719" r="0.646"/>
		<ellipse fill="#6A5D57" cx="90.056" cy="37.18" rx="0.675" ry="0.614"/>
		<polygon fill="#E35A2E" points="100.415,41.106 100.116,41.328 99.817,41.056 99.44,40.81 98.883,40.635 98.368,40.652 
			97.6,40.766 96.901,41.021 95.78,41.455 96.012,42.435 96.529,44.021 96.786,44.719 97.23,44.653 97.7,44.533 98.124,44.35 
			98.554,43.868 98.468,44.949 98.649,45.9 98.882,46.875 99.013,47.763 99.14,48.423 100.529,47.195 101.262,47.605 101.815,47.82 
			102.251,47.924 102.128,47.226 101.956,46.467 101.765,45.361 101.662,44.648 101.509,43.909 101.409,43.292 101.267,42.742 
			101.166,42.52 100.997,42.286 100.72,42.096 100.797,41.977 100.917,41.918 101.447,42.28 102.443,42.954 103.63,43.452 
			105.113,44.256 106.162,44.827 106.304,45.018 106.297,44.299 106.262,43.634 106.278,43.165 107.006,42.821 107.504,42.518 
			108.137,42.08 106.74,41.575 105.38,40.939 104.551,40.571 103.797,40.309 104.073,39.839 104.234,39.393 104.341,39.183 
			103.827,38.708 103.355,38.337 102.895,38.119 102.426,37.842 102.012,37.592 101.46,37.246 101.035,37.823 100.617,38.592 
			100.432,39.225 100.237,40.023 100.285,40.714 		"/>
		<polygon fill="#E35A2E" points="32.143,50.528 33.101,58.725 32.376,58.765 31.289,50.538 		"/>
		<polygon fill="#FFFFFF" points="57.714,55.184 56.754,55.442 56.374,59.026 		"/>
	</g>
</g>
<g>
	<path fill="#6A5D57" d="M33.669,180.083h1.333v0.61c0.228-0.25,0.481-0.438,0.76-0.562c0.278-0.123,0.583-0.186,0.911-0.186
		c0.333,0,0.632,0.082,0.899,0.244c0.267,0.163,0.482,0.4,0.645,0.713c0.211-0.312,0.471-0.55,0.779-0.713
		c0.308-0.162,0.644-0.244,1.009-0.244c0.378,0,0.71,0.088,0.997,0.264s0.493,0.405,0.618,0.688s0.188,0.744,0.188,1.382v3.115
		h-1.343V182.7c0-0.603-0.075-1.01-0.225-1.223c-0.15-0.214-0.375-0.32-0.674-0.32c-0.228,0-0.432,0.064-0.613,0.195
		c-0.181,0.13-0.315,0.311-0.403,0.539c-0.088,0.23-0.132,0.599-0.132,1.106v2.397h-1.343v-2.573c0-0.476-0.035-0.819-0.105-1.032
		c-0.07-0.214-0.176-0.372-0.316-0.477c-0.14-0.104-0.31-0.156-0.509-0.156c-0.222,0-0.423,0.066-0.604,0.197
		c-0.181,0.133-0.317,0.317-0.406,0.555c-0.09,0.237-0.135,0.612-0.135,1.123v2.363h-1.333V180.083z"/>
	<path fill="#6A5D57" d="M43.599,177.896c0.234,0,0.434,0.085,0.601,0.254c0.167,0.17,0.251,0.375,0.251,0.615
		c0,0.238-0.083,0.44-0.249,0.608c-0.166,0.167-0.363,0.251-0.594,0.251c-0.237,0-0.439-0.085-0.606-0.256
		c-0.167-0.171-0.25-0.379-0.25-0.623c0-0.234,0.083-0.435,0.248-0.601C43.166,177.979,43.365,177.896,43.599,177.896z
		 M42.932,180.083h1.333v5.312h-1.333V180.083z"/>
	<path fill="#6A5D57" d="M50.676,181.157l-1.11,0.61c-0.208-0.218-0.415-0.369-0.618-0.454c-0.204-0.084-0.442-0.127-0.716-0.127
		c-0.499,0-0.902,0.148-1.21,0.446c-0.308,0.297-0.462,0.679-0.462,1.143c0,0.452,0.148,0.821,0.445,1.107s0.686,0.429,1.168,0.429
		c0.596,0,1.061-0.203,1.393-0.61l1.051,0.72c-0.57,0.741-1.374,1.111-2.412,1.111c-0.934,0-1.666-0.276-2.195-0.83
		s-0.793-1.201-0.793-1.943c0-0.515,0.128-0.988,0.386-1.421s0.616-0.772,1.077-1.021c0.46-0.247,0.976-0.371,1.545-0.371
		c0.527,0,1.001,0.105,1.421,0.315S50.409,180.771,50.676,181.157z"/>
	<path fill="#6A5D57" d="M51.882,178.032h1.323v2.588c0.26-0.225,0.522-0.393,0.786-0.505s0.531-0.169,0.801-0.169
		c0.527,0,0.972,0.183,1.333,0.547c0.309,0.316,0.464,0.779,0.464,1.392v3.511h-1.313v-2.329c0-0.615-0.029-1.032-0.088-1.25
		s-0.159-0.381-0.3-0.488s-0.316-0.161-0.525-0.161c-0.27,0-0.502,0.09-0.696,0.269s-0.328,0.423-0.403,0.732
		c-0.039,0.159-0.059,0.524-0.059,1.094v2.134h-1.323V178.032z"/>
	<path fill="#6A5D57" d="M63.201,183.125h-4.282c0.062,0.378,0.227,0.678,0.496,0.901c0.269,0.223,0.611,0.334,1.028,0.334
		c0.498,0,0.926-0.174,1.284-0.522l1.123,0.527c-0.28,0.397-0.615,0.69-1.006,0.882c-0.391,0.189-0.854,0.285-1.392,0.285
		c-0.833,0-1.512-0.263-2.036-0.789c-0.524-0.525-0.786-1.184-0.786-1.975c0-0.811,0.261-1.483,0.784-2.019
		c0.522-0.536,1.178-0.804,1.965-0.804c0.836,0,1.517,0.268,2.041,0.804c0.524,0.535,0.786,1.242,0.786,2.121L63.201,183.125z
		 M61.868,182.075c-0.088-0.296-0.262-0.537-0.521-0.723s-0.56-0.278-0.902-0.278c-0.372,0-0.698,0.104-0.978,0.312
		c-0.176,0.13-0.339,0.359-0.489,0.688H61.868z"/>
	<path fill="#6A5D57" d="M64.133,178.032h1.333v7.363h-1.333V178.032z"/>
	<path fill="#6A5D57" d="M66.531,178.032h1.333v7.363h-1.333V178.032z"/>
	<path fill="#6A5D57" d="M74.396,183.125h-4.282c0.062,0.378,0.227,0.678,0.496,0.901c0.269,0.223,0.611,0.334,1.028,0.334
		c0.498,0,0.926-0.174,1.284-0.522l1.123,0.527c-0.279,0.397-0.615,0.69-1.006,0.882c-0.39,0.189-0.854,0.285-1.391,0.285
		c-0.833,0-1.512-0.263-2.036-0.789c-0.524-0.525-0.786-1.184-0.786-1.975c0-0.811,0.261-1.483,0.784-2.019
		c0.522-0.536,1.178-0.804,1.965-0.804c0.836,0,1.517,0.268,2.041,0.804c0.524,0.535,0.787,1.242,0.787,2.121L74.396,183.125z
		 M73.064,182.075c-0.088-0.296-0.262-0.537-0.521-0.723s-0.56-0.278-0.902-0.278c-0.372,0-0.698,0.104-0.978,0.312
		c-0.176,0.13-0.339,0.359-0.489,0.688H73.064z"/>
	<path fill="#6A5D57" d="M78.279,178.032h1.322v2.588c0.261-0.225,0.523-0.393,0.787-0.505s0.53-0.169,0.801-0.169
		c0.527,0,0.971,0.183,1.332,0.547c0.31,0.316,0.465,0.779,0.465,1.392v3.511h-1.314v-2.329c0-0.615-0.029-1.032-0.088-1.25
		s-0.158-0.381-0.3-0.488s-0.316-0.161-0.524-0.161c-0.271,0-0.502,0.09-0.696,0.269s-0.328,0.423-0.403,0.732
		c-0.039,0.159-0.059,0.524-0.059,1.094v2.134h-1.322V178.032z"/>
	<path fill="#6A5D57" d="M88.195,180.083h1.334v5.312h-1.334v-0.562c-0.26,0.247-0.521,0.426-0.782,0.534
		c-0.262,0.109-0.546,0.164-0.851,0.164c-0.687,0-1.279-0.266-1.781-0.799c-0.5-0.531-0.75-1.193-0.75-1.984
		c0-0.82,0.242-1.492,0.727-2.017c0.484-0.523,1.072-0.786,1.766-0.786c0.318,0,0.617,0.061,0.896,0.181
		c0.279,0.121,0.539,0.302,0.775,0.542V180.083z M86.795,181.177c-0.412,0-0.755,0.146-1.027,0.438
		c-0.272,0.291-0.408,0.664-0.408,1.12c0,0.459,0.139,0.837,0.416,1.133s0.618,0.444,1.023,0.444c0.419,0,0.766-0.146,1.042-0.438
		c0.276-0.291,0.413-0.673,0.413-1.145c0-0.462-0.137-0.837-0.413-1.123C87.564,181.319,87.217,181.177,86.795,181.177z"/>
	<path fill="#6A5D57" d="M90.838,180.083h1.332v5.488c0,0.505-0.049,0.881-0.148,1.131c-0.1,0.248-0.256,0.439-0.471,0.573
		s-0.475,0.2-0.777,0.2c-0.267,0-0.599-0.066-0.996-0.2v-1.05c0.209,0.101,0.393,0.151,0.553,0.151c0.169,0,0.296-0.051,0.381-0.151
		c0.084-0.101,0.127-0.286,0.127-0.557V180.083z M91.502,177.896c0.237,0,0.439,0.085,0.607,0.254
		c0.168,0.168,0.252,0.373,0.252,0.613c0,0.236-0.084,0.439-0.25,0.608s-0.364,0.253-0.596,0.253c-0.237,0-0.439-0.086-0.607-0.258
		s-0.252-0.38-0.252-0.623c0-0.233,0.082-0.434,0.247-0.599C91.068,177.979,91.268,177.896,91.502,177.896z"/>
	<path fill="#6A5D57" d="M93.162,180.083h1.143v0.669c0.123-0.264,0.287-0.464,0.492-0.601s0.43-0.205,0.674-0.205
		c0.173,0,0.354,0.046,0.543,0.137l-0.416,1.147c-0.156-0.078-0.284-0.117-0.385-0.117c-0.205,0-0.379,0.127-0.521,0.381
		s-0.212,0.752-0.212,1.494l0.004,0.259v2.148h-1.322V180.083z"/>
	<path fill="#6A5D57" d="M100.594,180.083h1.332v5.312h-1.332v-0.562c-0.261,0.247-0.521,0.426-0.783,0.534
		c-0.262,0.109-0.545,0.164-0.852,0.164c-0.686,0-1.279-0.266-1.779-0.799c-0.501-0.531-0.752-1.193-0.752-1.984
		c0-0.82,0.242-1.492,0.727-2.017c0.484-0.523,1.074-0.786,1.766-0.786c0.319,0,0.618,0.061,0.898,0.181
		c0.279,0.121,0.537,0.302,0.775,0.542V180.083z M99.191,181.177c-0.412,0-0.754,0.146-1.026,0.438
		c-0.272,0.291-0.409,0.664-0.409,1.12c0,0.459,0.139,0.837,0.416,1.133s0.619,0.444,1.025,0.444c0.418,0,0.766-0.146,1.041-0.438
		c0.275-0.291,0.414-0.673,0.414-1.145c0-0.462-0.139-0.837-0.414-1.123C99.963,181.319,99.613,181.177,99.191,181.177z"/>
	<path fill="#6A5D57" d="M20.623,191.414h0.615v0.879c0.243-0.334,0.522-0.584,0.838-0.752c0.316-0.166,0.669-0.25,1.058-0.25
		c0.679,0,1.26,0.245,1.743,0.734s0.725,1.078,0.725,1.766c0,0.703-0.239,1.301-0.718,1.791c-0.479,0.491-1.056,0.736-1.732,0.736
		c-0.38,0-0.73-0.079-1.049-0.237c-0.319-0.158-0.607-0.394-0.865-0.708v2.571h-0.615V191.414z M23.084,191.885
		c-0.532,0-0.98,0.186-1.344,0.557c-0.364,0.372-0.546,0.834-0.546,1.388c0,0.362,0.081,0.688,0.243,0.979
		c0.163,0.29,0.395,0.52,0.697,0.689s0.622,0.255,0.958,0.255c0.33,0,0.641-0.086,0.932-0.257c0.291-0.172,0.522-0.411,0.695-0.718
		c0.172-0.308,0.259-0.63,0.259-0.966c0-0.34-0.085-0.661-0.256-0.966c-0.171-0.305-0.401-0.541-0.69-0.709
		C23.742,191.969,23.426,191.885,23.084,191.885z"/>
	<path fill="#6A5D57" d="M30.779,194.609l0.519,0.271c-0.17,0.334-0.367,0.604-0.589,0.809c-0.223,0.206-0.474,0.361-0.752,0.469
		c-0.278,0.106-0.594,0.16-0.945,0.16c-0.78,0-1.39-0.256-1.83-0.767c-0.44-0.512-0.66-1.089-0.66-1.733
		c0-0.607,0.186-1.147,0.559-1.622c0.472-0.604,1.104-0.905,1.896-0.905c0.815,0,1.466,0.31,1.953,0.928
		c0.346,0.437,0.522,0.981,0.528,1.635h-4.302c0.012,0.555,0.189,1.01,0.532,1.365s0.767,0.533,1.272,0.533
		c0.243,0,0.48-0.043,0.71-0.128c0.23-0.084,0.426-0.196,0.587-0.337C30.417,195.147,30.591,194.921,30.779,194.609z
		 M30.779,193.321c-0.082-0.328-0.202-0.59-0.358-0.786c-0.157-0.196-0.365-0.354-0.623-0.475c-0.258-0.12-0.529-0.181-0.813-0.181
		c-0.47,0-0.873,0.151-1.21,0.452c-0.246,0.221-0.433,0.55-0.559,0.989H30.779z"/>
	<path fill="#6A5D57" d="M33.139,189.639h0.615v1.775h0.976v0.531h-0.976v4.25h-0.615v-4.25h-0.839v-0.531h0.839V189.639z"/>
	<path fill="#6A5D57" d="M35.252,193.497h2.417v0.536h-2.417V193.497z"/>
	<path fill="#6A5D57" d="M41.044,191.938l-0.396,0.408c-0.329-0.319-0.651-0.479-0.965-0.479c-0.2,0-0.371,0.065-0.513,0.197
		c-0.143,0.132-0.214,0.285-0.214,0.461c0,0.156,0.059,0.304,0.176,0.444c0.117,0.144,0.364,0.312,0.74,0.505
		c0.458,0.238,0.769,0.467,0.934,0.686c0.162,0.224,0.242,0.474,0.242,0.752c0,0.393-0.138,0.725-0.414,0.998
		c-0.276,0.271-0.621,0.408-1.035,0.408c-0.276,0-0.539-0.061-0.79-0.18c-0.25-0.12-0.458-0.286-0.623-0.497l0.387-0.439
		c0.314,0.354,0.647,0.532,1,0.532c0.247,0,0.457-0.08,0.63-0.238s0.26-0.344,0.26-0.558c0-0.176-0.057-0.332-0.172-0.47
		c-0.114-0.135-0.373-0.305-0.775-0.51c-0.432-0.223-0.725-0.442-0.881-0.66c-0.156-0.216-0.233-0.464-0.233-0.742
		c0-0.363,0.124-0.665,0.372-0.905s0.561-0.36,0.939-0.36C40.155,191.291,40.599,191.506,41.044,191.938z"/>
	<path fill="#6A5D57" d="M42.347,189.445c0.14,0,0.26,0.05,0.359,0.149s0.149,0.22,0.149,0.36c0,0.138-0.05,0.257-0.149,0.355
		c-0.099,0.101-0.219,0.15-0.359,0.15c-0.137,0-0.255-0.05-0.354-0.15c-0.099-0.099-0.149-0.218-0.149-0.355
		c0-0.141,0.05-0.261,0.149-0.36S42.21,189.445,42.347,189.445z M42.042,191.414h0.615v4.781h-0.615V191.414z"/>
	<path fill="#6A5D57" d="M44.472,189.639h0.615v1.775h0.976v0.531h-0.976v4.25h-0.615v-4.25h-0.839v-0.531h0.839V189.639z"/>
	<path fill="#6A5D57" d="M47.522,189.639h0.615v1.775h0.976v0.531h-0.976v4.25h-0.615v-4.25h-0.839v-0.531h0.839V189.639z"/>
	<path fill="#6A5D57" d="M50.249,189.445c0.14,0,0.26,0.05,0.359,0.149s0.149,0.22,0.149,0.36c0,0.138-0.05,0.257-0.149,0.355
		c-0.099,0.101-0.219,0.15-0.359,0.15c-0.137,0-0.255-0.05-0.354-0.15c-0.099-0.099-0.149-0.218-0.149-0.355
		c0-0.141,0.05-0.261,0.149-0.36S50.112,189.445,50.249,189.445z M49.943,191.414h0.615v4.781h-0.615V191.414z"/>
	<path fill="#6A5D57" d="M51.837,191.414h0.615v0.857c0.246-0.328,0.519-0.574,0.817-0.736c0.299-0.163,0.624-0.244,0.976-0.244
		c0.357,0,0.675,0.091,0.951,0.272c0.277,0.182,0.481,0.427,0.613,0.733c0.132,0.309,0.198,0.787,0.198,1.438v2.461h-0.615v-2.281
		c0-0.55-0.023-0.918-0.068-1.103c-0.071-0.316-0.208-0.555-0.41-0.714c-0.202-0.16-0.466-0.24-0.791-0.24
		c-0.373,0-0.706,0.123-1,0.369s-0.489,0.552-0.583,0.914c-0.059,0.238-0.088,0.672-0.088,1.301v1.754h-0.615V191.414z"/>
	<path fill="#6A5D57" d="M61.448,191.414h0.615v3.811c0,0.671-0.059,1.161-0.176,1.472c-0.161,0.439-0.441,0.778-0.839,1.015
		c-0.398,0.238-0.877,0.356-1.437,0.356c-0.41,0-0.779-0.058-1.105-0.174s-0.592-0.272-0.797-0.468s-0.394-0.48-0.567-0.857h0.668
		c0.182,0.316,0.417,0.551,0.704,0.703c0.287,0.152,0.644,0.229,1.069,0.229c0.419,0,0.774-0.078,1.063-0.233
		c0.289-0.156,0.495-0.354,0.618-0.59c0.123-0.236,0.185-0.618,0.185-1.146v-0.246c-0.231,0.294-0.515,0.519-0.849,0.675
		c-0.334,0.157-0.689,0.235-1.064,0.235c-0.44,0-0.854-0.109-1.241-0.327c-0.387-0.219-0.686-0.513-0.897-0.882
		c-0.211-0.369-0.317-0.774-0.317-1.217s0.11-0.854,0.33-1.237c0.22-0.382,0.524-0.685,0.913-0.907s0.798-0.334,1.229-0.334
		c0.358,0,0.691,0.074,1.001,0.222c0.309,0.148,0.607,0.393,0.895,0.731V191.414z M59.633,191.885c-0.349,0-0.672,0.084-0.971,0.252
		c-0.299,0.169-0.533,0.401-0.703,0.699c-0.17,0.297-0.255,0.619-0.255,0.965c0,0.524,0.176,0.957,0.527,1.301
		c0.352,0.342,0.807,0.514,1.367,0.514c0.565,0,1.02-0.17,1.365-0.51c0.344-0.34,0.516-0.787,0.516-1.34
		c0-0.361-0.079-0.683-0.237-0.965c-0.158-0.283-0.382-0.506-0.672-0.67S59.967,191.885,59.633,191.885z"/>
	<path fill="#6A5D57" d="M75.629,189.568v6.627h-0.605v-0.822c-0.258,0.314-0.547,0.55-0.869,0.708
		c-0.32,0.158-0.671,0.237-1.052,0.237c-0.677,0-1.254-0.245-1.734-0.736c-0.479-0.49-0.718-1.088-0.718-1.791
		c0-0.688,0.242-1.276,0.725-1.766s1.065-0.734,1.745-0.734c0.393,0,0.747,0.084,1.065,0.25c0.318,0.168,0.598,0.418,0.838,0.752
		v-2.725H75.629z M73.17,191.885c-0.342,0-0.658,0.084-0.947,0.252c-0.29,0.168-0.521,0.404-0.691,0.709
		c-0.171,0.305-0.257,0.626-0.257,0.966c0,0.336,0.086,0.658,0.259,0.966c0.173,0.307,0.405,0.546,0.696,0.718
		c0.291,0.171,0.604,0.257,0.937,0.257c0.337,0,0.656-0.085,0.957-0.255s0.533-0.399,0.695-0.689
		c0.163-0.29,0.244-0.616,0.244-0.979c0-0.554-0.182-1.016-0.547-1.388C74.152,192.07,73.703,191.885,73.17,191.885z"/>
	<path fill="#6A5D57" d="M79.285,191.291c0.737,0,1.348,0.267,1.832,0.8c0.439,0.486,0.66,1.062,0.66,1.728
		c0,0.668-0.232,1.251-0.697,1.751c-0.466,0.499-1.063,0.749-1.795,0.749c-0.733,0-1.332-0.25-1.798-0.749
		c-0.466-0.5-0.698-1.083-0.698-1.751c0-0.662,0.221-1.236,0.66-1.723C77.934,191.559,78.546,191.291,79.285,191.291z
		 M79.283,191.893c-0.512,0-0.951,0.189-1.318,0.567s-0.551,0.835-0.551,1.371c0,0.346,0.084,0.668,0.251,0.967
		s0.394,0.529,0.679,0.692c0.285,0.162,0.599,0.244,0.939,0.244c0.342,0,0.654-0.082,0.939-0.244
		c0.285-0.163,0.512-0.394,0.68-0.692c0.167-0.299,0.251-0.621,0.251-0.967c0-0.536-0.185-0.993-0.554-1.371
		S79.792,191.893,79.283,191.893z"/>
	<path fill="#6A5D57" d="M87.037,191.414h0.615v3.811c0,0.671-0.059,1.161-0.176,1.472c-0.16,0.439-0.44,0.778-0.839,1.015
		c-0.398,0.238-0.878,0.356-1.437,0.356c-0.41,0-0.779-0.058-1.105-0.174c-0.327-0.116-0.593-0.272-0.798-0.468
		s-0.394-0.48-0.567-0.857h0.668c0.182,0.316,0.417,0.551,0.705,0.703c0.287,0.152,0.643,0.229,1.068,0.229
		c0.42,0,0.773-0.078,1.062-0.233c0.289-0.156,0.495-0.354,0.619-0.59c0.123-0.236,0.184-0.618,0.184-1.146v-0.246
		c-0.23,0.294-0.514,0.519-0.849,0.675c-0.335,0.157-0.688,0.235-1.064,0.235c-0.44,0-0.854-0.109-1.241-0.327
		c-0.387-0.219-0.686-0.513-0.896-0.882s-0.316-0.774-0.316-1.217s0.109-0.854,0.33-1.237c0.219-0.382,0.523-0.685,0.912-0.907
		s0.799-0.334,1.229-0.334c0.358,0,0.691,0.074,1.001,0.222c0.309,0.148,0.607,0.393,0.895,0.731V191.414z M85.223,191.885
		c-0.349,0-0.672,0.084-0.971,0.252c-0.299,0.169-0.533,0.401-0.703,0.699c-0.17,0.297-0.256,0.619-0.256,0.965
		c0,0.524,0.176,0.957,0.527,1.301c0.352,0.342,0.808,0.514,1.367,0.514c0.565,0,1.02-0.17,1.365-0.51
		c0.344-0.34,0.516-0.787,0.516-1.34c0-0.361-0.079-0.683-0.237-0.965c-0.158-0.283-0.382-0.506-0.673-0.67
		C85.869,191.967,85.557,191.885,85.223,191.885z"/>
	<path fill="#6A5D57" d="M90.816,191.414h0.633l1.466,3.472l1.526-3.472h0.111l1.535,3.472l1.494-3.472h0.64l-2.077,4.781h-0.113
		l-1.529-3.424l-1.528,3.424h-0.114L90.816,191.414z"/>
	<path fill="#6A5D57" d="M103.706,191.414v4.781H103.1v-0.822c-0.258,0.314-0.547,0.55-0.868,0.708
		c-0.32,0.158-0.671,0.237-1.052,0.237c-0.678,0-1.255-0.245-1.734-0.736c-0.479-0.49-0.719-1.088-0.719-1.791
		c0-0.688,0.242-1.276,0.726-1.766s1.065-0.734,1.745-0.734c0.393,0,0.747,0.084,1.065,0.25c0.317,0.168,0.597,0.418,0.837,0.752
		v-0.879H103.706z M101.247,191.885c-0.343,0-0.658,0.084-0.948,0.252c-0.289,0.168-0.52,0.404-0.691,0.709
		c-0.171,0.305-0.256,0.626-0.256,0.966c0,0.336,0.086,0.658,0.258,0.966c0.174,0.307,0.405,0.546,0.696,0.718
		c0.291,0.171,0.604,0.257,0.938,0.257c0.337,0,0.655-0.085,0.956-0.255c0.302-0.17,0.533-0.399,0.696-0.689
		s0.243-0.616,0.243-0.979c0-0.554-0.182-1.016-0.546-1.388C102.229,192.07,101.779,191.885,101.247,191.885z"/>
	<path fill="#6A5D57" d="M104.998,189.568h0.615v6.627h-0.615V189.568z"/>
	<path fill="#6A5D57" d="M106.888,189.568h0.615v3.775l2.217-1.93h0.903l-2.628,2.281l2.782,2.5h-0.866l-2.408-2.152v2.152h-0.615
		V189.568z"/>
	<path fill="#6A5D57" d="M111.623,189.445c0.14,0,0.26,0.05,0.358,0.149s0.149,0.22,0.149,0.36c0,0.138-0.051,0.257-0.149,0.355
		c-0.099,0.101-0.219,0.15-0.358,0.15c-0.137,0-0.256-0.05-0.354-0.15c-0.099-0.099-0.149-0.218-0.149-0.355
		c0-0.141,0.051-0.261,0.149-0.36S111.486,189.445,111.623,189.445z M111.317,191.414h0.615v4.781h-0.615V191.414z"/>
	<path fill="#6A5D57" d="M113.211,191.414h0.615v0.857c0.246-0.328,0.52-0.574,0.818-0.736c0.299-0.163,0.623-0.244,0.975-0.244
		c0.357,0,0.676,0.091,0.951,0.272c0.277,0.182,0.482,0.427,0.613,0.733c0.133,0.309,0.198,0.787,0.198,1.438v2.461h-0.615v-2.281
		c0-0.55-0.022-0.918-0.068-1.103c-0.071-0.316-0.208-0.555-0.41-0.714c-0.202-0.16-0.466-0.24-0.791-0.24
		c-0.372,0-0.706,0.123-1,0.369s-0.489,0.552-0.583,0.914c-0.059,0.238-0.088,0.672-0.088,1.301v1.754h-0.615V191.414z"/>
	<path fill="#6A5D57" d="M122.822,191.414h0.615v3.811c0,0.671-0.059,1.161-0.176,1.472c-0.161,0.439-0.441,0.778-0.84,1.015
		c-0.398,0.238-0.877,0.356-1.437,0.356c-0.41,0-0.778-0.058-1.105-0.174s-0.593-0.272-0.798-0.468s-0.394-0.48-0.566-0.857h0.668
		c0.182,0.316,0.416,0.551,0.704,0.703c0.287,0.152,0.644,0.229,1.069,0.229c0.419,0,0.773-0.078,1.062-0.233
		c0.289-0.156,0.494-0.354,0.618-0.59c0.123-0.236,0.185-0.618,0.185-1.146v-0.246c-0.231,0.294-0.515,0.519-0.85,0.675
		c-0.334,0.157-0.688,0.235-1.064,0.235c-0.439,0-0.854-0.109-1.24-0.327c-0.387-0.219-0.686-0.513-0.896-0.882
		c-0.212-0.369-0.317-0.774-0.317-1.217s0.11-0.854,0.33-1.237c0.22-0.382,0.524-0.685,0.913-0.907s0.798-0.334,1.229-0.334
		c0.358,0,0.691,0.074,1.002,0.222c0.309,0.148,0.607,0.393,0.895,0.731V191.414z M121.008,191.885c-0.35,0-0.673,0.084-0.972,0.252
		c-0.299,0.169-0.533,0.401-0.703,0.699c-0.17,0.297-0.255,0.619-0.255,0.965c0,0.524,0.176,0.957,0.527,1.301
		c0.352,0.342,0.807,0.514,1.367,0.514c0.564,0,1.02-0.17,1.364-0.51c0.344-0.34,0.517-0.787,0.517-1.34
		c0-0.361-0.08-0.683-0.238-0.965c-0.158-0.283-0.382-0.506-0.672-0.67S121.342,191.885,121.008,191.885z"/>
	<path fill="#6A5D57" d="M50.272,202.09v0.581h-2.17l-0.305,1.665c0.265-0.078,0.504-0.117,0.717-0.117
		c0.555,0,1.014,0.187,1.374,0.559c0.361,0.372,0.541,0.849,0.541,1.43c0,0.401-0.092,0.77-0.278,1.104s-0.437,0.591-0.753,0.77
		s-0.683,0.268-1.098,0.268c-0.495,0-0.913-0.151-1.253-0.454s-0.543-0.695-0.61-1.177h0.626c0.047,0.235,0.126,0.426,0.239,0.573
		c0.112,0.146,0.261,0.265,0.448,0.354c0.187,0.09,0.382,0.135,0.587,0.135c0.401,0,0.746-0.152,1.034-0.456s0.432-0.684,0.432-1.14
		c0-0.412-0.13-0.746-0.39-1.003s-0.607-0.386-1.042-0.386c-0.359,0-0.795,0.109-1.307,0.328l0.564-3.034H50.272z"/>
	<path fill="#6A5D57" d="M52.376,202.09h1.199v6.105H52.97v-5.508h-0.958L52.376,202.09z"/>
	<path fill="#6A5D57" d="M56.498,203.999h-0.585c0.017-0.602,0.218-1.096,0.604-1.482c0.386-0.387,0.862-0.58,1.43-0.58
		c0.562,0,1.016,0.182,1.363,0.544s0.521,0.79,0.521,1.283c0,0.346-0.083,0.671-0.249,0.974s-0.487,0.713-0.964,1.231l-1.521,1.637
		h2.816v0.59h-4.146l2.333-2.521c0.473-0.507,0.781-0.883,0.923-1.128s0.213-0.504,0.213-0.774c0-0.344-0.128-0.64-0.384-0.888
		c-0.256-0.247-0.569-0.371-0.94-0.371c-0.39,0-0.714,0.13-0.973,0.39C56.681,203.164,56.534,203.529,56.498,203.999z"/>
	<path fill="#6A5D57" d="M61.512,207.282c0.141,0,0.261,0.05,0.361,0.149s0.149,0.222,0.149,0.365c0,0.141-0.05,0.262-0.149,0.363
		c-0.1,0.101-0.22,0.151-0.361,0.151s-0.261-0.051-0.361-0.151c-0.1-0.102-0.149-0.223-0.149-0.363c0-0.144,0.05-0.266,0.149-0.365
		S61.371,207.282,61.512,207.282z"/>
	<path fill="#6A5D57" d="M63.562,203.999h-0.585c0.017-0.602,0.218-1.096,0.604-1.482c0.386-0.387,0.862-0.58,1.43-0.58
		c0.562,0,1.016,0.182,1.363,0.544s0.521,0.79,0.521,1.283c0,0.346-0.083,0.671-0.249,0.974s-0.487,0.713-0.964,1.231l-1.521,1.637
		h2.816v0.59h-4.146l2.333-2.521c0.473-0.507,0.781-0.883,0.923-1.128s0.213-0.504,0.213-0.774c0-0.344-0.128-0.64-0.384-0.888
		c-0.256-0.247-0.569-0.371-0.94-0.371c-0.39,0-0.714,0.13-0.973,0.39C63.745,203.164,63.598,203.529,63.562,203.999z"/>
	<path fill="#6A5D57" d="M68.272,203.999h-0.585c0.017-0.602,0.218-1.096,0.604-1.482c0.386-0.387,0.862-0.58,1.43-0.58
		c0.562,0,1.016,0.182,1.363,0.544s0.521,0.79,0.521,1.283c0,0.346-0.083,0.671-0.249,0.974s-0.487,0.713-0.964,1.231l-1.521,1.637
		h2.816v0.59h-4.146l2.333-2.521c0.473-0.507,0.781-0.883,0.923-1.128s0.213-0.504,0.213-0.774c0-0.344-0.128-0.64-0.384-0.888
		c-0.256-0.247-0.569-0.371-0.94-0.371c-0.39,0-0.714,0.13-0.973,0.39C68.456,203.164,68.308,203.529,68.272,203.999z"/>
	<path fill="#6A5D57" d="M75.266,204.846c0.412,0.205,0.708,0.438,0.887,0.701c0.178,0.264,0.268,0.562,0.268,0.896
		c0,0.471-0.154,0.886-0.461,1.246c-0.377,0.439-0.914,0.659-1.615,0.659c-0.674,0-1.186-0.192-1.535-0.579
		c-0.349-0.386-0.523-0.811-0.523-1.275c0-0.341,0.092-0.647,0.274-0.92s0.487-0.516,0.913-0.729
		c-0.299-0.154-0.523-0.347-0.672-0.576c-0.149-0.23-0.224-0.477-0.224-0.739c0-0.266,0.079-0.525,0.238-0.778
		s0.379-0.452,0.66-0.598c0.281-0.146,0.585-0.218,0.912-0.218c0.317,0,0.612,0.073,0.883,0.22c0.271,0.146,0.484,0.346,0.638,0.598
		s0.229,0.517,0.229,0.793s-0.072,0.523-0.217,0.738C75.774,204.502,75.557,204.688,75.266,204.846z M74.384,205.153
		c-0.42,0-0.772,0.136-1.057,0.408s-0.427,0.591-0.427,0.953c0,0.224,0.061,0.436,0.182,0.635c0.122,0.199,0.292,0.353,0.51,0.461
		c0.219,0.107,0.472,0.161,0.759,0.161c0.444,0,0.798-0.131,1.062-0.394c0.262-0.263,0.393-0.57,0.393-0.922
		c0-0.34-0.139-0.643-0.416-0.906C75.111,205.285,74.776,205.153,74.384,205.153z M74.355,202.53c-0.336,0-0.613,0.099-0.834,0.297
		c-0.221,0.197-0.33,0.434-0.33,0.707c0,0.271,0.117,0.517,0.355,0.737c0.236,0.22,0.513,0.33,0.828,0.33
		c0.203,0,0.395-0.051,0.574-0.15s0.321-0.235,0.422-0.408c0.102-0.173,0.152-0.347,0.152-0.521c0-0.246-0.1-0.473-0.3-0.68
		C75.024,202.634,74.734,202.53,74.355,202.53z"/>
	<path fill="#6A5D57" d="M77.997,207.282c0.142,0,0.261,0.05,0.36,0.149s0.15,0.222,0.15,0.365c0,0.141-0.051,0.262-0.15,0.363
		c-0.1,0.101-0.219,0.151-0.36,0.151s-0.261-0.051-0.36-0.151c-0.1-0.102-0.15-0.223-0.15-0.363c0-0.144,0.051-0.266,0.15-0.365
		S77.855,207.282,77.997,207.282z"/>
	<path fill="#6A5D57" d="M82.185,201.937l0.502,0.328l-1.651,2.498c0.223-0.074,0.43-0.112,0.623-0.112
		c0.485,0,0.896,0.176,1.235,0.525c0.338,0.351,0.507,0.781,0.507,1.293c0,0.352-0.082,0.669-0.245,0.952
		c-0.163,0.284-0.396,0.51-0.696,0.677c-0.3,0.168-0.623,0.251-0.97,0.251c-0.335,0-0.646-0.081-0.933-0.242
		c-0.287-0.162-0.512-0.39-0.676-0.683c-0.163-0.294-0.244-0.607-0.244-0.942c0-0.249,0.05-0.512,0.151-0.787
		c0.101-0.275,0.282-0.606,0.542-0.993L82.185,201.937z M81.514,205.187c-0.354,0-0.657,0.125-0.908,0.375
		c-0.25,0.251-0.376,0.555-0.376,0.911c0,0.354,0.126,0.656,0.376,0.907c0.252,0.25,0.555,0.376,0.908,0.376
		c0.355,0,0.658-0.126,0.908-0.376c0.252-0.251,0.377-0.553,0.377-0.907c0-0.356-0.125-0.66-0.377-0.911
		C82.172,205.312,81.869,205.187,81.514,205.187z"/>
	<path fill="#6A5D57" d="M84.043,205.145c0-0.805,0.088-1.428,0.26-1.867c0.174-0.44,0.418-0.773,0.732-1
		c0.316-0.228,0.668-0.341,1.059-0.341c0.396,0,0.754,0.114,1.075,0.343c0.321,0.228,0.575,0.57,0.762,1.027
		c0.187,0.456,0.28,1.069,0.28,1.838c0,0.767-0.092,1.377-0.276,1.83c-0.185,0.454-0.438,0.797-0.761,1.027
		c-0.324,0.231-0.684,0.347-1.08,0.347c-0.391,0-0.741-0.112-1.055-0.336c-0.312-0.224-0.557-0.559-0.732-1.002
		C84.131,206.566,84.043,205.944,84.043,205.145z M84.621,205.155c0,0.689,0.061,1.211,0.184,1.563
		c0.123,0.354,0.306,0.621,0.547,0.804c0.24,0.183,0.494,0.274,0.764,0.274c0.271,0,0.523-0.089,0.76-0.268
		c0.234-0.179,0.413-0.447,0.535-0.804c0.152-0.436,0.229-0.958,0.229-1.57c0-0.615-0.068-1.118-0.204-1.51s-0.323-0.679-0.562-0.86
		c-0.239-0.181-0.491-0.271-0.757-0.271c-0.271,0-0.526,0.091-0.764,0.271c-0.238,0.182-0.42,0.449-0.545,0.802
		C84.684,203.94,84.621,204.463,84.621,205.155z"/>
	<path fill="#6A5D57" d="M91.605,201.937l0.502,0.328l-1.65,2.498c0.222-0.074,0.43-0.112,0.623-0.112
		c0.484,0,0.896,0.176,1.234,0.525c0.338,0.351,0.508,0.781,0.508,1.293c0,0.352-0.082,0.669-0.246,0.952
		c-0.162,0.284-0.395,0.51-0.695,0.677c-0.301,0.168-0.624,0.251-0.971,0.251c-0.334,0-0.646-0.081-0.932-0.242
		c-0.287-0.162-0.512-0.39-0.676-0.683c-0.164-0.294-0.245-0.607-0.245-0.942c0-0.249,0.05-0.512,0.151-0.787
		s0.282-0.606,0.543-0.993L91.605,201.937z M90.936,205.187c-0.355,0-0.658,0.125-0.908,0.375c-0.251,0.251-0.377,0.555-0.377,0.911
		c0,0.354,0.126,0.656,0.377,0.907c0.251,0.25,0.554,0.376,0.908,0.376c0.355,0,0.658-0.126,0.908-0.376
		c0.251-0.251,0.377-0.553,0.377-0.907c0-0.356-0.126-0.66-0.377-0.911C91.594,205.312,91.29,205.187,90.936,205.187z"/>
	<path fill="#6A5D57" d="M96.316,201.937l0.502,0.328l-1.65,2.498c0.222-0.074,0.43-0.112,0.623-0.112
		c0.484,0,0.896,0.176,1.234,0.525c0.338,0.351,0.508,0.781,0.508,1.293c0,0.352-0.082,0.669-0.246,0.952
		c-0.162,0.284-0.395,0.51-0.695,0.677c-0.301,0.168-0.624,0.251-0.971,0.251c-0.334,0-0.646-0.081-0.932-0.242
		c-0.287-0.162-0.512-0.39-0.676-0.683c-0.164-0.294-0.245-0.607-0.245-0.942c0-0.249,0.05-0.512,0.151-0.787
		s0.282-0.606,0.543-0.993L96.316,201.937z M95.646,205.187c-0.355,0-0.658,0.125-0.908,0.375c-0.251,0.251-0.377,0.555-0.377,0.911
		c0,0.354,0.126,0.656,0.377,0.907c0.251,0.25,0.554,0.376,0.908,0.376c0.355,0,0.658-0.126,0.908-0.376
		c0.251-0.251,0.377-0.553,0.377-0.907c0-0.356-0.126-0.66-0.377-0.911C96.305,205.312,96.001,205.187,95.646,205.187z"/>
	<path fill="#6A5D57" d="M6.658,213.88h0.581v0.78c0.202-0.288,0.41-0.498,0.623-0.631c0.293-0.177,0.603-0.266,0.927-0.266
		c0.219,0,0.426,0.043,0.623,0.129s0.357,0.199,0.482,0.342c0.125,0.143,0.233,0.347,0.324,0.612
		c0.193-0.354,0.435-0.623,0.725-0.807c0.29-0.185,0.602-0.276,0.936-0.276c0.312,0,0.587,0.079,0.826,0.236
		c0.239,0.158,0.416,0.378,0.532,0.66c0.116,0.282,0.174,0.706,0.174,1.271v2.465h-0.593v-2.465c0-0.484-0.035-0.817-0.104-0.999
		c-0.069-0.181-0.187-0.327-0.354-0.438c-0.167-0.11-0.366-0.166-0.598-0.166c-0.281,0-0.539,0.083-0.771,0.249
		s-0.403,0.388-0.511,0.664s-0.162,0.738-0.162,1.387v1.768H9.737v-2.312c0-0.545-0.034-0.915-0.102-1.11s-0.186-0.352-0.354-0.469
		c-0.169-0.118-0.37-0.177-0.602-0.177c-0.269,0-0.52,0.081-0.753,0.243c-0.234,0.161-0.407,0.379-0.519,0.653
		c-0.112,0.274-0.168,0.693-0.168,1.258v1.913H6.658V213.88z"/>
	<path fill="#6A5D57" d="M14.836,212.021c0.132,0,0.245,0.047,0.339,0.141c0.094,0.095,0.141,0.208,0.141,0.341
		c0,0.13-0.047,0.242-0.141,0.336c-0.094,0.095-0.207,0.142-0.339,0.142c-0.129,0-0.241-0.047-0.334-0.142
		c-0.094-0.094-0.141-0.206-0.141-0.336c0-0.133,0.047-0.246,0.141-0.341C14.595,212.067,14.707,212.021,14.836,212.021z
		 M14.548,213.88h0.581v4.516h-0.581V213.88z"/>
	<path fill="#6A5D57" d="M20.719,214.817l-0.461,0.287c-0.398-0.528-0.941-0.793-1.629-0.793c-0.55,0-1.007,0.177-1.37,0.53
		c-0.363,0.354-0.545,0.784-0.545,1.29c0,0.328,0.083,0.638,0.25,0.929c0.167,0.29,0.396,0.515,0.688,0.676
		c0.292,0.16,0.619,0.24,0.98,0.24c0.664,0,1.205-0.265,1.625-0.793l0.461,0.303c-0.216,0.325-0.506,0.577-0.87,0.757
		c-0.364,0.179-0.778,0.269-1.243,0.269c-0.714,0-1.306-0.227-1.776-0.681c-0.471-0.454-0.706-1.006-0.706-1.656
		c0-0.437,0.11-0.843,0.33-1.218c0.22-0.375,0.522-0.668,0.907-0.878c0.384-0.21,0.814-0.315,1.291-0.315
		c0.299,0,0.587,0.046,0.865,0.137c0.278,0.092,0.514,0.211,0.708,0.357C20.419,214.404,20.583,214.591,20.719,214.817z"/>
	<path fill="#6A5D57" d="M21.836,212.137h0.581v2.553c0.235-0.311,0.494-0.542,0.776-0.695s0.588-0.23,0.917-0.23
		c0.337,0,0.637,0.086,0.898,0.257c0.262,0.172,0.455,0.402,0.579,0.691s0.187,0.742,0.187,1.359v2.324h-0.581v-2.154
		c0-0.52-0.021-0.867-0.062-1.041c-0.072-0.299-0.203-0.524-0.392-0.675c-0.189-0.151-0.438-0.227-0.745-0.227
		c-0.352,0-0.666,0.116-0.944,0.349c-0.278,0.232-0.461,0.521-0.55,0.863c-0.055,0.222-0.083,0.631-0.083,1.229v1.656h-0.581
		V212.137z"/>
	<path fill="#6A5D57" d="M30.822,216.897l0.49,0.257c-0.161,0.315-0.346,0.57-0.557,0.764c-0.21,0.194-0.447,0.341-0.71,0.442
		c-0.263,0.101-0.561,0.151-0.893,0.151c-0.737,0-1.313-0.241-1.728-0.725c-0.416-0.482-0.623-1.028-0.623-1.637
		c0-0.573,0.176-1.083,0.527-1.532c0.446-0.569,1.042-0.854,1.791-0.854c0.77,0,1.385,0.292,1.844,0.876
		c0.327,0.412,0.493,0.927,0.499,1.544h-4.063c0.011,0.524,0.178,0.954,0.502,1.29c0.324,0.335,0.725,0.503,1.201,0.503
		c0.23,0,0.454-0.04,0.671-0.12s0.402-0.187,0.555-0.318S30.645,217.192,30.822,216.897z M30.822,215.681
		c-0.078-0.31-0.19-0.557-0.339-0.742c-0.148-0.186-0.344-0.335-0.588-0.448s-0.5-0.171-0.769-0.171
		c-0.443,0-0.824,0.143-1.143,0.428c-0.232,0.208-0.409,0.52-0.528,0.934H30.822z"/>
	<path fill="#6A5D57" d="M32.457,212.137h0.581v6.259h-0.581V212.137z"/>
	<path fill="#6A5D57" d="M34.159,212.137h0.581v6.259h-0.581V212.137z"/>
	<path fill="#6A5D57" d="M39.749,216.897l0.49,0.257c-0.161,0.315-0.346,0.57-0.557,0.764c-0.21,0.194-0.447,0.341-0.71,0.442
		c-0.263,0.101-0.561,0.151-0.893,0.151c-0.737,0-1.313-0.241-1.728-0.725c-0.416-0.482-0.623-1.028-0.623-1.637
		c0-0.573,0.176-1.083,0.527-1.532c0.446-0.569,1.042-0.854,1.791-0.854c0.77,0,1.385,0.292,1.844,0.876
		c0.327,0.412,0.493,0.927,0.499,1.544h-4.063c0.011,0.524,0.178,0.954,0.502,1.29c0.324,0.335,0.725,0.503,1.201,0.503
		c0.23,0,0.454-0.04,0.671-0.12s0.402-0.187,0.555-0.318S39.572,217.192,39.749,216.897z M39.749,215.681
		c-0.078-0.31-0.19-0.557-0.339-0.742c-0.148-0.186-0.344-0.335-0.588-0.448s-0.5-0.171-0.769-0.171
		c-0.443,0-0.824,0.143-1.143,0.428c-0.232,0.208-0.409,0.52-0.528,0.934H39.749z"/>
	<path fill="#6A5D57" d="M46.817,217.15h0.44c-0.371,0.462-0.714,0.786-1.029,0.972c-0.448,0.26-0.958,0.39-1.532,0.39
		c-0.605,0-1.165-0.144-1.677-0.43c-0.512-0.287-0.911-0.678-1.197-1.173c-0.286-0.496-0.43-1.037-0.43-1.624
		c0-0.596,0.145-1.149,0.434-1.661c0.289-0.513,0.683-0.911,1.181-1.194c0.498-0.284,1.043-0.426,1.635-0.426
		c0.835,0,1.541,0.268,2.117,0.804s0.863,1.159,0.863,1.871c0,0.519-0.12,0.965-0.359,1.34c-0.239,0.375-0.563,0.667-0.973,0.874
		c-0.313,0.161-0.58,0.241-0.801,0.241c-0.161,0-0.288-0.043-0.382-0.129c-0.072-0.063-0.109-0.174-0.112-0.332
		c-0.094,0.119-0.223,0.219-0.388,0.299c-0.165,0.08-0.335,0.121-0.513,0.121c-0.398,0-0.728-0.139-0.987-0.414
		c-0.26-0.275-0.39-0.641-0.39-1.095c0-0.49,0.158-0.938,0.473-1.343c0.315-0.404,0.749-0.606,1.302-0.606
		c0.243,0,0.447,0.046,0.611,0.137c0.165,0.092,0.32,0.251,0.467,0.478l0.109-0.572h0.449l-0.481,2.714
		c-0.014,0.089-0.021,0.146-0.021,0.171c0,0.064,0.02,0.115,0.059,0.152c0.039,0.036,0.088,0.055,0.149,0.055
		c0.163,0,0.375-0.095,0.637-0.284c0.262-0.19,0.465-0.434,0.61-0.731c0.145-0.298,0.218-0.628,0.218-0.991
		c0-0.703-0.272-1.286-0.817-1.749c-0.509-0.429-1.129-0.644-1.859-0.644c-0.542,0-1.034,0.124-1.476,0.372
		c-0.441,0.247-0.79,0.597-1.046,1.046c-0.256,0.45-0.384,0.937-0.384,1.46c0,0.529,0.128,1.018,0.386,1.465
		s0.614,0.798,1.069,1.053s0.957,0.382,1.504,0.382c0.401,0,0.765-0.072,1.092-0.216C46.093,217.787,46.443,217.526,46.817,217.15z
		 M44.301,216.623c0.183,0,0.354-0.058,0.515-0.173c0.16-0.114,0.288-0.287,0.382-0.518c0.122-0.303,0.182-0.606,0.182-0.911
		c0-0.28-0.078-0.507-0.234-0.681c-0.156-0.175-0.359-0.262-0.607-0.262c-0.332,0-0.619,0.137-0.861,0.409
		c-0.242,0.273-0.363,0.613-0.363,1.021c0,0.341,0.092,0.612,0.276,0.813C43.774,216.522,44.011,216.623,44.301,216.623z"/>
	<path fill="#6A5D57" d="M48.755,212.137h0.581v6.259h-0.581V212.137z"/>
	<path fill="#6A5D57" d="M50.746,212.021c0.132,0,0.245,0.047,0.339,0.141c0.094,0.095,0.141,0.208,0.141,0.341
		c0,0.13-0.047,0.242-0.141,0.336c-0.094,0.095-0.207,0.142-0.339,0.142c-0.129,0-0.241-0.047-0.334-0.142
		c-0.094-0.094-0.141-0.206-0.141-0.336c0-0.133,0.047-0.246,0.141-0.341C50.504,212.067,50.616,212.021,50.746,212.021z
		 M50.458,213.88h0.581v4.516h-0.581V213.88z"/>
	<path fill="#6A5D57" d="M52.752,212.203h0.581v1.677h0.921v0.502h-0.921v4.014h-0.581v-4.014h-0.792v-0.502h0.792V212.203z"/>
	<path fill="#6A5D57" d="M55.633,212.203h0.581v1.677h0.921v0.502h-0.921v4.014h-0.581v-4.014H54.84v-0.502h0.792V212.203z"/>
	<path fill="#6A5D57" d="M57.919,212.137H58.5v6.259h-0.581V212.137z"/>
	<path fill="#6A5D57" d="M63.51,216.897l0.49,0.257c-0.161,0.315-0.346,0.57-0.557,0.764c-0.21,0.194-0.447,0.341-0.71,0.442
		c-0.263,0.101-0.561,0.151-0.893,0.151c-0.737,0-1.313-0.241-1.728-0.725c-0.416-0.482-0.623-1.028-0.623-1.637
		c0-0.573,0.176-1.083,0.527-1.532c0.446-0.569,1.042-0.854,1.791-0.854c0.77,0,1.385,0.292,1.844,0.876
		c0.327,0.412,0.493,0.927,0.499,1.544h-4.063c0.011,0.524,0.178,0.954,0.502,1.29c0.324,0.335,0.725,0.503,1.201,0.503
		c0.23,0,0.454-0.04,0.671-0.12s0.402-0.187,0.555-0.318S63.333,217.192,63.51,216.897z M63.51,215.681
		c-0.078-0.31-0.19-0.557-0.339-0.742c-0.148-0.186-0.344-0.335-0.588-0.448s-0.5-0.171-0.769-0.171
		c-0.443,0-0.824,0.143-1.143,0.428c-0.232,0.208-0.409,0.52-0.528,0.934H63.51z"/>
	<path fill="#6A5D57" d="M65.013,213.88h0.593v0.66c0.177-0.261,0.364-0.455,0.56-0.583c0.197-0.129,0.401-0.193,0.614-0.193
		c0.161,0,0.332,0.051,0.515,0.153l-0.303,0.49c-0.122-0.053-0.224-0.079-0.307-0.079c-0.194,0-0.38,0.079-0.56,0.238
		c-0.18,0.159-0.317,0.406-0.411,0.741c-0.072,0.258-0.108,0.777-0.108,1.561v1.527h-0.593V213.88z"/>
	<path fill="#6A5D57" d="M72.288,213.88v4.516h-0.573v-0.776c-0.244,0.296-0.517,0.519-0.82,0.669
		c-0.303,0.148-0.634,0.224-0.994,0.224c-0.639,0-1.185-0.231-1.637-0.695c-0.452-0.463-0.678-1.027-0.678-1.691
		c0-0.65,0.228-1.206,0.685-1.668s1.006-0.693,1.647-0.693c0.371,0,0.707,0.079,1.007,0.236c0.3,0.158,0.563,0.395,0.791,0.71v-0.83
		H72.288z M69.966,214.324c-0.323,0-0.622,0.079-0.896,0.238c-0.273,0.159-0.491,0.382-0.653,0.67
		c-0.162,0.287-0.243,0.591-0.243,0.911c0,0.318,0.082,0.622,0.245,0.912s0.382,0.517,0.657,0.678
		c0.275,0.162,0.57,0.243,0.885,0.243c0.318,0,0.619-0.08,0.904-0.24c0.285-0.161,0.503-0.378,0.657-0.651s0.23-0.582,0.23-0.925
		c0-0.521-0.172-0.959-0.517-1.31C70.893,214.5,70.469,214.324,69.966,214.324z"/>
	<path fill="#6A5D57" d="M75.865,214.374l-0.373,0.386c-0.311-0.302-0.615-0.452-0.912-0.452c-0.188,0-0.35,0.062-0.484,0.187
		s-0.201,0.27-0.201,0.436c0,0.146,0.055,0.286,0.166,0.419c0.111,0.136,0.344,0.295,0.699,0.478
		c0.432,0.225,0.726,0.44,0.881,0.647c0.152,0.211,0.229,0.447,0.229,0.71c0,0.371-0.13,0.685-0.391,0.942
		c-0.26,0.257-0.586,0.386-0.977,0.386c-0.26,0-0.51-0.057-0.746-0.17s-0.434-0.271-0.588-0.47l0.365-0.414
		c0.297,0.334,0.611,0.502,0.944,0.502c0.233,0,0.431-0.075,0.595-0.225s0.246-0.325,0.246-0.527c0-0.166-0.055-0.313-0.163-0.443
		c-0.108-0.128-0.353-0.288-0.731-0.481c-0.408-0.211-0.686-0.418-0.832-0.623c-0.147-0.204-0.221-0.438-0.221-0.701
		c0-0.343,0.117-0.628,0.352-0.854c0.234-0.228,0.529-0.341,0.887-0.341C75.025,213.764,75.444,213.967,75.865,214.374z"/>
	<path fill="#6A5D57" d="M81.277,214.817l-0.461,0.287c-0.397-0.528-0.94-0.793-1.629-0.793c-0.55,0-1.006,0.177-1.369,0.53
		c-0.363,0.354-0.545,0.784-0.545,1.29c0,0.328,0.083,0.638,0.25,0.929c0.167,0.29,0.396,0.515,0.688,0.676
		c0.293,0.16,0.619,0.24,0.98,0.24c0.664,0,1.205-0.265,1.625-0.793l0.461,0.303c-0.215,0.325-0.506,0.577-0.869,0.757
		c-0.363,0.179-0.777,0.269-1.242,0.269c-0.715,0-1.307-0.227-1.777-0.681s-0.705-1.006-0.705-1.656c0-0.437,0.109-0.843,0.33-1.218
		c0.22-0.375,0.521-0.668,0.906-0.878s0.814-0.315,1.291-0.315c0.299,0,0.588,0.046,0.865,0.137
		c0.278,0.092,0.514,0.211,0.707,0.357C80.978,214.404,81.143,214.591,81.277,214.817z"/>
	<path fill="#6A5D57" d="M86.893,213.88v4.516H86.32v-0.776c-0.244,0.296-0.517,0.519-0.82,0.669
		c-0.303,0.148-0.634,0.224-0.994,0.224c-0.639,0-1.184-0.231-1.637-0.695c-0.452-0.463-0.678-1.027-0.678-1.691
		c0-0.65,0.228-1.206,0.684-1.668c0.457-0.462,1.006-0.693,1.648-0.693c0.371,0,0.706,0.079,1.006,0.236
		c0.301,0.158,0.564,0.395,0.791,0.71v-0.83H86.893z M84.57,214.324c-0.322,0-0.621,0.079-0.895,0.238s-0.492,0.382-0.653,0.67
		c-0.161,0.287-0.243,0.591-0.243,0.911c0,0.318,0.082,0.622,0.245,0.912s0.382,0.517,0.657,0.678
		c0.275,0.162,0.57,0.243,0.885,0.243c0.318,0,0.619-0.08,0.904-0.24c0.285-0.161,0.504-0.378,0.656-0.651
		c0.154-0.273,0.23-0.582,0.23-0.925c0-0.521-0.172-0.959-0.516-1.31S85.074,214.324,84.57,214.324z"/>
	<path fill="#6A5D57" d="M88.113,212.137h0.582v6.259h-0.582V212.137z"/>
	<path fill="#6A5D57" d="M92.173,214.374l-0.374,0.386c-0.311-0.302-0.614-0.452-0.911-0.452c-0.188,0-0.351,0.062-0.485,0.187
		c-0.134,0.124-0.201,0.27-0.201,0.436c0,0.146,0.056,0.286,0.166,0.419c0.111,0.136,0.344,0.295,0.699,0.478
		c0.433,0.225,0.727,0.44,0.882,0.647c0.152,0.211,0.229,0.447,0.229,0.71c0,0.371-0.13,0.685-0.391,0.942
		c-0.261,0.257-0.587,0.386-0.978,0.386c-0.26,0-0.509-0.057-0.746-0.17c-0.236-0.113-0.433-0.271-0.588-0.47l0.365-0.414
		c0.297,0.334,0.611,0.502,0.945,0.502c0.232,0,0.431-0.075,0.594-0.225c0.164-0.149,0.246-0.325,0.246-0.527
		c0-0.166-0.055-0.313-0.162-0.443c-0.108-0.128-0.353-0.288-0.732-0.481c-0.408-0.211-0.686-0.418-0.832-0.623
		c-0.146-0.204-0.221-0.438-0.221-0.701c0-0.343,0.117-0.628,0.352-0.854c0.234-0.228,0.53-0.341,0.888-0.341
		C91.333,213.764,91.752,213.967,92.173,214.374z"/>
	<path fill="#6A5D57" d="M97.701,213.88v4.516h-0.573v-0.776c-0.243,0.296-0.517,0.519-0.819,0.669
		c-0.303,0.148-0.635,0.224-0.994,0.224c-0.639,0-1.186-0.231-1.638-0.695c-0.452-0.463-0.679-1.027-0.679-1.691
		c0-0.65,0.229-1.206,0.686-1.668c0.456-0.462,1.006-0.693,1.646-0.693c0.371,0,0.707,0.079,1.008,0.236
		c0.3,0.158,0.562,0.395,0.79,0.71v-0.83H97.701z M95.379,214.324c-0.324,0-0.622,0.079-0.896,0.238
		c-0.273,0.159-0.49,0.382-0.652,0.67c-0.162,0.287-0.242,0.591-0.242,0.911c0,0.318,0.081,0.622,0.244,0.912
		s0.383,0.517,0.657,0.678c0.274,0.162,0.569,0.243,0.886,0.243c0.317,0,0.619-0.08,0.903-0.24c0.284-0.161,0.503-0.378,0.657-0.651
		c0.152-0.273,0.23-0.582,0.23-0.925c0-0.521-0.173-0.959-0.518-1.31C96.305,214.5,95.881,214.324,95.379,214.324z"/>
	<path fill="#6A5D57" d="M98.934,213.88h0.581v2.108c0,0.515,0.028,0.869,0.083,1.062c0.084,0.276,0.242,0.495,0.477,0.655
		c0.233,0.161,0.513,0.241,0.837,0.241s0.599-0.078,0.825-0.234c0.226-0.156,0.382-0.362,0.468-0.616
		c0.058-0.175,0.087-0.544,0.087-1.108v-2.108h0.594v2.217c0,0.622-0.072,1.091-0.218,1.406s-0.364,0.562-0.655,0.741
		c-0.293,0.179-0.658,0.268-1.098,0.268c-0.441,0-0.809-0.089-1.103-0.268c-0.295-0.179-0.515-0.428-0.66-0.747
		s-0.218-0.801-0.218-1.442V213.88z"/>
	<path fill="#6A5D57" d="M106.445,214.374l-0.373,0.386c-0.311-0.302-0.615-0.452-0.912-0.452c-0.188,0-0.35,0.062-0.484,0.187
		s-0.201,0.27-0.201,0.436c0,0.146,0.055,0.286,0.166,0.419c0.111,0.136,0.344,0.295,0.699,0.478
		c0.432,0.225,0.726,0.44,0.881,0.647c0.152,0.211,0.229,0.447,0.229,0.71c0,0.371-0.13,0.685-0.391,0.942
		c-0.26,0.257-0.586,0.386-0.977,0.386c-0.26,0-0.51-0.057-0.746-0.17s-0.434-0.271-0.588-0.47l0.365-0.414
		c0.297,0.334,0.611,0.502,0.944,0.502c0.233,0,0.431-0.075,0.595-0.225s0.246-0.325,0.246-0.527c0-0.166-0.055-0.313-0.163-0.443
		c-0.108-0.128-0.353-0.288-0.731-0.481c-0.408-0.211-0.686-0.418-0.832-0.623c-0.147-0.204-0.221-0.438-0.221-0.701
		c0-0.343,0.117-0.628,0.352-0.854c0.234-0.228,0.529-0.341,0.887-0.341C105.605,213.764,106.024,213.967,106.445,214.374z"/>
	<path fill="#6A5D57" d="M107.981,212.203h0.581v1.677h0.922v0.502h-0.922v4.014h-0.581v-4.014h-0.792v-0.502h0.792V212.203z"/>
	<path fill="#6A5D57" d="M110.557,212.021c0.133,0,0.245,0.047,0.339,0.141c0.094,0.095,0.141,0.208,0.141,0.341
		c0,0.13-0.047,0.242-0.141,0.336c-0.094,0.095-0.206,0.142-0.339,0.142c-0.129,0-0.241-0.047-0.334-0.142
		c-0.094-0.094-0.141-0.206-0.141-0.336c0-0.133,0.047-0.246,0.141-0.341C110.315,212.067,110.428,212.021,110.557,212.021z
		 M110.269,213.88h0.581v4.516h-0.581V213.88z"/>
	<path fill="#6A5D57" d="M112.057,213.88h0.582v0.81c0.232-0.311,0.489-0.542,0.771-0.695s0.59-0.23,0.922-0.23
		c0.337,0,0.637,0.086,0.898,0.257c0.262,0.172,0.454,0.403,0.578,0.693c0.125,0.291,0.188,0.743,0.188,1.357v2.324h-0.582v-2.154
		c0-0.52-0.021-0.867-0.064-1.041c-0.066-0.299-0.195-0.524-0.387-0.675c-0.191-0.151-0.439-0.227-0.747-0.227
		c-0.352,0-0.667,0.116-0.944,0.349c-0.278,0.232-0.462,0.521-0.551,0.863c-0.055,0.225-0.082,0.634-0.082,1.229v1.656h-0.582
		V213.88z"/>
	<path fill="#6A5D57" d="M117.88,217.482c0.142,0,0.261,0.05,0.36,0.149s0.15,0.222,0.15,0.365c0,0.141-0.051,0.262-0.15,0.363
		c-0.1,0.101-0.219,0.151-0.36,0.151s-0.261-0.051-0.36-0.151c-0.1-0.102-0.15-0.223-0.15-0.363c0-0.144,0.051-0.266,0.15-0.365
		S117.738,217.482,117.88,217.482z"/>
	<path fill="#6A5D57" d="M123.977,214.817l-0.461,0.287c-0.397-0.528-0.94-0.793-1.629-0.793c-0.55,0-1.006,0.177-1.369,0.53
		c-0.363,0.354-0.545,0.784-0.545,1.29c0,0.328,0.083,0.638,0.25,0.929c0.167,0.29,0.396,0.515,0.688,0.676
		c0.293,0.16,0.619,0.24,0.98,0.24c0.664,0,1.205-0.265,1.625-0.793l0.461,0.303c-0.215,0.325-0.506,0.577-0.869,0.757
		c-0.363,0.179-0.777,0.269-1.242,0.269c-0.715,0-1.307-0.227-1.777-0.681s-0.705-1.006-0.705-1.656c0-0.437,0.109-0.843,0.33-1.218
		c0.22-0.375,0.521-0.668,0.906-0.878s0.814-0.315,1.291-0.315c0.299,0,0.588,0.046,0.865,0.137
		c0.278,0.092,0.514,0.211,0.707,0.357C123.677,214.404,123.842,214.591,123.977,214.817z"/>
	<path fill="#6A5D57" d="M127.23,213.764c0.695,0,1.272,0.252,1.73,0.755c0.415,0.46,0.623,1.004,0.623,1.632
		c0,0.631-0.22,1.182-0.659,1.653c-0.438,0.472-1.004,0.708-1.694,0.708c-0.693,0-1.259-0.236-1.698-0.708s-0.659-1.022-0.659-1.653
		c0-0.626,0.208-1.168,0.624-1.627C125.954,214.017,126.532,213.764,127.23,213.764z M127.229,214.332
		c-0.482,0-0.898,0.179-1.245,0.536c-0.347,0.356-0.521,0.788-0.521,1.295c0,0.326,0.079,0.631,0.237,0.912
		c0.158,0.283,0.372,0.501,0.642,0.654s0.564,0.23,0.887,0.23s0.617-0.077,0.887-0.23s0.484-0.371,0.643-0.654
		c0.158-0.281,0.236-0.586,0.236-0.912c0-0.507-0.174-0.938-0.522-1.295C128.123,214.511,127.709,214.332,127.229,214.332z"/>
	<path fill="#6A5D57" d="M130.655,213.88h0.581v0.78c0.202-0.288,0.41-0.498,0.623-0.631c0.293-0.177,0.603-0.266,0.927-0.266
		c0.219,0,0.427,0.043,0.623,0.129s0.357,0.199,0.481,0.342c0.125,0.143,0.233,0.347,0.324,0.612
		c0.193-0.354,0.436-0.623,0.725-0.807c0.291-0.185,0.602-0.276,0.936-0.276c0.312,0,0.588,0.079,0.826,0.236
		c0.239,0.158,0.416,0.378,0.533,0.66c0.115,0.282,0.174,0.706,0.174,1.271v2.465h-0.594v-2.465c0-0.484-0.035-0.817-0.104-0.999
		c-0.069-0.181-0.188-0.327-0.354-0.438c-0.167-0.11-0.366-0.166-0.598-0.166c-0.281,0-0.539,0.083-0.771,0.249
		c-0.233,0.166-0.404,0.388-0.512,0.664s-0.161,0.738-0.161,1.387v1.768h-0.581v-2.312c0-0.545-0.033-0.915-0.102-1.11
		s-0.186-0.352-0.354-0.469c-0.169-0.118-0.37-0.177-0.603-0.177c-0.268,0-0.52,0.081-0.753,0.243
		c-0.233,0.161-0.407,0.379-0.519,0.653c-0.112,0.274-0.168,0.693-0.168,1.258v1.913h-0.581V213.88z"/>
	<path fill="#6A5D57" d="M15.369,224.08h0.598l1.384,3.279l1.441-3.279h0.105l1.45,3.279l1.411-3.279h0.604l-1.961,4.516h-0.108
		l-1.444-3.233l-1.443,3.233h-0.108L15.369,224.08z"/>
	<path fill="#6A5D57" d="M22.433,224.08h0.598l1.384,3.279l1.441-3.279h0.105l1.45,3.279l1.411-3.279h0.604l-1.961,4.516h-0.108
		l-1.444-3.233l-1.443,3.233h-0.108L22.433,224.08z"/>
	<path fill="#6A5D57" d="M29.497,224.08h0.598l1.384,3.279l1.441-3.279h0.105l1.45,3.279l1.411-3.279h0.604l-1.961,4.516h-0.108
		l-1.444-3.233l-1.443,3.233h-0.108L29.497,224.08z"/>
	<path fill="#6A5D57" d="M37.811,227.683c0.141,0,0.261,0.05,0.361,0.149s0.149,0.222,0.149,0.365c0,0.141-0.05,0.262-0.149,0.363
		c-0.1,0.101-0.22,0.151-0.361,0.151s-0.261-0.051-0.361-0.151c-0.1-0.102-0.149-0.223-0.149-0.363c0-0.144,0.05-0.266,0.149-0.365
		S37.669,227.683,37.811,227.683z"/>
	<path fill="#6A5D57" d="M39.438,222.337h0.581v6.259h-0.581V222.337z"/>
	<path fill="#6A5D57" d="M41.427,222.221c0.132,0,0.245,0.047,0.339,0.141c0.094,0.095,0.141,0.208,0.141,0.341
		c0,0.13-0.047,0.242-0.141,0.336c-0.094,0.095-0.207,0.142-0.339,0.142c-0.129,0-0.241-0.047-0.334-0.142
		c-0.094-0.094-0.141-0.206-0.141-0.336c0-0.133,0.047-0.246,0.141-0.341C41.186,222.268,41.298,222.221,41.427,222.221z
		 M41.139,224.08h0.581v4.516h-0.581V224.08z"/>
	<path fill="#6A5D57" d="M43.435,222.403h0.581v1.677h0.921v0.502h-0.921v4.014h-0.581v-4.014h-0.792v-0.502h0.792V222.403z"/>
	<path fill="#6A5D57" d="M46.314,222.403h0.581v1.677h0.921v0.502h-0.921v4.014h-0.581v-4.014h-0.792v-0.502h0.792V222.403z"/>
	<path fill="#6A5D57" d="M48.602,222.337h0.581v6.259h-0.581V222.337z"/>
	<path fill="#6A5D57" d="M54.192,227.098l0.49,0.257c-0.161,0.315-0.346,0.57-0.557,0.764c-0.21,0.194-0.447,0.341-0.71,0.442
		c-0.263,0.101-0.561,0.151-0.893,0.151c-0.737,0-1.313-0.241-1.728-0.725c-0.416-0.482-0.623-1.028-0.623-1.637
		c0-0.573,0.176-1.083,0.527-1.532c0.446-0.569,1.042-0.854,1.791-0.854c0.77,0,1.385,0.292,1.844,0.876
		c0.327,0.412,0.493,0.927,0.499,1.544h-4.063c0.011,0.524,0.178,0.954,0.502,1.29c0.324,0.335,0.725,0.503,1.201,0.503
		c0.23,0,0.454-0.04,0.671-0.12s0.402-0.187,0.555-0.318S54.015,227.393,54.192,227.098z M54.192,225.881
		c-0.078-0.31-0.19-0.557-0.339-0.742c-0.148-0.186-0.344-0.335-0.588-0.448s-0.5-0.171-0.769-0.171
		c-0.443,0-0.824,0.143-1.143,0.428c-0.232,0.208-0.409,0.52-0.528,0.934H54.192z"/>
	<path fill="#6A5D57" d="M55.695,224.08h0.593v0.66c0.177-0.261,0.364-0.455,0.56-0.583c0.197-0.129,0.401-0.193,0.614-0.193
		c0.161,0,0.332,0.051,0.515,0.153l-0.303,0.49c-0.122-0.053-0.224-0.079-0.307-0.079c-0.194,0-0.38,0.079-0.56,0.238
		c-0.18,0.159-0.317,0.406-0.411,0.741c-0.072,0.258-0.108,0.777-0.108,1.561v1.527h-0.593V224.08z"/>
	<path fill="#6A5D57" d="M62.97,224.08v4.516h-0.573v-0.776c-0.244,0.296-0.517,0.519-0.82,0.669
		c-0.303,0.148-0.634,0.224-0.994,0.224c-0.639,0-1.185-0.231-1.637-0.695c-0.452-0.463-0.678-1.027-0.678-1.691
		c0-0.65,0.228-1.206,0.685-1.668s1.006-0.693,1.647-0.693c0.371,0,0.707,0.079,1.007,0.236c0.3,0.158,0.563,0.395,0.791,0.71v-0.83
		H62.97z M60.648,224.524c-0.323,0-0.622,0.079-0.896,0.238c-0.273,0.159-0.491,0.382-0.653,0.67
		c-0.162,0.287-0.243,0.591-0.243,0.911c0,0.318,0.082,0.622,0.245,0.912s0.382,0.517,0.657,0.678
		c0.275,0.162,0.57,0.243,0.885,0.243c0.318,0,0.619-0.08,0.904-0.24c0.285-0.161,0.503-0.378,0.657-0.651s0.23-0.582,0.23-0.925
		c0-0.521-0.172-0.959-0.517-1.31C61.575,224.7,61.151,224.524,60.648,224.524z"/>
	<path fill="#6A5D57" d="M66.548,224.574l-0.374,0.386c-0.311-0.302-0.614-0.452-0.911-0.452c-0.188,0-0.35,0.062-0.485,0.187
		c-0.134,0.124-0.202,0.27-0.202,0.436c0,0.146,0.056,0.286,0.167,0.419c0.111,0.136,0.344,0.295,0.699,0.478
		c0.433,0.225,0.726,0.44,0.882,0.647c0.152,0.211,0.229,0.447,0.229,0.71c0,0.371-0.13,0.685-0.391,0.942
		c-0.261,0.257-0.586,0.386-0.977,0.386c-0.26,0-0.509-0.057-0.746-0.17s-0.433-0.271-0.588-0.47l0.365-0.414
		c0.297,0.334,0.612,0.502,0.945,0.502c0.233,0,0.431-0.075,0.595-0.225S66,227.61,66,227.408c0-0.166-0.054-0.313-0.163-0.443
		c-0.108-0.128-0.352-0.288-0.732-0.481c-0.408-0.211-0.685-0.418-0.832-0.623c-0.147-0.204-0.22-0.438-0.22-0.701
		c0-0.343,0.117-0.628,0.351-0.854c0.234-0.228,0.53-0.341,0.888-0.341C65.708,223.964,66.127,224.167,66.548,224.574z"/>
	<path fill="#6A5D57" d="M71.96,225.018l-0.461,0.287c-0.398-0.528-0.941-0.793-1.629-0.793c-0.55,0-1.007,0.177-1.37,0.53
		c-0.363,0.354-0.545,0.784-0.545,1.29c0,0.328,0.083,0.638,0.25,0.929c0.167,0.29,0.396,0.515,0.688,0.676
		c0.292,0.16,0.619,0.24,0.98,0.24c0.664,0,1.205-0.265,1.625-0.793l0.461,0.303c-0.216,0.325-0.506,0.577-0.87,0.757
		c-0.364,0.179-0.778,0.269-1.243,0.269c-0.714,0-1.306-0.227-1.776-0.681c-0.471-0.454-0.706-1.006-0.706-1.656
		c0-0.437,0.11-0.843,0.33-1.218c0.22-0.375,0.522-0.668,0.907-0.878c0.384-0.21,0.814-0.315,1.291-0.315
		c0.299,0,0.587,0.046,0.865,0.137c0.278,0.092,0.514,0.211,0.708,0.357C71.66,224.604,71.824,224.791,71.96,225.018z"/>
	<path fill="#6A5D57" d="M77.576,224.08v4.516h-0.573v-0.776c-0.243,0.296-0.517,0.519-0.819,0.669
		c-0.303,0.148-0.635,0.224-0.994,0.224c-0.639,0-1.186-0.231-1.638-0.695c-0.452-0.463-0.678-1.027-0.678-1.691
		c0-0.65,0.228-1.206,0.685-1.668c0.456-0.462,1.006-0.693,1.646-0.693c0.371,0,0.707,0.079,1.008,0.236
		c0.3,0.158,0.562,0.395,0.79,0.71v-0.83H77.576z M75.254,224.524c-0.324,0-0.622,0.079-0.896,0.238
		c-0.273,0.159-0.49,0.382-0.652,0.67c-0.162,0.287-0.242,0.591-0.242,0.911c0,0.318,0.081,0.622,0.244,0.912
		s0.383,0.517,0.657,0.678c0.274,0.162,0.569,0.243,0.886,0.243c0.317,0,0.619-0.08,0.903-0.24c0.284-0.161,0.503-0.378,0.657-0.651
		c0.152-0.273,0.23-0.582,0.23-0.925c0-0.521-0.173-0.959-0.518-1.31C76.18,224.7,75.756,224.524,75.254,224.524z"/>
	<path fill="#6A5D57" d="M78.796,222.337h0.581v6.259h-0.581V222.337z"/>
	<path fill="#6A5D57" d="M82.855,224.574l-0.375,0.386c-0.311-0.302-0.613-0.452-0.91-0.452c-0.189,0-0.351,0.062-0.485,0.187
		c-0.134,0.124-0.202,0.27-0.202,0.436c0,0.146,0.057,0.286,0.167,0.419c0.11,0.136,0.344,0.295,0.698,0.478
		c0.434,0.225,0.727,0.44,0.883,0.647c0.152,0.211,0.229,0.447,0.229,0.71c0,0.371-0.131,0.685-0.391,0.942
		c-0.262,0.257-0.587,0.386-0.978,0.386c-0.261,0-0.509-0.057-0.746-0.17s-0.433-0.271-0.589-0.47l0.365-0.414
		c0.297,0.334,0.612,0.502,0.945,0.502c0.232,0,0.432-0.075,0.595-0.225s0.245-0.325,0.245-0.527c0-0.166-0.054-0.313-0.162-0.443
		c-0.107-0.128-0.352-0.288-0.732-0.481c-0.407-0.211-0.685-0.418-0.832-0.623c-0.146-0.204-0.22-0.438-0.22-0.701
		c0-0.343,0.117-0.628,0.351-0.854c0.234-0.228,0.531-0.341,0.889-0.341C82.016,223.964,82.434,224.167,82.855,224.574z"/>
	<path fill="#6A5D57" d="M88.383,224.08v4.516h-0.572v-0.776c-0.244,0.296-0.517,0.519-0.82,0.669
		c-0.303,0.148-0.634,0.224-0.994,0.224c-0.639,0-1.184-0.231-1.637-0.695c-0.452-0.463-0.678-1.027-0.678-1.691
		c0-0.65,0.228-1.206,0.684-1.668c0.457-0.462,1.006-0.693,1.648-0.693c0.371,0,0.706,0.079,1.006,0.236
		c0.301,0.158,0.564,0.395,0.791,0.71v-0.83H88.383z M86.061,224.524c-0.322,0-0.621,0.079-0.895,0.238s-0.492,0.382-0.653,0.67
		c-0.161,0.287-0.243,0.591-0.243,0.911c0,0.318,0.082,0.622,0.245,0.912s0.382,0.517,0.657,0.678
		c0.275,0.162,0.57,0.243,0.885,0.243c0.318,0,0.619-0.08,0.904-0.24c0.285-0.161,0.504-0.378,0.656-0.651
		c0.154-0.273,0.23-0.582,0.23-0.925c0-0.521-0.172-0.959-0.516-1.31S86.564,224.524,86.061,224.524z"/>
	<path fill="#6A5D57" d="M89.615,224.08h0.582v2.108c0,0.515,0.027,0.869,0.082,1.062c0.084,0.276,0.242,0.495,0.477,0.655
		c0.234,0.161,0.514,0.241,0.838,0.241s0.599-0.078,0.824-0.234c0.227-0.156,0.383-0.362,0.469-0.616
		c0.058-0.175,0.087-0.544,0.087-1.108v-2.108h0.593v2.217c0,0.622-0.072,1.091-0.217,1.406c-0.146,0.315-0.364,0.562-0.656,0.741
		s-0.658,0.268-1.098,0.268c-0.44,0-0.808-0.089-1.102-0.268c-0.295-0.179-0.516-0.428-0.66-0.747
		c-0.146-0.319-0.219-0.801-0.219-1.442V224.08z"/>
	<path fill="#6A5D57" d="M97.129,224.574l-0.375,0.386c-0.311-0.302-0.613-0.452-0.91-0.452c-0.189,0-0.351,0.062-0.485,0.187
		c-0.134,0.124-0.202,0.27-0.202,0.436c0,0.146,0.057,0.286,0.167,0.419c0.11,0.136,0.344,0.295,0.698,0.478
		c0.434,0.225,0.727,0.44,0.883,0.647c0.152,0.211,0.229,0.447,0.229,0.71c0,0.371-0.131,0.685-0.391,0.942
		c-0.262,0.257-0.587,0.386-0.978,0.386c-0.261,0-0.509-0.057-0.746-0.17s-0.433-0.271-0.589-0.47l0.365-0.414
		c0.297,0.334,0.612,0.502,0.945,0.502c0.232,0,0.432-0.075,0.595-0.225s0.245-0.325,0.245-0.527c0-0.166-0.054-0.313-0.162-0.443
		c-0.107-0.128-0.352-0.288-0.732-0.481c-0.407-0.211-0.685-0.418-0.832-0.623c-0.146-0.204-0.22-0.438-0.22-0.701
		c0-0.343,0.117-0.628,0.351-0.854c0.234-0.228,0.531-0.341,0.889-0.341C96.289,223.964,96.707,224.167,97.129,224.574z"/>
	<path fill="#6A5D57" d="M98.664,222.403h0.58v1.677h0.922v0.502h-0.922v4.014h-0.58v-4.014h-0.793v-0.502h0.793V222.403z"/>
	<path fill="#6A5D57" d="M101.238,222.221c0.133,0,0.246,0.047,0.34,0.141c0.094,0.095,0.141,0.208,0.141,0.341
		c0,0.13-0.047,0.242-0.141,0.336c-0.094,0.095-0.207,0.142-0.34,0.142c-0.129,0-0.24-0.047-0.334-0.142
		c-0.094-0.094-0.141-0.206-0.141-0.336c0-0.133,0.047-0.246,0.141-0.341C100.998,222.268,101.109,222.221,101.238,222.221z
		 M100.951,224.08h0.58v4.516h-0.58V224.08z"/>
	<path fill="#6A5D57" d="M102.739,224.08h0.581v0.81c0.232-0.311,0.49-0.542,0.771-0.695c0.283-0.153,0.59-0.23,0.922-0.23
		c0.338,0,0.637,0.086,0.898,0.257c0.262,0.172,0.455,0.403,0.579,0.693c0.124,0.291,0.187,0.743,0.187,1.357v2.324h-0.581v-2.154
		c0-0.52-0.021-0.867-0.064-1.041c-0.067-0.299-0.196-0.524-0.388-0.675c-0.19-0.151-0.439-0.227-0.746-0.227
		c-0.352,0-0.667,0.116-0.945,0.349c-0.277,0.232-0.461,0.521-0.55,0.863c-0.056,0.225-0.083,0.634-0.083,1.229v1.656h-0.581V224.08
		z"/>
	<path fill="#6A5D57" d="M108.562,227.683c0.141,0,0.262,0.05,0.361,0.149s0.148,0.222,0.148,0.365c0,0.141-0.049,0.262-0.148,0.363
		c-0.1,0.101-0.221,0.151-0.361,0.151s-0.262-0.051-0.361-0.151c-0.1-0.102-0.148-0.223-0.148-0.363
		c0-0.144,0.049-0.266,0.148-0.365S108.422,227.683,108.562,227.683z"/>
	<path fill="#6A5D57" d="M114.659,225.018l-0.461,0.287c-0.397-0.528-0.94-0.793-1.629-0.793c-0.55,0-1.007,0.177-1.37,0.53
		c-0.363,0.354-0.545,0.784-0.545,1.29c0,0.328,0.084,0.638,0.25,0.929c0.168,0.29,0.396,0.515,0.688,0.676
		c0.292,0.16,0.618,0.24,0.98,0.24c0.663,0,1.205-0.265,1.625-0.793l0.461,0.303c-0.216,0.325-0.506,0.577-0.87,0.757
		c-0.363,0.179-0.777,0.269-1.242,0.269c-0.714,0-1.307-0.227-1.776-0.681c-0.471-0.454-0.706-1.006-0.706-1.656
		c0-0.437,0.11-0.843,0.33-1.218c0.221-0.375,0.522-0.668,0.907-0.878c0.384-0.21,0.814-0.315,1.29-0.315
		c0.299,0,0.588,0.046,0.865,0.137c0.279,0.092,0.515,0.211,0.708,0.357C114.359,224.604,114.523,224.791,114.659,225.018z"/>
	<path fill="#6A5D57" d="M117.914,223.964c0.695,0,1.271,0.252,1.729,0.755c0.416,0.46,0.624,1.004,0.624,1.632
		c0,0.631-0.22,1.182-0.659,1.653s-1.004,0.708-1.693,0.708c-0.693,0-1.26-0.236-1.699-0.708s-0.658-1.022-0.658-1.653
		c0-0.626,0.207-1.168,0.623-1.627C116.637,224.217,117.215,223.964,117.914,223.964z M117.911,224.532
		c-0.483,0-0.897,0.179-1.245,0.536c-0.348,0.356-0.521,0.788-0.521,1.295c0,0.326,0.08,0.631,0.238,0.912
		c0.158,0.283,0.372,0.501,0.641,0.654c0.27,0.153,0.566,0.23,0.888,0.23c0.322,0,0.618-0.077,0.888-0.23s0.482-0.371,0.641-0.654
		c0.158-0.281,0.238-0.586,0.238-0.912c0-0.507-0.175-0.938-0.523-1.295C118.807,224.711,118.392,224.532,117.911,224.532z"/>
	<path fill="#6A5D57" d="M121.338,224.08h0.58v0.78c0.203-0.288,0.41-0.498,0.623-0.631c0.294-0.177,0.604-0.266,0.928-0.266
		c0.219,0,0.426,0.043,0.623,0.129c0.196,0.086,0.357,0.199,0.481,0.342c0.125,0.143,0.233,0.347,0.324,0.612
		c0.193-0.354,0.435-0.623,0.725-0.807c0.29-0.185,0.602-0.276,0.936-0.276c0.312,0,0.587,0.079,0.826,0.236
		c0.239,0.158,0.416,0.378,0.532,0.66c0.115,0.282,0.174,0.706,0.174,1.271v2.465h-0.594v-2.465c0-0.484-0.034-0.817-0.104-0.999
		c-0.068-0.181-0.187-0.327-0.354-0.438c-0.166-0.11-0.365-0.166-0.598-0.166c-0.281,0-0.539,0.083-0.771,0.249
		s-0.403,0.388-0.511,0.664s-0.161,0.738-0.161,1.387v1.768h-0.582v-2.312c0-0.545-0.033-0.915-0.102-1.11
		c-0.067-0.195-0.186-0.352-0.354-0.469c-0.17-0.118-0.37-0.177-0.603-0.177c-0.269,0-0.52,0.081-0.753,0.243
		c-0.234,0.161-0.407,0.379-0.52,0.653c-0.111,0.274-0.168,0.693-0.168,1.258v1.913h-0.58V224.08z"/>
</g>
<path fill="#E35A2E" d="M66.718,195.79c-0.883-0.697-1.91-1.357-2.539-2.32c-0.444-0.678-0.684-1.981,0.473-2.081
	c0.67-0.055,1.104,0.463,1.527,0.886l0.258,0.26c0.413-0.55,1.027-1.203,1.784-1.178c0.514,0.019,0.838,0.485,0.83,0.953
	c-0.015,0.825-0.525,1.461-1.058,2.043C67.886,194.471,66.698,195.775,66.718,195.79z"/>
</svg>
