<?xml version="1.0" encoding="UTF-8" standalone="no"?>
<!-- Generator: Adobe Illustrator 14.0.0, SVG Export Plug-In . SVG Version: 6.00 Build 43363)  -->

<svg
   xmlns:dc="http://purl.org/dc/elements/1.1/"
   xmlns:cc="http://creativecommons.org/ns#"
   xmlns:rdf="http://www.w3.org/1999/02/22-rdf-syntax-ns#"
   xmlns:svg="http://www.w3.org/2000/svg"
   xmlns="http://www.w3.org/2000/svg"
   xmlns:sodipodi="http://sodipodi.sourceforge.net/DTD/sodipodi-0.dtd"
   xmlns:inkscape="http://www.inkscape.org/namespaces/inkscape"
   version="1.1"
   id="Layer_1"
   x="0px"
   y="0px"
   width="144px"
   height="126px"
   viewBox="0 0 144 126"
   enable-background="new 0 0 144 126"
   xml:space="preserve"
   inkscape:version="0.48.5 r10040"
   sodipodi:docname="little_rascals.cat.magnet.orig.svg"><metadata
     id="metadata225"><rdf:RDF><cc:Work
         rdf:about=""><dc:format>image/svg+xml</dc:format><dc:type
           rdf:resource="http://purl.org/dc/dcmitype/StillImage" /></cc:Work></rdf:RDF></metadata><defs
     id="defs223" /><sodipodi:namedview
     pagecolor="#ffffff"
     bordercolor="#666666"
     borderopacity="1"
     objecttolerance="10"
     gridtolerance="10"
     guidetolerance="10"
     inkscape:pageopacity="0"
     inkscape:pageshadow="2"
     inkscape:window-width="2870"
     inkscape:window-height="1737"
     id="namedview221"
     showgrid="false"
     showguides="false"
     inkscape:zoom="8"
     inkscape:cx="145.32857"
     inkscape:cy="74.531946"
     inkscape:window-x="0"
     inkscape:window-y="24"
     inkscape:window-maximized="0"
     inkscape:current-layer="Layer_1" /><g
     id="g5"><path
       fill="#695C57"
       d="M20.449,106.916h0.676v7.277h-0.676V106.916z"
       id="path7" /><path
       fill="#695C57"
       d="M22.763,106.781c0.154,0,0.285,0.055,0.394,0.164s0.164,0.241,0.164,0.396c0,0.151-0.055,0.282-0.164,0.392   s-0.24,0.164-0.394,0.164c-0.15,0-0.28-0.055-0.389-0.164s-0.163-0.24-0.163-0.392c0-0.154,0.054-0.286,0.163-0.396   S22.613,106.781,22.763,106.781z M22.428,108.943h0.676v5.25h-0.676V108.943z"
       id="path9" /><path
       fill="#695C57"
       d="M25.097,106.994h0.675v1.949h1.072v0.584h-1.072v4.666h-0.675v-4.666h-0.922v-0.584h0.922V106.994z"
       id="path11" /><path
       fill="#695C57"
       d="M28.446,106.994h0.675v1.949h1.072v0.584h-1.072v4.666h-0.675v-4.666h-0.922v-0.584h0.922V106.994z"
       id="path13" /><path
       fill="#695C57"
       d="M31.105,106.916h0.676v7.277h-0.676V106.916z"
       id="path15" /><path
       fill="#695C57"
       d="M37.605,112.451l0.57,0.3c-0.187,0.366-0.403,0.663-0.647,0.888c-0.245,0.226-0.52,0.396-0.826,0.514   c-0.306,0.117-0.652,0.177-1.039,0.177c-0.856,0-1.526-0.28-2.009-0.843c-0.483-0.561-0.725-1.195-0.725-1.903   c0-0.666,0.205-1.26,0.613-1.78c0.519-0.663,1.212-0.994,2.082-0.994c0.895,0,1.61,0.339,2.145,1.018   c0.38,0.479,0.573,1.078,0.58,1.795h-4.725c0.013,0.61,0.208,1.11,0.585,1.5c0.376,0.391,0.842,0.586,1.396,0.586   c0.268,0,0.528-0.047,0.781-0.141c0.252-0.092,0.468-0.216,0.645-0.369C37.208,113.043,37.399,112.795,37.605,112.451z    M37.605,111.037c-0.09-0.359-0.221-0.648-0.394-0.863s-0.4-0.389-0.684-0.521c-0.283-0.132-0.581-0.197-0.894-0.197   c-0.516,0-0.958,0.166-1.329,0.496c-0.271,0.242-0.475,0.604-0.613,1.086H37.605z"
       id="path17" /><path
       fill="#695C57"
       d="M39.353,108.943h0.69v0.768c0.206-0.303,0.423-0.529,0.652-0.679c0.228-0.149,0.466-0.224,0.714-0.224   c0.187,0,0.386,0.059,0.599,0.178l-0.353,0.57c-0.142-0.062-0.26-0.092-0.357-0.092c-0.225,0-0.442,0.092-0.651,0.277   c-0.209,0.185-0.369,0.472-0.478,0.861c-0.083,0.299-0.125,0.904-0.125,1.814v1.775h-0.69V108.943z"
       id="path19" /><path
       fill="#695C57"
       d="M47.813,108.943v5.25h-0.666v-0.902c-0.283,0.345-0.601,0.604-0.953,0.777   c-0.353,0.174-0.738,0.261-1.156,0.261c-0.743,0-1.378-0.27-1.904-0.809c-0.526-0.538-0.789-1.194-0.789-1.966   c0-0.757,0.265-1.403,0.796-1.941c0.531-0.537,1.169-0.805,1.916-0.805c0.431,0,0.821,0.092,1.17,0.274   c0.349,0.184,0.655,0.458,0.919,0.825v-0.965H47.813z M45.113,109.459c-0.376,0-0.723,0.094-1.042,0.277   c-0.318,0.186-0.571,0.445-0.759,0.779s-0.282,0.688-0.282,1.061c0,0.369,0.095,0.723,0.284,1.061   c0.19,0.337,0.444,0.6,0.764,0.787c0.32,0.188,0.663,0.283,1.029,0.283c0.37,0,0.72-0.094,1.051-0.28s0.585-0.438,0.764-0.757   c0.178-0.318,0.268-0.676,0.268-1.074c0-0.607-0.2-1.115-0.6-1.523C46.19,109.664,45.698,109.459,45.113,109.459z"
       id="path21" /><path
       fill="#695C57"
       d="M51.973,109.518l-0.434,0.449c-0.361-0.352-0.715-0.526-1.06-0.526c-0.22,0-0.408,0.072-0.564,0.217   c-0.156,0.146-0.235,0.313-0.235,0.507c0,0.171,0.065,0.333,0.194,0.487c0.129,0.157,0.399,0.343,0.812,0.556   c0.503,0.26,0.845,0.512,1.025,0.752c0.177,0.245,0.266,0.52,0.266,0.826c0,0.431-0.151,0.796-0.455,1.096   c-0.303,0.299-0.681,0.448-1.136,0.448c-0.303,0-0.592-0.065-0.867-0.198c-0.276-0.132-0.504-0.313-0.684-0.545l0.425-0.482   c0.345,0.389,0.711,0.584,1.098,0.584c0.271,0,0.501-0.088,0.692-0.261c0.19-0.174,0.286-0.378,0.286-0.613   c0-0.192-0.063-0.364-0.189-0.517c-0.125-0.147-0.409-0.334-0.851-0.56c-0.474-0.244-0.796-0.485-0.967-0.724   s-0.256-0.51-0.256-0.816c0-0.398,0.136-0.729,0.409-0.994c0.272-0.264,0.616-0.395,1.032-0.395   C50.996,108.809,51.483,109.045,51.973,109.518z"
       id="path23" /><path
       fill="#695C57"
       d="M58.266,110.033l-0.536,0.334c-0.463-0.615-1.094-0.922-1.895-0.922c-0.64,0-1.17,0.205-1.593,0.617   c-0.422,0.411-0.634,0.91-0.634,1.498c0,0.383,0.097,0.743,0.292,1.08c0.195,0.338,0.461,0.6,0.8,0.786   c0.339,0.187,0.719,0.28,1.14,0.28c0.771,0,1.401-0.308,1.89-0.922l0.536,0.352c-0.251,0.378-0.588,0.672-1.011,0.88   c-0.423,0.208-0.905,0.312-1.445,0.312c-0.83,0-1.519-0.264-2.065-0.792c-0.547-0.527-0.82-1.169-0.82-1.926   c0-0.508,0.128-0.98,0.384-1.416c0.255-0.436,0.607-0.775,1.054-1.021s0.948-0.366,1.501-0.366c0.348,0,0.683,0.053,1.006,0.158   c0.323,0.106,0.598,0.245,0.823,0.416C57.917,109.553,58.108,109.77,58.266,110.033z"
       id="path25" /><path
       fill="#695C57"
       d="M64.795,108.943v5.25h-0.666v-0.902c-0.283,0.345-0.601,0.604-0.953,0.777   c-0.353,0.174-0.738,0.261-1.156,0.261c-0.743,0-1.378-0.27-1.904-0.809c-0.526-0.538-0.789-1.194-0.789-1.966   c0-0.757,0.265-1.403,0.796-1.941c0.531-0.537,1.169-0.805,1.916-0.805c0.431,0,0.821,0.092,1.17,0.274   c0.349,0.184,0.655,0.458,0.919,0.825v-0.965H64.795z M62.095,109.459c-0.376,0-0.723,0.094-1.042,0.277   c-0.318,0.186-0.571,0.445-0.759,0.779s-0.282,0.688-0.282,1.061c0,0.369,0.095,0.723,0.284,1.061   c0.19,0.337,0.444,0.6,0.764,0.787c0.32,0.188,0.663,0.283,1.029,0.283c0.37,0,0.72-0.094,1.051-0.28s0.585-0.438,0.764-0.757   c0.178-0.318,0.268-0.676,0.268-1.074c0-0.607-0.2-1.115-0.6-1.523C63.172,109.664,62.68,109.459,62.095,109.459z"
       id="path27" /><path
       fill="#695C57"
       d="M66.214,106.916h0.676v7.277h-0.676V106.916z"
       id="path29" /><path
       fill="#695C57"
       d="M70.934,109.518l-0.434,0.449c-0.361-0.352-0.715-0.526-1.06-0.526c-0.22,0-0.408,0.072-0.564,0.217   c-0.156,0.146-0.235,0.313-0.235,0.507c0,0.171,0.065,0.333,0.194,0.487c0.129,0.157,0.399,0.343,0.812,0.556   c0.503,0.26,0.845,0.512,1.025,0.752c0.177,0.245,0.266,0.52,0.266,0.826c0,0.431-0.151,0.796-0.455,1.096   c-0.303,0.299-0.681,0.448-1.136,0.448c-0.303,0-0.592-0.065-0.867-0.198c-0.276-0.132-0.504-0.313-0.684-0.545l0.425-0.482   c0.345,0.389,0.711,0.584,1.098,0.584c0.271,0,0.501-0.088,0.692-0.261c0.19-0.174,0.286-0.378,0.286-0.613   c0-0.192-0.063-0.364-0.189-0.517c-0.125-0.147-0.409-0.334-0.851-0.56c-0.474-0.244-0.796-0.485-0.967-0.724   s-0.256-0.51-0.256-0.816c0-0.398,0.136-0.729,0.409-0.994c0.272-0.264,0.616-0.395,1.032-0.395   C69.958,108.809,70.444,109.045,70.934,109.518z"
       id="path31" /><path
       fill="#695C57"
       d="M77.362,108.943v5.25h-0.666v-0.902c-0.283,0.345-0.601,0.604-0.953,0.777s-0.737,0.261-1.155,0.261   c-0.744,0-1.379-0.27-1.904-0.809c-0.526-0.538-0.789-1.194-0.789-1.966c0-0.757,0.265-1.403,0.796-1.941   c0.531-0.537,1.169-0.805,1.916-0.805c0.431,0,0.821,0.092,1.171,0.274c0.349,0.184,0.654,0.458,0.919,0.825v-0.965H77.362z    M74.662,109.459c-0.376,0-0.723,0.094-1.041,0.277c-0.318,0.186-0.572,0.445-0.76,0.779c-0.188,0.334-0.282,0.688-0.282,1.061   c0,0.369,0.095,0.723,0.284,1.061c0.19,0.337,0.445,0.6,0.764,0.787c0.319,0.188,0.663,0.283,1.029,0.283   c0.37,0,0.72-0.094,1.051-0.28s0.585-0.438,0.765-0.757c0.178-0.318,0.268-0.676,0.268-1.074c0-0.607-0.201-1.115-0.601-1.523   C75.739,109.664,75.247,109.459,74.662,109.459z"
       id="path33" /><path
       fill="#695C57"
       d="M78.795,108.943h0.676v2.451c0,0.599,0.033,1.011,0.098,1.236c0.096,0.321,0.28,0.575,0.553,0.762   c0.271,0.188,0.597,0.28,0.974,0.28s0.696-0.091,0.96-0.272c0.262-0.182,0.443-0.421,0.543-0.717   c0.068-0.203,0.102-0.633,0.102-1.289v-2.451h0.69v2.576c0,0.725-0.085,1.27-0.253,1.637c-0.17,0.367-0.424,0.654-0.763,0.861   c-0.34,0.207-0.765,0.312-1.276,0.312s-0.939-0.104-1.281-0.312c-0.343-0.207-0.599-0.497-0.768-0.869   c-0.169-0.371-0.254-0.93-0.254-1.676V108.943z"
       id="path35" /><path
       fill="#695C57"
       d="M87.53,109.518l-0.435,0.449c-0.361-0.352-0.715-0.526-1.059-0.526c-0.221,0-0.408,0.072-0.564,0.217   c-0.156,0.146-0.234,0.313-0.234,0.507c0,0.171,0.064,0.333,0.193,0.487c0.129,0.157,0.399,0.343,0.812,0.556   c0.503,0.26,0.845,0.512,1.025,0.752c0.177,0.245,0.266,0.52,0.266,0.826c0,0.431-0.151,0.796-0.455,1.096   c-0.303,0.299-0.681,0.448-1.135,0.448c-0.303,0-0.592-0.065-0.867-0.198c-0.276-0.132-0.504-0.313-0.685-0.545l0.425-0.482   c0.345,0.389,0.711,0.584,1.098,0.584c0.271,0,0.502-0.088,0.691-0.261c0.191-0.174,0.286-0.378,0.286-0.613   c0-0.192-0.063-0.364-0.188-0.517c-0.126-0.147-0.41-0.334-0.852-0.56c-0.475-0.244-0.797-0.485-0.967-0.724   c-0.172-0.238-0.257-0.51-0.257-0.816c0-0.398,0.136-0.729,0.409-0.994c0.271-0.264,0.615-0.395,1.031-0.395   C86.554,108.809,87.041,109.045,87.53,109.518z"
       id="path37" /><path
       fill="#695C57"
       d="M89.316,106.994h0.676v1.949h1.071v0.584h-1.071v4.666h-0.676v-4.666h-0.922v-0.584h0.922V106.994z"
       id="path39" /><path
       fill="#695C57"
       d="M92.311,106.781c0.154,0,0.285,0.055,0.395,0.164c0.108,0.109,0.163,0.241,0.163,0.396   c0,0.151-0.055,0.282-0.163,0.392c-0.109,0.109-0.24,0.164-0.395,0.164c-0.15,0-0.28-0.055-0.389-0.164   c-0.109-0.109-0.164-0.24-0.164-0.392c0-0.154,0.055-0.286,0.164-0.396C92.03,106.836,92.16,106.781,92.311,106.781z    M91.975,108.943h0.676v5.25h-0.676V108.943z"
       id="path41" /><path
       fill="#695C57"
       d="M94.055,108.943h0.676v0.941c0.271-0.361,0.57-0.631,0.898-0.809c0.328-0.179,0.685-0.268,1.07-0.268   c0.393,0,0.741,0.1,1.045,0.299c0.305,0.199,0.529,0.468,0.674,0.806s0.217,0.864,0.217,1.578v2.702h-0.676v-2.504   c0-0.605-0.025-1.009-0.074-1.211c-0.079-0.348-0.229-0.609-0.451-0.785c-0.222-0.176-0.512-0.263-0.869-0.263   c-0.408,0-0.774,0.136-1.098,0.405c-0.323,0.271-0.537,0.605-0.64,1.004c-0.064,0.261-0.097,0.736-0.097,1.428v1.926h-0.676   V108.943z"
       id="path43" /><path
       fill="#695C57"
       d="M100.826,113.133c0.164,0,0.305,0.057,0.42,0.173s0.174,0.258,0.174,0.425c0,0.164-0.059,0.305-0.174,0.422   s-0.256,0.177-0.42,0.177s-0.305-0.06-0.42-0.177s-0.174-0.258-0.174-0.422c0-0.167,0.059-0.309,0.174-0.425   S100.662,113.133,100.826,113.133z"
       id="path45" /><path
       fill="#695C57"
       d="M107.916,110.033l-0.536,0.334c-0.463-0.615-1.095-0.922-1.895-0.922c-0.64,0-1.171,0.205-1.593,0.617   c-0.423,0.411-0.635,0.91-0.635,1.498c0,0.383,0.098,0.743,0.292,1.08c0.194,0.338,0.462,0.6,0.8,0.786   c0.34,0.187,0.72,0.28,1.141,0.28c0.771,0,1.4-0.308,1.89-0.922l0.536,0.352c-0.252,0.378-0.588,0.672-1.012,0.88   c-0.423,0.208-0.904,0.312-1.445,0.312c-0.83,0-1.519-0.264-2.065-0.792c-0.547-0.527-0.82-1.169-0.82-1.926   c0-0.508,0.128-0.98,0.384-1.416s0.607-0.775,1.055-1.021s0.947-0.366,1.5-0.366c0.348,0,0.684,0.053,1.007,0.158   c0.323,0.106,0.598,0.245,0.823,0.416C107.566,109.553,107.758,109.77,107.916,110.033z"
       id="path47" /><path
       fill="#695C57"
       d="M111.699,108.809c0.809,0,1.479,0.293,2.012,0.878c0.482,0.534,0.725,1.166,0.725,1.896   c0,0.733-0.256,1.374-0.766,1.923c-0.512,0.549-1.168,0.823-1.971,0.823c-0.806,0-1.465-0.274-1.975-0.823   c-0.512-0.549-0.767-1.189-0.767-1.923c0-0.728,0.241-1.358,0.726-1.892C110.215,109.103,110.887,108.809,111.699,108.809z    M111.697,109.469c-0.562,0-1.045,0.208-1.449,0.623c-0.402,0.415-0.605,0.917-0.605,1.506c0,0.379,0.093,0.733,0.277,1.062   c0.184,0.328,0.432,0.581,0.745,0.761c0.313,0.178,0.657,0.268,1.032,0.268c0.374,0,0.718-0.09,1.031-0.268   c0.312-0.18,0.562-0.433,0.746-0.761c0.184-0.328,0.275-0.683,0.275-1.062c0-0.589-0.203-1.091-0.607-1.506   C112.737,109.677,112.256,109.469,111.697,109.469z"
       id="path49" /><path
       fill="#695C57"
       d="M115.68,108.943h0.676v0.907c0.235-0.335,0.477-0.579,0.725-0.733c0.342-0.206,0.701-0.309,1.078-0.309   c0.254,0,0.496,0.049,0.725,0.148c0.229,0.101,0.416,0.232,0.561,0.398s0.271,0.403,0.377,0.713   c0.225-0.412,0.506-0.726,0.842-0.939c0.338-0.214,0.7-0.32,1.088-0.32c0.363,0,0.684,0.092,0.961,0.274   c0.277,0.184,0.484,0.439,0.619,0.768s0.202,0.82,0.202,1.477v2.866h-0.69v-2.866c0-0.563-0.04-0.95-0.12-1.161   c-0.08-0.21-0.218-0.38-0.411-0.509c-0.194-0.128-0.426-0.192-0.695-0.192c-0.327,0-0.626,0.096-0.896,0.289   c-0.271,0.193-0.47,0.451-0.595,0.771c-0.125,0.322-0.188,0.859-0.188,1.613v2.055h-0.675v-2.688c0-0.634-0.04-1.064-0.119-1.291   c-0.078-0.227-0.217-0.408-0.412-0.545c-0.197-0.137-0.43-0.205-0.7-0.205c-0.312,0-0.604,0.094-0.876,0.281   c-0.271,0.189-0.473,0.442-0.604,0.761c-0.13,0.318-0.195,0.806-0.195,1.462v2.225h-0.676V108.943z"
       id="path51" /></g><g
     id="g53"><g
       id="g55"><path
         fill="#695C57"
         d="M18.012,77.043c0,1.299,0,5.07,0.024,5.844c0.025,0.424,0.126,0.775,0.65,0.775h1.123    c0.225,0,0.275,0.072,0.275,0.225v0.424c0,0.148-0.051,0.248-0.15,0.248c-0.175,0-1.272-0.072-2.821-0.072    c-1.599,0-2.598,0.072-2.822,0.072c-0.125,0-0.174-0.1-0.174-0.248v-0.424c0-0.176,0.049-0.225,0.325-0.225h1.197    c0.275,0,0.523-0.178,0.551-0.625c0.024-0.775,0.024-5.07,0.024-6.518v-1.574c0-1.773-0.024-4.045-0.075-4.695    c-0.05-0.848-0.45-1.248-1.249-1.496l-0.501-0.176c-0.122-0.051-0.148-0.076-0.148-0.125v-0.199c0-0.074,0.076-0.125,0.226-0.176    c0.872-0.398,1.998-0.848,2.921-1.447c0.224-0.15,0.374-0.201,0.524-0.201c0.176,0,0.226,0.125,0.2,0.449    c-0.024,1.375-0.101,6.568-0.101,7.943V77.043z"
         id="path57" /><path
         fill="#695C57"
         d="M31.098,81.363c0,1.873,0.849,2.197,1.299,2.197c0.573,0,1.299-0.1,1.647-0.324    c0.125-0.074,0.225-0.051,0.3,0.051l0.125,0.223c0.074,0.102,0.024,0.201-0.05,0.275c-0.25,0.25-1.274,1-2.773,1    c-1.222,0-2.421-1.174-2.421-2.123c0-1.023,0.075-3.223,0.075-3.572v-0.549c0-0.449,0.024-2.121,0.05-3.172h-1.524    c-0.225,0-0.373-0.1-0.373-0.299s0.148-0.275,0.448-0.449c0.6-0.35,2.523-2.297,2.847-3.146c0.075-0.199,0.2-0.25,0.351-0.25    c0.199,0,0.249,0.176,0.249,0.373l-0.125,2.475h3.47c0.152,0,0.228,0.123,0.177,0.223l-0.25,0.875    c-0.025,0.127-0.075,0.199-0.225,0.199h-3.222c-0.05,1.15-0.074,2.348-0.074,3.496V81.363z"
         id="path59" /><path
         fill="#695C57"
         d="M39.062,81.363c0,1.873,0.85,2.197,1.299,2.197c0.576,0,1.299-0.1,1.649-0.324    c0.125-0.074,0.225-0.051,0.3,0.051l0.125,0.223c0.074,0.102,0.024,0.201-0.051,0.275c-0.249,0.25-1.274,1-2.771,1    c-1.226,0-2.423-1.174-2.423-2.123c0-1.023,0.075-3.223,0.075-3.572v-0.549c0-0.449,0.025-2.121,0.051-3.172h-1.523    c-0.226,0-0.376-0.1-0.376-0.299s0.15-0.275,0.45-0.449c0.601-0.35,2.521-2.297,2.848-3.146c0.075-0.199,0.199-0.25,0.348-0.25    c0.2,0,0.252,0.176,0.252,0.373l-0.126,2.475h3.472c0.149,0,0.225,0.123,0.175,0.223l-0.251,0.875    c-0.024,0.127-0.074,0.199-0.224,0.199h-3.222c-0.051,1.15-0.076,2.348-0.076,3.496V81.363z"
         id="path61" /><path
         fill="#695C57"
         d="M47.003,77.043c0,1.299,0,5.07,0.025,5.844c0.024,0.424,0.125,0.775,0.649,0.775h1.123    c0.225,0,0.275,0.072,0.275,0.225v0.424c0,0.148-0.051,0.248-0.15,0.248c-0.175,0-1.272-0.072-2.821-0.072    c-1.598,0-2.598,0.072-2.823,0.072c-0.125,0-0.174-0.1-0.174-0.248v-0.424c0-0.176,0.049-0.225,0.324-0.225h1.199    c0.274,0,0.524-0.178,0.549-0.625c0.025-0.775,0.025-5.07,0.025-6.518v-1.574c0-1.773-0.025-4.045-0.075-4.695    c-0.049-0.848-0.448-1.248-1.248-1.496l-0.5-0.176c-0.124-0.051-0.148-0.076-0.148-0.125v-0.199c0-0.074,0.074-0.125,0.224-0.176    c0.874-0.398,1.998-0.848,2.922-1.447c0.225-0.15,0.375-0.201,0.525-0.201c0.174,0,0.224,0.125,0.199,0.449    c-0.025,1.375-0.101,6.568-0.101,7.943V77.043z"
         id="path63" /><path
         fill="#695C57"
         d="M52.072,77.842c-0.049,0.227-0.075,0.623-0.075,1.199c0,2.447,1.549,4.295,3.547,4.295    c1.523,0,2.597-0.873,3.021-1.697c0.051-0.1,0.151-0.15,0.225-0.125l0.325,0.174c0.076,0.025,0.124,0.1,0,0.375    c-0.449,1-1.747,2.723-3.971,2.723c-1.423,0-2.996-0.426-3.92-1.773c-0.874-1.273-1.1-2.197-1.1-3.947    c0-0.973,0.251-2.645,1.574-3.969c1.073-1.1,2.323-1.324,3.57-1.324c2.872,0,3.672,2.699,3.672,3.672c0,0.35-0.3,0.398-0.7,0.398    H52.072z M56.044,77.092c0.473,0,0.673-0.125,0.673-0.35c0-0.572-0.3-2.219-1.923-2.219c-1.098,0-2.147,0.721-2.622,2.568H56.044z    "
         id="path65" /><path
         fill="#695C57"
         d="M68.604,77.842c0-1.273-0.199-1.523-0.898-1.896l-0.475-0.25c-0.151-0.051-0.2-0.076-0.2-0.176v-0.15    c0-0.1,0.049-0.15,0.2-0.223l2.472-1.275c0.15-0.074,0.249-0.1,0.351-0.1c0.148,0,0.174,0.15,0.174,0.301l0.125,1.723h0.1    c0.749-1.148,1.923-2.172,2.996-2.172c0.85,0,1.274,0.523,1.274,1.098c0,0.725-0.6,1.225-1.05,1.225    c-0.273,0-0.524-0.102-0.724-0.201c-0.2-0.125-0.499-0.199-0.824-0.199c-0.399,0-1.049,0.25-1.473,1.049    c-0.149,0.273-0.251,0.725-0.251,0.799v5.244c0,0.773,0.176,1.025,0.699,1.025h1.174c0.151,0,0.176,0.072,0.176,0.225v0.447    c0,0.152-0.024,0.225-0.125,0.225c-0.149,0-1.299-0.072-2.647-0.072c-1.548,0-2.598,0.072-2.747,0.072    c-0.099,0-0.149-0.049-0.149-0.248v-0.424c0-0.176,0.051-0.225,0.274-0.225h0.975c0.375,0,0.549-0.152,0.549-0.477    c0.025-0.822,0.025-1.697,0.025-2.996V77.842z"
         id="path67" /><path
         fill="#695C57"
         d="M83.212,81.514c0,1.422,0.299,1.871,0.749,1.871c0.399,0,0.749-0.199,0.873-0.373    c0.102-0.125,0.151-0.176,0.251-0.1l0.248,0.199c0.076,0.074,0.127,0.199-0.023,0.449c-0.2,0.375-0.676,1.225-1.948,1.225    c-0.898,0-1.549-0.65-1.773-1.674h-0.05c-0.525,0.623-1.349,1.148-2.473,1.523c-0.475,0.15-0.922,0.15-1.473,0.15    c-0.6,0-1.498-0.5-1.498-2.074c0-1.148,0.524-2.146,2.496-3.021c1.125-0.5,2.422-1.098,2.822-1.449v-1.598    c-0.05-0.424-0.074-1.072-0.349-1.398c-0.274-0.324-0.774-0.549-1.498-0.549c-0.501,0-1.274,0.201-1.624,0.523    c-0.35,0.326-0.126,0.701-0.126,1.15c0,0.873-0.298,1.424-1.322,1.424c-0.399,0-0.6-0.225-0.6-0.799c0-0.801,0.7-1.75,1.724-2.348    c1.049-0.623,1.923-0.875,3.046-0.875c1.174,0,1.648,0.35,1.998,0.674c0.523,0.525,0.55,1.1,0.55,1.773v3.822V81.514z     M81.388,78.99c-0.898,0.676-3.346,1.174-3.346,3.246c0,0.926,0.549,1.375,1.298,1.375c0.725,0,2.048-0.875,2.048-1.549V78.99z"
         id="path69" /><path
         fill="#695C57"
         d="M87.106,84.061c-0.124-0.074-0.124-0.225-0.15-0.35l-0.424-2.373c-0.025-0.125,0.05-0.176,0.149-0.199    l0.325-0.074c0.1-0.027,0.175,0.025,0.225,0.148l0.625,1.225c0.499,0.924,0.849,1.549,2.174,1.549    c0.873,0,1.972-0.525,1.972-1.699c0-1.125-0.55-1.771-2.423-2.299c-1.472-0.424-2.946-1.197-2.946-3.17    c0-1.723,1.623-3.047,3.496-3.047c1.198,0,1.849,0.301,2.298,0.523c0.373,0.176,0.425,0.301,0.448,0.451l0.376,1.748    c0,0.1-0.052,0.176-0.175,0.225l-0.3,0.1c-0.1,0.025-0.15,0-0.226-0.125l-0.849-1.148c-0.3-0.475-0.774-0.973-1.748-0.973    c-0.949,0-1.924,0.574-1.924,1.646c0,1.447,1.175,1.723,2.399,2.072c1.821,0.525,2.971,1.273,2.995,3.197    c-0.024,2.021-1.673,3.297-3.796,3.297C88.405,84.785,87.408,84.285,87.106,84.061z"
         id="path71" /><path
         fill="#695C57"
         d="M97.121,78.441c0,1.35,0.598,2.871,1.272,3.795c0.824,1.074,1.875,1.273,2.723,1.273    c1.248,0,1.897-0.273,2.747-1.072c0.05-0.051,0.125-0.074,0.199,0l0.25,0.25c0.1,0.1,0.124,0.174,0,0.324    c-0.725,0.824-2.322,1.773-4.02,1.773c-1.324,0-2.724-0.299-3.872-1.748c-0.923-1.227-1.123-2.273-1.123-3.396    c0-2.922,2.049-5.869,5.344-5.869c2.597,0,3.397,1.498,3.397,2.023c-0.026,0.574-0.4,0.875-0.926,0.875    c-0.574,0-0.999-0.326-1.373-1c-0.549-1.023-1.074-1.098-1.673-1.098C98.644,74.572,97.121,75.869,97.121,78.441z"
         id="path73" /><path
         fill="#695C57"
         d="M113.277,81.514c0,1.422,0.3,1.871,0.749,1.871c0.399,0,0.749-0.199,0.874-0.373    c0.099-0.125,0.15-0.176,0.251-0.1l0.248,0.199c0.075,0.074,0.126,0.199-0.025,0.449c-0.199,0.375-0.675,1.225-1.946,1.225    c-0.9,0-1.549-0.65-1.773-1.674h-0.051c-0.524,0.623-1.348,1.148-2.472,1.523c-0.474,0.15-0.924,0.15-1.474,0.15    c-0.6,0-1.498-0.5-1.498-2.074c0-1.148,0.524-2.146,2.498-3.021c1.123-0.5,2.421-1.098,2.82-1.449v-1.598    c-0.049-0.424-0.073-1.072-0.35-1.398c-0.273-0.324-0.774-0.549-1.497-0.549c-0.5,0-1.273,0.201-1.624,0.523    c-0.35,0.326-0.124,0.701-0.124,1.15c0,0.873-0.3,1.424-1.323,1.424c-0.4,0-0.601-0.225-0.601-0.799    c0-0.801,0.698-1.75,1.723-2.348c1.05-0.623,1.924-0.875,3.047-0.875c1.174,0,1.648,0.35,1.998,0.674    c0.525,0.525,0.55,1.1,0.55,1.773v3.822V81.514z M111.454,78.99c-0.898,0.676-3.346,1.174-3.346,3.246    c0,0.926,0.55,1.375,1.298,1.375c0.725,0,2.048-0.875,2.048-1.549V78.99z"
         id="path75" /><path
         fill="#695C57"
         d="M119.743,77.043c0,1.299,0,5.07,0.024,5.844c0.026,0.424,0.127,0.775,0.651,0.775h1.123    c0.225,0,0.275,0.072,0.275,0.225v0.424c0,0.148-0.051,0.248-0.151,0.248c-0.173,0-1.273-0.072-2.821-0.072    c-1.598,0-2.598,0.072-2.82,0.072c-0.127,0-0.177-0.1-0.177-0.248v-0.424c0-0.176,0.05-0.225,0.326-0.225h1.198    c0.275,0,0.524-0.178,0.55-0.625c0.025-0.775,0.025-5.07,0.025-6.518v-1.574c0-1.773-0.025-4.045-0.077-4.695    c-0.05-0.848-0.448-1.248-1.246-1.496l-0.502-0.176c-0.123-0.051-0.148-0.076-0.148-0.125v-0.199c0-0.074,0.074-0.125,0.225-0.176    c0.875-0.398,1.997-0.848,2.921-1.447c0.227-0.15,0.375-0.201,0.524-0.201c0.175,0,0.226,0.125,0.201,0.449    c-0.026,1.375-0.102,6.568-0.102,7.943V77.043z"
         id="path77" /><path
         fill="#695C57"
         d="M123.564,84.061c-0.124-0.074-0.124-0.225-0.15-0.35l-0.422-2.373c-0.026-0.125,0.049-0.176,0.147-0.199    l0.326-0.074c0.099-0.027,0.175,0.025,0.224,0.148l0.626,1.225c0.497,0.924,0.848,1.549,2.172,1.549    c0.874,0,1.973-0.525,1.973-1.699c0-1.125-0.55-1.771-2.423-2.299c-1.473-0.424-2.946-1.197-2.946-3.17    c0-1.723,1.622-3.047,3.496-3.047c1.198,0,1.848,0.301,2.297,0.523c0.374,0.176,0.426,0.301,0.45,0.451l0.373,1.748    c0,0.1-0.049,0.176-0.174,0.225l-0.299,0.1c-0.101,0.025-0.152,0-0.225-0.125l-0.851-1.148c-0.299-0.475-0.773-0.973-1.747-0.973    c-0.949,0-1.924,0.574-1.924,1.646c0,1.447,1.175,1.723,2.397,2.072c1.823,0.525,2.971,1.273,2.998,3.197    c-0.027,2.021-1.673,3.297-3.796,3.297C124.863,84.785,123.864,84.285,123.564,84.061z"
         id="path79" /><path
         fill="#695C57"
         d="M26.127,83.662h-1.147c-0.275,0-0.35-0.178-0.4-0.65c-0.024-0.275-0.024-1.174-0.024-2.148v-2.721    c0-2.074,0-3.646,0.05-4.07c0.025-0.176,0-0.301-0.126-0.301c-0.148,0-0.273,0.051-0.475,0.15    c-0.948,0.523-1.896,0.924-2.694,1.225c-0.125,0.049-0.177,0.098-0.177,0.174v0.225c0,0.1,0.052,0.15,0.226,0.174    c1.248,0.201,1.397,0.65,1.397,1.498v3.672c0,0.75,0,1.523-0.024,2.273c-0.025,0.398-0.125,0.5-0.399,0.5h-1.224    c-0.175,0-0.25,0.049-0.25,0.199v0.498c0,0.15,0.075,0.199,0.2,0.199c0.275,0,1.248-0.072,2.696-0.072    c1.049,0,2.198,0.072,2.398,0.072c0.173,0,0.225-0.072,0.225-0.248v-0.424C26.378,83.734,26.326,83.662,26.127,83.662z"
         id="path81" /><path
         fill="#E2592F"
         d="M24.006,71.672c-0.78-0.617-1.686-1.199-2.242-2.049c-0.393-0.6-0.604-1.752,0.42-1.84    c0.589-0.049,0.971,0.41,1.345,0.783l0.231,0.23c0.362-0.484,0.906-1.064,1.574-1.041c0.455,0.016,0.741,0.428,0.734,0.842    c-0.013,0.729-0.465,1.291-0.935,1.803C25.039,70.508,23.99,71.658,24.006,71.672z"
         id="path83" /></g><g
       id="g85"><path
         fill-rule="evenodd"
         clip-rule="evenodd"
         fill="#EDCD48"
         d="M95.641,20.226c3.328,2.021,7.204,2.156,9.937,0.876    c1.412-0.662,2.943-1.725,3.62-3.889c0.67-2.144,0.05-3.792-0.7-5.161c-1.402-2.562-4.724-4.868-8.521-5.118    c-1.677-0.108-3.198,0.097-4.701,0.788c-1.186,0.544-3.202,1.881-3.664,4.216c-0.506,2.562,0.647,4.549,1.501,6.285    c-0.488,2.714-2.11,4.053-3.385,5.298C91.798,22.998,93.868,21.831,95.641,20.226z"
         id="path87" /><path
         fill="#FFFFFF"
         d="M99.187,18.679c-1.042-1.731-2.345-3.489-2.794-5.51c-0.315-1.415,0.104-3.76,2.114-3.189    c1.159,0.328,1.559,1.476,2,2.455l0.272,0.598c1.042-0.66,2.489-1.371,3.739-0.85c0.853,0.356,1.104,1.348,0.794,2.128    c-0.549,1.375-1.811,2.121-3.068,2.762C101.987,17.204,99.165,18.642,99.187,18.679z"
         id="path89" /><g
         id="g91"><path
           fill="#DCD3C1"
           d="M41.607,56.435c2.646-3.735,2.286-5.141,2.888-8.371c0.45-2.418-1.448-9.23-0.784-13.548     c-0.966-3.228-4.853-3.171-7.196-1.44c-2.562,1.893-4.98,7.082-6.53,9.743c-1.521,2.613-4.722,3.942-6.201,6.531     c-0.81,1.423-1.1,3.512-0.514,5.248c-0.983,0.478-2.002,0.519-3.038,0.108c-2.5-0.986-4.705-4.373-5.315-6.944     c-1.301-5.478,0.834-9.707,6.923-13.713c0.307-0.201,0.392-0.612,0.19-0.921c-0.203-0.306-0.613-0.391-0.921-0.189     c-4.46,2.935-9.343,7.306-7.485,15.13c0.594,2.5,2.886,6.595,6.121,7.873c0.635,0.251,1.273,0.376,1.908,0.376     c0.751,0,1.492-0.176,2.21-0.524c0.454,0.654,1.092,1.197,1.949,1.536c2.307,0.909,7.646,0.029,10.15-0.009     c-1.391,1.11-5.313,5.425-0.918,5.214c1.773-0.083,3.575-3.622,3.84-5.246c1.1,1.278,3.572,5.787,5.927,4.88     C47.917,60.974,42.61,57.19,41.607,56.435z"
           id="path93" /><path
           fill="#DCD3C1"
           d="M27.471,18.873c-0.202,1.392,0.032,3.416,1.275,4.138c1.252,0.728,3.78-2.031,4.429-1.45     C31.408,19.981,30.042,18.677,27.471,18.873z"
           id="path95" /><path
           fill="#E977AF"
           d="M30.592,20.629c-0.594-0.383-1.243-0.61-2.129-0.543c-0.118,0.814,0.011,1.982,0.693,2.459     C29.459,21.85,29.949,21.198,30.592,20.629z"
           id="path97" /><path
           fill="#DCD3C1"
           d="M49.863,15.54c0.598,1.273,0.964,3.279-0.016,4.33c-0.985,1.062-4.207-0.842-4.66-0.097     C46.42,17.749,47.348,16.102,49.863,15.54z"
           id="path99" /><path
           fill="#E977AF"
           d="M49.27,19.336c0.005-0.004,0.011-0.008,0.014-0.012c0.596-0.639,0.372-1.856,0.01-2.63     c-0.898,0.201-1.463,0.631-1.929,1.2C48.138,18.263,48.79,18.75,49.27,19.336z"
           id="path101" /><g
           id="g103"><path
             fill="#DCD3C1"
             d="M51.488,23.656c-0.68-4.562-6.405-7.49-12.789-6.54c-6.386,0.95-11.011,5.42-10.333,9.98      c0.356,2.396,2.109,4.341,4.615,5.51c0.127-6.332,4.745-12.143,6.192-12.358c1.304-0.194,7.301,3.379,9.519,10.009      C50.74,28.41,51.844,26.046,51.488,23.656z"
             id="path105" /><path
             fill="#DCD3C1"
             d="M39.174,20.248c-1.447,0.215-6.065,6.026-6.192,12.358c2.264,1.056,5.144,1.48,8.175,1.03      c3.037-0.453,5.677-1.703,7.536-3.38C46.475,23.626,40.478,20.053,39.174,20.248z"
             id="path107" /></g><path
           fill="#E977AF"
           d="M41.844,29.99c0.085,0.563-0.454,1.11-0.964,1.186c-0.509,0.077-1.184-0.289-1.267-0.853     c-0.084-0.564,0.372-0.709,0.988-0.8C41.219,29.432,41.761,29.427,41.844,29.99z"
           id="path109" /><g
           id="g111"><g
             id="g113"><path
               fill="none"
               stroke="#695C57"
               d="M38.841,30.753c0,0-10.27-0.893-17.167,0.136"
               id="path115" /><path
               fill="none"
               stroke="#695C57"
               d="M38.912,31.79c0,0-10.182,1.603-16.632,4.255"
               id="path117" /></g><g
             id="g119"><path
               fill="none"
               stroke="#695C57"
               d="M42.708,30.178c0,0,9.565-3.844,16.463-4.871"
               id="path121" /><path
               fill="none"
               stroke="#695C57"
               d="M42.942,31.189c0,0,10.206-1.432,17.149-0.771"
               id="path123" /></g></g><ellipse
           fill="#FFFFFF"
           cx="39.562"
           cy="47.248"
           rx="3.152"
           ry="5.866"
           id="ellipse125" /><g
           id="g127"><path
             fill="#58595B"
             d="M93.75,48.133c0.46,0.048,1.032-1.788,1.278-4.105c-0.532,0.033-1.099,0.066-1.701,0.09      C93.127,46.316,93.306,48.085,93.75,48.133z"
             id="path129" /><path
             fill="#58595B"
             d="M96.416,48.414c0.464,0.049,1.04-1.808,1.286-4.145c0.009-0.102,0.019-0.203,0.027-0.303      c-0.514-0.037-1.074-0.026-1.693,0.004c-0.004,0.042-0.01,0.081-0.013,0.122C95.777,46.429,95.953,48.364,96.416,48.414z"
             id="path131" /><path
             fill="#58595B"
             d="M90.978,48.844c0.464,0.048,1.039-1.807,1.285-4.145c0.02-0.188,0.034-0.376,0.05-0.56      c-0.534,0.003-1.094-0.009-1.681-0.043c-0.017,0.141-0.033,0.282-0.049,0.426C90.338,46.861,90.515,48.795,90.978,48.844z"
             id="path133" /><path
             fill="#58595B"
             d="M98.979,49.686c0.465,0.049,1.037-1.807,1.285-4.145c0.062-0.583,0.096-1.143,0.107-1.652      c-0.575,0.047-1.11,0.089-1.596,0.104c-0.073,0.43-0.14,0.891-0.19,1.372C98.34,47.701,98.517,49.637,98.979,49.686z"
             id="path135" /></g><path
           fill="#DCD3C1"
           d="M127.634,36.683l-0.021-0.302c-0.025-0.367-0.331-0.64-0.709-0.617c-0.366,0.025-0.643,0.342-0.616,0.709     l0.021,0.303c0.236,3.392,0.46,6.598-1.562,9.411c-1.806,2.513-4.632,4.354-7.556,4.926c-1.132,0.221-2.552,0.229-3.887-0.038     c-0.247-1.862-1.061-3.872-2.872-5.141c-3.652-2.56-7.311-2.269-10.06-2.045c-0.012,0.51-0.046,1.069-0.107,1.652     c-0.248,2.338-0.82,4.193-1.285,4.145c-0.463-0.049-0.64-1.985-0.394-4.321c0.051-0.481,0.117-0.942,0.19-1.372     c-0.325,0.011-0.63,0.007-0.911-0.018c-0.045-0.005-0.09-0.007-0.136-0.009c-0.009,0.1-0.019,0.201-0.027,0.303     c-0.246,2.337-0.822,4.193-1.286,4.145c-0.463-0.05-0.639-1.984-0.393-4.321c0.003-0.041,0.009-0.08,0.013-0.122     c-0.32,0.016-0.656,0.037-1.008,0.058c-0.246,2.317-0.818,4.153-1.278,4.105c-0.444-0.048-0.623-1.817-0.423-4.016     c-0.328,0.011-0.665,0.02-1.015,0.022c-0.016,0.184-0.03,0.371-0.05,0.56c-0.246,2.338-0.821,4.192-1.285,4.145     c-0.463-0.049-0.64-1.983-0.395-4.321c0.016-0.144,0.032-0.285,0.049-0.426c-2.285-0.13-4.969-0.604-8.1-1.921     c-2.221-0.935-2.312,0.012-4.368,0.012l-0.241,0.121c0.311,5.261-4.432,6.153-8.311,6.352c-0.856,0.045-2.067-0.554-2.768-0.554     c-1.661,0-2.018,0.58-2.19,1.598c-0.522,3.059,9.001,1.9,10.853,2.275c-0.267,0.573-1.445,1.671-2.884,2.456     c-0.596,0.327-1.521,0.168-1.991,0.582c-0.963,0.846-1.21,2.341-0.871,2.959c1.178,2.154,7.015-0.406,8.524-1.521     c2.467-1.819,3.471-4.505,6.521-3.148c5.338,2.376,11.316-1.345,13.606,0.533c3.207,2.63-1.128,3.671-3.931,4.424     c-0.885,0.238-1.254-0.742-2.097,0.158c-3.57,3.818,4.431,2.513,6.145,2.407c4.857-0.299,14.195-2.035,14.803-7.401     c0.036-0.311,0.055-0.646,0.056-0.993c0.671,0.111,1.345,0.17,1.993,0.17c0.739,0,1.444-0.067,2.062-0.189     c3.25-0.636,6.382-2.674,8.381-5.453C128.127,43.757,127.876,40.162,127.634,36.683z"
           id="path137" /><path
           fill="#DCD3C1"
           d="M64.747,32.481c0.042,1.406,0.62,3.36,1.97,3.858c1.357,0.501,3.373-2.651,4.113-2.192     C68.817,32.897,67.247,31.846,64.747,32.481z"
           id="path139" /><path
           fill="#E977AF"
           d="M68.125,33.675c-0.649-0.276-1.33-0.388-2.19-0.171c0.024,0.824,0.352,1.951,1.105,2.304     C67.219,35.073,67.591,34.346,68.125,33.675z"
           id="path141" /><path
           fill="#DCD3C1"
           d="M86.234,25.346c0.808,1.151,1.514,3.064,0.73,4.268c-0.79,1.217-4.29-0.106-4.61,0.706     C83.221,28.114,83.854,26.333,86.234,25.346z"
           id="path143" /><path
           fill="#E977AF"
           d="M86.304,29.188c0.002-0.005,0.008-0.009,0.012-0.013c0.475-0.732,0.047-1.895-0.444-2.592     c-0.852,0.353-1.333,0.872-1.693,1.512C85.002,28.326,85.729,28.694,86.304,29.188z"
           id="path145" /><g
           id="g147"><path
             fill="#DCD3C1"
             d="M86.571,35.363c-0.124-0.375,1.074-1.121,2.801-1.792c-0.049-0.234-0.108-0.471-0.186-0.702      c-0.033-0.101-0.071-0.202-0.111-0.3c-1.8,0.503-3.224,0.625-3.349,0.249c-0.118-0.357,0.955-1.05,2.544-1.691      c-1.605-2.144-4.608-3.348-8.041-3.312c0.314,1.379,0.348,2.393,0.033,2.498c-0.346,0.113-1.004-0.89-1.629-2.394      c-0.349,0.04-0.7,0.093-1.054,0.161c0.669,2.109,0.874,3.883,0.451,4.024c-0.433,0.144-1.359-1.47-2.091-3.627      c-0.16,0.048-0.318,0.097-0.477,0.148c-0.16,0.054-0.315,0.11-0.471,0.167c0.702,2.167,0.925,4.012,0.492,4.155      c-0.422,0.141-1.32-1.402-2.047-3.494c-0.322,0.157-0.636,0.327-0.94,0.502c0.399,1.578,0.473,2.776,0.126,2.892      c-0.313,0.104-0.894-0.727-1.467-2.021c-2.771,2.025-4.458,4.785-4.462,7.464c1.657-0.436,2.931-0.523,3.05-0.168      c0.124,0.379-1.088,1.131-2.832,1.805c0.026,0.103,0.056,0.205,0.089,0.308c0.077,0.232,0.171,0.455,0.272,0.673      c1.785-0.496,3.191-0.614,3.315-0.238c0.114,0.345-0.897,1.007-2.408,1.636c2.437,2.851,7.496,3.848,12.545,2.171      c5.049-1.676,8.506-5.501,8.754-9.245C87.894,35.633,86.687,35.707,86.571,35.363z"
             id="path149" /><path
             fill="#DCD3C1"
             d="M78.031,32.104c0.423-0.142,0.218-1.915-0.451-4.024c-0.544,0.102-1.091,0.234-1.64,0.397      C76.672,30.634,77.599,32.248,78.031,32.104z"
             id="path151" /><path
             fill="#DCD3C1"
             d="M75.485,32.948c0.433-0.144,0.21-1.988-0.492-4.155c-0.539,0.196-1.057,0.419-1.555,0.661      C74.165,31.545,75.063,33.088,75.485,32.948z"
             id="path153" /><path
             fill="#DCD3C1"
             d="M80.263,30.312c0.314-0.104,0.281-1.118-0.033-2.498c-0.523,0.004-1.057,0.04-1.596,0.104      C79.259,29.422,79.917,30.425,80.263,30.312z"
             id="path155" /><path
             fill="#DCD3C1"
             d="M72.624,32.847c0.347-0.115,0.273-1.313-0.126-2.892c-0.471,0.271-0.919,0.562-1.341,0.871      C71.73,32.121,72.311,32.951,72.624,32.847z"
             id="path157" /><path
             fill="#DCD3C1"
             d="M69.745,38.123c-0.119-0.355-1.393-0.268-3.05,0.168c0,0.553,0.07,1.1,0.218,1.637      C68.657,39.253,69.869,38.501,69.745,38.123z"
             id="path159" /><path
             fill="#DCD3C1"
             d="M70.59,40.669c-0.124-0.376-1.53-0.258-3.315,0.238c0.237,0.505,0.544,0.971,0.907,1.397      C69.692,41.676,70.704,41.014,70.59,40.669z"
             id="path161" /><path
             fill="#DCD3C1"
             d="M85.727,32.818c0.125,0.376,1.549,0.254,3.349-0.249c-0.203-0.521-0.474-1.001-0.805-1.442      C86.682,31.768,85.608,32.46,85.727,32.818z"
             id="path163" /><path
             fill="#DCD3C1"
             d="M86.571,35.363c0.115,0.344,1.322,0.271,2.909-0.132c0.037-0.558,0.002-1.113-0.108-1.66      C87.646,34.242,86.447,34.988,86.571,35.363z"
             id="path165" /></g><path
           fill="#E977AF"
           d="M80.456,40.251c0.18,0.54-0.257,1.171-0.746,1.334c-0.489,0.162-1.216-0.083-1.396-0.625     c-0.18-0.538,0.245-0.76,0.836-0.956C79.742,39.809,80.274,39.71,80.456,40.251z"
           id="path167" /><g
           id="g169"><g
             id="g171"><path
               fill="none"
               stroke="#695C57"
               d="M77.748,41.142c0,0-9.192,0.939-15.147,2.917"
               id="path173" /><path
               fill="none"
               stroke="#695C57"
               d="M77.95,41.988c0,0-8.776,2.99-14.114,6.24"
               id="path175" /></g><g
             id="g177"><path
               fill="none"
               stroke="#695C57"
               d="M81.086,40.033c0,0,7.929-4.745,13.883-6.722"
               id="path179" /><path
               fill="none"
               stroke="#695C57"
               d="M81.428,40.833c0,0,8.824-2.854,15.046-3.442"
               id="path181" /></g></g><g
           id="g183"><path
             fill="none"
             stroke="#231E20"
             d="M77.088,38.633c0,0-1.407-1.345-2.659-1.042c-1.249,0.301-1.743,1.744-1.743,1.744"
             id="path185" /><path
             fill="none"
             stroke="#231E20"
             d="M84.931,36.741c0,0-1.407-1.345-2.658-1.044c-1.248,0.302-1.744,1.745-1.744,1.745"
             id="path187" /></g><g
           id="g189"><path
             fill="none"
             stroke="#231E20"
             d="M38.531,26.738c0,0-1.148-1.57-2.433-1.494c-1.284,0.075-2.023,1.409-2.023,1.409"
             id="path191" /><path
             fill="none"
             stroke="#231E20"
             d="M46.586,26.258c0,0-1.148-1.572-2.433-1.496c-1.284,0.078-2.025,1.411-2.025,1.411"
             id="path193" /></g><polygon
           fill="#6CB4B0"
           points="127.587,39.776 127.301,39.681 127.345,39.357 127.331,38.993 127.192,38.544 126.94,38.208      126.509,37.752 126.018,37.408 125.209,36.869 124.67,37.472 123.858,38.547 123.514,39.041 123.761,39.304 124.059,39.562      124.372,39.752 124.896,39.819 124.137,40.265 123.589,40.821 123.054,41.425 122.525,41.922 122.147,42.313 123.603,42.666      123.668,43.342 123.782,43.805 123.917,44.144 124.32,43.737 124.746,43.275 125.388,42.638 125.813,42.24 126.232,41.797      126.601,41.447 126.896,41.095 126.997,40.929 127.073,40.707 127.073,40.434 127.187,40.427 127.281,40.485 127.286,41.003      127.298,41.972 127.52,42.991 127.668,44.345 127.777,45.308 127.715,45.487 128.188,45.15 128.614,44.821 128.931,44.613      129.496,44.935 129.926,45.128 130.504,45.345 130.2,44.185 129.992,42.991 129.851,42.271 129.679,41.646 130.119,41.615      130.488,41.515 130.677,41.49 130.753,40.929 130.782,40.443 130.714,40.04 130.681,39.599 130.654,39.208 130.632,38.683      130.048,38.668 129.344,38.747 128.841,38.916 128.221,39.157 127.787,39.506    "
           id="polygon195" /><polygon
           fill="#E2592F"
           points="39.894,36.339 39.507,36.376 39.387,35.972 39.183,35.545 38.777,35.086 38.308,34.823      37.558,34.509 36.792,34.359 35.555,34.138 35.23,35.14 34.834,36.843 34.686,37.606 35.119,37.789 35.605,37.935 36.083,38.001      36.729,37.802 36.067,38.725 35.715,39.675 35.393,40.674 35.03,41.541 34.785,42.2 36.694,41.854 37.128,42.617 37.508,43.111      37.842,43.441 38.11,42.749 38.369,41.975 38.796,40.881 39.091,40.188 39.354,39.44 39.6,38.836 39.77,38.265 39.8,38.012      39.775,37.711 39.631,37.39 39.765,37.326 39.904,37.338 40.183,37.95 40.708,39.093 41.502,40.183 42.394,41.708 43.022,42.787      43.047,43.036 43.431,42.388 43.76,41.773 44.028,41.361 44.865,41.449 45.476,41.447 46.28,41.396 45.303,40.188 44.429,38.88      43.888,38.102 43.356,37.458 43.856,37.188 44.242,36.876 44.452,36.745 44.249,36.043 44.028,35.454 43.733,35.008      43.465,34.507 43.228,34.056 42.923,33.45 42.229,33.735 41.438,34.198 40.929,34.665 40.322,35.272 39.991,35.917    "
           id="polygon197" /></g></g></g><g
     id="g199"><path
       fill="#6AB4B0"
       d="M47.422,92.744l-0.759,0.473c-0.655-0.871-1.55-1.307-2.684-1.307c-0.906,0-1.658,0.292-2.256,0.875   c-0.599,0.582-0.898,1.29-0.898,2.123c0,0.541,0.138,1.052,0.413,1.529c0.275,0.479,0.653,0.85,1.133,1.113   c0.48,0.264,1.019,0.396,1.615,0.396c1.093,0,1.985-0.436,2.677-1.307l0.759,0.5c-0.355,0.535-0.833,0.95-1.432,1.245   c-0.599,0.296-1.282,0.442-2.047,0.442c-1.176,0-2.151-0.373-2.926-1.121c-0.775-0.747-1.162-1.656-1.162-2.727   c0-0.721,0.181-1.389,0.543-2.007s0.86-1.1,1.494-1.446c0.633-0.346,1.342-0.52,2.126-0.52c0.492,0,0.967,0.076,1.425,0.227   s0.847,0.346,1.166,0.588C46.927,92.063,47.199,92.371,47.422,92.744z"
       id="path201" /><path
       fill="#6AB4B0"
       d="M56.671,91.199v7.438h-0.943v-1.277c-0.401,0.487-0.851,0.854-1.35,1.1s-1.045,0.369-1.637,0.369   c-1.053,0-1.952-0.381-2.697-1.145s-1.118-1.691-1.118-2.785c0-1.071,0.376-1.987,1.128-2.748c0.752-0.762,1.657-1.143,2.714-1.143   c0.611,0,1.163,0.131,1.658,0.391s0.929,0.648,1.302,1.168v-1.367H56.671z M52.846,91.932c-0.533,0-1.024,0.131-1.475,0.393   s-0.809,0.629-1.075,1.103s-0.399,0.974-0.399,1.502c0,0.523,0.134,1.024,0.403,1.503c0.269,0.477,0.629,0.85,1.082,1.115   c0.453,0.267,0.939,0.4,1.458,0.4c0.523,0,1.02-0.133,1.489-0.396c0.469-0.264,0.829-0.621,1.082-1.072   c0.252-0.45,0.379-0.958,0.379-1.522c0-0.86-0.283-1.579-0.85-2.157S53.675,91.932,52.846,91.932z"
       id="path203" /><path
       fill="#6AB4B0"
       d="M59.658,88.438h0.957v2.762h1.518v0.828h-1.518v6.609h-0.957v-6.609h-1.306v-0.828h1.306V88.438z"
       id="path205" /><path
       fill="#6AB4B0"
       d="M71.184,92.014l-0.615,0.635c-0.512-0.496-1.012-0.744-1.501-0.744c-0.311,0-0.577,0.102-0.798,0.307   c-0.222,0.205-0.333,0.445-0.333,0.719c0,0.241,0.091,0.471,0.274,0.689c0.183,0.224,0.566,0.486,1.151,0.787   c0.712,0.369,1.197,0.725,1.452,1.066c0.251,0.346,0.377,0.735,0.377,1.168c0,0.611-0.214,1.129-0.644,1.553   s-0.965,0.635-1.609,0.635c-0.429,0-0.839-0.093-1.229-0.279c-0.39-0.188-0.713-0.445-0.969-0.773l0.602-0.684   c0.489,0.552,1.007,0.828,1.555,0.828c0.384,0,0.71-0.123,0.98-0.369s0.404-0.536,0.404-0.869c0-0.273-0.089-0.517-0.267-0.73   c-0.178-0.21-0.58-0.475-1.206-0.793c-0.671-0.347-1.128-0.688-1.37-1.025c-0.242-0.338-0.363-0.723-0.363-1.156   c0-0.564,0.193-1.034,0.579-1.408c0.386-0.373,0.873-0.561,1.462-0.561C69.8,91.008,70.49,91.344,71.184,92.014z"
       id="path207" /><path
       fill="#6AB4B0"
       d="M73.211,88.137c0.217,0,0.403,0.078,0.558,0.232C73.923,88.524,74,88.711,74,88.93   c0,0.215-0.077,0.399-0.231,0.555c-0.154,0.154-0.341,0.232-0.558,0.232c-0.214,0-0.397-0.078-0.552-0.232   c-0.154-0.155-0.231-0.34-0.231-0.555c0-0.219,0.077-0.405,0.231-0.561C72.813,88.215,72.997,88.137,73.211,88.137z M72.735,91.199   h0.957v7.438h-0.957V91.199z"
       id="path209" /><path
       fill="#6AB4B0"
       d="M76.516,88.438h0.957v2.762h1.518v0.828h-1.518v6.609h-0.957v-6.609H75.21v-0.828h1.306V88.438z"
       id="path211" /><path
       fill="#6AB4B0"
       d="M81.26,88.438h0.957v2.762h1.518v0.828h-1.518v6.609H81.26v-6.609h-1.306v-0.828h1.306V88.438z"
       id="path213" /><path
       fill="#6AB4B0"
       d="M85.502,88.137c0.217,0,0.403,0.078,0.558,0.232c0.154,0.155,0.231,0.342,0.231,0.561   c0,0.215-0.077,0.399-0.231,0.555c-0.154,0.154-0.341,0.232-0.558,0.232c-0.214,0-0.397-0.078-0.552-0.232   c-0.154-0.155-0.231-0.34-0.231-0.555c0-0.219,0.077-0.405,0.231-0.561C85.104,88.215,85.288,88.137,85.502,88.137z M85.026,91.199   h0.957v7.438h-0.957V91.199z"
       id="path215" /><path
       fill="#6AB4B0"
       d="M87.973,91.199h0.957v1.334c0.383-0.511,0.807-0.893,1.271-1.146s0.971-0.38,1.518-0.38   c0.557,0,1.049,0.142,1.48,0.424c0.43,0.283,0.748,0.664,0.953,1.143s0.308,1.223,0.308,2.234v3.828h-0.957V95.09   c0-0.857-0.036-1.43-0.106-1.717c-0.111-0.492-0.324-0.861-0.639-1.11s-0.725-0.372-1.23-0.372c-0.578,0-1.098,0.191-1.555,0.574   c-0.459,0.383-0.76,0.856-0.906,1.422c-0.092,0.369-0.137,1.043-0.137,2.023v2.727h-0.957V91.199z"
       id="path217" /><path
       fill="#6AB4B0"
       d="M102.923,91.199h0.957v5.928c0,1.043-0.091,1.807-0.273,2.289c-0.251,0.684-0.687,1.211-1.306,1.58   s-1.365,0.553-2.235,0.553c-0.638,0-1.211-0.09-1.72-0.271c-0.508-0.181-0.922-0.423-1.24-0.727s-0.613-0.749-0.882-1.333h1.039   c0.282,0.492,0.647,0.856,1.095,1.094c0.447,0.236,1.002,0.355,1.664,0.355c0.652,0,1.203-0.122,1.652-0.365   c0.449-0.242,0.77-0.549,0.961-0.916c0.192-0.368,0.288-0.962,0.288-1.781v-0.383c-0.36,0.455-0.801,0.805-1.321,1.049   c-0.52,0.244-1.071,0.365-1.655,0.365c-0.685,0-1.327-0.17-1.93-0.509s-1.067-0.796-1.396-1.37   c-0.329-0.574-0.493-1.206-0.493-1.895c0-0.688,0.171-1.329,0.513-1.924c0.343-0.595,0.816-1.065,1.42-1.412   c0.605-0.346,1.242-0.52,1.913-0.52c0.557,0,1.075,0.115,1.557,0.346s0.945,0.609,1.393,1.139V91.199z M100.1,91.932   c-0.543,0-1.046,0.131-1.511,0.393s-0.829,0.625-1.094,1.087s-0.396,0.963-0.396,1.501c0,0.815,0.273,1.49,0.82,2.023   s1.255,0.799,2.126,0.799c0.879,0,1.587-0.264,2.123-0.793c0.535-0.528,0.803-1.223,0.803-2.084c0-0.561-0.123-1.061-0.369-1.501   s-0.595-0.787-1.046-1.042C101.104,92.059,100.619,91.932,100.1,91.932z"
       id="path219" /></g></svg>