<?xml version="1.0" encoding="UTF-8" standalone="no"?>
<!-- Generator: Adobe Illustrator 14.0.0, SVG Export Plug-In . SVG Version: 6.00 Build 43363)  -->

<svg
   xmlns:dc="http://purl.org/dc/elements/1.1/"
   xmlns:cc="http://creativecommons.org/ns#"
   xmlns:rdf="http://www.w3.org/1999/02/22-rdf-syntax-ns#"
   xmlns:svg="http://www.w3.org/2000/svg"
   xmlns="http://www.w3.org/2000/svg"
   xmlns:sodipodi="http://sodipodi.sourceforge.net/DTD/sodipodi-0.dtd"
   xmlns:inkscape="http://www.inkscape.org/namespaces/inkscape"
   version="1.1"
   id="Layer_1"
   x="0px"
   y="0px"
   width="306px"
   height="396px"
   viewBox="0 0 306 396"
   enable-background="new 0 0 306 396"
   xml:space="preserve"
   inkscape:version="0.48.5 r10040"
   sodipodi:docname="little_rascals.cat.postcard.orig.svg"><metadata
     id="metadata365"><rdf:RDF><cc:Work
         rdf:about=""><dc:format>image/svg+xml</dc:format><dc:type
           rdf:resource="http://purl.org/dc/dcmitype/StillImage" /><dc:title></dc:title></cc:Work></rdf:RDF></metadata><defs
     id="defs363" /><sodipodi:namedview
     pagecolor="#ffffff"
     bordercolor="#666666"
     borderopacity="1"
     objecttolerance="10"
     gridtolerance="10"
     guidetolerance="10"
     inkscape:pageopacity="0"
     inkscape:pageshadow="2"
     inkscape:window-width="2870"
     inkscape:window-height="1737"
     id="namedview361"
     showgrid="false"
     inkscape:zoom="3.3712566"
     inkscape:cx="169.69199"
     inkscape:cy="197.65348"
     inkscape:window-x="0"
     inkscape:window-y="24"
     inkscape:window-maximized="0"
     inkscape:current-layer="Layer_1" /><g
     id="g145"
     transform="translate(0.12906524,0)"><g
       id="g147"><path
         d="m 46.903,168.845 c 0,2.55 0,9.951 0.048,11.47 0.05,0.833 0.248,1.522 1.277,1.522 h 2.205 c 0.44,0 0.54,0.144 0.54,0.439 v 0.833 c 0,0.292 -0.1,0.489 -0.295,0.489 -0.343,0 -2.498,-0.146 -5.538,-0.146 -3.138,0 -5.099,0.146 -5.54,0.146 -0.245,0 -0.341,-0.197 -0.341,-0.489 v -0.833 c 0,-0.344 0.096,-0.439 0.638,-0.439 h 2.35 c 0.541,0 1.027,-0.347 1.081,-1.228 0.048,-1.52 0.048,-9.949 0.048,-12.792 v -3.088 c 0,-3.481 -0.048,-7.939 -0.148,-9.216 -0.098,-1.666 -0.883,-2.451 -2.452,-2.938 l -0.983,-0.347 c -0.239,-0.099 -0.291,-0.146 -0.291,-0.243 v -0.39 c 0,-0.147 0.149,-0.248 0.442,-0.348 1.712,-0.781 3.922,-1.664 5.733,-2.84 0.439,-0.296 0.734,-0.394 1.029,-0.394 0.345,0 0.443,0.245 0.393,0.882 -0.048,2.699 -0.197,12.891 -0.197,15.589 v 4.361 z"
         id="path149"
         inkscape:connector-curvature="0"
         style="fill:#695c57" /><path
         d="m 72.589,177.324 c 0,3.679 1.666,4.315 2.549,4.315 1.125,0 2.55,-0.196 3.234,-0.637 0.246,-0.146 0.441,-0.1 0.588,0.098 l 0.245,0.439 c 0.146,0.196 0.048,0.393 -0.098,0.538 -0.49,0.491 -2.501,1.964 -5.443,1.964 -2.398,0 -4.752,-2.306 -4.752,-4.168 0,-2.009 0.147,-6.325 0.147,-7.011 v -1.076 c 0,-0.883 0.048,-4.165 0.098,-6.226 h -2.992 c -0.441,0 -0.732,-0.196 -0.732,-0.589 0,-0.391 0.292,-0.54 0.88,-0.882 1.177,-0.685 4.953,-4.508 5.587,-6.175 0.147,-0.392 0.393,-0.49 0.688,-0.49 0.391,0 0.488,0.344 0.488,0.732 l -0.245,4.855 h 6.811 c 0.299,0 0.446,0.243 0.347,0.439 l -0.49,1.717 c -0.05,0.247 -0.148,0.392 -0.441,0.392 h -6.323 c -0.098,2.256 -0.146,4.607 -0.146,6.862 v 4.903 z"
         id="path151"
         inkscape:connector-curvature="0"
         style="fill:#695c57" /><path
         d="m 88.22,177.324 c 0,3.679 1.668,4.315 2.55,4.315 1.131,0 2.549,-0.196 3.237,-0.637 0.245,-0.146 0.441,-0.1 0.589,0.098 l 0.245,0.439 c 0.146,0.196 0.048,0.393 -0.1,0.538 -0.489,0.491 -2.502,1.964 -5.44,1.964 -2.406,0 -4.755,-2.306 -4.755,-4.168 0,-2.009 0.147,-6.325 0.147,-7.011 v -1.076 c 0,-0.883 0.05,-4.165 0.1,-6.226 h -2.99 c -0.443,0 -0.738,-0.196 -0.738,-0.589 0,-0.391 0.295,-0.54 0.884,-0.882 1.179,-0.685 4.947,-4.508 5.589,-6.175 0.148,-0.392 0.391,-0.49 0.682,-0.49 0.394,0 0.495,0.344 0.495,0.732 l -0.248,4.855 h 6.814 c 0.294,0 0.441,0.243 0.344,0.439 l -0.493,1.717 c -0.048,0.247 -0.146,0.392 -0.438,0.392 H 88.37 c -0.1,2.256 -0.15,4.607 -0.15,6.862 v 4.903 z"
         id="path153"
         inkscape:connector-curvature="0"
         style="fill:#695c57" /><path
         d="m 103.808,168.845 c 0,2.55 0,9.951 0.05,11.47 0.048,0.833 0.245,1.522 1.274,1.522 h 2.205 c 0.44,0 0.54,0.144 0.54,0.439 v 0.833 c 0,0.292 -0.1,0.489 -0.295,0.489 -0.344,0 -2.498,-0.146 -5.538,-0.146 -3.136,0 -5.099,0.146 -5.541,0.146 -0.246,0 -0.342,-0.197 -0.342,-0.489 v -0.833 c 0,-0.344 0.096,-0.439 0.637,-0.439 h 2.354 c 0.539,0 1.029,-0.347 1.077,-1.228 0.05,-1.52 0.05,-9.949 0.05,-12.792 v -3.088 c 0,-3.481 -0.05,-7.939 -0.147,-9.216 -0.096,-1.666 -0.88,-2.451 -2.449,-2.938 l -0.981,-0.347 c -0.244,-0.099 -0.292,-0.146 -0.292,-0.243 v -0.39 c 0,-0.147 0.146,-0.248 0.439,-0.348 1.716,-0.781 3.922,-1.664 5.735,-2.84 0.44,-0.296 0.735,-0.394 1.031,-0.394 0.341,0 0.439,0.245 0.391,0.882 -0.05,2.699 -0.197,12.891 -0.197,15.589 v 4.361 z"
         id="path155"
         inkscape:connector-curvature="0"
         style="fill:#695c57" /><path
         d="m 113.757,170.415 c -0.096,0.441 -0.146,1.223 -0.146,2.352 0,4.804 3.039,8.43 6.961,8.43 2.99,0 5.097,-1.714 5.929,-3.331 0.1,-0.196 0.298,-0.295 0.44,-0.245 l 0.639,0.343 c 0.149,0.048 0.244,0.195 0,0.736 -0.881,1.961 -3.43,5.343 -7.793,5.343 -2.793,0 -5.881,-0.837 -7.695,-3.48 -1.715,-2.501 -2.158,-4.315 -2.158,-7.747 0,-1.91 0.493,-5.192 3.09,-7.792 2.107,-2.157 4.561,-2.597 7.008,-2.597 5.638,0 7.207,5.295 7.207,7.205 0,0.685 -0.588,0.784 -1.373,0.784 h -12.109 z m 7.796,-1.473 c 0.928,0 1.321,-0.245 1.321,-0.687 0,-1.125 -0.59,-4.357 -3.775,-4.357 -2.154,0 -4.215,1.417 -5.146,5.044 h 7.6 z"
         id="path157"
         inkscape:connector-curvature="0"
         style="fill:#695c57" /><path
         d="m 146.205,170.415 c 0,-2.502 -0.391,-2.992 -1.764,-3.725 l -0.932,-0.492 c -0.297,-0.099 -0.393,-0.146 -0.393,-0.342 v -0.295 c 0,-0.196 0.096,-0.296 0.393,-0.44 l 4.852,-2.5 c 0.296,-0.147 0.49,-0.195 0.689,-0.195 0.291,0 0.34,0.293 0.34,0.588 l 0.246,3.383 h 0.195 c 1.471,-2.256 3.774,-4.265 5.881,-4.265 1.668,0 2.502,1.027 2.502,2.153 0,1.425 -1.178,2.405 -2.061,2.405 -0.537,0 -1.029,-0.197 -1.421,-0.395 -0.394,-0.244 -0.98,-0.392 -1.619,-0.392 -0.783,0 -2.059,0.492 -2.891,2.061 -0.293,0.537 -0.492,1.421 -0.492,1.566 v 10.293 c 0,1.52 0.346,2.013 1.373,2.013 h 2.303 c 0.298,0 0.346,0.144 0.346,0.439 v 0.881 c 0,0.296 -0.048,0.441 -0.246,0.441 -0.293,0 -2.549,-0.146 -5.195,-0.146 -3.039,0 -5.1,0.146 -5.393,0.146 -0.193,0 -0.293,-0.096 -0.293,-0.489 v -0.833 c 0,-0.344 0.1,-0.439 0.539,-0.439 h 1.912 c 0.736,0 1.078,-0.297 1.078,-0.934 0.049,-1.616 0.049,-3.333 0.049,-5.883 v -4.604 z"
         id="path159"
         inkscape:connector-curvature="0"
         style="fill:#695c57" /><path
         d="m 174.879,177.62 c 0,2.792 0.586,3.674 1.471,3.674 0.783,0 1.47,-0.391 1.713,-0.732 0.199,-0.247 0.297,-0.345 0.492,-0.198 l 0.488,0.395 c 0.148,0.146 0.248,0.39 -0.047,0.882 -0.393,0.732 -1.326,2.402 -3.824,2.402 -1.764,0 -3.039,-1.275 -3.48,-3.284 h -0.098 c -1.031,1.223 -2.646,2.252 -4.854,2.988 -0.932,0.296 -1.809,0.296 -2.891,0.296 -1.177,0 -2.939,-0.982 -2.939,-4.07 0,-2.254 1.029,-4.216 4.898,-5.933 2.209,-0.979 4.754,-2.154 5.539,-2.842 v -3.137 c -0.098,-0.832 -0.145,-2.106 -0.684,-2.745 -0.539,-0.636 -1.52,-1.077 -2.94,-1.077 -0.983,0 -2.501,0.394 -3.188,1.027 -0.686,0.639 -0.246,1.375 -0.246,2.259 0,1.713 -0.585,2.791 -2.596,2.791 -0.783,0 -1.178,-0.439 -1.178,-1.566 0,-1.57 1.375,-3.434 3.385,-4.608 2.059,-1.223 3.773,-1.715 5.979,-1.715 2.303,0 3.234,0.686 3.921,1.322 1.027,1.029 1.079,2.156 1.079,3.48 v 7.501 2.89 z m -3.58,-4.951 c -1.764,1.324 -6.567,2.304 -6.567,6.371 0,1.816 1.077,2.696 2.548,2.696 1.422,0 4.02,-1.716 4.02,-3.037 v -6.03 z"
         id="path161"
         inkscape:connector-curvature="0"
         style="fill:#695c57" /><path
         d="m 182.523,182.619 c -0.244,-0.146 -0.244,-0.441 -0.295,-0.687 l -0.832,-4.656 c -0.051,-0.247 0.098,-0.345 0.293,-0.392 l 0.639,-0.146 c 0.195,-0.052 0.342,0.05 0.44,0.291 l 1.228,2.405 c 0.979,1.813 1.664,3.038 4.266,3.038 1.714,0 3.871,-1.029 3.871,-3.333 0,-2.208 -1.08,-3.479 -4.756,-4.512 -2.889,-0.832 -5.783,-2.352 -5.783,-6.224 0,-3.382 3.186,-5.979 6.861,-5.979 2.353,0 3.629,0.588 4.511,1.027 0.731,0.343 0.834,0.59 0.88,0.885 l 0.738,3.43 c 0,0.197 -0.102,0.345 -0.344,0.44 l -0.588,0.196 c -0.195,0.05 -0.295,0 -0.443,-0.246 l -1.666,-2.254 c -0.588,-0.932 -1.52,-1.91 -3.43,-1.91 -1.863,0 -3.777,1.127 -3.777,3.234 0,2.841 2.307,3.382 4.711,4.067 3.574,1.031 5.83,2.5 5.878,6.274 -0.048,3.97 -3.284,6.472 -7.45,6.472 -2.403,0.003 -4.36,-0.979 -4.952,-1.42 z"
         id="path163"
         inkscape:connector-curvature="0"
         style="fill:#695c57" /><path
         d="m 202.18,171.592 c 0,2.646 1.174,5.635 2.498,7.448 1.617,2.107 3.68,2.5 5.344,2.5 2.449,0 3.725,-0.537 5.393,-2.105 0.098,-0.102 0.244,-0.147 0.391,0 l 0.49,0.49 c 0.195,0.196 0.244,0.342 0,0.637 -1.422,1.616 -4.559,3.48 -7.889,3.48 -2.6,0 -5.346,-0.589 -7.601,-3.433 -1.812,-2.405 -2.204,-4.46 -2.204,-6.666 0,-5.735 4.021,-11.518 10.488,-11.518 5.098,0 6.668,2.939 6.668,3.971 -0.051,1.128 -0.785,1.716 -1.816,1.716 -1.127,0 -1.961,-0.639 -2.695,-1.963 -1.076,-2.009 -2.107,-2.155 -3.283,-2.155 -2.796,0 -5.784,2.549 -5.784,7.598 z"
         id="path165"
         inkscape:connector-curvature="0"
         style="fill:#695c57" /><path
         d="m 233.891,177.62 c 0,2.792 0.59,3.674 1.471,3.674 0.784,0 1.471,-0.391 1.716,-0.732 0.194,-0.247 0.296,-0.345 0.493,-0.198 l 0.486,0.395 c 0.148,0.146 0.248,0.39 -0.05,0.882 -0.392,0.732 -1.325,2.402 -3.82,2.402 -1.767,0 -3.04,-1.275 -3.481,-3.284 h -0.1 c -1.029,1.223 -2.645,2.252 -4.852,2.988 -0.93,0.296 -1.812,0.296 -2.893,0.296 -1.176,0 -2.939,-0.982 -2.939,-4.07 0,-2.254 1.029,-4.216 4.902,-5.933 2.205,-0.979 4.752,-2.154 5.537,-2.842 v -3.137 c -0.096,-0.832 -0.145,-2.106 -0.688,-2.745 -0.536,-0.636 -1.52,-1.077 -2.938,-1.077 -0.982,0 -2.5,0.394 -3.188,1.027 -0.688,0.639 -0.244,1.375 -0.244,2.259 0,1.713 -0.588,2.791 -2.598,2.791 -0.785,0 -1.178,-0.439 -1.178,-1.566 0,-1.57 1.37,-3.434 3.381,-4.608 2.061,-1.223 3.775,-1.715 5.98,-1.715 2.305,0 3.235,0.686 3.922,1.322 1.031,1.029 1.078,2.156 1.078,3.48 v 7.501 2.89 z m -3.579,-4.951 c -1.764,1.324 -6.566,2.304 -6.566,6.371 0,1.816 1.078,2.696 2.547,2.696 1.422,0 4.02,-1.716 4.02,-3.037 v -6.03 z"
         id="path167"
         inkscape:connector-curvature="0"
         style="fill:#695c57" /><path
         d="m 246.582,168.845 c 0,2.55 0,9.951 0.049,11.47 0.051,0.833 0.248,1.522 1.277,1.522 h 2.205 c 0.441,0 0.541,0.144 0.541,0.439 v 0.833 c 0,0.292 -0.1,0.489 -0.297,0.489 -0.34,0 -2.5,-0.146 -5.539,-0.146 -3.135,0 -5.098,0.146 -5.535,0.146 -0.249,0 -0.347,-0.197 -0.347,-0.489 v -0.833 c 0,-0.344 0.098,-0.439 0.64,-0.439 h 2.352 c 0.541,0 1.029,-0.347 1.08,-1.228 0.05,-1.52 0.05,-9.949 0.05,-12.792 v -3.088 c 0,-3.481 -0.05,-7.939 -0.151,-9.216 -0.098,-1.666 -0.88,-2.451 -2.445,-2.938 l -0.986,-0.347 c -0.24,-0.099 -0.291,-0.146 -0.291,-0.243 v -0.39 c 0,-0.147 0.146,-0.248 0.441,-0.348 1.717,-0.781 3.92,-1.664 5.732,-2.84 0.445,-0.296 0.736,-0.394 1.029,-0.394 0.344,0 0.443,0.245 0.395,0.882 -0.051,2.699 -0.199,12.891 -0.199,15.589 v 4.361 z"
         id="path169"
         inkscape:connector-curvature="0"
         style="fill:#695c57" /><path
         d="m 254.083,182.619 c -0.243,-0.146 -0.243,-0.441 -0.296,-0.687 l -0.828,-4.656 c -0.051,-0.247 0.097,-0.345 0.291,-0.392 l 0.639,-0.146 c 0.194,-0.052 0.344,0.05 0.439,0.291 l 1.229,2.405 c 0.977,1.813 1.664,3.038 4.264,3.038 1.715,0 3.871,-1.029 3.871,-3.333 0,-2.208 -1.078,-3.479 -4.756,-4.512 -2.89,-0.832 -5.782,-2.352 -5.782,-6.224 0,-3.382 3.185,-5.979 6.862,-5.979 2.352,0 3.627,0.588 4.508,1.027 0.734,0.343 0.836,0.59 0.885,0.885 l 0.731,3.43 c 0,0.197 -0.097,0.345 -0.341,0.44 l -0.587,0.196 c -0.198,0.05 -0.3,0 -0.44,-0.246 l -1.67,-2.254 c -0.586,-0.932 -1.518,-1.91 -3.43,-1.91 -1.863,0 -3.775,1.127 -3.775,3.234 0,2.841 2.306,3.382 4.705,4.067 3.579,1.031 5.832,2.5 5.885,6.274 -0.053,3.97 -3.283,6.472 -7.451,6.472 -2.403,0.003 -4.364,-0.979 -4.953,-1.42 z"
         id="path171"
         inkscape:connector-curvature="0"
         style="fill:#695c57" /><path
         d="M 62.832,181.837 H 60.58 c -0.541,0 -0.687,-0.347 -0.786,-1.275 -0.048,-0.541 -0.048,-2.305 -0.048,-4.217 v -5.342 c 0,-4.069 0,-7.155 0.098,-7.989 0.05,-0.345 0,-0.588 -0.247,-0.588 -0.292,0 -0.537,0.099 -0.932,0.293 -1.861,1.029 -3.723,1.813 -5.289,2.402 -0.246,0.099 -0.347,0.194 -0.347,0.345 v 0.438 c 0,0.195 0.102,0.294 0.443,0.342 2.449,0.395 2.743,1.278 2.743,2.94 v 7.208 c 0,1.471 0,2.988 -0.048,4.462 -0.05,0.783 -0.246,0.98 -0.784,0.98 h -2.402 c -0.343,0 -0.49,0.096 -0.49,0.392 v 0.977 c 0,0.298 0.147,0.394 0.393,0.394 0.541,0 2.45,-0.146 5.292,-0.146 2.059,0 4.315,0.146 4.708,0.146 0.339,0 0.441,-0.146 0.441,-0.489 v -0.833 c 0,-0.297 -0.102,-0.44 -0.493,-0.44 z"
         id="path173"
         inkscape:connector-curvature="0"
         style="fill:#695c57" /><path
         d="m 58.669,158.304 c -1.532,-1.211 -3.309,-2.354 -4.401,-4.023 -0.771,-1.176 -1.187,-3.438 0.824,-3.607 1.156,-0.099 1.905,0.802 2.64,1.534 l 0.454,0.453 c 0.711,-0.952 1.779,-2.088 3.09,-2.044 0.894,0.03 1.455,0.841 1.441,1.652 -0.024,1.429 -0.912,2.533 -1.834,3.54 -0.186,0.209 -2.245,2.468 -2.214,2.495 z"
         id="path175"
         inkscape:connector-curvature="0"
         style="fill:#e2592f" /></g><g
       id="g177"><path
         clip-rule="evenodd"
         d="m 199.273,57.325 c 6.533,3.966 14.141,4.232 19.504,1.72 2.771,-1.299 5.777,-3.385 7.105,-7.633 1.314,-4.207 0.098,-7.443 -1.374,-10.13 -2.753,-5.027 -9.272,-9.556 -16.724,-10.046 -3.291,-0.212 -6.277,0.188 -9.229,1.546 -2.326,1.068 -6.285,3.692 -7.191,8.275 -0.992,5.027 1.271,8.928 2.946,12.337 -0.958,5.326 -4.142,7.954 -6.644,10.398 4.065,-1.026 8.129,-3.317 11.607,-6.467 z"
         id="path179"
         inkscape:connector-curvature="0"
         style="fill:#edcd48;fill-rule:evenodd" /><path
         d="m 206.234,54.289 c -2.045,-3.397 -4.603,-6.849 -5.484,-10.814 -0.619,-2.777 0.205,-7.38 4.15,-6.26 2.275,0.644 3.059,2.896 3.926,4.817 l 0.534,1.175 c 2.046,-1.297 4.886,-2.692 7.339,-1.669 1.674,0.7 2.166,2.646 1.559,4.178 -1.076,2.698 -3.553,4.163 -6.022,5.42 -0.505,0.257 -6.045,3.081 -6.002,3.153 z"
         id="path181"
         inkscape:connector-curvature="0"
         style="fill:#ffffff" /><g
         id="g183"><path
           d="m 93.217,128.396 c 5.194,-7.332 4.487,-10.09 5.668,-16.431 0.883,-4.746 -2.843,-18.118 -1.54,-26.592 -1.896,-6.336 -9.524,-6.223 -14.125,-2.827 -5.028,3.715 -9.776,13.9 -12.818,19.124 -2.986,5.129 -9.268,7.736 -12.172,12.819 -1.589,2.793 -2.158,6.893 -1.008,10.301 -1.93,0.937 -3.93,1.018 -5.963,0.213 -4.907,-1.938 -9.235,-8.584 -10.434,-13.631 -2.553,-10.751 1.637,-19.053 13.588,-26.915 0.602,-0.396 0.769,-1.203 0.374,-1.807 -0.398,-0.602 -1.204,-0.768 -1.808,-0.373 -8.754,5.76 -18.338,14.34 -14.692,29.697 1.166,4.906 5.664,12.943 12.014,15.453 1.246,0.492 2.5,0.737 3.746,0.737 1.474,0 2.929,-0.346 4.337,-1.029 0.892,1.284 2.144,2.351 3.826,3.015 4.527,1.786 15.007,0.059 19.923,-0.017 -2.729,2.179 -10.429,10.649 -1.802,10.234 3.481,-0.163 7.017,-7.109 7.537,-10.298 2.158,2.51 7.012,11.359 11.633,9.579 6.101,-2.343 -4.315,-9.77 -6.284,-11.252 z"
           id="path185"
           inkscape:connector-curvature="0"
           style="fill:#dcd3c1" /><path
           d="m 65.47,54.669 c -0.397,2.731 0.063,6.705 2.503,8.121 2.458,1.428 7.42,-3.986 8.693,-2.847 -3.468,-3.097 -6.149,-5.658 -11.196,-5.274 z"
           id="path187"
           inkscape:connector-curvature="0"
           style="fill:#dcd3c1" /><path
           d="m 71.596,58.116 c -1.166,-0.753 -2.44,-1.197 -4.179,-1.066 -0.232,1.599 0.021,3.891 1.361,4.826 0.594,-1.363 1.556,-2.644 2.818,-3.76 z"
           id="path189"
           inkscape:connector-curvature="0"
           style="fill:#e977af" /><path
           d="m 109.421,48.128 c 1.174,2.498 1.893,6.436 -0.03,8.498 -1.935,2.083 -8.257,-1.652 -9.147,-0.19 2.419,-3.973 4.24,-7.206 9.177,-8.308 z"
           id="path191"
           inkscape:connector-curvature="0"
           style="fill:#dcd3c1" /><path
           d="m 108.256,55.578 c 0.009,-0.007 0.021,-0.015 0.026,-0.021 1.17,-1.254 0.73,-3.645 0.02,-5.162 -1.764,0.395 -2.872,1.238 -3.786,2.355 1.519,0.723 2.8,1.679 3.74,2.828 z"
           id="path193"
           inkscape:connector-curvature="0"
           style="fill:#e977af" /><g
           id="g195"><path
             d="M 112.611,64.058 C 111.277,55.104 100.039,49.357 87.509,51.222 74.975,53.086 65.897,61.858 67.228,70.811 c 0.699,4.702 4.14,8.519 9.059,10.814 C 76.535,69.196 85.6,57.79 88.44,57.367 91,56.985 102.771,64 107.124,77.013 c 4.019,-3.624 6.185,-8.264 5.487,-12.955 z"
             id="path197"
             inkscape:connector-curvature="0"
             style="fill:#dcd3c1" /><path
             d="M 88.44,57.367 C 85.6,57.79 76.535,69.196 76.286,81.625 c 4.443,2.071 10.096,2.905 16.045,2.021 5.961,-0.887 11.142,-3.342 14.792,-6.633 C 102.771,64 91,56.985 88.44,57.367 z"
             id="path199"
             inkscape:connector-curvature="0"
             style="fill:#dcd3c1" /></g><path
           d="m 93.681,76.49 c 0.167,1.104 -0.891,2.179 -1.892,2.326 -0.999,0.15 -2.323,-0.567 -2.486,-1.674 -0.165,-1.107 0.73,-1.391 1.94,-1.569 1.211,-0.177 2.275,-0.187 2.438,0.917 z"
           id="path201"
           inkscape:connector-curvature="0"
           style="fill:#e977af" /><g
           id="g203"><g
             id="g205"><path
               d="m 87.787,77.988 c 0,0 -20.157,-1.752 -33.695,0.267"
               id="path207"
               inkscape:connector-curvature="0"
               style="fill:none;stroke:#695c57" /><path
               d="m 87.927,80.022 c 0,0 -19.984,3.145 -32.645,8.352"
               id="path209"
               inkscape:connector-curvature="0"
               style="fill:none;stroke:#695c57" /></g><g
             id="g211"><path
               d="m 95.377,76.859 c 0,0 18.774,-7.544 32.313,-9.56"
               id="path213"
               inkscape:connector-curvature="0"
               style="fill:none;stroke:#695c57" /><path
               d="m 95.837,78.844 c 0,0 20.033,-2.811 33.66,-1.513"
               id="path215"
               inkscape:connector-curvature="0"
               style="fill:none;stroke:#695c57" /></g></g><ellipse
           cx="89.202003"
           cy="110.363"
           rx="6.1869998"
           ry="11.514"
           id="ellipse217"
           sodipodi:cx="89.202003"
           sodipodi:cy="110.363"
           sodipodi:rx="6.1869998"
           sodipodi:ry="11.514"
           style="fill:#ffffff"
           d="m 95.389003,110.363 c 0,6.35901 -2.770014,11.514 -6.187,11.514 -3.416985,0 -6.186999,-5.15499 -6.186999,-11.514 0,-6.35901 2.770014,-11.514001 6.186999,-11.514001 3.416986,0 6.187,5.154991 6.187,11.514001 z" /><g
           id="g219"><path
             d="m 195.562,112.102 c 0.904,0.094 2.027,-3.51 2.51,-8.058 -1.045,0.064 -2.156,0.13 -3.34,0.176 -0.392,4.314 -0.041,7.788 0.83,7.882 z"
             id="path221"
             inkscape:connector-curvature="0"
             style="fill:#58595b" /><path
             d="m 200.796,112.651 c 0.911,0.096 2.042,-3.548 2.524,-8.135 0.018,-0.199 0.037,-0.398 0.054,-0.594 -1.009,-0.072 -2.108,-0.052 -3.323,0.008 -0.008,0.082 -0.02,0.159 -0.025,0.239 -0.483,4.588 -0.139,8.385 0.77,8.482 z"
             id="path223"
             inkscape:connector-curvature="0"
             style="fill:#58595b" /><path
             d="m 190.121,113.497 c 0.91,0.094 2.039,-3.547 2.523,-8.135 0.037,-0.37 0.066,-0.738 0.098,-1.099 -1.049,0.006 -2.147,-0.017 -3.299,-0.084 -0.033,0.276 -0.066,0.554 -0.096,0.836 -0.482,4.589 -0.134,8.386 0.774,8.482 z"
             id="path225"
             inkscape:connector-curvature="0"
             style="fill:#58595b" /><path
             d="m 205.828,115.149 c 0.912,0.096 2.035,-3.546 2.521,-8.136 0.121,-1.144 0.188,-2.242 0.211,-3.242 -1.129,0.092 -2.18,0.174 -3.131,0.203 -0.145,0.844 -0.275,1.748 -0.375,2.694 -0.482,4.586 -0.135,8.386 0.774,8.481 z"
             id="path227"
             inkscape:connector-curvature="0"
             style="fill:#58595b" /></g><path
           d="m 262.07,89.628 -0.043,-0.593 c -0.049,-0.721 -0.648,-1.256 -1.391,-1.212 -0.719,0.05 -1.262,0.67 -1.209,1.392 l 0.041,0.595 c 0.465,6.657 0.903,12.949 -3.066,18.472 -3.545,4.933 -9.092,8.545 -14.83,9.669 -2.222,0.433 -5.009,0.448 -7.629,-0.075 -0.484,-3.655 -2.082,-7.6 -5.637,-10.09 -7.17,-5.023 -14.35,-4.453 -19.746,-4.014 -0.023,1 -0.09,2.099 -0.211,3.242 -0.486,4.59 -1.609,8.231 -2.521,8.136 -0.909,-0.096 -1.256,-3.896 -0.773,-8.48 0.1,-0.946 0.23,-1.851 0.375,-2.694 -0.639,0.021 -1.236,0.015 -1.789,-0.034 -0.088,-0.01 -0.176,-0.014 -0.267,-0.018 -0.017,0.195 -0.036,0.395 -0.054,0.594 -0.482,4.587 -1.613,8.23 -2.524,8.135 -0.909,-0.098 -1.253,-3.895 -0.771,-8.481 0.006,-0.08 0.018,-0.157 0.025,-0.239 -0.629,0.03 -1.289,0.072 -1.979,0.113 -0.482,4.548 -1.605,8.151 -2.51,8.058 -0.871,-0.094 -1.223,-3.567 -0.83,-7.882 -0.643,0.021 -1.305,0.038 -1.99,0.044 -0.031,0.36 -0.061,0.729 -0.098,1.099 -0.484,4.588 -1.613,8.229 -2.523,8.135 -0.908,-0.096 -1.256,-3.894 -0.773,-8.481 0.029,-0.282 0.062,-0.56 0.096,-0.836 -4.486,-0.255 -9.754,-1.185 -15.898,-3.771 -4.359,-1.834 -4.539,0.023 -8.574,0.023 l -0.473,0.237 c 0.609,10.326 -8.699,12.077 -16.313,12.467 -1.682,0.088 -4.059,-1.088 -5.432,-1.088 -3.262,0 -3.961,1.14 -4.3,3.136 -1.025,6.004 17.667,3.731 21.302,4.467 -0.523,1.125 -2.838,3.28 -5.66,4.821 -1.17,0.644 -2.987,0.329 -3.909,1.143 -1.891,1.66 -2.375,4.595 -1.711,5.808 2.312,4.229 13.77,-0.797 16.733,-2.986 4.842,-3.572 6.812,-8.842 12.801,-6.18 10.477,4.663 22.211,-2.64 26.706,1.047 6.295,5.162 -2.214,7.204 -7.716,8.683 -1.736,0.468 -2.461,-1.457 -4.115,0.31 -7.008,7.497 8.697,4.934 12.061,4.727 9.535,-0.587 27.863,-3.995 29.055,-14.528 0.072,-0.609 0.107,-1.269 0.109,-1.949 1.317,0.219 2.641,0.334 3.912,0.334 1.451,0 2.836,-0.133 4.049,-0.371 6.379,-1.249 12.526,-5.249 16.449,-10.703 4.52,-6.297 4.026,-13.355 3.551,-20.182 z"
           id="path229"
           inkscape:connector-curvature="0"
           style="fill:#dcd3c1" /><path
           d="m 138.636,81.379 c 0.082,2.761 1.217,6.596 3.865,7.572 2.664,0.984 6.621,-5.203 8.074,-4.302 -3.95,-2.453 -7.033,-4.515 -11.939,-3.27 z"
           id="path231"
           inkscape:connector-curvature="0"
           style="fill:#dcd3c1" /><path
           d="m 145.265,83.724 c -1.273,-0.543 -2.609,-0.761 -4.299,-0.336 0.049,1.618 0.689,3.83 2.17,4.523 0.352,-1.445 1.082,-2.871 2.129,-4.187 z"
           id="path233"
           inkscape:connector-curvature="0"
           style="fill:#e977af" /><path
           d="m 180.812,67.375 c 1.585,2.26 2.972,6.015 1.435,8.377 -1.551,2.388 -8.422,-0.208 -9.051,1.386 1.7,-4.329 2.943,-7.825 7.616,-9.763 z"
           id="path235"
           inkscape:connector-curvature="0"
           style="fill:#dcd3c1" /><path
           d="m 180.947,74.916 c 0.004,-0.011 0.016,-0.018 0.023,-0.026 0.932,-1.437 0.092,-3.717 -0.873,-5.087 -1.67,0.693 -2.615,1.711 -3.322,2.968 1.618,0.453 3.043,1.175 4.172,2.145 z"
           id="path237"
           inkscape:connector-curvature="0"
           style="fill:#e977af" /><g
           id="g239"><path
             d="m 181.473,87.035 c -0.244,-0.735 2.109,-2.2 5.498,-3.517 -0.096,-0.46 -0.213,-0.924 -0.365,-1.378 -0.064,-0.198 -0.139,-0.397 -0.219,-0.589 -3.531,0.987 -6.326,1.227 -6.572,0.488 -0.232,-0.701 1.875,-2.06 4.994,-3.319 -3.152,-4.207 -9.046,-6.571 -15.783,-6.501 0.617,2.708 0.682,4.697 0.064,4.901 -0.678,0.223 -1.971,-1.745 -3.197,-4.698 -0.684,0.08 -1.373,0.184 -2.068,0.316 1.314,4.142 1.717,7.622 0.887,7.899 -0.85,0.282 -2.668,-2.885 -4.104,-7.118 -0.313,0.094 -0.624,0.189 -0.935,0.291 -0.314,0.106 -0.619,0.216 -0.924,0.328 1.377,4.253 1.814,7.874 0.965,8.156 -0.828,0.275 -2.592,-2.753 -4.018,-6.858 -0.633,0.309 -1.248,0.641 -1.846,0.984 0.785,3.099 0.928,5.45 0.249,5.676 -0.616,0.204 -1.754,-1.426 -2.879,-3.966 -5.441,3.975 -8.751,9.393 -8.758,14.65 3.252,-0.854 5.752,-1.028 5.985,-0.328 0.243,0.741 -2.136,2.218 -5.559,3.542 0.052,0.2 0.108,0.402 0.175,0.603 0.15,0.456 0.335,0.894 0.535,1.32 3.504,-0.973 6.264,-1.205 6.507,-0.467 0.224,0.676 -1.762,1.976 -4.728,3.209 4.783,5.597 14.714,7.554 24.624,4.263 9.91,-3.291 16.695,-10.798 17.184,-18.146 -3.117,0.79 -5.486,0.936 -5.712,0.259 z"
             id="path241"
             inkscape:connector-curvature="0"
             style="fill:#dcd3c1" /><path
             d="m 164.711,80.639 c 0.83,-0.277 0.428,-3.758 -0.887,-7.899 -1.066,0.2 -2.141,0.461 -3.218,0.781 1.437,4.233 3.255,7.4 4.105,7.118 z"
             id="path243"
             inkscape:connector-curvature="0"
             style="fill:#dcd3c1" /><path
             d="m 159.713,82.296 c 0.85,-0.282 0.412,-3.903 -0.965,-8.156 -1.059,0.386 -2.074,0.822 -3.053,1.298 1.426,4.105 3.19,7.133 4.018,6.858 z"
             id="path245"
             inkscape:connector-curvature="0"
             style="fill:#dcd3c1" /><path
             d="m 169.09,77.121 c 0.617,-0.204 0.553,-2.193 -0.064,-4.901 -1.027,0.009 -2.074,0.078 -3.133,0.203 1.226,2.953 2.519,4.921 3.197,4.698 z"
             id="path247"
             inkscape:connector-curvature="0"
             style="fill:#dcd3c1" /><path
             d="m 154.098,82.098 c 0.68,-0.226 0.536,-2.577 -0.249,-5.676 -0.924,0.533 -1.803,1.104 -2.631,1.71 1.125,2.54 2.264,4.17 2.88,3.966 z"
             id="path249"
             inkscape:connector-curvature="0"
             style="fill:#dcd3c1" /><path
             d="m 148.446,92.454 c -0.233,-0.7 -2.733,-0.526 -5.985,0.328 0,1.085 0.137,2.158 0.427,3.214 3.422,-1.324 5.801,-2.801 5.558,-3.542 z"
             id="path251"
             inkscape:connector-curvature="0"
             style="fill:#dcd3c1" /><path
             d="m 150.104,97.452 c -0.243,-0.738 -3.003,-0.506 -6.507,0.467 0.465,0.991 1.066,1.906 1.779,2.742 2.966,-1.233 4.952,-2.533 4.728,-3.209 z"
             id="path253"
             inkscape:connector-curvature="0"
             style="fill:#dcd3c1" /><path
             d="m 179.814,82.04 c 0.246,0.738 3.041,0.499 6.572,-0.488 -0.398,-1.021 -0.93,-1.965 -1.578,-2.831 -3.119,1.259 -5.226,2.618 -4.994,3.319 z"
             id="path255"
             inkscape:connector-curvature="0"
             style="fill:#dcd3c1" /><path
             d="m 181.473,87.035 c 0.227,0.677 2.596,0.531 5.711,-0.258 0.072,-1.095 0.004,-2.186 -0.213,-3.259 -3.389,1.317 -5.742,2.782 -5.498,3.517 z"
             id="path257"
             inkscape:connector-curvature="0"
             style="fill:#dcd3c1" /></g><path
           d="m 169.47,96.631 c 0.353,1.061 -0.505,2.299 -1.464,2.618 -0.961,0.318 -2.387,-0.162 -2.74,-1.226 -0.352,-1.057 0.482,-1.491 1.641,-1.877 1.161,-0.383 2.206,-0.578 2.563,0.485 z"
           id="path259"
           inkscape:connector-curvature="0"
           style="fill:#e977af" /><g
           id="g261"><g
             id="g263"><path
               d="m 164.154,98.379 c 0,0 -18.043,1.845 -29.731,5.726"
               id="path265"
               inkscape:connector-curvature="0"
               style="fill:none;stroke:#695c57" /><path
               d="m 164.551,100.039 c 0,0 -17.227,5.869 -27.704,12.25"
               id="path267"
               inkscape:connector-curvature="0"
               style="fill:none;stroke:#695c57" /></g><g
             id="g269"><path
               d="m 170.706,96.202 c 0,0 15.562,-9.313 27.249,-13.193"
               id="path271"
               inkscape:connector-curvature="0"
               style="fill:none;stroke:#695c57" /><path
               d="m 171.377,97.773 c 0,0 17.32,-5.603 29.532,-6.757"
               id="path273"
               inkscape:connector-curvature="0"
               style="fill:none;stroke:#695c57" /></g></g><g
           id="g275"><path
             d="m 162.859,93.455 c 0,0 -2.763,-2.64 -5.221,-2.045 -2.451,0.59 -3.421,3.423 -3.421,3.423"
             id="path277"
             inkscape:connector-curvature="0"
             style="fill:none;stroke:#231e20" /><path
             d="m 178.252,89.74 c 0,0 -2.762,-2.639 -5.217,-2.05 -2.449,0.593 -3.424,3.426 -3.424,3.426"
             id="path279"
             inkscape:connector-curvature="0"
             style="fill:none;stroke:#231e20" /></g><g
           id="g281"><path
             d="m 87.179,70.106 c 0,0 -2.254,-3.082 -4.775,-2.933 -2.521,0.147 -3.972,2.765 -3.972,2.765"
             id="path283"
             inkscape:connector-curvature="0"
             style="fill:none;stroke:#231e20" /><path
             d="m 102.989,69.165 c 0,0 -2.254,-3.085 -4.775,-2.937 -2.521,0.153 -3.976,2.771 -3.976,2.771"
             id="path285"
             inkscape:connector-curvature="0"
             style="fill:none;stroke:#231e20" /></g><polygon
           points="261.416,95.512 261.503,94.876 261.477,94.16 261.203,93.279 260.709,92.621 259.861,91.727 258.898,91.05 257.311,89.99 256.252,91.176 254.66,93.286 253.983,94.254 254.469,94.771 255.053,95.278 255.668,95.651 256.695,95.782 255.207,96.658 254.131,97.749 253.08,98.936 252.043,99.911 251.302,100.678 254.158,101.37 254.286,102.698 254.51,103.605 254.775,104.271 255.566,103.473 256.402,102.564 257.662,101.316 258.498,100.535 259.32,99.666 260.043,98.977 260.621,98.287 260.82,97.962 260.971,97.523 260.971,96.989 261.192,96.977 261.379,97.09 261.389,98.107 261.41,100.009 261.846,102.008 262.137,104.667 262.352,106.556 262.229,106.907 263.156,106.245 263.994,105.6 264.615,105.191 265.726,105.824 266.568,106.204 267.703,106.63 267.107,104.352 266.699,102.008 266.422,100.595 266.084,99.368 266.949,99.308 267.674,99.11 268.043,99.062 268.193,97.962 268.25,97.007 268.115,96.215 268.051,95.351 267.999,94.584 267.955,93.552 266.809,93.524 265.426,93.678 264.439,94.01 263.223,94.483 262.371,95.169 261.979,95.698 "
           id="polygon287"
           style="fill:#6cb4b0" /><polygon
           points="89.094,89.025 88.858,88.23 88.458,87.395 87.662,86.493 86.74,85.976 85.269,85.36 83.766,85.064 81.337,84.632 80.7,86.6 79.922,89.94 79.631,91.438 80.482,91.796 81.437,92.085 82.374,92.215 83.643,91.824 82.343,93.636 81.651,95.499 81.019,97.461 80.308,99.161 79.826,100.455 83.574,99.776 84.425,101.274 85.17,102.244 85.826,102.892 86.353,101.532 86.861,100.015 87.699,97.867 88.277,96.507 88.793,95.038 89.276,93.853 89.61,92.732 89.669,92.236 89.621,91.646 89.338,91.015 89.6,90.888 89.874,90.913 90.421,92.113 91.452,94.358 93.01,96.497 94.76,99.491 95.995,101.607 96.042,102.096 96.796,100.825 97.442,99.617 97.969,98.81 99.611,98.981 100.81,98.977 102.389,98.878 100.471,96.507 98.755,93.941 97.693,92.412 96.65,91.149 97.632,90.617 98.389,90.007 98.801,89.748 98.402,88.372 97.969,87.213 97.39,86.34 96.863,85.355 96.397,84.471 95.799,83.281 94.438,83.841 92.886,84.75 91.885,85.665 90.694,86.857 90.045,88.125 89.854,88.952 "
           id="polygon289"
           style="fill:#e2592f" /></g></g></g><g
     id="g291"
     transform="translate(0.128,0)"><path
       d="m 104.32,199.82 -1.507,0.938 c -1.302,-1.729 -3.078,-2.593 -5.33,-2.593 -1.799,0 -3.293,0.579 -4.482,1.736 -1.189,1.157 -1.783,2.562 -1.783,4.218 0,1.075 0.273,2.089 0.82,3.038 0.547,0.949 1.297,1.686 2.251,2.211 0.954,0.523 2.022,0.786 3.207,0.786 2.17,0 3.942,-0.864 5.316,-2.593 l 1.507,0.99 c -0.706,1.063 -1.654,1.889 -2.844,2.475 -1.19,0.586 -2.546,0.879 -4.066,0.879 -2.335,0 -4.272,-0.742 -5.811,-2.227 -1.539,-1.484 -2.308,-3.29 -2.308,-5.417 0,-1.431 0.359,-2.759 1.079,-3.985 0.72,-1.226 1.708,-2.183 2.967,-2.871 1.258,-0.688 2.666,-1.032 4.222,-1.032 0.978,0 1.921,0.149 2.831,0.448 0.91,0.299 1.681,0.688 2.315,1.167 0.634,0.48 1.172,1.09 1.616,1.832 z"
       id="path293"
       inkscape:connector-curvature="0"
       style="fill:#6ab4b0" /><path
       d="m 122.69,196.752 v 14.772 h -1.874 v -2.539 c -0.796,0.969 -1.69,1.697 -2.681,2.187 -0.991,0.488 -2.075,0.732 -3.252,0.732 -2.091,0 -3.876,-0.758 -5.356,-2.273 -1.48,-1.517 -2.22,-3.361 -2.22,-5.533 0,-2.127 0.747,-3.946 2.24,-5.458 1.494,-1.511 3.29,-2.268 5.39,-2.268 1.213,0 2.311,0.258 3.292,0.774 0.982,0.516 1.844,1.29 2.586,2.322 v -2.715 h 1.875 z m -7.596,1.453 c -1.058,0 -2.034,0.26 -2.929,0.78 -0.896,0.52 -1.607,1.25 -2.136,2.191 -0.529,0.939 -0.793,1.935 -0.793,2.982 0,1.041 0.267,2.035 0.8,2.984 0.533,0.949 1.25,1.688 2.149,2.217 0.899,0.529 1.865,0.794 2.896,0.794 1.04,0 2.025,-0.263 2.957,-0.786 0.931,-0.525 1.647,-1.234 2.149,-2.13 0.501,-0.896 0.752,-1.903 0.752,-3.024 0,-1.709 -0.562,-3.137 -1.688,-4.285 -1.126,-1.149 -2.512,-1.723 -4.157,-1.723 z"
       id="path295"
       inkscape:connector-curvature="0"
       style="fill:#6ab4b0" /><path
       d="m 128.624,191.267 h 1.901 v 5.485 h 3.014 v 1.643 h -3.014 v 13.129 h -1.901 v -13.129 h -2.593 v -1.643 h 2.593 v -5.485 z"
       id="path297"
       inkscape:connector-curvature="0"
       style="fill:#6ab4b0" /><path
       d="m 151.515,198.368 -1.222,1.263 c -1.017,-0.986 -2.01,-1.48 -2.981,-1.48 -0.617,0 -1.146,0.204 -1.586,0.611 -0.44,0.408 -0.66,0.883 -0.66,1.426 0,0.48 0.181,0.938 0.544,1.371 0.363,0.443 1.125,0.965 2.286,1.562 1.415,0.733 2.376,1.439 2.884,2.118 0.499,0.688 0.748,1.462 0.748,2.322 0,1.213 -0.426,2.24 -1.278,3.082 -0.852,0.842 -1.917,1.262 -3.195,1.262 -0.852,0 -1.666,-0.186 -2.441,-0.557 -0.775,-0.371 -1.417,-0.883 -1.924,-1.534 l 1.195,-1.357 c 0.971,1.095 2,1.643 3.089,1.643 0.762,0 1.411,-0.244 1.946,-0.733 0.535,-0.488 0.803,-1.062 0.803,-1.725 0,-0.543 -0.177,-1.026 -0.53,-1.452 -0.354,-0.416 -1.152,-0.941 -2.395,-1.575 -1.333,-0.688 -2.241,-1.366 -2.721,-2.036 -0.481,-0.67 -0.721,-1.435 -0.721,-2.294 0,-1.123 0.383,-2.055 1.149,-2.797 0.766,-0.742 1.734,-1.114 2.903,-1.114 1.359,-0.002 2.728,0.664 4.107,1.994 z"
       id="path299"
       inkscape:connector-curvature="0"
       style="fill:#6ab4b0" /><path
       d="m 155.54,190.67 c 0.434,0 0.803,0.154 1.109,0.461 0.307,0.308 0.459,0.679 0.459,1.113 0,0.426 -0.152,0.792 -0.459,1.1 -0.307,0.308 -0.676,0.461 -1.109,0.461 -0.423,0 -0.788,-0.154 -1.094,-0.461 -0.307,-0.308 -0.46,-0.674 -0.46,-1.1 0,-0.434 0.154,-0.805 0.46,-1.113 0.306,-0.307 0.671,-0.461 1.094,-0.461 z m -0.943,6.082 h 1.901 v 14.772 h -1.901 v -14.772 z"
       id="path301"
       inkscape:connector-curvature="0"
       style="fill:#6ab4b0" /><path
       d="m 162.104,191.267 h 1.901 v 5.485 h 3.015 v 1.643 h -3.015 v 13.129 h -1.901 v -13.129 h -2.593 v -1.643 h 2.593 v -5.485 z"
       id="path303"
       inkscape:connector-curvature="0"
       style="fill:#6ab4b0" /><path
       d="m 171.527,191.267 h 1.901 v 5.485 h 3.014 v 1.643 h -3.014 v 13.129 h -1.901 v -13.129 h -2.593 v -1.643 h 2.593 v -5.485 z"
       id="path305"
       inkscape:connector-curvature="0"
       style="fill:#6ab4b0" /><path
       d="m 179.952,190.67 c 0.433,0 0.803,0.154 1.108,0.461 0.307,0.308 0.46,0.679 0.46,1.113 0,0.426 -0.153,0.792 -0.46,1.1 -0.306,0.308 -0.676,0.461 -1.108,0.461 -0.424,0 -0.789,-0.154 -1.095,-0.461 -0.307,-0.308 -0.46,-0.674 -0.46,-1.1 0,-0.434 0.153,-0.805 0.46,-1.113 0.306,-0.307 0.671,-0.461 1.095,-0.461 z m -0.943,6.082 h 1.9 v 14.772 h -1.9 v -14.772 z"
       id="path307"
       inkscape:connector-curvature="0"
       style="fill:#6ab4b0" /><path
       d="m 184.86,196.752 h 1.9 v 2.648 c 0.761,-1.014 1.603,-1.772 2.525,-2.274 0.924,-0.502 1.928,-0.754 3.014,-0.754 1.105,0 2.085,0.281 2.939,0.842 0.855,0.562 1.487,1.317 1.895,2.268 0.408,0.95 0.611,2.431 0.611,4.44 v 7.603 h -1.9 v -7.046 c 0,-1.702 -0.071,-2.838 -0.212,-3.408 -0.22,-0.979 -0.644,-1.713 -1.268,-2.207 -0.624,-0.493 -1.439,-0.74 -2.444,-0.74 -1.149,0 -2.18,0.38 -3.09,1.14 -0.909,0.761 -1.509,1.702 -1.799,2.824 -0.181,0.733 -0.271,2.073 -0.271,4.02 v 5.417 h -1.9 v -14.773 z"
       id="path309"
       inkscape:connector-curvature="0"
       style="fill:#6ab4b0" /><path
       d="m 214.554,196.752 h 1.9 v 11.771 c 0,2.073 -0.181,3.59 -0.543,4.549 -0.498,1.357 -1.362,2.403 -2.594,3.137 -1.23,0.732 -2.711,1.1 -4.439,1.1 -1.268,0 -2.405,-0.18 -3.414,-0.538 -1.01,-0.358 -1.831,-0.84 -2.465,-1.443 -0.633,-0.604 -1.217,-1.487 -1.751,-2.648 h 2.063 c 0.562,0.978 1.287,1.701 2.176,2.172 0.887,0.471 1.988,0.706 3.303,0.706 1.295,0 2.391,-0.241 3.283,-0.724 0.893,-0.483 1.529,-1.089 1.91,-1.819 0.38,-0.731 0.57,-1.911 0.57,-3.539 v -0.761 c -0.716,0.905 -1.59,1.601 -2.623,2.084 -1.033,0.484 -2.129,0.727 -3.289,0.727 -1.359,0 -2.637,-0.337 -3.833,-1.012 -1.196,-0.674 -2.12,-1.581 -2.772,-2.722 -0.652,-1.141 -0.979,-2.395 -0.979,-3.762 0,-1.366 0.34,-2.641 1.02,-3.821 0.68,-1.18 1.619,-2.116 2.82,-2.804 1.2,-0.688 2.467,-1.032 3.799,-1.032 1.105,0 2.136,0.229 3.092,0.686 0.955,0.457 1.877,1.21 2.766,2.26 v -2.567 z m -5.608,1.453 c -1.077,0 -2.077,0.26 -3,0.781 -0.924,0.52 -1.648,1.241 -2.173,2.159 -0.525,0.919 -0.788,1.912 -0.788,2.98 0,1.62 0.543,2.959 1.63,4.019 1.086,1.06 2.493,1.589 4.222,1.589 1.748,0 3.152,-0.525 4.217,-1.575 1.062,-1.05 1.595,-2.431 1.595,-4.142 0,-1.113 -0.244,-2.105 -0.733,-2.979 -0.488,-0.874 -1.181,-1.563 -2.076,-2.071 -0.898,-0.508 -1.862,-0.761 -2.894,-0.761 z"
       id="path311"
       inkscape:connector-curvature="0"
       style="fill:#6ab4b0" /></g><g
     id="g3888"
     transform="translate(-7.1384672,4)"><g
       style="fill:#695c57;fill-opacity:1"
       transform="matrix(0.88246526,0,0,0.88963454,25.234238,65.480773)"
       id="g5"><g
         style="fill:#695c57;fill-opacity:1"
         id="g7"><path
           style="fill:#695c57;fill-opacity:1"
           inkscape:connector-curvature="0"
           id="path9"
           d="m 22.127,252.28 -0.935,0.581 c -0.808,-1.072 -1.911,-1.609 -3.308,-1.609 -1.117,0 -2.044,0.359 -2.782,1.078 -0.738,0.718 -1.107,1.59 -1.107,2.617 0,0.668 0.169,1.297 0.509,1.886 0.339,0.589 0.805,1.046 1.397,1.372 0.592,0.326 1.256,0.488 1.991,0.488 1.347,0 2.447,-0.537 3.3,-1.609 l 0.935,0.615 c -0.438,0.66 -1.027,1.172 -1.765,1.535 -0.739,0.364 -1.58,0.546 -2.524,0.546 -1.45,0 -2.652,-0.46 -3.607,-1.382 -0.955,-0.922 -1.433,-2.042 -1.433,-3.362 0,-0.888 0.223,-1.712 0.67,-2.474 0.447,-0.762 1.061,-1.355 1.841,-1.782 0.78,-0.427 1.654,-0.64 2.621,-0.64 0.606,0 1.192,0.092 1.757,0.277 0.565,0.185 1.043,0.428 1.437,0.725 0.394,0.298 0.728,0.678 1.003,1.138 z" /><path
           style="fill:#695c57;fill-opacity:1"
           inkscape:connector-curvature="0"
           id="path11"
           d="m 33.529,250.376 v 9.169 h -1.163 v -1.576 c -0.495,0.602 -1.049,1.053 -1.665,1.356 -0.616,0.303 -1.288,0.455 -2.018,0.455 -1.298,0 -2.406,-0.47 -3.325,-1.411 -0.918,-0.941 -1.377,-2.086 -1.377,-3.434 0,-1.32 0.463,-2.45 1.39,-3.389 0.927,-0.938 2.042,-1.406 3.346,-1.406 0.753,0 1.434,0.159 2.043,0.479 0.609,0.32 1.145,0.801 1.605,1.44 v -1.685 h 1.164 z m -4.715,0.901 c -0.656,0 -1.262,0.162 -1.818,0.484 -0.556,0.322 -0.998,0.775 -1.326,1.359 -0.329,0.584 -0.493,1.201 -0.493,1.852 0,0.646 0.166,1.263 0.497,1.852 0.331,0.59 0.776,1.049 1.334,1.377 0.558,0.328 1.157,0.492 1.797,0.492 0.646,0 1.257,-0.162 1.835,-0.488 0.578,-0.326 1.022,-0.766 1.334,-1.321 0.312,-0.555 0.467,-1.182 0.467,-1.878 0,-1.061 -0.349,-1.946 -1.048,-2.659 -0.699,-0.713 -1.558,-1.07 -2.579,-1.07 z" /><path
           style="fill:#695c57;fill-opacity:1"
           inkscape:connector-curvature="0"
           id="path13"
           d="m 35.737,250.376 h 1.205 v 1.34 c 0.359,-0.528 0.738,-0.923 1.137,-1.185 0.399,-0.261 0.815,-0.391 1.248,-0.391 0.326,0 0.674,0.104 1.045,0.311 l -0.615,0.995 c -0.248,-0.106 -0.455,-0.16 -0.624,-0.16 -0.394,0 -0.772,0.161 -1.138,0.484 -0.366,0.323 -0.644,0.825 -0.834,1.505 -0.146,0.521 -0.219,1.578 -0.219,3.168 v 3.102 h -1.205 v -9.169 z" /><path
           style="fill:#695c57;fill-opacity:1"
           inkscape:connector-curvature="0"
           id="path15"
           d="m 41.783,246.601 c 0.269,0 0.498,0.096 0.688,0.286 0.19,0.191 0.286,0.422 0.286,0.691 0,0.264 -0.095,0.492 -0.286,0.683 -0.19,0.19 -0.419,0.286 -0.688,0.286 -0.263,0 -0.489,-0.096 -0.68,-0.286 -0.19,-0.19 -0.285,-0.419 -0.285,-0.683 0,-0.27 0.095,-0.5 0.285,-0.691 0.191,-0.191 0.418,-0.286 0.68,-0.286 z m -0.585,3.775 h 1.18 v 9.169 h -1.18 v -9.169 z" /><path
           style="fill:#695c57;fill-opacity:1"
           inkscape:connector-curvature="0"
           id="path17"
           d="m 44.83,250.376 h 1.18 v 1.644 c 0.472,-0.629 0.994,-1.1 1.567,-1.412 0.573,-0.312 1.196,-0.467 1.871,-0.467 0.686,0 1.293,0.174 1.824,0.521 0.531,0.349 0.923,0.818 1.176,1.408 0.253,0.59 0.379,1.508 0.379,2.755 v 4.72 h -1.18 v -4.374 c 0,-1.056 -0.043,-1.761 -0.131,-2.115 -0.137,-0.606 -0.399,-1.063 -0.787,-1.37 -0.388,-0.306 -0.894,-0.459 -1.517,-0.459 -0.714,0 -1.353,0.236 -1.917,0.709 -0.565,0.471 -0.937,1.056 -1.117,1.752 -0.113,0.455 -0.168,1.287 -0.168,2.494 v 3.363 h -1.18 v -9.169 z" /><path
           style="fill:#695c57;fill-opacity:1"
           inkscape:connector-curvature="0"
           id="path19"
           d="m 63.26,250.376 h 1.18 v 7.306 c 0,1.287 -0.112,2.229 -0.337,2.823 -0.309,0.843 -0.846,1.491 -1.61,1.946 -0.764,0.455 -1.683,0.684 -2.755,0.684 -0.787,0 -1.493,-0.111 -2.12,-0.334 -0.627,-0.223 -1.136,-0.521 -1.529,-0.896 -0.394,-0.375 -0.756,-0.922 -1.087,-1.644 h 1.281 c 0.349,0.606 0.799,1.056 1.35,1.349 0.551,0.291 1.235,0.438 2.05,0.438 0.804,0 1.484,-0.149 2.038,-0.449 0.554,-0.299 0.949,-0.676 1.186,-1.129 0.236,-0.454 0.354,-1.186 0.354,-2.197 V 257.8 c -0.444,0.562 -0.987,0.993 -1.628,1.294 -0.641,0.301 -1.321,0.451 -2.041,0.451 -0.844,0 -1.637,-0.209 -2.379,-0.629 -0.743,-0.418 -1.316,-0.98 -1.721,-1.689 -0.405,-0.707 -0.607,-1.485 -0.607,-2.334 0,-0.848 0.211,-1.639 0.633,-2.372 0.421,-0.733 1.005,-1.313 1.75,-1.74 0.745,-0.427 1.531,-0.64 2.358,-0.64 0.686,0 1.326,0.141 1.919,0.425 0.593,0.284 1.166,0.751 1.717,1.403 v -1.593 z m -3.481,0.901 c -0.668,0 -1.29,0.162 -1.862,0.484 -0.573,0.324 -1.022,0.77 -1.348,1.34 -0.326,0.57 -0.489,1.188 -0.489,1.85 0,1.006 0.337,1.838 1.011,2.495 0.674,0.657 1.547,0.985 2.621,0.985 1.084,0 1.957,-0.325 2.617,-0.977 0.66,-0.652 0.99,-1.509 0.99,-2.57 0,-0.691 -0.152,-1.309 -0.455,-1.85 -0.304,-0.543 -0.733,-0.971 -1.29,-1.285 -0.557,-0.314 -1.154,-0.472 -1.795,-0.472 z" /><path
           style="fill:#695c57;fill-opacity:1"
           inkscape:connector-curvature="0"
           id="path21"
           d="m 75.521,246.836 v 1.155 c -0.433,-0.186 -0.803,-0.278 -1.112,-0.278 -0.23,0 -0.421,0.047 -0.573,0.139 -0.151,0.094 -0.247,0.199 -0.286,0.32 -0.04,0.121 -0.059,0.443 -0.059,0.965 l -0.001,1.239 h 1.914 v 1.02 h -1.915 l -0.006,8.149 h -1.18 v -8.149 h -1.205 v -1.02 h 1.205 v -1.433 c 0,-0.657 0.061,-1.127 0.181,-1.407 0.121,-0.281 0.326,-0.507 0.615,-0.679 0.29,-0.171 0.639,-0.257 1.049,-0.257 0.381,0.001 0.839,0.08 1.373,0.236 z" /><path
           style="fill:#695c57;fill-opacity:1"
           inkscape:connector-curvature="0"
           id="path23"
           d="m 81.504,250.141 c 1.413,0 2.583,0.511 3.512,1.533 0.844,0.933 1.266,2.036 1.266,3.312 0,1.28 -0.446,2.4 -1.338,3.358 -0.892,0.957 -2.039,1.437 -3.44,1.437 -1.407,0 -2.556,-0.479 -3.448,-1.437 -0.892,-0.958 -1.338,-2.078 -1.338,-3.358 0,-1.27 0.422,-2.37 1.266,-3.304 0.929,-1.028 2.102,-1.541 3.52,-1.541 z m -0.004,1.154 c -0.981,0 -1.824,0.361 -2.529,1.086 -0.705,0.726 -1.057,1.602 -1.057,2.63 0,0.663 0.161,1.28 0.482,1.854 0.321,0.572 0.755,1.015 1.302,1.326 0.547,0.312 1.147,0.469 1.801,0.469 0.654,0 1.254,-0.156 1.801,-0.469 0.547,-0.312 0.981,-0.754 1.302,-1.326 0.321,-0.574 0.482,-1.191 0.482,-1.854 0,-1.028 -0.354,-1.904 -1.061,-2.63 -0.707,-0.725 -1.548,-1.086 -2.523,-1.086 z" /><path
           style="fill:#695c57;fill-opacity:1"
           inkscape:connector-curvature="0"
           id="path25"
           d="m 88.019,250.376 h 1.205 v 1.34 c 0.359,-0.528 0.738,-0.923 1.137,-1.185 0.399,-0.261 0.815,-0.391 1.248,-0.391 0.326,0 0.674,0.104 1.045,0.311 l -0.615,0.995 c -0.248,-0.106 -0.455,-0.16 -0.624,-0.16 -0.394,0 -0.772,0.161 -1.138,0.484 -0.366,0.323 -0.644,0.825 -0.834,1.505 -0.146,0.521 -0.219,1.578 -0.219,3.168 v 3.102 h -1.205 v -9.169 z" /><path
           style="fill:#695c57;fill-opacity:1"
           inkscape:connector-curvature="0"
           id="path27"
           d="m 107.569,250.376 v 9.169 h -1.163 v -1.576 c -0.495,0.602 -1.049,1.053 -1.665,1.356 -0.616,0.303 -1.288,0.455 -2.018,0.455 -1.298,0 -2.406,-0.47 -3.325,-1.411 -0.918,-0.941 -1.377,-2.086 -1.377,-3.434 0,-1.32 0.463,-2.45 1.39,-3.389 0.927,-0.938 2.042,-1.406 3.346,-1.406 0.753,0 1.434,0.159 2.043,0.479 0.609,0.32 1.145,0.801 1.605,1.44 v -1.685 h 1.164 z m -4.715,0.901 c -0.656,0 -1.262,0.162 -1.818,0.484 -0.556,0.322 -0.998,0.775 -1.326,1.359 -0.329,0.584 -0.493,1.201 -0.493,1.852 0,0.646 0.166,1.263 0.497,1.852 0.331,0.59 0.776,1.049 1.334,1.377 0.558,0.328 1.157,0.492 1.797,0.492 0.646,0 1.257,-0.162 1.835,-0.488 0.578,-0.326 1.022,-0.766 1.334,-1.321 0.312,-0.555 0.467,-1.182 0.467,-1.878 0,-1.061 -0.349,-1.946 -1.048,-2.659 -0.699,-0.713 -1.558,-1.07 -2.579,-1.07 z" /><path
           style="fill:#695c57;fill-opacity:1"
           inkscape:connector-curvature="0"
           id="path29"
           d="m 110.072,250.376 h 1.18 v 4.28 c 0,1.045 0.056,1.765 0.169,2.158 0.168,0.562 0.491,1.006 0.966,1.331 0.475,0.326 1.042,0.489 1.7,0.489 0.658,0 1.217,-0.159 1.675,-0.477 0.458,-0.318 0.775,-0.734 0.95,-1.252 0.118,-0.354 0.177,-1.104 0.177,-2.25 v -4.28 h 1.205 v 4.5 c 0,1.265 -0.147,2.216 -0.442,2.856 -0.295,0.64 -0.739,1.143 -1.332,1.504 -0.593,0.363 -1.336,0.544 -2.229,0.544 -0.893,0 -1.639,-0.181 -2.237,-0.544 -0.599,-0.361 -1.045,-0.867 -1.34,-1.516 -0.295,-0.649 -0.442,-1.625 -0.442,-2.93 v -4.413 z" /><path
           style="fill:#695c57;fill-opacity:1"
           inkscape:connector-curvature="0"
           id="path31"
           d="m 125.325,251.379 -0.759,0.783 c -0.631,-0.611 -1.248,-0.918 -1.85,-0.918 -0.383,0 -0.711,0.126 -0.984,0.379 -0.273,0.253 -0.41,0.548 -0.41,0.885 0,0.298 0.112,0.582 0.338,0.852 0.225,0.275 0.698,0.598 1.418,0.969 0.878,0.455 1.475,0.893 1.791,1.314 0.31,0.428 0.464,0.908 0.464,1.441 0,0.752 -0.265,1.391 -0.793,1.912 -0.529,0.523 -1.19,0.784 -1.983,0.784 -0.529,0 -1.034,-0.115 -1.515,-0.345 -0.481,-0.23 -0.879,-0.549 -1.194,-0.953 l 0.741,-0.842 c 0.603,0.68 1.242,1.02 1.917,1.02 0.473,0 0.875,-0.152 1.208,-0.455 0.332,-0.304 0.499,-0.66 0.499,-1.07 0,-0.338 -0.11,-0.639 -0.33,-0.902 -0.22,-0.258 -0.715,-0.584 -1.486,-0.978 -0.828,-0.427 -1.391,-0.849 -1.689,-1.264 -0.298,-0.416 -0.448,-0.891 -0.448,-1.425 0,-0.696 0.238,-1.275 0.713,-1.735 0.476,-0.461 1.076,-0.69 1.802,-0.69 0.845,0 1.694,0.412 2.55,1.238 z" /><path
           style="fill:#695c57;fill-opacity:1"
           inkscape:connector-curvature="0"
           id="path33"
           d="m 128.442,246.971 h 1.18 v 3.405 h 1.871 v 1.02 h -1.871 v 8.149 h -1.18 v -8.149 h -1.61 v -1.02 h 1.61 v -3.405 z" /><path
           style="fill:#695c57;fill-opacity:1"
           inkscape:connector-curvature="0"
           id="path35"
           d="m 133.671,246.601 c 0.269,0 0.498,0.096 0.688,0.286 0.19,0.191 0.286,0.422 0.286,0.691 0,0.264 -0.095,0.492 -0.286,0.683 -0.19,0.19 -0.419,0.286 -0.688,0.286 -0.263,0 -0.489,-0.096 -0.68,-0.286 -0.19,-0.19 -0.285,-0.419 -0.285,-0.683 0,-0.27 0.095,-0.5 0.285,-0.691 0.191,-0.191 0.418,-0.286 0.68,-0.286 z m -0.585,3.775 h 1.18 v 9.169 h -1.18 v -9.169 z" /><path
           style="fill:#695c57;fill-opacity:1"
           inkscape:connector-curvature="0"
           id="path37"
           d="m 136.718,250.376 h 1.18 v 1.644 c 0.472,-0.629 0.994,-1.1 1.567,-1.412 0.573,-0.312 1.196,-0.467 1.871,-0.467 0.686,0 1.293,0.174 1.824,0.521 0.531,0.349 0.923,0.818 1.176,1.408 0.253,0.59 0.379,1.508 0.379,2.755 v 4.72 h -1.18 v -4.374 c 0,-1.056 -0.043,-1.761 -0.131,-2.115 -0.137,-0.606 -0.399,-1.063 -0.787,-1.37 -0.388,-0.306 -0.894,-0.459 -1.517,-0.459 -0.714,0 -1.353,0.236 -1.917,0.709 -0.565,0.471 -0.937,1.056 -1.117,1.752 -0.113,0.455 -0.168,1.287 -0.168,2.494 v 3.363 h -1.18 v -9.169 z" /><path
           style="fill:#695c57;fill-opacity:1"
           inkscape:connector-curvature="0"
           id="path39"
           d="m 148.069,250.738 h -0.868 l -0.186,-3.902 h 1.248 l -0.194,3.902 z" /><path
           style="fill:#695c57;fill-opacity:1"
           inkscape:connector-curvature="0"
           id="path41"
           d="m 155.265,251.379 -0.758,0.783 c -0.631,-0.611 -1.248,-0.918 -1.85,-0.918 -0.383,0 -0.711,0.126 -0.984,0.379 -0.273,0.253 -0.41,0.548 -0.41,0.885 0,0.298 0.112,0.582 0.338,0.852 0.225,0.275 0.698,0.598 1.418,0.969 0.878,0.455 1.475,0.893 1.791,1.314 0.31,0.428 0.464,0.908 0.464,1.441 0,0.752 -0.265,1.391 -0.793,1.912 -0.529,0.523 -1.19,0.784 -1.983,0.784 -0.529,0 -1.034,-0.115 -1.515,-0.345 -0.481,-0.23 -0.879,-0.549 -1.194,-0.953 l 0.741,-0.842 c 0.603,0.68 1.242,1.02 1.917,1.02 0.473,0 0.875,-0.152 1.208,-0.455 0.332,-0.304 0.499,-0.66 0.499,-1.07 0,-0.338 -0.11,-0.639 -0.33,-0.902 -0.22,-0.258 -0.715,-0.584 -1.486,-0.978 -0.828,-0.427 -1.391,-0.849 -1.689,-1.264 -0.298,-0.416 -0.448,-0.891 -0.448,-1.425 0,-0.696 0.238,-1.275 0.713,-1.735 0.476,-0.461 1.076,-0.69 1.802,-0.69 0.845,0 1.694,0.412 2.549,1.238 z" /><path
           style="fill:#695c57;fill-opacity:1"
           inkscape:connector-curvature="0"
           id="path43"
           d="m 162.124,246.836 h 1.18 v 7.24 l 4.252,-3.7 h 1.732 l -5.04,4.374 5.335,4.795 h -1.661 l -4.618,-4.129 v 4.129 h -1.18 v -12.709 z" /><path
           style="fill:#695c57;fill-opacity:1"
           inkscape:connector-curvature="0"
           id="path45"
           d="m 171.204,246.601 c 0.27,0 0.498,0.096 0.688,0.286 0.19,0.191 0.286,0.422 0.286,0.691 0,0.264 -0.096,0.492 -0.286,0.683 -0.19,0.191 -0.419,0.286 -0.688,0.286 -0.262,0 -0.488,-0.096 -0.68,-0.286 -0.189,-0.19 -0.285,-0.419 -0.285,-0.683 0,-0.27 0.096,-0.5 0.285,-0.691 0.192,-0.191 0.418,-0.286 0.68,-0.286 z m -0.585,3.775 h 1.18 v 9.169 h -1.18 v -9.169 z" /><path
           style="fill:#695c57;fill-opacity:1"
           inkscape:connector-curvature="0"
           id="path47"
           d="m 175.279,246.971 h 1.18 v 3.405 h 1.87 v 1.02 h -1.87 v 8.149 h -1.18 v -8.149 h -1.61 v -1.02 h 1.61 v -3.405 z" /><path
           style="fill:#695c57;fill-opacity:1"
           inkscape:connector-curvature="0"
           id="path49"
           d="m 181.128,246.971 h 1.18 v 3.405 h 1.87 v 1.02 h -1.87 v 8.149 h -1.18 v -8.149 h -1.61 v -1.02 h 1.61 v -3.405 z" /><path
           style="fill:#695c57;fill-opacity:1"
           inkscape:connector-curvature="0"
           id="path51"
           d="m 186.356,246.601 c 0.269,0 0.498,0.096 0.688,0.286 0.191,0.191 0.286,0.422 0.286,0.691 0,0.264 -0.095,0.492 -0.286,0.683 -0.189,0.19 -0.419,0.286 -0.688,0.286 -0.263,0 -0.489,-0.096 -0.68,-0.286 -0.189,-0.19 -0.285,-0.419 -0.285,-0.683 0,-0.27 0.096,-0.5 0.285,-0.691 0.191,-0.191 0.418,-0.286 0.68,-0.286 z m -0.585,3.775 h 1.18 v 9.169 h -1.18 v -9.169 z" /><path
           style="fill:#695c57;fill-opacity:1"
           inkscape:connector-curvature="0"
           id="path53"
           d="m 197.122,256.502 0.994,0.523 c -0.326,0.64 -0.703,1.156 -1.131,1.55 -0.428,0.394 -0.908,0.692 -1.441,0.897 -0.535,0.205 -1.139,0.308 -1.814,0.308 -1.496,0 -2.665,-0.489 -3.508,-1.47 -0.844,-0.98 -1.266,-2.09 -1.266,-3.325 0,-1.163 0.357,-2.199 1.07,-3.109 0.906,-1.157 2.117,-1.735 3.636,-1.735 1.563,0 2.812,0.592 3.745,1.777 0.664,0.838 1.001,1.883 1.012,3.135 h -8.25 c 0.023,1.064 0.363,1.938 1.021,2.619 0.658,0.681 1.471,1.021 2.438,1.021 0.467,0 0.922,-0.081 1.363,-0.244 0.441,-0.162 0.816,-0.377 1.127,-0.646 0.309,-0.268 0.644,-0.701 1.004,-1.301 z m 0,-2.469 c -0.158,-0.629 -0.387,-1.132 -0.688,-1.508 -0.302,-0.377 -0.699,-0.68 -1.194,-0.91 -0.495,-0.23 -1.016,-0.346 -1.562,-0.346 -0.899,0 -1.673,0.289 -2.32,0.867 -0.473,0.422 -0.829,1.054 -1.071,1.896 h 6.835 z" /><path
           style="fill:#695c57;fill-opacity:1"
           inkscape:connector-curvature="0"
           id="path55"
           d="m 205.229,251.379 -0.759,0.783 c -0.631,-0.611 -1.248,-0.918 -1.85,-0.918 -0.384,0 -0.712,0.126 -0.984,0.379 -0.273,0.253 -0.41,0.548 -0.41,0.885 0,0.298 0.112,0.582 0.338,0.852 0.225,0.275 0.697,0.598 1.418,0.969 0.879,0.455 1.476,0.893 1.791,1.314 0.31,0.428 0.465,0.908 0.465,1.441 0,0.752 -0.266,1.391 -0.794,1.912 -0.528,0.523 -1.19,0.784 -1.983,0.784 -0.529,0 -1.033,-0.115 -1.515,-0.345 -0.481,-0.23 -0.88,-0.549 -1.194,-0.953 l 0.741,-0.842 c 0.603,0.68 1.241,1.02 1.917,1.02 0.474,0 0.876,-0.152 1.209,-0.455 0.332,-0.304 0.498,-0.66 0.498,-1.07 0,-0.338 -0.109,-0.639 -0.33,-0.902 -0.219,-0.258 -0.715,-0.584 -1.486,-0.978 -0.827,-0.427 -1.391,-0.849 -1.688,-1.264 -0.298,-0.416 -0.448,-0.891 -0.448,-1.425 0,-0.696 0.238,-1.275 0.714,-1.735 0.476,-0.461 1.076,-0.69 1.802,-0.69 0.842,0 1.692,0.412 2.548,1.238 z" /><path
           style="fill:#695c57;fill-opacity:1"
           inkscape:connector-curvature="0"
           id="path57"
           d="m 216.706,251.379 -0.759,0.783 c -0.631,-0.611 -1.247,-0.918 -1.851,-0.918 -0.383,0 -0.711,0.126 -0.984,0.379 -0.272,0.253 -0.409,0.548 -0.409,0.885 0,0.298 0.112,0.582 0.338,0.852 0.226,0.275 0.698,0.598 1.419,0.969 0.878,0.455 1.475,0.893 1.79,1.314 0.31,0.428 0.464,0.908 0.464,1.441 0,0.752 -0.264,1.391 -0.793,1.912 -0.529,0.523 -1.189,0.784 -1.983,0.784 -0.528,0 -1.034,-0.115 -1.515,-0.345 -0.481,-0.23 -0.879,-0.549 -1.194,-0.953 l 0.741,-0.842 c 0.603,0.68 1.242,1.02 1.918,1.02 0.473,0 0.875,-0.152 1.207,-0.455 0.332,-0.304 0.499,-0.66 0.499,-1.07 0,-0.338 -0.11,-0.639 -0.329,-0.902 -0.221,-0.258 -0.715,-0.584 -1.486,-0.978 -0.828,-0.427 -1.391,-0.849 -1.689,-1.264 -0.299,-0.416 -0.447,-0.891 -0.447,-1.425 0,-0.696 0.237,-1.275 0.713,-1.735 0.476,-0.461 1.076,-0.69 1.803,-0.69 0.842,0 1.692,0.412 2.547,1.238 z" /><path
           style="fill:#695c57;fill-opacity:1"
           inkscape:connector-curvature="0"
           id="path59"
           d="m 219.204,246.601 c 0.27,0 0.498,0.096 0.688,0.286 0.19,0.191 0.286,0.422 0.286,0.691 0,0.264 -0.096,0.492 -0.286,0.683 -0.19,0.191 -0.419,0.286 -0.688,0.286 -0.262,0 -0.488,-0.096 -0.68,-0.286 -0.189,-0.19 -0.285,-0.419 -0.285,-0.683 0,-0.27 0.096,-0.5 0.285,-0.691 0.192,-0.191 0.418,-0.286 0.68,-0.286 z m -0.585,3.775 h 1.18 v 9.169 h -1.18 v -9.169 z" /><path
           style="fill:#695c57;fill-opacity:1"
           inkscape:connector-curvature="0"
           id="path61"
           d="m 222.251,250.376 h 1.18 v 1.644 c 0.473,-0.629 0.994,-1.1 1.568,-1.412 0.572,-0.312 1.195,-0.467 1.87,-0.467 0.686,0 1.294,0.174 1.824,0.521 0.531,0.349 0.923,0.818 1.176,1.408 0.253,0.59 0.38,1.508 0.38,2.755 v 4.72 h -1.181 v -4.374 c 0,-1.056 -0.044,-1.761 -0.131,-2.115 -0.137,-0.606 -0.399,-1.063 -0.786,-1.37 -0.389,-0.306 -0.895,-0.459 -1.518,-0.459 -0.714,0 -1.354,0.236 -1.918,0.709 -0.564,0.471 -0.937,1.056 -1.116,1.752 -0.112,0.455 -0.169,1.287 -0.169,2.494 v 3.363 h -1.18 v -9.169 z" /><path
           style="fill:#695c57;fill-opacity:1"
           inkscape:connector-curvature="0"
           id="path63"
           d="m 241.675,252.28 -0.935,0.581 c -0.808,-1.072 -1.911,-1.609 -3.308,-1.609 -1.117,0 -2.045,0.359 -2.782,1.078 -0.738,0.718 -1.106,1.59 -1.106,2.617 0,0.668 0.169,1.297 0.509,1.886 0.339,0.589 0.806,1.046 1.397,1.372 0.591,0.326 1.256,0.488 1.99,0.488 1.347,0 2.447,-0.537 3.3,-1.609 l 0.935,0.615 c -0.438,0.66 -1.026,1.172 -1.765,1.535 -0.739,0.364 -1.58,0.546 -2.524,0.546 -1.449,0 -2.651,-0.46 -3.606,-1.382 -0.955,-0.922 -1.433,-2.042 -1.433,-3.362 0,-0.888 0.223,-1.712 0.67,-2.474 0.447,-0.762 1.061,-1.355 1.842,-1.782 0.78,-0.427 1.654,-0.64 2.621,-0.64 0.605,0 1.191,0.092 1.756,0.277 0.565,0.185 1.044,0.428 1.438,0.725 0.391,0.298 0.725,0.678 1.001,1.138 z" /><path
           style="fill:#695c57;fill-opacity:1"
           inkscape:connector-curvature="0"
           id="path65"
           d="m 251.661,256.502 0.994,0.523 c -0.326,0.64 -0.703,1.156 -1.13,1.55 -0.428,0.394 -0.908,0.692 -1.442,0.897 -0.534,0.205 -1.139,0.308 -1.813,0.308 -1.496,0 -2.665,-0.489 -3.509,-1.47 -0.844,-0.981 -1.266,-2.09 -1.266,-3.325 0,-1.163 0.357,-2.199 1.071,-3.109 0.905,-1.157 2.117,-1.735 3.636,-1.735 1.562,0 2.811,0.592 3.744,1.777 0.664,0.838 1.002,1.883 1.013,3.135 h -8.25 c 0.022,1.064 0.362,1.938 1.021,2.619 0.659,0.681 1.471,1.021 2.438,1.021 0.467,0 0.921,-0.081 1.362,-0.244 0.441,-0.162 0.817,-0.377 1.127,-0.646 0.309,-0.268 0.645,-0.701 1.004,-1.301 z m 0,-2.469 c -0.157,-0.629 -0.387,-1.132 -0.688,-1.508 -0.301,-0.377 -0.699,-0.68 -1.193,-0.91 -0.496,-0.23 -1.016,-0.346 -1.562,-0.346 -0.899,0 -1.673,0.289 -2.32,0.867 -0.473,0.422 -0.829,1.054 -1.071,1.896 h 6.834 z" /><path
           style="fill:#695c57;fill-opacity:1"
           inkscape:connector-curvature="0"
           id="path67"
           d="m 260.619,251.025 h -1.188 c 0.034,-1.223 0.443,-2.227 1.227,-3.012 0.784,-0.785 1.752,-1.178 2.902,-1.178 1.141,0 2.064,0.369 2.77,1.105 0.706,0.736 1.057,1.604 1.057,2.604 0,0.702 -0.168,1.362 -0.504,1.978 -0.336,0.616 -0.988,1.448 -1.958,2.499 l -3.088,3.325 h 5.719 v 1.197 h -8.419 l 4.736,-5.119 c 0.961,-1.029 1.586,-1.792 1.875,-2.289 0.289,-0.498 0.434,-1.022 0.434,-1.573 0,-0.697 -0.26,-1.298 -0.779,-1.801 -0.519,-0.503 -1.156,-0.755 -1.908,-0.755 -0.793,0 -1.451,0.264 -1.977,0.792 -0.526,0.528 -0.826,1.272 -0.899,2.227 z" /><path
           style="fill:#695c57;fill-opacity:1"
           inkscape:connector-curvature="0"
           id="path69"
           d="m 268.734,253.351 c 0,-1.635 0.175,-2.899 0.526,-3.792 0.352,-0.894 0.848,-1.57 1.488,-2.031 0.64,-0.461 1.355,-0.691 2.148,-0.691 0.803,0 1.531,0.232 2.182,0.695 0.652,0.464 1.168,1.159 1.547,2.086 0.379,0.928 0.568,2.172 0.568,3.733 0,1.556 -0.186,2.795 -0.56,3.716 -0.374,0.922 -0.89,1.617 -1.546,2.086 -0.658,0.469 -1.389,0.704 -2.191,0.704 -0.793,0 -1.506,-0.228 -2.141,-0.683 -0.635,-0.455 -1.131,-1.134 -1.487,-2.035 -0.355,-0.903 -0.534,-2.164 -0.534,-3.788 z m 1.171,0.02 c 0,1.4 0.125,2.459 0.375,3.176 0.25,0.717 0.619,1.261 1.108,1.632 0.489,0.371 1.006,0.557 1.551,0.557 0.55,0 1.064,-0.181 1.542,-0.544 0.478,-0.362 0.84,-0.906 1.087,-1.632 0.31,-0.883 0.464,-1.945 0.464,-3.188 0,-1.248 -0.138,-2.27 -0.413,-3.064 -0.275,-0.796 -0.655,-1.378 -1.142,-1.746 -0.486,-0.369 -0.999,-0.553 -1.538,-0.553 -0.551,0 -1.067,0.184 -1.551,0.553 -0.483,0.368 -0.851,0.91 -1.104,1.627 -0.252,0.715 -0.379,1.777 -0.379,3.182 z" /><path
           style="fill:#695c57;fill-opacity:1"
           inkscape:connector-curvature="0"
           id="path71"
           d="m 280.945,247.148 h 2.436 v 12.396 h -1.23 V 248.36 h -1.946 l 0.74,-1.212 z" /><path
           style="fill:#695c57;fill-opacity:1"
           inkscape:connector-curvature="0"
           id="path73"
           d="m 290.51,247.148 h 2.436 v 12.396 h -1.23 V 248.36 h -1.946 l 0.74,-1.212 z" /></g></g><g
       transform="matrix(0.89091133,0,0,0.89091133,100.24055,33.880983)"
       id="g3452"><path
         d="m 172.80866,340.09719 c 0,0 6.37739,6.56375 14.24494,6.56375 7.86904,0 14.24793,-6.56375 14.24793,-6.56375 0,0 -6.37889,-6.56213 -14.24793,-6.56213 -7.86755,0 -14.24494,6.56213 -14.24494,6.56213 z"
         id="path79"
         inkscape:connector-curvature="0"
         style="fill:#e2592f" /><g
         id="g81"
         transform="matrix(-0.74957564,0,0,0.81194363,310.99443,91.961529)"><path
           d="m 147.501,305.83 c 0,0 -3.723,-0.584 -5.756,-3.234 -2.033,-2.65 -1.607,-6.365 -1.607,-6.365 0,0 3.721,0.584 5.754,3.234 2.033,2.65 1.609,6.365 1.609,6.365 z"
           id="path83"
           inkscape:connector-curvature="0"
           style="fill:#e2592f" /><path
           d="m 147.501,305.553 c 0,0 -3.723,0.584 -5.756,3.234 -2.033,2.65 -1.607,6.367 -1.607,6.367 0,0 3.721,-0.584 5.754,-3.234 2.033,-2.652 1.609,-6.367 1.609,-6.367 z"
           id="path85"
           inkscape:connector-curvature="0"
           style="fill:#e2592f" /></g><ellipse
         cx="174.79201"
         cy="304.23599"
         rx="1.632"
         ry="1.418"
         id="ellipse87"
         d="m 176.42401,304.23599 c 0,0.78314 -0.73067,1.418 -1.632,1.418 -0.90133,0 -1.632,-0.63486 -1.632,-1.418 0,-0.78314 0.73067,-1.418 1.632,-1.418 0.90133,0 1.632,0.63486 1.632,1.418 z"
         sodipodi:cx="174.79201"
         sodipodi:cy="304.23599"
         sodipodi:rx="1.632"
         sodipodi:ry="1.418"
         style="fill:#232020"
         transform="matrix(-0.74957564,0,0,0.81194363,310.99443,91.961529)" /><g
         id="g91"
         transform="matrix(0.57175553,0,0,0.6193281,109.44635,151.95423)"><path
           d="m 42.004,335.157 c 5.311,0.001 11.235,-1.083 15.221,-4.689 1.764,-1.595 2.563,-3.102 2.445,-4.604 -0.185,-2.352 -2.505,-3.867 -4.748,-5.332 -1.47,-0.96 -3.135,-2.048 -3.314,-2.984 -0.035,-0.188 -0.043,-0.492 0.305,-0.988 2.316,-3.293 15.479,-1.503 23.229,0.396 0.538,0.141 1.078,-0.197 1.21,-0.732 0.131,-0.536 -0.197,-1.078 -0.733,-1.209 -2.188,-0.539 -21.484,-5.089 -25.341,0.395 -0.582,0.826 -0.795,1.674 -0.634,2.516 0.339,1.77 2.207,2.99 4.185,4.281 1.753,1.146 3.74,2.443 3.848,3.815 0.066,0.831 -0.537,1.829 -1.793,2.964 -7.649,6.921 -23.145,3.396 -24.605,2.521 -0.476,-0.284 -1.089,-0.13 -1.372,0.343 -0.284,0.474 -0.13,1.088 0.343,1.372 1.203,0.72 6.134,1.935 11.754,1.935 z"
           id="path93"
           inkscape:connector-curvature="0"
           style="fill:#6cb4b0" /></g><ellipse
         clip-rule="evenodd"
         cx="81.214996"
         cy="302.80701"
         rx="14.873"
         ry="15.061"
         id="ellipse95"
         d="m 96.087996,302.80701 c 0,8.31796 -6.658868,15.061 -14.873,15.061 -8.214131,0 -14.873,-6.74304 -14.873,-15.061 0,-8.31796 6.658869,-15.061 14.873,-15.061 8.214132,0 14.873,6.74304 14.873,15.061 z"
         sodipodi:cx="81.214996"
         sodipodi:cy="302.80701"
         sodipodi:rx="14.873"
         sodipodi:ry="15.061"
         style="fill:#1c75ba;fill-rule:evenodd"
         transform="matrix(0.57175553,0,0,0.6193281,109.44635,151.95423)" /><g
         id="g97"
         transform="matrix(0.57175553,0,0,0.6193281,109.44635,151.95423)"><path
           clip-rule="evenodd"
           d="m 72.838,291.106 c 4.065,-1.055 10.075,-1.782 15.26,-0.981 -3.821,-2.818 -12.034,-1.838 -15.26,0.981 z m -3.748,4.017 c 6.312,-1.557 15.349,-2.672 23.292,-1.518 0.072,-0.235 -0.247,-0.594 -0.446,-0.804 -0.505,-0.528 -1.802,-1.804 -2.588,-2.053 -1.017,-0.319 -3.043,-0.218 -4.194,-0.356 -2.059,-0.246 -4.893,0.009 -7.317,0.356 -2.507,0.359 -4.996,0.736 -6.248,1.428 -1.086,0.6 -1.728,2.15 -2.499,2.947 z m -0.446,0.802 c -0.508,0.862 -0.855,1.881 -1.25,2.856 7.555,-1.948 18.339,-3.311 27.397,-1.517 -0.435,-1.292 -1.186,-2.265 -1.874,-3.302 -1.914,0.176 -3.982,-0.082 -6.068,-0.18 -6.521,-0.302 -13.055,0.712 -18.205,2.143 z m -1.428,3.659 c -0.16,0.852 -0.369,1.654 -0.357,2.678 7.943,-2.33 18.917,-3.319 28.825,-2.053 -0.059,-1.102 -0.515,-1.808 -0.714,-2.767 -0.377,-0.138 0.02,0.495 -0.357,0.357 -9.09,-1.654 -19.938,-0.567 -27.397,1.785 z m 20.525,0.625 c -0.715,0 -1.428,0 -2.143,0 -1.105,1.719 -2.423,3.229 -3.926,4.551 0.059,0.923 -0.119,2.082 0.089,2.855 0.36,0.16 0.565,-0.324 0.804,-0.535 1.953,-1.729 3.875,-4.08 5.086,-6.604 0.047,-0.073 0.093,-0.144 0.09,-0.267 z m -2.945,0 c -1.02,-0.068 -1.795,0.108 -2.767,0.09 -0.095,1.154 -0.298,2.2 -0.268,3.479 1.254,-0.948 2.293,-2.108 3.035,-3.569 z m 3.57,0.09 c -1.609,3.359 -3.854,6.083 -6.604,8.299 0.12,0.892 0.249,1.773 0.356,2.678 3.383,-2.955 6.24,-6.908 8.3,-10.889 -0.518,-0.196 -1.389,-0.038 -2.052,-0.088 z m -6.961,0 c -0.838,0.144 -1.788,0.175 -2.678,0.268 -1.137,5.882 -0.133,12.477 1.695,16.955 0.948,0.043 1.838,0.071 2.767,-0.088 -1.744,-4.536 -2.557,-10.913 -1.784,-17.135 z m 0.893,11.689 c 0.125,0.677 0.284,1.321 0.445,1.963 0.375,0.185 0.928,-0.967 1.517,-1.16 3.396,-3.623 6.413,-7.627 8.835,-12.225 -0.375,0.064 -1.103,-0.265 -1.516,-0.18 -0.854,0.176 -1.764,2.326 -2.231,3.034 -2.058,3.117 -4.493,6.346 -7.05,8.568 z M 93.72,300.653 c -2.399,4.321 -5.523,9.034 -9.191,12.673 -0.499,0.496 -1.439,1.047 -1.517,1.518 -0.112,0.682 0.602,1.472 0.624,2.054 0.4,0.077 0.565,-0.411 0.804,-0.625 4.54,-4.122 8.438,-9.515 11.422,-15.261 -0.376,-0.457 -1.361,-0.306 -2.142,-0.359 z m -18.294,0.359 c -1.205,5.379 -0.216,11.664 1.428,15.797 0.825,0.333 1.778,0.542 2.856,0.625 -1.63,-4.55 -2.674,-10.859 -1.606,-16.78 -0.914,0.1 -1.779,0.245 -2.678,0.358 z m -0.624,0.09 c -0.9,0.2 -1.853,0.349 -2.767,0.535 -1.046,4.854 0.339,9.724 1.427,13.564 0.811,0.529 1.654,1.023 2.678,1.339 -1.549,-4.203 -2.422,-10.12 -1.338,-15.438 z m -3.392,0.712 c -0.8,0.064 -1.419,0.309 -2.142,0.447 -0.344,1.464 -0.472,3.043 -0.357,4.64 0.139,1.929 0.983,3.714 1.07,5.177 0.804,0.95 1.686,1.824 2.678,2.587 -0.852,-3.507 -2.219,-8.295 -1.249,-12.851 z m 24.541,0.268 c -3.093,5.744 -7.135,11.011 -11.512,15.172 2.35,-0.26 3.288,-1.699 4.818,-3.213 1.856,-1.836 3.093,-3.32 4.64,-5.711 1.197,-1.847 2.495,-3.331 2.054,-6.248 z m -27.307,0.446 c -0.534,-0.204 -1.131,0.296 -1.785,0.269 -0.087,3.508 0.989,5.853 2.231,8.031 -0.498,-2.106 -1.243,-5.645 -0.446,-8.3 z m 19.81,13.119 c 3.23,-1.531 5.636,-4.656 6.962,-8.388 -0.189,-0.087 -0.452,0.494 -0.714,0.891 -1.744,2.641 -3.843,5.466 -6.248,7.497 z"
           id="path99"
           inkscape:connector-curvature="0"
           style="fill:#6cb4b0;fill-rule:evenodd" /><path
           clip-rule="evenodd"
           d="m 68.644,295.925 c -0.508,0.862 -0.855,1.881 -1.25,2.856 7.555,-1.948 18.339,-3.311 27.397,-1.517 -0.435,-1.292 -1.186,-2.265 -1.874,-3.302 -1.914,0.176 -3.982,-0.082 -6.068,-0.18 -6.521,-0.302 -13.055,0.712 -18.205,2.143 z"
           id="path101"
           inkscape:connector-curvature="0"
           style="fill:#6cb4b0;fill-rule:evenodd" /><path
           clip-rule="evenodd"
           d="m 67.216,299.584 c -0.16,0.852 -0.369,1.654 -0.357,2.678 7.943,-2.33 18.917,-3.319 28.825,-2.053 -0.059,-1.102 -0.515,-1.808 -0.714,-2.767 -0.377,-0.138 0.02,0.495 -0.357,0.357 -9.09,-1.654 -19.938,-0.567 -27.397,1.785 z"
           id="path103"
           inkscape:connector-curvature="0"
           style="fill:#6cb4b0;fill-rule:evenodd" /><path
           clip-rule="evenodd"
           d="m 87.741,300.209 c -0.715,0 -1.428,0 -2.143,0 -1.105,1.719 -2.423,3.229 -3.926,4.551 0.059,0.923 -0.119,2.082 0.089,2.855 0.36,0.16 0.565,-0.324 0.804,-0.535 1.953,-1.729 3.875,-4.08 5.086,-6.604 0.047,-0.073 0.093,-0.144 0.09,-0.267 z"
           id="path105"
           inkscape:connector-curvature="0"
           style="fill:#6cb4b0;fill-rule:evenodd" /><path
           clip-rule="evenodd"
           d="m 84.796,300.209 c -1.02,-0.068 -1.795,0.108 -2.767,0.09 -0.095,1.154 -0.298,2.2 -0.268,3.479 1.254,-0.948 2.293,-2.108 3.035,-3.569 z"
           id="path107"
           inkscape:connector-curvature="0"
           style="fill:#6cb4b0;fill-rule:evenodd" /><path
           clip-rule="evenodd"
           d="m 88.366,300.299 c -1.609,3.359 -3.854,6.083 -6.604,8.299 0.12,0.892 0.249,1.773 0.356,2.678 3.383,-2.955 6.24,-6.908 8.3,-10.889 -0.518,-0.196 -1.389,-0.038 -2.052,-0.088 z"
           id="path109"
           inkscape:connector-curvature="0"
           style="fill:#6cb4b0;fill-rule:evenodd" /><path
           clip-rule="evenodd"
           d="m 81.405,300.299 c -0.838,0.144 -1.788,0.175 -2.678,0.268 -1.137,5.882 -0.133,12.477 1.695,16.955 0.948,0.043 1.838,0.071 2.767,-0.088 -1.744,-4.536 -2.557,-10.913 -1.784,-17.135 z"
           id="path111"
           inkscape:connector-curvature="0"
           style="fill:#6cb4b0;fill-rule:evenodd" /><path
           clip-rule="evenodd"
           d="m 82.298,311.988 c 0.125,0.677 0.284,1.321 0.445,1.963 0.375,0.185 0.928,-0.967 1.517,-1.16 3.396,-3.623 6.413,-7.627 8.835,-12.225 -0.375,0.064 -1.103,-0.265 -1.516,-0.18 -0.854,0.176 -1.764,2.326 -2.231,3.034 -2.058,3.117 -4.493,6.346 -7.05,8.568 z"
           id="path113"
           inkscape:connector-curvature="0"
           style="fill:#6cb4b0;fill-rule:evenodd" /><path
           clip-rule="evenodd"
           d="m 93.72,300.653 c -2.399,4.321 -5.523,9.034 -9.191,12.673 -0.499,0.496 -1.439,1.047 -1.517,1.518 -0.112,0.682 0.602,1.472 0.624,2.054 0.4,0.077 0.565,-0.411 0.804,-0.625 4.54,-4.122 8.438,-9.515 11.422,-15.261 -0.376,-0.457 -1.361,-0.306 -2.142,-0.359 z"
           id="path115"
           inkscape:connector-curvature="0"
           style="fill:#6cb4b0;fill-rule:evenodd" /><path
           clip-rule="evenodd"
           d="m 75.426,301.012 c -1.205,5.379 -0.216,11.664 1.428,15.797 0.825,0.333 1.778,0.542 2.856,0.625 -1.63,-4.55 -2.674,-10.859 -1.606,-16.78 -0.914,0.1 -1.779,0.245 -2.678,0.358 z"
           id="path117"
           inkscape:connector-curvature="0"
           style="fill:#6cb4b0;fill-rule:evenodd" /><path
           clip-rule="evenodd"
           d="m 74.802,301.102 c -0.9,0.2 -1.853,0.349 -2.767,0.535 -1.046,4.854 0.339,9.724 1.427,13.564 0.811,0.529 1.654,1.023 2.678,1.339 -1.549,-4.203 -2.422,-10.12 -1.338,-15.438 z"
           id="path119"
           inkscape:connector-curvature="0"
           style="fill:#6cb4b0;fill-rule:evenodd" /><path
           clip-rule="evenodd"
           d="m 71.41,301.814 c -0.8,0.064 -1.419,0.309 -2.142,0.447 -0.344,1.464 -0.472,3.043 -0.357,4.64 0.139,1.929 0.983,3.714 1.07,5.177 0.804,0.95 1.686,1.824 2.678,2.587 -0.852,-3.507 -2.219,-8.295 -1.249,-12.851 z"
           id="path121"
           inkscape:connector-curvature="0"
           style="fill:#6cb4b0;fill-rule:evenodd" /><path
           clip-rule="evenodd"
           d="m 95.951,302.082 c -3.093,5.744 -7.135,11.011 -11.512,15.172 2.35,-0.26 3.288,-1.699 4.818,-3.213 1.856,-1.836 3.093,-3.32 4.64,-5.711 1.197,-1.847 2.495,-3.331 2.054,-6.248 z"
           id="path123"
           inkscape:connector-curvature="0"
           style="fill:#6cb4b0;fill-rule:evenodd" /><path
           clip-rule="evenodd"
           d="m 68.644,302.528 c -0.534,-0.204 -1.131,0.296 -1.785,0.269 -0.087,3.508 0.989,5.853 2.231,8.031 -0.498,-2.106 -1.243,-5.645 -0.446,-8.3 z"
           id="path125"
           inkscape:connector-curvature="0"
           style="fill:#6cb4b0;fill-rule:evenodd" /><path
           clip-rule="evenodd"
           d="m 72.838,291.106 c 4.065,-1.055 10.075,-1.782 15.26,-0.981 -3.821,-2.818 -12.034,-1.838 -15.26,0.981 z"
           id="path127"
           inkscape:connector-curvature="0"
           style="fill:#6cb4b0;fill-rule:evenodd" /><path
           clip-rule="evenodd"
           d="m 88.454,315.647 c 3.23,-1.531 5.636,-4.656 6.962,-8.388 -0.189,-0.087 -0.452,0.494 -0.714,0.891 -1.744,2.641 -3.843,5.466 -6.248,7.497 z"
           id="path129"
           inkscape:connector-curvature="0"
           style="fill:#6cb4b0;fill-rule:evenodd" /></g><path
         clip-rule="evenodd"
         d="m 126.07871,334.04181 c -1.40713,-2.89859 -3.90772,-4.92536 -7.2453,-4.3178 -5.05946,0.92313 -8.15253,6.32865 -7.35312,11.67813 0.18569,1.23812 0.65346,2.94755 1.42782,3.91906 1.53129,1.91234 4.4,3.2354 6.72743,3.11153 2.62966,-0.14098 5.61109,-1.46994 6.84832,-4.1261 1.37283,-2.94696 1.12614,-7.11848 -0.40515,-10.26482 z"
         id="path133"
         inkscape:connector-curvature="0"
         style="fill:#edcd48;fill-rule:evenodd" /><path
         clip-rule="evenodd"
         d="m 117.32227,347.21761 c 0.64966,1.81383 -0.77,5.23387 0.75421,6.55811 -0.44163,-0.23417 -0.87837,-1.0181 -0.75421,0.27311 -0.31965,-0.85117 -0.51134,-1.4434 -1.0096,-0.27311 0.68559,-0.71963 0.73297,-4.48592 1.0096,-6.55811 z"
         id="path135"
         inkscape:connector-curvature="0"
         style="fill:#553c16;fill-rule:evenodd" /><path
         clip-rule="evenodd"
         d="m 119.08445,347.49131 c 1.25411,1.12074 -0.78307,5.04806 1.26337,5.73525 -0.23743,-0.16457 -0.93228,-0.63411 -0.7602,0.27429 -0.36485,-0.74913 -0.83589,-0.53324 -1.00852,0.27546 0.18406,-0.99156 0.80867,-3.86184 0.50535,-6.285 z"
         id="path137"
         inkscape:connector-curvature="0"
         style="fill:#553c16;fill-rule:evenodd" /><polygon
         clip-rule="evenodd"
         points="242.564,296.186 237.314,296.64 241.02,300.659 "
         id="polygon139"
         style="fill:#fd8521;fill-rule:evenodd"
         transform="matrix(-0.54455494,0,0,0.5898643,256.80893,158.48227)" /><path
         clip-rule="evenodd"
         d="m 117.26128,335.16019 c -0.38282,-0.38105 -0.95406,-0.57098 -1.75728,-0.46422 -1.21272,0.16103 -2.29639,0.96089 -3.49168,1.2045 -1.07441,0.21707 -1.9653,-0.27664 -2.85674,-1.00159 -0.56361,-0.46304 -0.88381,-0.88302 -1.58465,-0.53913 -0.5108,0.25541 -0.96768,0.88303 -1.03248,1.60148 -0.13124,1.41273 0.53693,3.04724 1.02322,4.27062 0.96767,2.41077 2.41673,4.44875 4.68916,4.57676 2.26535,0.13448 3.83312,-2.07751 4.8901,-4.36441 0.81411,-1.746 1.17461,-4.237 0.12035,-5.28401 z"
         id="path141"
         inkscape:connector-curvature="0"
         style="fill:#6cb4b0;fill-rule:evenodd" /><path
         clip-rule="evenodd"
         d="m 122.5451,334.26891 c 0,0.34625 0.25322,0.61582 0.5647,0.61582 0.31584,0 0.56906,-0.26957 0.56906,-0.61582 0,-0.33563 -0.25322,-0.61051 -0.56906,-0.61051 -0.31148,0 -0.5647,0.27429 -0.5647,0.61051 z"
         id="path143"
         inkscape:connector-curvature="0"
         style="fill:#553c16;fill-rule:evenodd" /></g><g
       style="fill:#695c57;fill-opacity:1"
       transform="matrix(0.87209827,0,0,0.87209827,69.979306,-1.1134925)"
       id="g313"><path
         style="fill:#695c57;fill-opacity:1"
         inkscape:connector-curvature="0"
         id="path315"
         d="m 60.624,353.326 h 1.209 v 13.025 h -1.209 v -13.025 z" /><path
         style="fill:#695c57;fill-opacity:1"
         inkscape:connector-curvature="0"
         id="path317"
         d="m 64.766,353.084 c 0.275,0 0.51,0.098 0.705,0.294 0.195,0.196 0.292,0.433 0.292,0.708 0,0.271 -0.098,0.504 -0.292,0.7 -0.194,0.196 -0.43,0.294 -0.705,0.294 -0.27,0 -0.502,-0.098 -0.697,-0.294 -0.195,-0.196 -0.292,-0.429 -0.292,-0.7 0,-0.275 0.098,-0.512 0.292,-0.708 0.194,-0.196 0.427,-0.294 0.697,-0.294 z m -0.601,3.87 h 1.209 v 9.397 h -1.209 v -9.397 z" /><path
         style="fill:#695c57;fill-opacity:1"
         inkscape:connector-curvature="0"
         id="path319"
         d="m 68.941,353.465 h 1.209 v 3.489 h 1.917 v 1.045 H 70.15 v 8.353 h -1.209 v -8.353 h -1.65 v -1.045 h 1.65 v -3.489 z" /><path
         style="fill:#695c57;fill-opacity:1"
         inkscape:connector-curvature="0"
         id="path321"
         d="m 74.936,353.465 h 1.209 v 3.489 h 1.917 v 1.045 h -1.917 v 8.353 h -1.209 v -8.353 h -1.65 v -1.045 h 1.65 v -3.489 z" /><path
         style="fill:#695c57;fill-opacity:1"
         inkscape:connector-curvature="0"
         id="path323"
         d="m 79.695,353.326 h 1.209 v 13.025 h -1.209 v -13.025 z" /><path
         style="fill:#695c57;fill-opacity:1"
         inkscape:connector-curvature="0"
         id="path325"
         d="m 91.33,363.233 1.02,0.536 c -0.334,0.656 -0.721,1.186 -1.159,1.589 -0.438,0.403 -0.931,0.71 -1.479,0.92 -0.547,0.21 -1.167,0.315 -1.859,0.315 -1.533,0 -2.731,-0.502 -3.596,-1.508 -0.865,-1.004 -1.297,-2.141 -1.297,-3.407 0,-1.192 0.366,-2.255 1.098,-3.188 0.928,-1.187 2.17,-1.779 3.726,-1.779 1.602,0 2.881,0.608 3.838,1.823 0.68,0.857 1.026,1.929 1.037,3.213 h -8.456 c 0.023,1.092 0.372,1.986 1.046,2.684 0.675,0.699 1.508,1.047 2.5,1.047 0.479,0 0.944,-0.082 1.396,-0.249 0.453,-0.166 0.837,-0.388 1.154,-0.663 0.319,-0.274 0.662,-0.718 1.031,-1.333 z m 0,-2.53 c -0.161,-0.646 -0.396,-1.16 -0.705,-1.547 -0.309,-0.385 -0.716,-0.696 -1.224,-0.933 -0.508,-0.235 -1.041,-0.354 -1.6,-0.354 -0.922,0 -1.715,0.297 -2.378,0.891 -0.484,0.432 -0.851,1.079 -1.098,1.943 h 7.005 z" /><path
         style="fill:#695c57;fill-opacity:1"
         inkscape:connector-curvature="0"
         id="path327"
         d="m 94.457,356.954 h 1.235 v 1.373 c 0.368,-0.541 0.757,-0.946 1.166,-1.214 0.409,-0.268 0.835,-0.401 1.278,-0.401 0.334,0 0.691,0.106 1.071,0.319 l -0.63,1.02 c -0.253,-0.109 -0.466,-0.164 -0.639,-0.164 -0.403,0 -0.792,0.166 -1.166,0.496 -0.375,0.332 -0.66,0.846 -0.855,1.543 -0.15,0.535 -0.225,1.617 -0.225,3.247 v 3.179 h -1.235 v -9.398 z" /><path
         style="fill:#695c57;fill-opacity:1"
         inkscape:connector-curvature="0"
         id="path329"
         d="m 109.598,356.954 v 9.397 h -1.192 v -1.615 c -0.507,0.616 -1.075,1.08 -1.706,1.391 -0.63,0.311 -1.32,0.467 -2.068,0.467 -1.331,0 -2.466,-0.482 -3.408,-1.447 -0.942,-0.965 -1.412,-2.138 -1.412,-3.52 0,-1.354 0.475,-2.511 1.425,-3.473 0.95,-0.961 2.093,-1.442 3.429,-1.442 0.772,0 1.47,0.164 2.095,0.493 0.625,0.328 1.173,0.82 1.646,1.477 v -1.728 h 1.191 z m -4.832,0.924 c -0.673,0 -1.294,0.165 -1.864,0.497 -0.569,0.33 -1.022,0.795 -1.359,1.393 -0.337,0.598 -0.504,1.23 -0.504,1.898 0,0.661 0.169,1.294 0.509,1.898 0.339,0.604 0.795,1.074 1.368,1.41 0.572,0.336 1.186,0.504 1.842,0.504 0.662,0 1.289,-0.166 1.881,-0.5 0.592,-0.334 1.048,-0.785 1.367,-1.354 0.319,-0.57 0.479,-1.211 0.479,-1.925 0,-1.087 -0.358,-1.995 -1.074,-2.726 -0.717,-0.729 -1.599,-1.095 -2.645,-1.095 z" /><path
         style="fill:#695c57;fill-opacity:1"
         inkscape:connector-curvature="0"
         id="path331"
         d="m 117.044,357.982 -0.777,0.803 c -0.647,-0.627 -1.279,-0.941 -1.896,-0.941 -0.393,0 -0.729,0.129 -1.009,0.389 -0.28,0.259 -0.42,0.562 -0.42,0.906 0,0.306 0.116,0.597 0.346,0.873 0.231,0.282 0.716,0.613 1.454,0.993 0.9,0.466 1.512,0.915 1.835,1.348 0.317,0.438 0.476,0.93 0.476,1.478 0,0.771 -0.271,1.424 -0.813,1.96 -0.542,0.536 -1.22,0.804 -2.033,0.804 -0.542,0 -1.06,-0.119 -1.553,-0.354 -0.493,-0.235 -0.901,-0.562 -1.224,-0.976 l 0.76,-0.864 c 0.618,0.696 1.273,1.046 1.965,1.046 0.485,0 0.897,-0.156 1.238,-0.467 0.34,-0.311 0.511,-0.677 0.511,-1.098 0,-0.346 -0.113,-0.653 -0.338,-0.924 -0.225,-0.265 -0.733,-0.599 -1.523,-1.002 -0.848,-0.438 -1.425,-0.869 -1.731,-1.295 -0.306,-0.427 -0.459,-0.913 -0.459,-1.461 0,-0.713 0.244,-1.307 0.731,-1.779 0.487,-0.472 1.103,-0.708 1.847,-0.708 0.865,-0.001 1.736,0.422 2.613,1.269 z" /><path
         style="fill:#695c57;fill-opacity:1"
         inkscape:connector-curvature="0"
         id="path333"
         d="m 128.307,358.906 -0.959,0.596 c -0.828,-1.1 -1.958,-1.65 -3.391,-1.65 -1.145,0 -2.095,0.369 -2.851,1.105 -0.756,0.736 -1.135,1.631 -1.135,2.683 0,0.685 0.174,1.329 0.522,1.933 0.348,0.604 0.826,1.072 1.432,1.406 0.607,0.334 1.287,0.5 2.041,0.5 1.38,0 2.508,-0.549 3.382,-1.648 l 0.959,0.63 c -0.449,0.677 -1.053,1.201 -1.81,1.574 -0.757,0.372 -1.62,0.56 -2.587,0.56 -1.486,0 -2.718,-0.473 -3.697,-1.417 -0.979,-0.944 -1.469,-2.093 -1.469,-3.446 0,-0.91 0.229,-1.755 0.687,-2.535 0.458,-0.78 1.087,-1.389 1.887,-1.826 0.8,-0.437 1.696,-0.657 2.686,-0.657 0.622,0 1.222,0.095 1.801,0.285 0.579,0.19 1.069,0.438 1.473,0.743 0.404,0.303 0.747,0.692 1.029,1.164 z" /><path
         style="fill:#695c57;fill-opacity:1"
         inkscape:connector-curvature="0"
         id="path335"
         d="m 139.994,356.954 v 9.397 h -1.192 v -1.615 c -0.507,0.616 -1.075,1.08 -1.706,1.391 -0.63,0.311 -1.32,0.467 -2.068,0.467 -1.331,0 -2.466,-0.482 -3.408,-1.447 -0.942,-0.965 -1.412,-2.138 -1.412,-3.52 0,-1.354 0.475,-2.511 1.425,-3.473 0.95,-0.961 2.093,-1.442 3.429,-1.442 0.772,0 1.47,0.164 2.095,0.493 0.625,0.328 1.173,0.82 1.646,1.477 v -1.728 h 1.191 z m -4.833,0.924 c -0.673,0 -1.294,0.165 -1.864,0.497 -0.569,0.33 -1.022,0.795 -1.359,1.393 -0.337,0.598 -0.504,1.23 -0.504,1.898 0,0.661 0.169,1.294 0.509,1.898 0.339,0.604 0.795,1.074 1.368,1.41 0.572,0.336 1.186,0.504 1.842,0.504 0.662,0 1.289,-0.166 1.881,-0.5 0.592,-0.334 1.048,-0.785 1.367,-1.354 0.319,-0.57 0.479,-1.211 0.479,-1.925 0,-1.087 -0.358,-1.995 -1.074,-2.726 -0.717,-0.729 -1.598,-1.095 -2.645,-1.095 z" /><path
         style="fill:#695c57;fill-opacity:1"
         inkscape:connector-curvature="0"
         id="path337"
         d="m 142.533,353.326 h 1.209 v 13.025 h -1.209 v -13.025 z" /><path
         style="fill:#695c57;fill-opacity:1"
         inkscape:connector-curvature="0"
         id="path339"
         d="m 150.98,357.982 -0.777,0.803 c -0.647,-0.627 -1.279,-0.941 -1.896,-0.941 -0.393,0 -0.729,0.129 -1.009,0.389 -0.28,0.259 -0.42,0.562 -0.42,0.906 0,0.306 0.116,0.597 0.346,0.873 0.231,0.282 0.716,0.613 1.454,0.993 0.9,0.466 1.512,0.915 1.835,1.348 0.317,0.438 0.476,0.93 0.476,1.478 0,0.771 -0.271,1.424 -0.813,1.96 -0.542,0.536 -1.22,0.804 -2.033,0.804 -0.542,0 -1.06,-0.119 -1.553,-0.354 -0.493,-0.235 -0.901,-0.562 -1.224,-0.976 l 0.76,-0.864 c 0.618,0.696 1.273,1.046 1.965,1.046 0.485,0 0.897,-0.156 1.238,-0.467 0.34,-0.311 0.511,-0.677 0.511,-1.098 0,-0.346 -0.113,-0.653 -0.338,-0.924 -0.225,-0.265 -0.733,-0.599 -1.523,-1.002 -0.848,-0.438 -1.425,-0.869 -1.731,-1.295 -0.306,-0.427 -0.459,-0.913 -0.459,-1.461 0,-0.713 0.244,-1.307 0.731,-1.779 0.487,-0.472 1.103,-0.708 1.847,-0.708 0.865,-0.001 1.737,0.422 2.613,1.269 z" /><path
         style="fill:#695c57;fill-opacity:1"
         inkscape:connector-curvature="0"
         id="path341"
         d="m 162.486,356.954 v 9.397 h -1.192 v -1.615 c -0.507,0.616 -1.075,1.08 -1.706,1.391 -0.631,0.311 -1.32,0.467 -2.068,0.467 -1.33,0 -2.467,-0.482 -3.408,-1.447 -0.941,-0.965 -1.412,-2.138 -1.412,-3.52 0,-1.354 0.475,-2.511 1.426,-3.473 0.949,-0.961 2.093,-1.442 3.429,-1.442 0.772,0 1.47,0.164 2.095,0.493 0.625,0.328 1.174,0.82 1.646,1.477 v -1.728 h 1.19 z m -4.833,0.924 c -0.673,0 -1.294,0.165 -1.864,0.497 -0.568,0.33 -1.021,0.795 -1.358,1.393 -0.337,0.598 -0.505,1.23 -0.505,1.898 0,0.661 0.17,1.294 0.51,1.898 0.339,0.604 0.795,1.074 1.367,1.41 0.572,0.336 1.186,0.504 1.842,0.504 0.662,0 1.289,-0.166 1.881,-0.5 0.592,-0.334 1.049,-0.785 1.367,-1.354 0.319,-0.57 0.479,-1.211 0.479,-1.925 0,-1.087 -0.357,-1.995 -1.074,-2.726 -0.716,-0.729 -1.598,-1.095 -2.645,-1.095 z" /><path
         style="fill:#695c57;fill-opacity:1"
         inkscape:connector-curvature="0"
         id="path343"
         d="m 165.051,356.954 h 1.21 v 4.388 c 0,1.071 0.058,1.809 0.173,2.211 0.173,0.576 0.503,1.031 0.99,1.365 0.487,0.334 1.068,0.501 1.743,0.501 0.675,0 1.247,-0.163 1.718,-0.488 0.469,-0.325 0.794,-0.753 0.973,-1.282 0.121,-0.363 0.182,-1.132 0.182,-2.307 v -4.388 h 1.235 v 4.612 c 0,1.295 -0.151,2.271 -0.454,2.928 -0.302,0.656 -0.757,1.171 -1.364,1.542 -0.607,0.372 -1.369,0.558 -2.284,0.558 -0.916,0 -1.681,-0.186 -2.293,-0.558 -0.613,-0.371 -1.072,-0.89 -1.374,-1.555 -0.302,-0.665 -0.454,-1.665 -0.454,-3.001 v -4.526 z" /><path
         style="fill:#695c57;fill-opacity:1"
         inkscape:connector-curvature="0"
         id="path345"
         d="m 180.686,357.982 -0.777,0.803 c -0.646,-0.627 -1.279,-0.941 -1.896,-0.941 -0.393,0 -0.729,0.129 -1.01,0.389 -0.279,0.259 -0.42,0.562 -0.42,0.906 0,0.306 0.116,0.597 0.347,0.873 0.231,0.282 0.716,0.613 1.454,0.993 0.9,0.466 1.512,0.915 1.836,1.348 0.316,0.438 0.475,0.93 0.475,1.478 0,0.771 -0.271,1.424 -0.812,1.96 -0.541,0.536 -1.22,0.804 -2.033,0.804 -0.542,0 -1.06,-0.119 -1.553,-0.354 -0.492,-0.235 -0.9,-0.562 -1.224,-0.976 l 0.76,-0.864 c 0.618,0.696 1.272,1.046 1.966,1.046 0.484,0 0.896,-0.156 1.238,-0.467 0.34,-0.311 0.51,-0.677 0.51,-1.098 0,-0.346 -0.112,-0.653 -0.338,-0.924 -0.225,-0.265 -0.732,-0.599 -1.523,-1.002 -0.848,-0.438 -1.425,-0.869 -1.73,-1.295 -0.306,-0.427 -0.459,-0.913 -0.459,-1.461 0,-0.713 0.244,-1.307 0.731,-1.779 0.487,-0.472 1.103,-0.708 1.847,-0.708 0.863,-0.001 1.734,0.422 2.611,1.269 z" /><path
         style="fill:#695c57;fill-opacity:1"
         inkscape:connector-curvature="0"
         id="path347"
         d="m 183.881,353.465 h 1.209 v 3.489 h 1.918 v 1.045 h -1.918 v 8.353 h -1.209 v -8.353 h -1.649 v -1.045 h 1.649 v -3.489 z" /><path
         style="fill:#695c57;fill-opacity:1"
         inkscape:connector-curvature="0"
         id="path349"
         d="m 189.24,353.084 c 0.275,0 0.511,0.098 0.705,0.294 0.195,0.196 0.293,0.433 0.293,0.708 0,0.271 -0.098,0.504 -0.293,0.7 -0.194,0.196 -0.43,0.294 -0.705,0.294 -0.27,0 -0.502,-0.098 -0.696,-0.294 -0.194,-0.196 -0.292,-0.429 -0.292,-0.7 0,-0.275 0.098,-0.512 0.292,-0.708 0.194,-0.196 0.427,-0.294 0.696,-0.294 z m -0.599,3.87 h 1.209 v 9.397 h -1.209 v -9.397 z" /><path
         style="fill:#695c57;fill-opacity:1"
         inkscape:connector-curvature="0"
         id="path351"
         d="m 192.363,356.954 h 1.209 v 1.685 c 0.484,-0.645 1.02,-1.127 1.606,-1.447 0.587,-0.319 1.227,-0.479 1.917,-0.479 0.703,0 1.326,0.179 1.871,0.536 0.544,0.356 0.945,0.838 1.205,1.441 0.259,0.605 0.389,1.547 0.389,2.825 v 4.837 h -1.21 v -4.482 c 0,-1.083 -0.045,-1.806 -0.134,-2.168 -0.141,-0.623 -0.41,-1.09 -0.807,-1.404 -0.397,-0.313 -0.916,-0.471 -1.555,-0.471 -0.732,0 -1.387,0.242 -1.966,0.726 -0.579,0.484 -0.96,1.083 -1.145,1.797 -0.115,0.466 -0.173,1.318 -0.173,2.557 v 3.446 h -1.209 v -9.399 z" /><path
         style="fill:#695c57;fill-opacity:1"
         inkscape:connector-curvature="0"
         id="path353"
         d="m 204.482,364.451 c 0.293,0 0.543,0.104 0.751,0.311 0.207,0.208 0.312,0.461 0.312,0.761 0,0.294 -0.104,0.546 -0.312,0.756 -0.208,0.21 -0.458,0.315 -0.751,0.315 -0.295,0 -0.545,-0.105 -0.752,-0.315 -0.207,-0.21 -0.311,-0.462 -0.311,-0.756 0,-0.3 0.104,-0.553 0.311,-0.761 0.208,-0.207 0.458,-0.311 0.752,-0.311 z" /><path
         style="fill:#695c57;fill-opacity:1"
         inkscape:connector-curvature="0"
         id="path355"
         d="m 217.17,358.906 -0.959,0.596 c -0.828,-1.1 -1.958,-1.65 -3.391,-1.65 -1.145,0 -2.094,0.369 -2.851,1.105 -0.757,0.736 -1.135,1.631 -1.135,2.683 0,0.685 0.175,1.329 0.522,1.933 0.347,0.604 0.825,1.072 1.432,1.406 0.607,0.334 1.287,0.5 2.041,0.5 1.38,0 2.508,-0.549 3.381,-1.648 l 0.959,0.63 c -0.449,0.677 -1.053,1.201 -1.809,1.574 -0.758,0.372 -1.62,0.56 -2.588,0.56 -1.485,0 -2.718,-0.473 -3.696,-1.417 -0.979,-0.944 -1.469,-2.093 -1.469,-3.446 0,-0.91 0.229,-1.755 0.687,-2.535 0.458,-0.78 1.088,-1.389 1.888,-1.826 0.8,-0.437 1.696,-0.657 2.687,-0.657 0.621,0 1.222,0.095 1.801,0.285 0.578,0.19 1.069,0.438 1.473,0.743 0.402,0.303 0.746,0.692 1.027,1.164 z" /><path
         style="fill:#695c57;fill-opacity:1"
         inkscape:connector-curvature="0"
         id="path357"
         d="m 223.941,356.712 c 1.448,0 2.648,0.524 3.6,1.572 0.865,0.956 1.299,2.087 1.299,3.395 0,1.313 -0.458,2.46 -1.372,3.442 -0.915,0.981 -2.09,1.473 -3.526,1.473 -1.441,0 -2.62,-0.491 -3.534,-1.473 -0.915,-0.982 -1.372,-2.129 -1.372,-3.442 0,-1.302 0.434,-2.431 1.299,-3.386 0.95,-1.055 2.153,-1.581 3.606,-1.581 z m -0.003,1.184 c -1.006,0 -1.869,0.372 -2.592,1.114 -0.723,0.742 -1.084,1.641 -1.084,2.695 0,0.68 0.165,1.312 0.494,1.9 0.33,0.587 0.775,1.04 1.336,1.359 0.561,0.32 1.176,0.48 1.846,0.48 0.67,0 1.285,-0.16 1.846,-0.48 0.561,-0.319 1.006,-0.772 1.336,-1.359 0.328,-0.588 0.494,-1.221 0.494,-1.9 0,-1.055 -0.363,-1.953 -1.088,-2.695 -0.727,-0.742 -1.588,-1.114 -2.588,-1.114 z" /><path
         style="fill:#695c57;fill-opacity:1"
         inkscape:connector-curvature="0"
         id="path359"
         d="m 231.068,356.954 h 1.209 v 1.624 c 0.42,-0.6 0.854,-1.037 1.297,-1.312 0.611,-0.369 1.254,-0.554 1.928,-0.554 0.456,0 0.889,0.089 1.298,0.269 0.409,0.178 0.743,0.416 1.003,0.712 0.26,0.297 0.484,0.722 0.675,1.274 0.401,-0.737 0.904,-1.297 1.508,-1.68 0.603,-0.383 1.253,-0.575 1.947,-0.575 0.649,0 1.222,0.164 1.72,0.493 0.496,0.328 0.865,0.785 1.107,1.373 0.24,0.587 0.361,1.469 0.361,2.643 v 5.131 h -1.235 v -5.131 c 0,-1.008 -0.071,-1.699 -0.216,-2.077 -0.143,-0.377 -0.389,-0.681 -0.735,-0.911 -0.346,-0.23 -0.762,-0.346 -1.244,-0.346 -0.585,0 -1.12,0.173 -1.605,0.519 -0.485,0.345 -0.839,0.806 -1.063,1.382 -0.224,0.576 -0.336,1.537 -0.336,2.885 v 3.68 h -1.209 v -4.811 c 0,-1.135 -0.07,-1.905 -0.211,-2.311 -0.142,-0.406 -0.388,-0.732 -0.738,-0.977 -0.352,-0.244 -0.77,-0.367 -1.253,-0.367 -0.559,0 -1.081,0.168 -1.567,0.506 -0.487,0.336 -0.848,0.79 -1.08,1.359 -0.233,0.57 -0.35,1.443 -0.35,2.617 v 3.982 h -1.209 v -9.397 z" /></g></g></svg>