<?xml version="1.0" encoding="utf-8"?>
<!-- Generator: Adobe Illustrator 14.0.0, SVG Export Plug-In . SVG Version: 6.00 Build 43363)  -->
<!DOCTYPE svg PUBLIC "-//W3C//DTD SVG 1.1//EN" "http://www.w3.org/Graphics/SVG/1.1/DTD/svg11.dtd">
<svg version="1.1" id="Layer_1" xmlns="http://www.w3.org/2000/svg" xmlns:xlink="http://www.w3.org/1999/xlink" x="0px" y="0px"
	 width="144px" height="252px" viewBox="0 0 144 252" enable-background="new 0 0 144 252" xml:space="preserve">
<rect x="-9" y="-8.504" fill="#8D7E92" width="162" height="270"/>
<path fill="#E35A2E" d="M128.138,195.469c-1.559-1.23-3.371-2.396-4.482-4.096c-0.783-1.195-1.207-3.496,0.836-3.672
	c1.182-0.098,1.945,0.816,2.693,1.562l0.457,0.459c0.729-0.971,1.812-2.123,3.148-2.078c0.906,0.031,1.479,0.855,1.465,1.682
	c-0.025,1.457-0.928,2.578-1.867,3.605C130.198,193.141,128.103,195.443,128.138,195.469z"/>
<g>
	<path fill="#DED5C3" d="M86.277,200.848c-1.753,0.418-3.499,0.791-5.275,1.082c-4.684,0.758-9.192,0-13.889-0.129
		c-4.597-0.125-9.204-0.391-13.804-0.324c-8.705,0.133-20.884,0.1-23.906,10.631c-0.386,1.348-0.083,2.744-0.229,4.119
		c-0.357,3.484,1.158,6.979,4.596,8.373c1.258,0.508,2.484,0.953,3.393-0.377c2.04-2.996-2.496-4.285-4.564-4.158
		c1.541-0.094,3.975-3.188,4.943-4.293l1.044-1.039c7.756,1.613,15.408,2.797,23.362,2.691c6.139-0.076,12.072-0.529,18.151-1.428
		c7.823-1.152,15.313-3.359,22.891-5.562l-6.896-11.965C92.795,199.162,89.548,200.068,86.277,200.848z"/>
	<path fill="#DED5C3" d="M40.272,213.039c-0.151,2.127-0.559,4.25-0.497,6.393c0.039,1.285,0.639,2.648,1.035,3.914
		c0.763,2.477,3.051,3.074,5.042,3.182c1.174,0.066,4.326,0.232,4.658-1.664c0.14-0.816-0.66-2.574-1.153-3.086
		c-0.922-0.936-2.235-0.543-3.355-0.582l1.954-5.85"/>
	<path fill="#DED5C3" d="M91.93,212.91c-0.183,1.785-0.746,3.557-0.93,5.334c-0.274,2.631,3.208,1.43,4.048,3.172
		c0.771,1.6-1.073,3.34-2.434,3.838c-3.318,1.207-6.063-1.699-6.325-4.734c-0.165-1.871,0.104-3.785,0.175-5.656"/>
	<path fill="#DED5C3" d="M96.095,210.617c-0.059,3.248-1.212,9.389,0.518,12.131c0.472,0.752,1.588,1.852,2.252,2.021
		c1.728,0.439,5.968,0.543,6.848-1.84c0.407-1.098-0.369-3.076-1.021-3.818c-1.062-1.209-2.583-0.758-3.915-0.82l2.215-8.637"/>
	<path fill="#DED5C3" d="M35.721,205.688c-3.144-2.451-5.405-5.326-8.2-8.008c-2.045-1.961-3.982-1.193-4.873,1.748
		c-1.883,6.197,6.23,7.887,10.539,8.602"/>
	<path fill="#DED5C3" d="M99.031,187.861c2.237-1.139,4.604-1.205,7.111-0.426c5.895,1.84,8.216,7.732,14.221,9.447l3.839,1.096
		h4.109c0.78,4.4,0.081,10.205-4.711,12.477c-2.199,1.047-6.197,2.084-8.55,1.938c-5.541-0.34-13.071-1.877-17.462-5.08
		c-1.234-0.896-4.572-1.963-5.311-3.193C89.115,198.867,94.19,190.322,99.031,187.861z"/>
	<path fill="#6A5D57" d="M125.572,197.699c0,1.518,1.223,2.748,2.739,2.748c1.52,0,2.742-1.23,2.742-2.748
		c0-1.512-1.223-2.738-2.742-2.738C126.795,194.961,125.572,196.188,125.572,197.699z"/>
	<path fill="#6A5D57" d="M110.76,196.623c0,1.436-1.168,2.605-2.604,2.605c-1.442,0-2.604-1.17-2.604-2.605
		c0-1.438,1.162-2.602,2.604-2.602C109.592,194.021,110.76,195.186,110.76,196.623z"/>
	<path fill="#6A5D57" d="M124.554,209.51c-1.812,0-3.888-0.225-5.097-1.48c-0.763-0.791-1.108-1.924-1.027-3.359
		c0.018-0.215,0.196-0.385,0.414-0.369c0.215,0.012,0.38,0.195,0.366,0.412c-0.069,1.23,0.196,2.139,0.815,2.775
		c0.874,0.906,2.425,1.293,5.037,1.238c0.217,0.02,0.388,0.162,0.394,0.381c0.004,0.217-0.163,0.395-0.38,0.398
		C124.905,209.506,124.73,209.51,124.554,209.51L124.554,209.51z"/>
	<polygon fill="#E35A2E" points="86.293,219.266 92.019,219.004 92.803,212.496 84.75,211.836 	"/>
	<polygon fill="#E35A2E" points="95.661,218.594 101.386,218.301 102.169,211.016 94.118,210.273 	"/>
	<path fill="#6BB5B1" d="M89.342,198.963l2.174,2.99l3.255,2.717l2.995,1.086l6.282,4.908l-8.187,2.148
		c-4.155,1.018-8.348,1.949-12.476,3.072c-4.569,1.24-9.701,1.137-14.407,1.547l-13.849,0.27l-1.904-16.291l10.863,0.271
		c0,0,9.747,0.539,9.778,0.543c3.267,0.18,6.448-0.145,9.538-1.227C83.909,200.822,89.163,198.717,89.342,198.963z"/>
	<path fill="#6A5D57" d="M99.537,185.645c0.729-0.348,1.722,7.797,1.706,8.42c-0.079,3.607-0.869,7.475-2.482,10.719
		c-3.438,6.92-15.224,7.244-13.297-2.52C87.298,193.018,91.354,189.584,99.537,185.645z"/>
	<polygon fill="#E35A2E" points="58.971,205.615 59.815,205.17 59.656,206.113 60.337,206.785 59.398,206.922 58.971,207.775 
		58.554,206.922 57.601,206.785 58.282,206.113 58.127,205.17 	"/>
	<polygon fill="#E35A2E" points="83.376,207 84.218,206.553 84.059,207.5 84.738,208.168 83.797,208.307 83.376,209.16 
		82.947,208.307 82.002,208.168 82.685,207.5 82.525,206.553 	"/>
	<polygon fill="#E35A2E" points="80.762,210.17 81.607,209.727 81.444,210.672 82.13,211.334 81.185,211.471 80.762,212.33 
		80.338,211.471 79.393,211.334 80.072,210.672 79.911,209.727 	"/>
	<polygon fill="#E35A2E" points="70.488,211.443 71.235,210.621 71.43,211.715 72.44,212.174 71.467,212.699 71.338,213.801 
		70.537,213.027 69.446,213.25 69.934,212.252 69.388,211.285 	"/>
	<polygon fill="#E35A2E" points="67.208,204.426 67.493,203.355 68.167,204.234 69.275,204.186 68.643,205.094 69.036,206.133 
		67.977,205.814 67.104,206.506 67.086,205.4 66.154,204.791 	"/>
	<polygon fill="#E35A2E" points="78.62,205.504 79.721,204.932 79.51,206.15 80.396,207.014 79.172,207.193 78.62,208.299 
		78.073,207.193 76.851,207.014 77.733,206.15 77.528,204.932 	"/>
	<polygon fill="#E35A2E" points="59.187,213.334 60.417,212.686 60.186,214.061 61.182,215.031 59.806,215.229 59.187,216.482 
		58.569,215.229 57.193,215.031 58.188,214.061 57.954,212.686 	"/>
	<path fill="#E35A2E" d="M76.92,214.422l-1.31-0.805l-1.405,0.629l0.361-1.498l-1.037-1.139l1.531-0.125l0.769-1.332l0.599,1.416
		l1.5,0.322l-1.167,1L76.92,214.422L76.92,214.422z M75.624,213.396l1.065,0.648l-0.134-1.238l0.947-0.809l-1.221-0.26l-0.481-1.145
		l-0.617,1.076l-1.242,0.1l0.83,0.922l-0.283,1.215L75.624,213.396L75.624,213.396z"/>
	<path fill="#E35A2E" d="M65.482,211.326l-1.315-0.799l-1.401,0.625l0.352-1.498l-1.027-1.139l1.533-0.125l0.767-1.336l0.592,1.424
		l1.505,0.318l-1.171,1L65.482,211.326L65.482,211.326z M64.181,210.303l1.06,0.652l-0.128-1.236l0.947-0.814l-1.218-0.258
		l-0.476-1.146l-0.626,1.076l-1.24,0.104l0.832,0.92l-0.287,1.213L64.181,210.303L64.181,210.303z"/>
	<path fill="#E35A2E" d="M99.312,211.326l-1.316-0.799l-1.401,0.625l0.352-1.498l-1.026-1.139l1.535-0.125l0.761-1.336l0.596,1.424
		l1.508,0.318l-1.174,1L99.312,211.326L99.312,211.326z M98.014,210.303l1.058,0.652l-0.132-1.236l0.949-0.814l-1.219-0.258
		l-0.481-1.146l-0.619,1.076l-1.238,0.104l0.835,0.92l-0.291,1.213L98.014,210.303L98.014,210.303z"/>
	<path fill="#E35A2E" d="M74.848,207.418l-1.307-0.793l-1.407,0.621l0.354-1.49l-1.028-1.145l1.535-0.123l0.767-1.332l0.588,1.418
		l1.506,0.316l-1.168,1.002L74.848,207.418L74.848,207.418z M73.555,206.398l1.06,0.652l-0.138-1.236l0.955-0.812l-1.225-0.262
		l-0.476-1.146l-0.623,1.084l-1.238,0.098l0.837,0.924l-0.295,1.211L73.555,206.398L73.555,206.398z"/>
	<polygon fill="#E35A2E" points="53.226,201.41 55.13,217.701 53.689,217.781 51.529,201.428 	"/>
	<polygon fill="#8D7E92" points="104.048,210.664 102.141,211.178 101.386,218.301 	"/>
</g>
<g>
	<polygon fill="#E2BA51" points="103.634,175.02 106.724,174.57 103.645,177.666 	"/>
	<path fill="#6CB6B3" d="M99.899,178.775c1.037,1.033,2.715,1.029,3.749-0.01c1.03-1.037,1.025-2.715-0.015-3.746
		c-1.036-1.033-2.712-1.031-3.744,0.008C98.858,176.066,98.863,177.742,99.899,178.775z"/>
	<circle fill="#6CB6B3" cx="100.071" cy="182.248" r="4.599"/>
	<polygon fill="#6CB6B3" points="97.054,183.266 90.656,180.322 91.444,187.043 97.636,184.32 	"/>
	<path fill="#534B37" d="M101.274,176.354c0.138,0.137,0.357,0.135,0.496,0c0.134-0.139,0.134-0.359-0.006-0.496
		c-0.133-0.135-0.354-0.133-0.492,0.002C101.138,175.998,101.138,176.217,101.274,176.354z"/>
</g>
</svg>
