<?xml version="1.0" encoding="utf-8"?>
<!-- Generator: Adobe Illustrator 14.0.0, SVG Export Plug-In . SVG Version: 6.00 Build 43363)  -->
<!DOCTYPE svg PUBLIC "-//W3C//DTD SVG 1.1//EN" "http://www.w3.org/Graphics/SVG/1.1/DTD/svg11.dtd">
<svg version="1.1" id="Layer_1" xmlns="http://www.w3.org/2000/svg" xmlns:xlink="http://www.w3.org/1999/xlink" x="0px" y="0px"
	 width="306px" height="396px" viewBox="0 0 306 396" enable-background="new 0 0 306 396" xml:space="preserve">
<rect x="-0.128" y="0.332" fill="#FFFFFF" width="306.001" height="396"/>
<g>
	<g>
		<path fill="#695C57" d="M22.127,252.28l-0.935,0.581c-0.808-1.072-1.911-1.609-3.308-1.609c-1.117,0-2.044,0.359-2.782,1.078
			c-0.738,0.718-1.107,1.59-1.107,2.617c0,0.668,0.169,1.297,0.509,1.886c0.339,0.589,0.805,1.046,1.397,1.372
			c0.592,0.326,1.256,0.488,1.991,0.488c1.347,0,2.447-0.537,3.3-1.609l0.935,0.615c-0.438,0.66-1.027,1.172-1.765,1.535
			c-0.739,0.364-1.58,0.546-2.524,0.546c-1.45,0-2.652-0.46-3.607-1.382s-1.433-2.042-1.433-3.362c0-0.888,0.223-1.712,0.67-2.474
			s1.061-1.355,1.841-1.782s1.654-0.64,2.621-0.64c0.606,0,1.192,0.092,1.757,0.277s1.043,0.428,1.437,0.725
			C21.518,251.44,21.852,251.82,22.127,252.28z"/>
		<path fill="#695C57" d="M33.529,250.376v9.169h-1.163v-1.576c-0.495,0.602-1.049,1.053-1.665,1.356s-1.288,0.455-2.018,0.455
			c-1.298,0-2.406-0.47-3.325-1.411c-0.918-0.941-1.377-2.086-1.377-3.434c0-1.32,0.463-2.45,1.39-3.389
			c0.927-0.938,2.042-1.406,3.346-1.406c0.753,0,1.434,0.159,2.043,0.479s1.145,0.801,1.605,1.44v-1.685H33.529z M28.814,251.277
			c-0.656,0-1.262,0.162-1.818,0.484s-0.998,0.775-1.326,1.359c-0.329,0.584-0.493,1.201-0.493,1.852
			c0,0.646,0.166,1.263,0.497,1.852c0.331,0.59,0.776,1.049,1.334,1.377c0.558,0.328,1.157,0.492,1.797,0.492
			c0.646,0,1.257-0.162,1.835-0.488s1.022-0.766,1.334-1.321s0.467-1.182,0.467-1.878c0-1.061-0.349-1.946-1.048-2.659
			S29.835,251.277,28.814,251.277z"/>
		<path fill="#695C57" d="M35.737,250.376h1.205v1.34c0.359-0.528,0.738-0.923,1.137-1.185c0.399-0.261,0.815-0.391,1.248-0.391
			c0.326,0,0.674,0.104,1.045,0.311l-0.615,0.995c-0.248-0.106-0.455-0.16-0.624-0.16c-0.394,0-0.772,0.161-1.138,0.484
			s-0.644,0.825-0.834,1.505c-0.146,0.521-0.219,1.578-0.219,3.168v3.102h-1.205V250.376z"/>
		<path fill="#695C57" d="M41.783,246.601c0.269,0,0.498,0.096,0.688,0.286c0.19,0.191,0.286,0.422,0.286,0.691
			c0,0.264-0.095,0.492-0.286,0.683c-0.19,0.19-0.419,0.286-0.688,0.286c-0.263,0-0.489-0.096-0.68-0.286
			c-0.19-0.19-0.285-0.419-0.285-0.683c0-0.27,0.095-0.5,0.285-0.691C41.294,246.696,41.521,246.601,41.783,246.601z
			 M41.198,250.376h1.18v9.169h-1.18V250.376z"/>
		<path fill="#695C57" d="M44.83,250.376h1.18v1.644c0.472-0.629,0.994-1.1,1.567-1.412c0.573-0.312,1.196-0.467,1.871-0.467
			c0.686,0,1.293,0.174,1.824,0.521c0.531,0.349,0.923,0.818,1.176,1.408s0.379,1.508,0.379,2.755v4.72h-1.18v-4.374
			c0-1.056-0.043-1.761-0.131-2.115c-0.137-0.606-0.399-1.063-0.787-1.37c-0.388-0.306-0.894-0.459-1.517-0.459
			c-0.714,0-1.353,0.236-1.917,0.709c-0.565,0.471-0.937,1.056-1.117,1.752c-0.113,0.455-0.168,1.287-0.168,2.494v3.363h-1.18
			V250.376z"/>
		<path fill="#695C57" d="M63.26,250.376h1.18v7.306c0,1.287-0.112,2.229-0.337,2.823c-0.309,0.843-0.846,1.491-1.61,1.946
			s-1.683,0.684-2.755,0.684c-0.787,0-1.493-0.111-2.12-0.334s-1.136-0.521-1.529-0.896c-0.394-0.375-0.756-0.922-1.087-1.644h1.281
			c0.349,0.606,0.799,1.056,1.35,1.349c0.551,0.291,1.235,0.438,2.05,0.438c0.804,0,1.484-0.149,2.038-0.449
			c0.554-0.299,0.949-0.676,1.186-1.129c0.236-0.454,0.354-1.186,0.354-2.197V257.8c-0.444,0.562-0.987,0.993-1.628,1.294
			s-1.321,0.451-2.041,0.451c-0.844,0-1.637-0.209-2.379-0.629c-0.743-0.418-1.316-0.98-1.721-1.689
			c-0.405-0.707-0.607-1.485-0.607-2.334c0-0.848,0.211-1.639,0.633-2.372c0.421-0.733,1.005-1.313,1.75-1.74s1.531-0.64,2.358-0.64
			c0.686,0,1.326,0.141,1.919,0.425s1.166,0.751,1.717,1.403V250.376z M59.779,251.277c-0.668,0-1.29,0.162-1.862,0.484
			c-0.573,0.324-1.022,0.77-1.348,1.34c-0.326,0.57-0.489,1.188-0.489,1.85c0,1.006,0.337,1.838,1.011,2.495
			c0.674,0.657,1.547,0.985,2.621,0.985c1.084,0,1.957-0.325,2.617-0.977c0.66-0.652,0.99-1.509,0.99-2.57
			c0-0.691-0.152-1.309-0.455-1.85c-0.304-0.543-0.733-0.971-1.29-1.285S60.42,251.277,59.779,251.277z"/>
		<path fill="#695C57" d="M75.521,246.836v1.155c-0.433-0.186-0.803-0.278-1.112-0.278c-0.23,0-0.421,0.047-0.573,0.139
			c-0.151,0.094-0.247,0.199-0.286,0.32c-0.04,0.121-0.059,0.443-0.059,0.965l-0.001,1.239h1.914v1.02h-1.915l-0.006,8.149h-1.18
			v-8.149h-1.205v-1.02h1.205v-1.433c0-0.657,0.061-1.127,0.181-1.407c0.121-0.281,0.326-0.507,0.615-0.679
			c0.29-0.171,0.639-0.257,1.049-0.257C74.529,246.601,74.987,246.68,75.521,246.836z"/>
		<path fill="#695C57" d="M81.504,250.141c1.413,0,2.583,0.511,3.512,1.533c0.844,0.933,1.266,2.036,1.266,3.312
			c0,1.28-0.446,2.4-1.338,3.358c-0.892,0.957-2.039,1.437-3.44,1.437c-1.407,0-2.556-0.479-3.448-1.437
			c-0.892-0.958-1.338-2.078-1.338-3.358c0-1.27,0.422-2.37,1.266-3.304C78.913,250.654,80.086,250.141,81.504,250.141z
			 M81.5,251.295c-0.981,0-1.824,0.361-2.529,1.086c-0.705,0.726-1.057,1.602-1.057,2.63c0,0.663,0.161,1.28,0.482,1.854
			c0.321,0.572,0.755,1.015,1.302,1.326c0.547,0.312,1.147,0.469,1.801,0.469c0.654,0,1.254-0.156,1.801-0.469
			c0.547-0.312,0.981-0.754,1.302-1.326c0.321-0.574,0.482-1.191,0.482-1.854c0-1.028-0.354-1.904-1.061-2.63
			C83.316,251.656,82.475,251.295,81.5,251.295z"/>
		<path fill="#695C57" d="M88.019,250.376h1.205v1.34c0.359-0.528,0.738-0.923,1.137-1.185c0.399-0.261,0.815-0.391,1.248-0.391
			c0.326,0,0.674,0.104,1.045,0.311l-0.615,0.995c-0.248-0.106-0.455-0.16-0.624-0.16c-0.394,0-0.772,0.161-1.138,0.484
			s-0.644,0.825-0.834,1.505c-0.146,0.521-0.219,1.578-0.219,3.168v3.102h-1.205V250.376z"/>
		<path fill="#695C57" d="M107.569,250.376v9.169h-1.163v-1.576c-0.495,0.602-1.049,1.053-1.665,1.356s-1.288,0.455-2.018,0.455
			c-1.298,0-2.406-0.47-3.325-1.411c-0.918-0.941-1.377-2.086-1.377-3.434c0-1.32,0.463-2.45,1.39-3.389
			c0.927-0.938,2.042-1.406,3.346-1.406c0.753,0,1.434,0.159,2.043,0.479s1.145,0.801,1.605,1.44v-1.685H107.569z M102.854,251.277
			c-0.656,0-1.262,0.162-1.818,0.484s-0.998,0.775-1.326,1.359c-0.329,0.584-0.493,1.201-0.493,1.852
			c0,0.646,0.166,1.263,0.497,1.852c0.331,0.59,0.776,1.049,1.334,1.377c0.558,0.328,1.157,0.492,1.797,0.492
			c0.646,0,1.257-0.162,1.835-0.488s1.022-0.766,1.334-1.321s0.467-1.182,0.467-1.878c0-1.061-0.349-1.946-1.048-2.659
			S103.875,251.277,102.854,251.277z"/>
		<path fill="#695C57" d="M110.072,250.376h1.18v4.28c0,1.045,0.056,1.765,0.169,2.158c0.168,0.562,0.491,1.006,0.966,1.331
			c0.475,0.326,1.042,0.489,1.7,0.489s1.217-0.159,1.675-0.477s0.775-0.734,0.95-1.252c0.118-0.354,0.177-1.104,0.177-2.25v-4.28
			h1.205v4.5c0,1.265-0.147,2.216-0.442,2.856s-0.739,1.143-1.332,1.504c-0.593,0.363-1.336,0.544-2.229,0.544
			s-1.639-0.181-2.237-0.544c-0.599-0.361-1.045-0.867-1.34-1.516c-0.295-0.649-0.442-1.625-0.442-2.93V250.376z"/>
		<path fill="#695C57" d="M125.325,251.379l-0.759,0.783c-0.631-0.611-1.248-0.918-1.85-0.918c-0.383,0-0.711,0.126-0.984,0.379
			s-0.41,0.548-0.41,0.885c0,0.298,0.112,0.582,0.338,0.852c0.225,0.275,0.698,0.598,1.418,0.969
			c0.878,0.455,1.475,0.893,1.791,1.314c0.31,0.428,0.464,0.908,0.464,1.441c0,0.752-0.265,1.391-0.793,1.912
			c-0.529,0.523-1.19,0.784-1.983,0.784c-0.529,0-1.034-0.115-1.515-0.345c-0.481-0.23-0.879-0.549-1.194-0.953l0.741-0.842
			c0.603,0.68,1.242,1.02,1.917,1.02c0.473,0,0.875-0.152,1.208-0.455c0.332-0.304,0.499-0.66,0.499-1.07
			c0-0.338-0.11-0.639-0.33-0.902c-0.22-0.258-0.715-0.584-1.486-0.978c-0.828-0.427-1.391-0.849-1.689-1.264
			c-0.298-0.416-0.448-0.891-0.448-1.425c0-0.696,0.238-1.275,0.713-1.735c0.476-0.461,1.076-0.69,1.802-0.69
			C123.62,250.141,124.469,250.553,125.325,251.379z"/>
		<path fill="#695C57" d="M128.442,246.971h1.18v3.405h1.871v1.02h-1.871v8.149h-1.18v-8.149h-1.61v-1.02h1.61V246.971z"/>
		<path fill="#695C57" d="M133.671,246.601c0.269,0,0.498,0.096,0.688,0.286c0.19,0.191,0.286,0.422,0.286,0.691
			c0,0.264-0.095,0.492-0.286,0.683c-0.19,0.19-0.419,0.286-0.688,0.286c-0.263,0-0.489-0.096-0.68-0.286
			c-0.19-0.19-0.285-0.419-0.285-0.683c0-0.27,0.095-0.5,0.285-0.691C133.182,246.696,133.409,246.601,133.671,246.601z
			 M133.086,250.376h1.18v9.169h-1.18V250.376z"/>
		<path fill="#695C57" d="M136.718,250.376h1.18v1.644c0.472-0.629,0.994-1.1,1.567-1.412c0.573-0.312,1.196-0.467,1.871-0.467
			c0.686,0,1.293,0.174,1.824,0.521c0.531,0.349,0.923,0.818,1.176,1.408s0.379,1.508,0.379,2.755v4.72h-1.18v-4.374
			c0-1.056-0.043-1.761-0.131-2.115c-0.137-0.606-0.399-1.063-0.787-1.37c-0.388-0.306-0.894-0.459-1.517-0.459
			c-0.714,0-1.353,0.236-1.917,0.709c-0.565,0.471-0.937,1.056-1.117,1.752c-0.113,0.455-0.168,1.287-0.168,2.494v3.363h-1.18
			V250.376z"/>
		<path fill="#695C57" d="M148.069,250.738h-0.868l-0.186-3.902h1.248L148.069,250.738z"/>
		<path fill="#695C57" d="M155.265,251.379l-0.758,0.783c-0.631-0.611-1.248-0.918-1.85-0.918c-0.383,0-0.711,0.126-0.984,0.379
			s-0.41,0.548-0.41,0.885c0,0.298,0.112,0.582,0.338,0.852c0.225,0.275,0.698,0.598,1.418,0.969
			c0.878,0.455,1.475,0.893,1.791,1.314c0.31,0.428,0.464,0.908,0.464,1.441c0,0.752-0.265,1.391-0.793,1.912
			c-0.529,0.523-1.19,0.784-1.983,0.784c-0.529,0-1.034-0.115-1.515-0.345c-0.481-0.23-0.879-0.549-1.194-0.953l0.741-0.842
			c0.603,0.68,1.242,1.02,1.917,1.02c0.473,0,0.875-0.152,1.208-0.455c0.332-0.304,0.499-0.66,0.499-1.07
			c0-0.338-0.11-0.639-0.33-0.902c-0.22-0.258-0.715-0.584-1.486-0.978c-0.828-0.427-1.391-0.849-1.689-1.264
			c-0.298-0.416-0.448-0.891-0.448-1.425c0-0.696,0.238-1.275,0.713-1.735c0.476-0.461,1.076-0.69,1.802-0.69
			C153.561,250.141,154.41,250.553,155.265,251.379z"/>
		<path fill="#695C57" d="M162.124,246.836h1.18v7.24l4.252-3.7h1.732l-5.04,4.374l5.335,4.795h-1.661l-4.618-4.129v4.129h-1.18
			V246.836z"/>
		<path fill="#695C57" d="M171.204,246.601c0.27,0,0.498,0.096,0.688,0.286c0.19,0.191,0.286,0.422,0.286,0.691
			c0,0.264-0.096,0.492-0.286,0.683s-0.419,0.286-0.688,0.286c-0.262,0-0.488-0.096-0.68-0.286c-0.189-0.19-0.285-0.419-0.285-0.683
			c0-0.27,0.096-0.5,0.285-0.691C170.716,246.696,170.942,246.601,171.204,246.601z M170.619,250.376h1.18v9.169h-1.18V250.376z"/>
		<path fill="#695C57" d="M175.279,246.971h1.18v3.405h1.87v1.02h-1.87v8.149h-1.18v-8.149h-1.61v-1.02h1.61V246.971z"/>
		<path fill="#695C57" d="M181.128,246.971h1.18v3.405h1.87v1.02h-1.87v8.149h-1.18v-8.149h-1.61v-1.02h1.61V246.971z"/>
		<path fill="#695C57" d="M186.356,246.601c0.269,0,0.498,0.096,0.688,0.286c0.191,0.191,0.286,0.422,0.286,0.691
			c0,0.264-0.095,0.492-0.286,0.683c-0.189,0.19-0.419,0.286-0.688,0.286c-0.263,0-0.489-0.096-0.68-0.286
			c-0.189-0.19-0.285-0.419-0.285-0.683c0-0.27,0.096-0.5,0.285-0.691C185.867,246.696,186.094,246.601,186.356,246.601z
			 M185.771,250.376h1.18v9.169h-1.18V250.376z"/>
		<path fill="#695C57" d="M197.122,256.502l0.994,0.523c-0.326,0.64-0.703,1.156-1.131,1.55s-0.908,0.692-1.441,0.897
			c-0.535,0.205-1.139,0.308-1.814,0.308c-1.496,0-2.665-0.489-3.508-1.47c-0.844-0.98-1.266-2.09-1.266-3.325
			c0-1.163,0.357-2.199,1.07-3.109c0.906-1.157,2.117-1.735,3.636-1.735c1.563,0,2.812,0.592,3.745,1.777
			c0.664,0.838,1.001,1.883,1.012,3.135h-8.25c0.023,1.064,0.363,1.938,1.021,2.619s1.471,1.021,2.438,1.021
			c0.467,0,0.922-0.081,1.363-0.244c0.441-0.162,0.816-0.377,1.127-0.646C196.427,257.535,196.762,257.102,197.122,256.502z
			 M197.122,254.033c-0.158-0.629-0.387-1.132-0.688-1.508c-0.302-0.377-0.699-0.68-1.194-0.91s-1.016-0.346-1.562-0.346
			c-0.899,0-1.673,0.289-2.32,0.867c-0.473,0.422-0.829,1.054-1.071,1.896H197.122z"/>
		<path fill="#695C57" d="M205.229,251.379l-0.759,0.783c-0.631-0.611-1.248-0.918-1.85-0.918c-0.384,0-0.712,0.126-0.984,0.379
			c-0.273,0.253-0.41,0.548-0.41,0.885c0,0.298,0.112,0.582,0.338,0.852c0.225,0.275,0.697,0.598,1.418,0.969
			c0.879,0.455,1.476,0.893,1.791,1.314c0.31,0.428,0.465,0.908,0.465,1.441c0,0.752-0.266,1.391-0.794,1.912
			c-0.528,0.523-1.19,0.784-1.983,0.784c-0.529,0-1.033-0.115-1.515-0.345c-0.481-0.23-0.88-0.549-1.194-0.953l0.741-0.842
			c0.603,0.68,1.241,1.02,1.917,1.02c0.474,0,0.876-0.152,1.209-0.455c0.332-0.304,0.498-0.66,0.498-1.07
			c0-0.338-0.109-0.639-0.33-0.902c-0.219-0.258-0.715-0.584-1.486-0.978c-0.827-0.427-1.391-0.849-1.688-1.264
			c-0.298-0.416-0.448-0.891-0.448-1.425c0-0.696,0.238-1.275,0.714-1.735c0.476-0.461,1.076-0.69,1.802-0.69
			C203.523,250.141,204.373,250.553,205.229,251.379z"/>
		<path fill="#695C57" d="M216.706,251.379l-0.759,0.783c-0.631-0.611-1.247-0.918-1.851-0.918c-0.383,0-0.711,0.126-0.984,0.379
			c-0.272,0.253-0.409,0.548-0.409,0.885c0,0.298,0.112,0.582,0.338,0.852c0.226,0.275,0.698,0.598,1.419,0.969
			c0.878,0.455,1.475,0.893,1.79,1.314c0.31,0.428,0.464,0.908,0.464,1.441c0,0.752-0.264,1.391-0.793,1.912
			c-0.529,0.523-1.189,0.784-1.983,0.784c-0.528,0-1.034-0.115-1.515-0.345c-0.481-0.23-0.879-0.549-1.194-0.953l0.741-0.842
			c0.603,0.68,1.242,1.02,1.918,1.02c0.473,0,0.875-0.152,1.207-0.455c0.332-0.304,0.499-0.66,0.499-1.07
			c0-0.338-0.11-0.639-0.329-0.902c-0.221-0.258-0.715-0.584-1.486-0.978c-0.828-0.427-1.391-0.849-1.689-1.264
			c-0.299-0.416-0.447-0.891-0.447-1.425c0-0.696,0.237-1.275,0.713-1.735c0.476-0.461,1.076-0.69,1.803-0.69
			C215.001,250.141,215.851,250.553,216.706,251.379z"/>
		<path fill="#695C57" d="M219.204,246.601c0.27,0,0.498,0.096,0.688,0.286c0.19,0.191,0.286,0.422,0.286,0.691
			c0,0.264-0.096,0.492-0.286,0.683s-0.419,0.286-0.688,0.286c-0.262,0-0.488-0.096-0.68-0.286c-0.189-0.19-0.285-0.419-0.285-0.683
			c0-0.27,0.096-0.5,0.285-0.691C218.716,246.696,218.942,246.601,219.204,246.601z M218.619,250.376h1.18v9.169h-1.18V250.376z"/>
		<path fill="#695C57" d="M222.251,250.376h1.18v1.644c0.473-0.629,0.994-1.1,1.568-1.412c0.572-0.312,1.195-0.467,1.87-0.467
			c0.686,0,1.294,0.174,1.824,0.521c0.531,0.349,0.923,0.818,1.176,1.408s0.38,1.508,0.38,2.755v4.72h-1.181v-4.374
			c0-1.056-0.044-1.761-0.131-2.115c-0.137-0.606-0.399-1.063-0.786-1.37c-0.389-0.306-0.895-0.459-1.518-0.459
			c-0.714,0-1.354,0.236-1.918,0.709c-0.564,0.471-0.937,1.056-1.116,1.752c-0.112,0.455-0.169,1.287-0.169,2.494v3.363h-1.18
			V250.376z"/>
		<path fill="#695C57" d="M241.675,252.28l-0.935,0.581c-0.808-1.072-1.911-1.609-3.308-1.609c-1.117,0-2.045,0.359-2.782,1.078
			c-0.738,0.718-1.106,1.59-1.106,2.617c0,0.668,0.169,1.297,0.509,1.886c0.339,0.589,0.806,1.046,1.397,1.372
			s1.256,0.488,1.99,0.488c1.347,0,2.447-0.537,3.3-1.609l0.935,0.615c-0.438,0.66-1.026,1.172-1.765,1.535
			c-0.739,0.364-1.58,0.546-2.524,0.546c-1.449,0-2.651-0.46-3.606-1.382s-1.433-2.042-1.433-3.362c0-0.888,0.223-1.712,0.67-2.474
			s1.061-1.355,1.842-1.782c0.78-0.427,1.654-0.64,2.621-0.64c0.605,0,1.191,0.092,1.756,0.277s1.044,0.428,1.438,0.725
			C241.065,251.44,241.399,251.82,241.675,252.28z"/>
		<path fill="#695C57" d="M251.661,256.502l0.994,0.523c-0.326,0.64-0.703,1.156-1.13,1.55c-0.428,0.394-0.908,0.692-1.442,0.897
			s-1.139,0.308-1.813,0.308c-1.496,0-2.665-0.489-3.509-1.47s-1.266-2.09-1.266-3.325c0-1.163,0.357-2.199,1.071-3.109
			c0.905-1.157,2.117-1.735,3.636-1.735c1.562,0,2.811,0.592,3.744,1.777c0.664,0.838,1.002,1.883,1.013,3.135h-8.25
			c0.022,1.064,0.362,1.938,1.021,2.619s1.471,1.021,2.438,1.021c0.467,0,0.921-0.081,1.362-0.244
			c0.441-0.162,0.817-0.377,1.127-0.646C250.966,257.535,251.302,257.102,251.661,256.502z M251.661,254.033
			c-0.157-0.629-0.387-1.132-0.688-1.508c-0.301-0.377-0.699-0.68-1.193-0.91c-0.496-0.23-1.016-0.346-1.562-0.346
			c-0.899,0-1.673,0.289-2.32,0.867c-0.473,0.422-0.829,1.054-1.071,1.896H251.661z"/>
		<path fill="#695C57" d="M260.619,251.025h-1.188c0.034-1.223,0.443-2.227,1.227-3.012s1.752-1.178,2.902-1.178
			c1.141,0,2.064,0.369,2.77,1.105s1.057,1.604,1.057,2.604c0,0.702-0.168,1.362-0.504,1.978s-0.988,1.448-1.958,2.499l-3.088,3.325
			h5.719v1.197h-8.419l4.736-5.119c0.961-1.029,1.586-1.792,1.875-2.289c0.289-0.498,0.434-1.022,0.434-1.573
			c0-0.697-0.26-1.298-0.779-1.801s-1.156-0.755-1.908-0.755c-0.793,0-1.451,0.264-1.977,0.792S260.692,250.07,260.619,251.025z"/>
		<path fill="#695C57" d="M268.734,253.351c0-1.635,0.175-2.899,0.526-3.792c0.352-0.894,0.848-1.57,1.488-2.031
			c0.64-0.461,1.355-0.691,2.148-0.691c0.803,0,1.531,0.232,2.182,0.695c0.652,0.464,1.168,1.159,1.547,2.086
			c0.379,0.928,0.568,2.172,0.568,3.733c0,1.556-0.186,2.795-0.56,3.716c-0.374,0.922-0.89,1.617-1.546,2.086
			c-0.658,0.469-1.389,0.704-2.191,0.704c-0.793,0-1.506-0.228-2.141-0.683s-1.131-1.134-1.487-2.035
			C268.913,256.236,268.734,254.975,268.734,253.351z M269.905,253.371c0,1.4,0.125,2.459,0.375,3.176s0.619,1.261,1.108,1.632
			s1.006,0.557,1.551,0.557c0.55,0,1.064-0.181,1.542-0.544c0.478-0.362,0.84-0.906,1.087-1.632c0.31-0.883,0.464-1.945,0.464-3.188
			c0-1.248-0.138-2.27-0.413-3.064c-0.275-0.796-0.655-1.378-1.142-1.746c-0.486-0.369-0.999-0.553-1.538-0.553
			c-0.551,0-1.067,0.184-1.551,0.553c-0.483,0.368-0.851,0.91-1.104,1.627C270.032,250.904,269.905,251.966,269.905,253.371z"/>
		<path fill="#695C57" d="M280.945,247.148h2.436v12.396h-1.23v-11.184h-1.946L280.945,247.148z"/>
		<path fill="#695C57" d="M290.51,247.148h2.436v12.396h-1.23v-11.184h-1.946L290.51,247.148z"/>
	</g>
</g>
<g>
	<g>
		<path fill="#E2592F" d="M184.352,305.607c0,0-8.508,8.084-19.004,8.084c-10.498,0-19.008-8.084-19.008-8.084
			s8.51-8.082,19.008-8.082C175.844,297.525,184.352,305.607,184.352,305.607z"/>
		<g>
			<path fill="#E2592F" d="M147.501,305.83c0,0-3.723-0.584-5.756-3.234s-1.607-6.365-1.607-6.365s3.721,0.584,5.754,3.234
				S147.501,305.83,147.501,305.83z"/>
			<path fill="#E2592F" d="M147.501,305.553c0,0-3.723,0.584-5.756,3.234s-1.607,6.367-1.607,6.367s3.721-0.584,5.754-3.234
				C147.925,309.268,147.501,305.553,147.501,305.553z"/>
		</g>
		<ellipse fill="#232020" cx="174.792" cy="304.236" rx="1.632" ry="1.418"/>
	</g>
	<g>
		<g>
			<path fill="#6CB4B0" d="M42.004,335.157c5.311,0.001,11.235-1.083,15.221-4.689c1.764-1.595,2.563-3.102,2.445-4.604
				c-0.185-2.352-2.505-3.867-4.748-5.332c-1.47-0.96-3.135-2.048-3.314-2.984c-0.035-0.188-0.043-0.492,0.305-0.988
				c2.316-3.293,15.479-1.503,23.229,0.396c0.538,0.141,1.078-0.197,1.21-0.732c0.131-0.536-0.197-1.078-0.733-1.209
				c-2.188-0.539-21.484-5.089-25.341,0.395c-0.582,0.826-0.795,1.674-0.634,2.516c0.339,1.77,2.207,2.99,4.185,4.281
				c1.753,1.146,3.74,2.443,3.848,3.815c0.066,0.831-0.537,1.829-1.793,2.964c-7.649,6.921-23.145,3.396-24.605,2.521
				c-0.476-0.284-1.089-0.13-1.372,0.343c-0.284,0.474-0.13,1.088,0.343,1.372C31.453,333.942,36.384,335.157,42.004,335.157z"/>
		</g>
		<ellipse fill-rule="evenodd" clip-rule="evenodd" fill="#1C75BA" cx="81.215" cy="302.807" rx="14.873" ry="15.061"/>
		<g>
			<path fill-rule="evenodd" clip-rule="evenodd" fill="#6CB4B0" d="M72.838,291.106c4.065-1.055,10.075-1.782,15.26-0.981
				C84.277,287.307,76.064,288.287,72.838,291.106z M69.09,295.123c6.312-1.557,15.349-2.672,23.292-1.518
				c0.072-0.235-0.247-0.594-0.446-0.804c-0.505-0.528-1.802-1.804-2.588-2.053c-1.017-0.319-3.043-0.218-4.194-0.356
				c-2.059-0.246-4.893,0.009-7.317,0.356c-2.507,0.359-4.996,0.736-6.248,1.428C70.503,292.776,69.861,294.326,69.09,295.123z
				 M68.644,295.925c-0.508,0.862-0.855,1.881-1.25,2.856c7.555-1.948,18.339-3.311,27.397-1.517
				c-0.435-1.292-1.186-2.265-1.874-3.302c-1.914,0.176-3.982-0.082-6.068-0.18C80.328,293.48,73.794,294.494,68.644,295.925z
				 M67.216,299.584c-0.16,0.852-0.369,1.654-0.357,2.678c7.943-2.33,18.917-3.319,28.825-2.053
				c-0.059-1.102-0.515-1.808-0.714-2.767c-0.377-0.138,0.02,0.495-0.357,0.357C85.523,296.145,74.675,297.232,67.216,299.584z
				 M87.741,300.209c-0.715,0-1.428,0-2.143,0c-1.105,1.719-2.423,3.229-3.926,4.551c0.059,0.923-0.119,2.082,0.089,2.855
				c0.36,0.16,0.565-0.324,0.804-0.535c1.953-1.729,3.875-4.08,5.086-6.604C87.698,300.403,87.744,300.332,87.741,300.209z
				 M84.796,300.209c-1.02-0.068-1.795,0.108-2.767,0.09c-0.095,1.154-0.298,2.2-0.268,3.479
				C83.015,302.83,84.054,301.67,84.796,300.209z M88.366,300.299c-1.609,3.359-3.854,6.083-6.604,8.299
				c0.12,0.892,0.249,1.773,0.356,2.678c3.383-2.955,6.24-6.908,8.3-10.889C89.9,300.191,89.029,300.349,88.366,300.299z
				 M81.405,300.299c-0.838,0.144-1.788,0.175-2.678,0.268c-1.137,5.882-0.133,12.477,1.695,16.955
				c0.948,0.043,1.838,0.071,2.767-0.088C81.445,312.898,80.632,306.521,81.405,300.299z M82.298,311.988
				c0.125,0.677,0.284,1.321,0.445,1.963c0.375,0.185,0.928-0.967,1.517-1.16c3.396-3.623,6.413-7.627,8.835-12.225
				c-0.375,0.064-1.103-0.265-1.516-0.18c-0.854,0.176-1.764,2.326-2.231,3.034C87.29,306.537,84.855,309.766,82.298,311.988z
				 M93.72,300.653c-2.399,4.321-5.523,9.034-9.191,12.673c-0.499,0.496-1.439,1.047-1.517,1.518
				c-0.112,0.682,0.602,1.472,0.624,2.054c0.4,0.077,0.565-0.411,0.804-0.625c4.54-4.122,8.438-9.515,11.422-15.261
				C95.486,300.555,94.501,300.706,93.72,300.653z M75.426,301.012c-1.205,5.379-0.216,11.664,1.428,15.797
				c0.825,0.333,1.778,0.542,2.856,0.625c-1.63-4.55-2.674-10.859-1.606-16.78C77.19,300.754,76.325,300.899,75.426,301.012z
				 M74.802,301.102c-0.9,0.2-1.853,0.349-2.767,0.535c-1.046,4.854,0.339,9.724,1.427,13.564c0.811,0.529,1.654,1.023,2.678,1.339
				C74.591,312.337,73.718,306.42,74.802,301.102z M71.41,301.814c-0.8,0.064-1.419,0.309-2.142,0.447
				c-0.344,1.464-0.472,3.043-0.357,4.64c0.139,1.929,0.983,3.714,1.07,5.177c0.804,0.95,1.686,1.824,2.678,2.587
				C71.807,311.158,70.44,306.37,71.41,301.814z M95.951,302.082c-3.093,5.744-7.135,11.011-11.512,15.172
				c2.35-0.26,3.288-1.699,4.818-3.213c1.856-1.836,3.093-3.32,4.64-5.711C95.094,306.483,96.392,304.999,95.951,302.082z
				 M68.644,302.528c-0.534-0.204-1.131,0.296-1.785,0.269c-0.087,3.508,0.989,5.853,2.231,8.031
				C68.592,308.722,67.847,305.183,68.644,302.528z M88.454,315.647c3.23-1.531,5.636-4.656,6.962-8.388
				c-0.189-0.087-0.452,0.494-0.714,0.891C92.958,310.791,90.859,313.616,88.454,315.647z"/>
			<path fill-rule="evenodd" clip-rule="evenodd" fill="#6CB4B0" d="M68.644,295.925c-0.508,0.862-0.855,1.881-1.25,2.856
				c7.555-1.948,18.339-3.311,27.397-1.517c-0.435-1.292-1.186-2.265-1.874-3.302c-1.914,0.176-3.982-0.082-6.068-0.18
				C80.328,293.48,73.794,294.494,68.644,295.925z"/>
			<path fill-rule="evenodd" clip-rule="evenodd" fill="#6CB4B0" d="M67.216,299.584c-0.16,0.852-0.369,1.654-0.357,2.678
				c7.943-2.33,18.917-3.319,28.825-2.053c-0.059-1.102-0.515-1.808-0.714-2.767c-0.377-0.138,0.02,0.495-0.357,0.357
				C85.523,296.145,74.675,297.232,67.216,299.584z"/>
			<path fill-rule="evenodd" clip-rule="evenodd" fill="#6CB4B0" d="M87.741,300.209c-0.715,0-1.428,0-2.143,0
				c-1.105,1.719-2.423,3.229-3.926,4.551c0.059,0.923-0.119,2.082,0.089,2.855c0.36,0.16,0.565-0.324,0.804-0.535
				c1.953-1.729,3.875-4.08,5.086-6.604C87.698,300.403,87.744,300.332,87.741,300.209z"/>
			<path fill-rule="evenodd" clip-rule="evenodd" fill="#6CB4B0" d="M84.796,300.209c-1.02-0.068-1.795,0.108-2.767,0.09
				c-0.095,1.154-0.298,2.2-0.268,3.479C83.015,302.83,84.054,301.67,84.796,300.209z"/>
			<path fill-rule="evenodd" clip-rule="evenodd" fill="#6CB4B0" d="M88.366,300.299c-1.609,3.359-3.854,6.083-6.604,8.299
				c0.12,0.892,0.249,1.773,0.356,2.678c3.383-2.955,6.24-6.908,8.3-10.889C89.9,300.191,89.029,300.349,88.366,300.299z"/>
			<path fill-rule="evenodd" clip-rule="evenodd" fill="#6CB4B0" d="M81.405,300.299c-0.838,0.144-1.788,0.175-2.678,0.268
				c-1.137,5.882-0.133,12.477,1.695,16.955c0.948,0.043,1.838,0.071,2.767-0.088C81.445,312.898,80.632,306.521,81.405,300.299z"/>
			<path fill-rule="evenodd" clip-rule="evenodd" fill="#6CB4B0" d="M82.298,311.988c0.125,0.677,0.284,1.321,0.445,1.963
				c0.375,0.185,0.928-0.967,1.517-1.16c3.396-3.623,6.413-7.627,8.835-12.225c-0.375,0.064-1.103-0.265-1.516-0.18
				c-0.854,0.176-1.764,2.326-2.231,3.034C87.29,306.537,84.855,309.766,82.298,311.988z"/>
			<path fill-rule="evenodd" clip-rule="evenodd" fill="#6CB4B0" d="M93.72,300.653c-2.399,4.321-5.523,9.034-9.191,12.673
				c-0.499,0.496-1.439,1.047-1.517,1.518c-0.112,0.682,0.602,1.472,0.624,2.054c0.4,0.077,0.565-0.411,0.804-0.625
				c4.54-4.122,8.438-9.515,11.422-15.261C95.486,300.555,94.501,300.706,93.72,300.653z"/>
			<path fill-rule="evenodd" clip-rule="evenodd" fill="#6CB4B0" d="M75.426,301.012c-1.205,5.379-0.216,11.664,1.428,15.797
				c0.825,0.333,1.778,0.542,2.856,0.625c-1.63-4.55-2.674-10.859-1.606-16.78C77.19,300.754,76.325,300.899,75.426,301.012z"/>
			<path fill-rule="evenodd" clip-rule="evenodd" fill="#6CB4B0" d="M74.802,301.102c-0.9,0.2-1.853,0.349-2.767,0.535
				c-1.046,4.854,0.339,9.724,1.427,13.564c0.811,0.529,1.654,1.023,2.678,1.339C74.591,312.337,73.718,306.42,74.802,301.102z"/>
			<path fill-rule="evenodd" clip-rule="evenodd" fill="#6CB4B0" d="M71.41,301.814c-0.8,0.064-1.419,0.309-2.142,0.447
				c-0.344,1.464-0.472,3.043-0.357,4.64c0.139,1.929,0.983,3.714,1.07,5.177c0.804,0.95,1.686,1.824,2.678,2.587
				C71.807,311.158,70.44,306.37,71.41,301.814z"/>
			<path fill-rule="evenodd" clip-rule="evenodd" fill="#6CB4B0" d="M95.951,302.082c-3.093,5.744-7.135,11.011-11.512,15.172
				c2.35-0.26,3.288-1.699,4.818-3.213c1.856-1.836,3.093-3.32,4.64-5.711C95.094,306.483,96.392,304.999,95.951,302.082z"/>
			<path fill-rule="evenodd" clip-rule="evenodd" fill="#6CB4B0" d="M68.644,302.528c-0.534-0.204-1.131,0.296-1.785,0.269
				c-0.087,3.508,0.989,5.853,2.231,8.031C68.592,308.722,67.847,305.183,68.644,302.528z"/>
			<path fill-rule="evenodd" clip-rule="evenodd" fill="#6CB4B0" d="M72.838,291.106c4.065-1.055,10.075-1.782,15.26-0.981
				C84.277,287.307,76.064,288.287,72.838,291.106z"/>
			<path fill-rule="evenodd" clip-rule="evenodd" fill="#6CB4B0" d="M88.454,315.647c3.23-1.531,5.636-4.656,6.962-8.388
				c-0.189-0.087-0.452,0.494-0.714,0.891C92.958,310.791,90.859,313.616,88.454,315.647z"/>
		</g>
	</g>
	<g>
		<path fill-rule="evenodd" clip-rule="evenodd" fill="#EDCD48" d="M240.068,297.627c2.584-4.914,7.176-8.35,13.305-7.32
			c9.291,1.565,14.971,10.729,13.503,19.798c-0.341,2.099-1.2,4.997-2.622,6.644c-2.812,3.242-8.08,5.485-12.354,5.275
			c-4.829-0.239-10.304-2.492-12.576-6.995C236.803,310.033,237.256,302.961,240.068,297.627z"/>
		<path fill-rule="evenodd" clip-rule="evenodd" fill="#553C16" d="M256.148,319.964c-1.193,3.075,1.414,8.873-1.385,11.118
			c0.811-0.397,1.613-1.726,1.385,0.463c0.587-1.443,0.939-2.447,1.854-0.463C256.743,329.862,256.656,323.477,256.148,319.964z"/>
		<path fill-rule="evenodd" clip-rule="evenodd" fill="#553C16" d="M252.912,320.428c-2.303,1.9,1.438,8.558-2.32,9.723
			c0.436-0.279,1.712-1.075,1.396,0.465c0.67-1.27,1.535-0.904,1.852,0.467C253.502,329.402,252.355,324.536,252.912,320.428z"/>
		<polygon fill-rule="evenodd" clip-rule="evenodd" fill="#FD8521" points="242.564,296.186 237.314,296.64 241.02,300.659 		"/>
		<path fill-rule="evenodd" clip-rule="evenodd" fill="#6CB4B0" d="M256.26,299.523c0.703-0.646,1.752-0.968,3.227-0.787
			c2.227,0.273,4.217,1.629,6.412,2.042c1.973,0.368,3.609-0.469,5.246-1.698c1.035-0.785,1.623-1.497,2.91-0.914
			c0.938,0.433,1.777,1.497,1.896,2.715c0.241,2.395-0.986,5.166-1.879,7.24c-1.777,4.087-4.438,7.542-8.611,7.759
			c-4.16,0.228-7.039-3.522-8.98-7.399C254.986,305.521,254.324,301.298,256.26,299.523z"/>
		<path fill-rule="evenodd" clip-rule="evenodd" fill="#553C16" d="M246.557,298.012c0,0.587-0.465,1.044-1.037,1.044
			c-0.58,0-1.045-0.457-1.045-1.044c0-0.569,0.465-1.035,1.045-1.035C246.092,296.977,246.557,297.442,246.557,298.012z"/>
	</g>
</g>
<g>
	<g>
		<path fill="#695C57" d="M46.903,168.845c0,2.55,0,9.951,0.048,11.47c0.05,0.833,0.248,1.522,1.277,1.522h2.205
			c0.44,0,0.54,0.144,0.54,0.439v0.833c0,0.292-0.1,0.489-0.295,0.489c-0.343,0-2.498-0.146-5.538-0.146
			c-3.138,0-5.099,0.146-5.54,0.146c-0.245,0-0.341-0.197-0.341-0.489v-0.833c0-0.344,0.096-0.439,0.638-0.439h2.35
			c0.541,0,1.027-0.347,1.081-1.228c0.048-1.52,0.048-9.949,0.048-12.792v-3.088c0-3.481-0.048-7.939-0.148-9.216
			c-0.098-1.666-0.883-2.451-2.452-2.938l-0.983-0.347c-0.239-0.099-0.291-0.146-0.291-0.243v-0.39c0-0.147,0.149-0.248,0.442-0.348
			c1.712-0.781,3.922-1.664,5.733-2.84c0.439-0.296,0.734-0.394,1.029-0.394c0.345,0,0.443,0.245,0.393,0.882
			c-0.048,2.699-0.197,12.891-0.197,15.589V168.845z"/>
		<path fill="#695C57" d="M72.589,177.324c0,3.679,1.666,4.315,2.549,4.315c1.125,0,2.55-0.196,3.234-0.637
			c0.246-0.146,0.441-0.1,0.588,0.098l0.245,0.439c0.146,0.196,0.048,0.393-0.098,0.538c-0.49,0.491-2.501,1.964-5.443,1.964
			c-2.398,0-4.752-2.306-4.752-4.168c0-2.009,0.147-6.325,0.147-7.011v-1.076c0-0.883,0.048-4.165,0.098-6.226h-2.992
			c-0.441,0-0.732-0.196-0.732-0.589c0-0.391,0.292-0.54,0.88-0.882c1.177-0.685,4.953-4.508,5.587-6.175
			c0.147-0.392,0.393-0.49,0.688-0.49c0.391,0,0.488,0.344,0.488,0.732l-0.245,4.855h6.811c0.299,0,0.446,0.243,0.347,0.439
			l-0.49,1.717c-0.05,0.247-0.148,0.392-0.441,0.392h-6.323c-0.098,2.256-0.146,4.607-0.146,6.862V177.324z"/>
		<path fill="#695C57" d="M88.22,177.324c0,3.679,1.668,4.315,2.55,4.315c1.131,0,2.549-0.196,3.237-0.637
			c0.245-0.146,0.441-0.1,0.589,0.098l0.245,0.439c0.146,0.196,0.048,0.393-0.1,0.538c-0.489,0.491-2.502,1.964-5.44,1.964
			c-2.406,0-4.755-2.306-4.755-4.168c0-2.009,0.147-6.325,0.147-7.011v-1.076c0-0.883,0.05-4.165,0.1-6.226h-2.99
			c-0.443,0-0.738-0.196-0.738-0.589c0-0.391,0.295-0.54,0.884-0.882c1.179-0.685,4.947-4.508,5.589-6.175
			c0.148-0.392,0.391-0.49,0.682-0.49c0.394,0,0.495,0.344,0.495,0.732l-0.248,4.855h6.814c0.294,0,0.441,0.243,0.344,0.439
			l-0.493,1.717c-0.048,0.247-0.146,0.392-0.438,0.392H88.37c-0.1,2.256-0.15,4.607-0.15,6.862V177.324z"/>
		<path fill="#695C57" d="M103.808,168.845c0,2.55,0,9.951,0.05,11.47c0.048,0.833,0.245,1.522,1.274,1.522h2.205
			c0.44,0,0.54,0.144,0.54,0.439v0.833c0,0.292-0.1,0.489-0.295,0.489c-0.344,0-2.498-0.146-5.538-0.146
			c-3.136,0-5.099,0.146-5.541,0.146c-0.246,0-0.342-0.197-0.342-0.489v-0.833c0-0.344,0.096-0.439,0.637-0.439h2.354
			c0.539,0,1.029-0.347,1.077-1.228c0.05-1.52,0.05-9.949,0.05-12.792v-3.088c0-3.481-0.05-7.939-0.147-9.216
			c-0.096-1.666-0.88-2.451-2.449-2.938l-0.981-0.347c-0.244-0.099-0.292-0.146-0.292-0.243v-0.39c0-0.147,0.146-0.248,0.439-0.348
			c1.716-0.781,3.922-1.664,5.735-2.84c0.44-0.296,0.735-0.394,1.031-0.394c0.341,0,0.439,0.245,0.391,0.882
			c-0.05,2.699-0.197,12.891-0.197,15.589V168.845z"/>
		<path fill="#695C57" d="M113.757,170.415c-0.096,0.441-0.146,1.223-0.146,2.352c0,4.804,3.039,8.43,6.961,8.43
			c2.99,0,5.097-1.714,5.929-3.331c0.1-0.196,0.298-0.295,0.44-0.245l0.639,0.343c0.149,0.048,0.244,0.195,0,0.736
			c-0.881,1.961-3.43,5.343-7.793,5.343c-2.793,0-5.881-0.837-7.695-3.48c-1.715-2.501-2.158-4.315-2.158-7.747
			c0-1.91,0.493-5.192,3.09-7.792c2.107-2.157,4.561-2.597,7.008-2.597c5.638,0,7.207,5.295,7.207,7.205
			c0,0.685-0.588,0.784-1.373,0.784H113.757z M121.553,168.942c0.928,0,1.321-0.245,1.321-0.687c0-1.125-0.59-4.357-3.775-4.357
			c-2.154,0-4.215,1.417-5.146,5.044H121.553z"/>
		<path fill="#695C57" d="M146.205,170.415c0-2.502-0.391-2.992-1.764-3.725l-0.932-0.492c-0.297-0.099-0.393-0.146-0.393-0.342
			v-0.295c0-0.196,0.096-0.296,0.393-0.44l4.852-2.5c0.296-0.147,0.49-0.195,0.689-0.195c0.291,0,0.34,0.293,0.34,0.588l0.246,3.383
			h0.195c1.471-2.256,3.774-4.265,5.881-4.265c1.668,0,2.502,1.027,2.502,2.153c0,1.425-1.178,2.405-2.061,2.405
			c-0.537,0-1.029-0.197-1.421-0.395c-0.394-0.244-0.98-0.392-1.619-0.392c-0.783,0-2.059,0.492-2.891,2.061
			c-0.293,0.537-0.492,1.421-0.492,1.566v10.293c0,1.52,0.346,2.013,1.373,2.013h2.303c0.298,0,0.346,0.144,0.346,0.439v0.881
			c0,0.296-0.048,0.441-0.246,0.441c-0.293,0-2.549-0.146-5.195-0.146c-3.039,0-5.1,0.146-5.393,0.146
			c-0.193,0-0.293-0.096-0.293-0.489v-0.833c0-0.344,0.1-0.439,0.539-0.439h1.912c0.736,0,1.078-0.297,1.078-0.934
			c0.049-1.616,0.049-3.333,0.049-5.883V170.415z"/>
		<path fill="#695C57" d="M174.879,177.62c0,2.792,0.586,3.674,1.471,3.674c0.783,0,1.47-0.391,1.713-0.732
			c0.199-0.247,0.297-0.345,0.492-0.198l0.488,0.395c0.148,0.146,0.248,0.39-0.047,0.882c-0.393,0.732-1.326,2.402-3.824,2.402
			c-1.764,0-3.039-1.275-3.48-3.284h-0.098c-1.031,1.223-2.646,2.252-4.854,2.988c-0.932,0.296-1.809,0.296-2.891,0.296
			c-1.177,0-2.939-0.982-2.939-4.07c0-2.254,1.029-4.216,4.898-5.933c2.209-0.979,4.754-2.154,5.539-2.842v-3.137
			c-0.098-0.832-0.145-2.106-0.684-2.745c-0.539-0.636-1.52-1.077-2.94-1.077c-0.983,0-2.501,0.394-3.188,1.027
			c-0.686,0.639-0.246,1.375-0.246,2.259c0,1.713-0.585,2.791-2.596,2.791c-0.783,0-1.178-0.439-1.178-1.566
			c0-1.57,1.375-3.434,3.385-4.608c2.059-1.223,3.773-1.715,5.979-1.715c2.303,0,3.234,0.686,3.921,1.322
			c1.027,1.029,1.079,2.156,1.079,3.48v7.501V177.62z M171.299,172.669c-1.764,1.324-6.567,2.304-6.567,6.371
			c0,1.816,1.077,2.696,2.548,2.696c1.422,0,4.02-1.716,4.02-3.037V172.669z"/>
		<path fill="#695C57" d="M182.523,182.619c-0.244-0.146-0.244-0.441-0.295-0.687l-0.832-4.656
			c-0.051-0.247,0.098-0.345,0.293-0.392l0.639-0.146c0.195-0.052,0.342,0.05,0.44,0.291l1.228,2.405
			c0.979,1.813,1.664,3.038,4.266,3.038c1.714,0,3.871-1.029,3.871-3.333c0-2.208-1.08-3.479-4.756-4.512
			c-2.889-0.832-5.783-2.352-5.783-6.224c0-3.382,3.186-5.979,6.861-5.979c2.353,0,3.629,0.588,4.511,1.027
			c0.731,0.343,0.834,0.59,0.88,0.885l0.738,3.43c0,0.197-0.102,0.345-0.344,0.44l-0.588,0.196c-0.195,0.05-0.295,0-0.443-0.246
			l-1.666-2.254c-0.588-0.932-1.52-1.91-3.43-1.91c-1.863,0-3.777,1.127-3.777,3.234c0,2.841,2.307,3.382,4.711,4.067
			c3.574,1.031,5.83,2.5,5.878,6.274c-0.048,3.97-3.284,6.472-7.45,6.472C185.072,184.042,183.115,183.06,182.523,182.619z"/>
		<path fill="#695C57" d="M202.18,171.592c0,2.646,1.174,5.635,2.498,7.448c1.617,2.107,3.68,2.5,5.344,2.5
			c2.449,0,3.725-0.537,5.393-2.105c0.098-0.102,0.244-0.147,0.391,0l0.49,0.49c0.195,0.196,0.244,0.342,0,0.637
			c-1.422,1.616-4.559,3.48-7.889,3.48c-2.6,0-5.346-0.589-7.601-3.433c-1.812-2.405-2.204-4.46-2.204-6.666
			c0-5.735,4.021-11.518,10.488-11.518c5.098,0,6.668,2.939,6.668,3.971c-0.051,1.128-0.785,1.716-1.816,1.716
			c-1.127,0-1.961-0.639-2.695-1.963c-1.076-2.009-2.107-2.155-3.283-2.155C205.168,163.994,202.18,166.543,202.18,171.592z"/>
		<path fill="#695C57" d="M233.891,177.62c0,2.792,0.59,3.674,1.471,3.674c0.784,0,1.471-0.391,1.716-0.732
			c0.194-0.247,0.296-0.345,0.493-0.198l0.486,0.395c0.148,0.146,0.248,0.39-0.05,0.882c-0.392,0.732-1.325,2.402-3.82,2.402
			c-1.767,0-3.04-1.275-3.481-3.284h-0.1c-1.029,1.223-2.645,2.252-4.852,2.988c-0.93,0.296-1.812,0.296-2.893,0.296
			c-1.176,0-2.939-0.982-2.939-4.07c0-2.254,1.029-4.216,4.902-5.933c2.205-0.979,4.752-2.154,5.537-2.842v-3.137
			c-0.096-0.832-0.145-2.106-0.688-2.745c-0.536-0.636-1.52-1.077-2.938-1.077c-0.982,0-2.5,0.394-3.188,1.027
			c-0.688,0.639-0.244,1.375-0.244,2.259c0,1.713-0.588,2.791-2.598,2.791c-0.785,0-1.178-0.439-1.178-1.566
			c0-1.57,1.37-3.434,3.381-4.608c2.061-1.223,3.775-1.715,5.98-1.715c2.305,0,3.235,0.686,3.922,1.322
			c1.031,1.029,1.078,2.156,1.078,3.48v7.501V177.62z M230.312,172.669c-1.764,1.324-6.566,2.304-6.566,6.371
			c0,1.816,1.078,2.696,2.547,2.696c1.422,0,4.02-1.716,4.02-3.037V172.669z"/>
		<path fill="#695C57" d="M246.582,168.845c0,2.55,0,9.951,0.049,11.47c0.051,0.833,0.248,1.522,1.277,1.522h2.205
			c0.441,0,0.541,0.144,0.541,0.439v0.833c0,0.292-0.1,0.489-0.297,0.489c-0.34,0-2.5-0.146-5.539-0.146
			c-3.135,0-5.098,0.146-5.535,0.146c-0.249,0-0.347-0.197-0.347-0.489v-0.833c0-0.344,0.098-0.439,0.64-0.439h2.352
			c0.541,0,1.029-0.347,1.08-1.228c0.05-1.52,0.05-9.949,0.05-12.792v-3.088c0-3.481-0.05-7.939-0.151-9.216
			c-0.098-1.666-0.88-2.451-2.445-2.938l-0.986-0.347c-0.24-0.099-0.291-0.146-0.291-0.243v-0.39c0-0.147,0.146-0.248,0.441-0.348
			c1.717-0.781,3.92-1.664,5.732-2.84c0.445-0.296,0.736-0.394,1.029-0.394c0.344,0,0.443,0.245,0.395,0.882
			c-0.051,2.699-0.199,12.891-0.199,15.589V168.845z"/>
		<path fill="#695C57" d="M254.083,182.619c-0.243-0.146-0.243-0.441-0.296-0.687l-0.828-4.656
			c-0.051-0.247,0.097-0.345,0.291-0.392l0.639-0.146c0.194-0.052,0.344,0.05,0.439,0.291l1.229,2.405
			c0.977,1.813,1.664,3.038,4.264,3.038c1.715,0,3.871-1.029,3.871-3.333c0-2.208-1.078-3.479-4.756-4.512
			c-2.89-0.832-5.782-2.352-5.782-6.224c0-3.382,3.185-5.979,6.862-5.979c2.352,0,3.627,0.588,4.508,1.027
			c0.734,0.343,0.836,0.59,0.885,0.885l0.731,3.43c0,0.197-0.097,0.345-0.341,0.44l-0.587,0.196c-0.198,0.05-0.3,0-0.44-0.246
			l-1.67-2.254c-0.586-0.932-1.518-1.91-3.43-1.91c-1.863,0-3.775,1.127-3.775,3.234c0,2.841,2.306,3.382,4.705,4.067
			c3.579,1.031,5.832,2.5,5.885,6.274c-0.053,3.97-3.283,6.472-7.451,6.472C256.633,184.042,254.672,183.06,254.083,182.619z"/>
		<path fill="#695C57" d="M62.832,181.837H60.58c-0.541,0-0.687-0.347-0.786-1.275c-0.048-0.541-0.048-2.305-0.048-4.217v-5.342
			c0-4.069,0-7.155,0.098-7.989c0.05-0.345,0-0.588-0.247-0.588c-0.292,0-0.537,0.099-0.932,0.293
			c-1.861,1.029-3.723,1.813-5.289,2.402c-0.246,0.099-0.347,0.194-0.347,0.345v0.438c0,0.195,0.102,0.294,0.443,0.342
			c2.449,0.395,2.743,1.278,2.743,2.94v7.208c0,1.471,0,2.988-0.048,4.462c-0.05,0.783-0.246,0.98-0.784,0.98h-2.402
			c-0.343,0-0.49,0.096-0.49,0.392v0.977c0,0.298,0.147,0.394,0.393,0.394c0.541,0,2.45-0.146,5.292-0.146
			c2.059,0,4.315,0.146,4.708,0.146c0.339,0,0.441-0.146,0.441-0.489v-0.833C63.325,181.98,63.223,181.837,62.832,181.837z"/>
		<path fill="#E2592F" d="M58.669,158.304c-1.532-1.211-3.309-2.354-4.401-4.023c-0.771-1.176-1.187-3.438,0.824-3.607
			c1.156-0.099,1.905,0.802,2.64,1.534l0.454,0.453c0.711-0.952,1.779-2.088,3.09-2.044c0.894,0.03,1.455,0.841,1.441,1.652
			c-0.024,1.429-0.912,2.533-1.834,3.54C60.697,156.018,58.638,158.277,58.669,158.304z"/>
	</g>
	<g>
		<path fill-rule="evenodd" clip-rule="evenodd" fill="#EDCD48" d="M199.273,57.325c6.533,3.966,14.141,4.232,19.504,1.72
			c2.771-1.299,5.777-3.385,7.105-7.633c1.314-4.207,0.098-7.443-1.374-10.13c-2.753-5.027-9.272-9.556-16.724-10.046
			c-3.291-0.212-6.277,0.188-9.229,1.546c-2.326,1.068-6.285,3.692-7.191,8.275c-0.992,5.027,1.271,8.928,2.946,12.337
			c-0.958,5.326-4.142,7.954-6.644,10.398C191.731,62.766,195.795,60.475,199.273,57.325z"/>
		<path fill="#FFFFFF" d="M206.234,54.289c-2.045-3.397-4.603-6.849-5.484-10.814c-0.619-2.777,0.205-7.38,4.15-6.26
			c2.275,0.644,3.059,2.896,3.926,4.817l0.534,1.175c2.046-1.297,4.886-2.692,7.339-1.669c1.674,0.7,2.166,2.646,1.559,4.178
			c-1.076,2.698-3.553,4.163-6.022,5.42C211.731,51.393,206.191,54.217,206.234,54.289z"/>
		<g>
			<path fill="#DCD3C1" d="M93.217,128.396c5.194-7.332,4.487-10.09,5.668-16.431c0.883-4.746-2.843-18.118-1.54-26.592
				c-1.896-6.336-9.524-6.223-14.125-2.827c-5.028,3.715-9.776,13.9-12.818,19.124c-2.986,5.129-9.268,7.736-12.172,12.819
				c-1.589,2.793-2.158,6.893-1.008,10.301c-1.93,0.937-3.93,1.018-5.963,0.213c-4.907-1.938-9.235-8.584-10.434-13.631
				c-2.553-10.751,1.637-19.053,13.588-26.915c0.602-0.396,0.769-1.203,0.374-1.807c-0.398-0.602-1.204-0.768-1.808-0.373
				c-8.754,5.76-18.338,14.34-14.692,29.697c1.166,4.906,5.664,12.943,12.014,15.453c1.246,0.492,2.5,0.737,3.746,0.737
				c1.474,0,2.929-0.346,4.337-1.029c0.892,1.284,2.144,2.351,3.826,3.015c4.527,1.786,15.007,0.059,19.923-0.017
				c-2.729,2.179-10.429,10.649-1.802,10.234c3.481-0.163,7.017-7.109,7.537-10.298c2.158,2.51,7.012,11.359,11.633,9.579
				C105.602,137.305,95.186,129.878,93.217,128.396z"/>
			<path fill="#DCD3C1" d="M65.47,54.669c-0.397,2.731,0.063,6.705,2.503,8.121c2.458,1.428,7.42-3.986,8.693-2.847
				C73.198,56.846,70.517,54.285,65.47,54.669z"/>
			<path fill="#E977AF" d="M71.596,58.116c-1.166-0.753-2.44-1.197-4.179-1.066c-0.232,1.599,0.021,3.891,1.361,4.826
				C69.372,60.513,70.334,59.232,71.596,58.116z"/>
			<path fill="#DCD3C1" d="M109.421,48.128c1.174,2.498,1.893,6.436-0.03,8.498c-1.935,2.083-8.257-1.652-9.147-0.19
				C102.663,52.463,104.484,49.23,109.421,48.128z"/>
			<path fill="#E977AF" d="M108.256,55.578c0.009-0.007,0.021-0.015,0.026-0.021c1.17-1.254,0.73-3.645,0.02-5.162
				c-1.764,0.395-2.872,1.238-3.786,2.355C106.035,53.473,107.316,54.429,108.256,55.578z"/>
			<g>
				<path fill="#DCD3C1" d="M112.611,64.058c-1.334-8.954-12.572-14.701-25.102-12.836c-12.534,1.864-21.612,10.636-20.281,19.589
					c0.699,4.702,4.14,8.519,9.059,10.814C76.535,69.196,85.6,57.79,88.44,57.367C91,56.985,102.771,64,107.124,77.013
					C111.143,73.389,113.309,68.749,112.611,64.058z"/>
				<path fill="#DCD3C1" d="M88.44,57.367C85.6,57.79,76.535,69.196,76.286,81.625c4.443,2.071,10.096,2.905,16.045,2.021
					c5.961-0.887,11.142-3.342,14.792-6.633C102.771,64,91,56.985,88.44,57.367z"/>
			</g>
			<path fill="#E977AF" d="M93.681,76.49c0.167,1.104-0.891,2.179-1.892,2.326c-0.999,0.15-2.323-0.567-2.486-1.674
				c-0.165-1.107,0.73-1.391,1.94-1.569C92.454,75.396,93.518,75.386,93.681,76.49z"/>
			<g>
				<g>
					<path fill="none" stroke="#695C57" d="M87.787,77.988c0,0-20.157-1.752-33.695,0.267"/>
					<path fill="none" stroke="#695C57" d="M87.927,80.022c0,0-19.984,3.145-32.645,8.352"/>
				</g>
				<g>
					<path fill="none" stroke="#695C57" d="M95.377,76.859c0,0,18.774-7.544,32.313-9.56"/>
					<path fill="none" stroke="#695C57" d="M95.837,78.844c0,0,20.033-2.811,33.66-1.513"/>
				</g>
			</g>
			<ellipse fill="#FFFFFF" cx="89.202" cy="110.363" rx="6.187" ry="11.514"/>
			<g>
				<path fill="#58595B" d="M195.562,112.102c0.904,0.094,2.027-3.51,2.51-8.058c-1.045,0.064-2.156,0.13-3.34,0.176
					C194.34,108.534,194.691,112.008,195.562,112.102z"/>
				<path fill="#58595B" d="M200.796,112.651c0.911,0.096,2.042-3.548,2.524-8.135c0.018-0.199,0.037-0.398,0.054-0.594
					c-1.009-0.072-2.108-0.052-3.323,0.008c-0.008,0.082-0.02,0.159-0.025,0.239C199.543,108.757,199.887,112.554,200.796,112.651z"
					/>
				<path fill="#58595B" d="M190.121,113.497c0.91,0.094,2.039-3.547,2.523-8.135c0.037-0.37,0.066-0.738,0.098-1.099
					c-1.049,0.006-2.147-0.017-3.299-0.084c-0.033,0.276-0.066,0.554-0.096,0.836C188.865,109.604,189.213,113.401,190.121,113.497z
					"/>
				<path fill="#58595B" d="M205.828,115.149c0.912,0.096,2.035-3.546,2.521-8.136c0.121-1.144,0.188-2.242,0.211-3.242
					c-1.129,0.092-2.18,0.174-3.131,0.203c-0.145,0.844-0.275,1.748-0.375,2.694C204.572,111.254,204.919,115.054,205.828,115.149z"
					/>
			</g>
			<path fill="#DCD3C1" d="M262.07,89.628l-0.043-0.593c-0.049-0.721-0.648-1.256-1.391-1.212c-0.719,0.05-1.262,0.67-1.209,1.392
				l0.041,0.595c0.465,6.657,0.903,12.949-3.066,18.472c-3.545,4.933-9.092,8.545-14.83,9.669c-2.222,0.433-5.009,0.448-7.629-0.075
				c-0.484-3.655-2.082-7.6-5.637-10.09c-7.17-5.023-14.35-4.453-19.746-4.014c-0.023,1-0.09,2.099-0.211,3.242
				c-0.486,4.59-1.609,8.231-2.521,8.136c-0.909-0.096-1.256-3.896-0.773-8.48c0.1-0.946,0.23-1.851,0.375-2.694
				c-0.639,0.021-1.236,0.015-1.789-0.034c-0.088-0.01-0.176-0.014-0.267-0.018c-0.017,0.195-0.036,0.395-0.054,0.594
				c-0.482,4.587-1.613,8.23-2.524,8.135c-0.909-0.098-1.253-3.895-0.771-8.481c0.006-0.08,0.018-0.157,0.025-0.239
				c-0.629,0.03-1.289,0.072-1.979,0.113c-0.482,4.548-1.605,8.151-2.51,8.058c-0.871-0.094-1.223-3.567-0.83-7.882
				c-0.643,0.021-1.305,0.038-1.99,0.044c-0.031,0.36-0.061,0.729-0.098,1.099c-0.484,4.588-1.613,8.229-2.523,8.135
				c-0.908-0.096-1.256-3.894-0.773-8.481c0.029-0.282,0.062-0.56,0.096-0.836c-4.486-0.255-9.754-1.185-15.898-3.771
				c-4.359-1.834-4.539,0.023-8.574,0.023l-0.473,0.237c0.609,10.326-8.699,12.077-16.313,12.467
				c-1.682,0.088-4.059-1.088-5.432-1.088c-3.262,0-3.961,1.14-4.3,3.136c-1.025,6.004,17.667,3.731,21.302,4.467
				c-0.523,1.125-2.838,3.28-5.66,4.821c-1.17,0.644-2.987,0.329-3.909,1.143c-1.891,1.66-2.375,4.595-1.711,5.808
				c2.312,4.229,13.77-0.797,16.733-2.986c4.842-3.572,6.812-8.842,12.801-6.18c10.477,4.663,22.211-2.64,26.706,1.047
				c6.295,5.162-2.214,7.204-7.716,8.683c-1.736,0.468-2.461-1.457-4.115,0.31c-7.008,7.497,8.697,4.934,12.061,4.727
				c9.535-0.587,27.863-3.995,29.055-14.528c0.072-0.609,0.107-1.269,0.109-1.949c1.317,0.219,2.641,0.334,3.912,0.334
				c1.451,0,2.836-0.133,4.049-0.371c6.379-1.249,12.526-5.249,16.449-10.703C263.039,103.513,262.545,96.455,262.07,89.628z"/>
			<path fill="#DCD3C1" d="M138.636,81.379c0.082,2.761,1.217,6.596,3.865,7.572c2.664,0.984,6.621-5.203,8.074-4.302
				C146.625,82.196,143.542,80.134,138.636,81.379z"/>
			<path fill="#E977AF" d="M145.265,83.724c-1.273-0.543-2.609-0.761-4.299-0.336c0.049,1.618,0.689,3.83,2.17,4.523
				C143.488,86.466,144.218,85.04,145.265,83.724z"/>
			<path fill="#DCD3C1" d="M180.812,67.375c1.585,2.26,2.972,6.015,1.435,8.377c-1.551,2.388-8.422-0.208-9.051,1.386
				C174.896,72.809,176.139,69.313,180.812,67.375z"/>
			<path fill="#E977AF" d="M180.947,74.916c0.004-0.011,0.016-0.018,0.023-0.026c0.932-1.437,0.092-3.717-0.873-5.087
				c-1.67,0.693-2.615,1.711-3.322,2.968C178.393,73.224,179.818,73.946,180.947,74.916z"/>
			<g>
				<path fill="#DCD3C1" d="M181.473,87.035c-0.244-0.735,2.109-2.2,5.498-3.517c-0.096-0.46-0.213-0.924-0.365-1.378
					c-0.064-0.198-0.139-0.397-0.219-0.589c-3.531,0.987-6.326,1.227-6.572,0.488c-0.232-0.701,1.875-2.06,4.994-3.319
					c-3.152-4.207-9.046-6.571-15.783-6.501c0.617,2.708,0.682,4.697,0.064,4.901c-0.678,0.223-1.971-1.745-3.197-4.698
					c-0.684,0.08-1.373,0.184-2.068,0.316c1.314,4.142,1.717,7.622,0.887,7.899c-0.85,0.282-2.668-2.885-4.104-7.118
					c-0.313,0.094-0.624,0.189-0.935,0.291c-0.314,0.106-0.619,0.216-0.924,0.328c1.377,4.253,1.814,7.874,0.965,8.156
					c-0.828,0.275-2.592-2.753-4.018-6.858c-0.633,0.309-1.248,0.641-1.846,0.984c0.785,3.099,0.928,5.45,0.249,5.676
					c-0.616,0.204-1.754-1.426-2.879-3.966c-5.441,3.975-8.751,9.393-8.758,14.65c3.252-0.854,5.752-1.028,5.985-0.328
					c0.243,0.741-2.136,2.218-5.559,3.542c0.052,0.2,0.108,0.402,0.175,0.603c0.15,0.456,0.335,0.894,0.535,1.32
					c3.504-0.973,6.264-1.205,6.507-0.467c0.224,0.676-1.762,1.976-4.728,3.209c4.783,5.597,14.714,7.554,24.624,4.263
					c9.91-3.291,16.695-10.798,17.184-18.146C184.068,87.566,181.699,87.712,181.473,87.035z"/>
				<path fill="#DCD3C1" d="M164.711,80.639c0.83-0.277,0.428-3.758-0.887-7.899c-1.066,0.2-2.141,0.461-3.218,0.781
					C162.043,77.754,163.861,80.921,164.711,80.639z"/>
				<path fill="#DCD3C1" d="M159.713,82.296c0.85-0.282,0.412-3.903-0.965-8.156c-1.059,0.386-2.074,0.822-3.053,1.298
					C157.121,79.543,158.885,82.571,159.713,82.296z"/>
				<path fill="#DCD3C1" d="M169.09,77.121c0.617-0.204,0.553-2.193-0.064-4.901c-1.027,0.009-2.074,0.078-3.133,0.203
					C167.119,75.376,168.412,77.344,169.09,77.121z"/>
				<path fill="#DCD3C1" d="M154.098,82.098c0.68-0.226,0.536-2.577-0.249-5.676c-0.924,0.533-1.803,1.104-2.631,1.71
					C152.343,80.672,153.482,82.302,154.098,82.098z"/>
				<path fill="#DCD3C1" d="M148.446,92.454c-0.233-0.7-2.733-0.526-5.985,0.328c0,1.085,0.137,2.158,0.427,3.214
					C146.31,94.672,148.689,93.195,148.446,92.454z"/>
				<path fill="#DCD3C1" d="M150.104,97.452c-0.243-0.738-3.003-0.506-6.507,0.467c0.465,0.991,1.066,1.906,1.779,2.742
					C148.342,99.428,150.328,98.128,150.104,97.452z"/>
				<path fill="#DCD3C1" d="M179.814,82.04c0.246,0.738,3.041,0.499,6.572-0.488c-0.398-1.021-0.93-1.965-1.578-2.831
					C181.689,79.98,179.582,81.339,179.814,82.04z"/>
				<path fill="#DCD3C1" d="M181.473,87.035c0.227,0.677,2.596,0.531,5.711-0.258c0.072-1.095,0.004-2.186-0.213-3.259
					C183.582,84.835,181.229,86.3,181.473,87.035z"/>
			</g>
			<path fill="#E977AF" d="M169.47,96.631c0.353,1.061-0.505,2.299-1.464,2.618c-0.961,0.318-2.387-0.162-2.74-1.226
				c-0.352-1.057,0.482-1.491,1.641-1.877C168.068,95.763,169.113,95.568,169.47,96.631z"/>
			<g>
				<g>
					<path fill="none" stroke="#695C57" d="M164.154,98.379c0,0-18.043,1.845-29.731,5.726"/>
					<path fill="none" stroke="#695C57" d="M164.551,100.039c0,0-17.227,5.869-27.704,12.25"/>
				</g>
				<g>
					<path fill="none" stroke="#695C57" d="M170.706,96.202c0,0,15.562-9.313,27.249-13.193"/>
					<path fill="none" stroke="#695C57" d="M171.377,97.773c0,0,17.32-5.603,29.532-6.757"/>
				</g>
			</g>
			<g>
				<path fill="none" stroke="#231E20" d="M162.859,93.455c0,0-2.763-2.64-5.221-2.045c-2.451,0.59-3.421,3.423-3.421,3.423"/>
				<path fill="none" stroke="#231E20" d="M178.252,89.74c0,0-2.762-2.639-5.217-2.05c-2.449,0.593-3.424,3.426-3.424,3.426"/>
			</g>
			<g>
				<path fill="none" stroke="#231E20" d="M87.179,70.106c0,0-2.254-3.082-4.775-2.933c-2.521,0.147-3.972,2.765-3.972,2.765"/>
				<path fill="none" stroke="#231E20" d="M102.989,69.165c0,0-2.254-3.085-4.775-2.937c-2.521,0.153-3.976,2.771-3.976,2.771"/>
			</g>
			<polygon fill="#6CB4B0" points="261.979,95.698 261.416,95.512 261.503,94.876 261.477,94.16 261.203,93.279 260.709,92.621 
				259.861,91.727 258.898,91.05 257.311,89.99 256.252,91.176 254.66,93.286 253.983,94.254 254.469,94.771 255.053,95.278 
				255.668,95.651 256.695,95.782 255.207,96.658 254.131,97.749 253.08,98.936 252.043,99.911 251.302,100.678 254.158,101.37 
				254.286,102.698 254.51,103.605 254.775,104.271 255.566,103.473 256.402,102.564 257.662,101.316 258.498,100.535 
				259.32,99.666 260.043,98.977 260.621,98.287 260.82,97.962 260.971,97.523 260.971,96.989 261.192,96.977 261.379,97.09 
				261.389,98.107 261.41,100.009 261.846,102.008 262.137,104.667 262.352,106.556 262.229,106.907 263.156,106.245 263.994,105.6 
				264.615,105.191 265.726,105.824 266.568,106.204 267.703,106.63 267.107,104.352 266.699,102.008 266.422,100.595 
				266.084,99.368 266.949,99.308 267.674,99.11 268.043,99.062 268.193,97.962 268.25,97.007 268.115,96.215 268.051,95.351 
				267.999,94.584 267.955,93.552 266.809,93.524 265.426,93.678 264.439,94.01 263.223,94.483 262.371,95.169 			"/>
			<polygon fill="#E2592F" points="89.854,88.952 89.094,89.025 88.858,88.23 88.458,87.395 87.662,86.493 86.74,85.976 
				85.269,85.36 83.766,85.064 81.337,84.632 80.7,86.6 79.922,89.94 79.631,91.438 80.482,91.796 81.437,92.085 82.374,92.215 
				83.643,91.824 82.343,93.636 81.651,95.499 81.019,97.461 80.308,99.161 79.826,100.455 83.574,99.776 84.425,101.274 
				85.17,102.244 85.826,102.892 86.353,101.532 86.861,100.015 87.699,97.867 88.277,96.507 88.793,95.038 89.276,93.853 
				89.61,92.732 89.669,92.236 89.621,91.646 89.338,91.015 89.6,90.888 89.874,90.913 90.421,92.113 91.452,94.358 93.01,96.497 
				94.76,99.491 95.995,101.607 96.042,102.096 96.796,100.825 97.442,99.617 97.969,98.81 99.611,98.981 100.81,98.977 
				102.389,98.878 100.471,96.507 98.755,93.941 97.693,92.412 96.65,91.149 97.632,90.617 98.389,90.007 98.801,89.748 
				98.402,88.372 97.969,87.213 97.39,86.34 96.863,85.355 96.397,84.471 95.799,83.281 94.438,83.841 92.886,84.75 91.885,85.665 
				90.694,86.857 90.045,88.125 			"/>
		</g>
	</g>
</g>
<g>
	<path fill="#6AB4B0" d="M104.32,199.82l-1.507,0.938c-1.302-1.729-3.078-2.593-5.33-2.593c-1.799,0-3.293,0.579-4.482,1.736
		s-1.783,2.562-1.783,4.218c0,1.075,0.273,2.089,0.82,3.038s1.297,1.686,2.251,2.211c0.954,0.523,2.022,0.786,3.207,0.786
		c2.17,0,3.942-0.864,5.316-2.593l1.507,0.99c-0.706,1.063-1.654,1.889-2.844,2.475c-1.19,0.586-2.546,0.879-4.066,0.879
		c-2.335,0-4.272-0.742-5.811-2.227c-1.539-1.484-2.308-3.29-2.308-5.417c0-1.431,0.359-2.759,1.079-3.985s1.708-2.183,2.967-2.871
		c1.258-0.688,2.666-1.032,4.222-1.032c0.978,0,1.921,0.149,2.831,0.448s1.681,0.688,2.315,1.167
		C103.338,198.468,103.876,199.078,104.32,199.82z"/>
	<path fill="#6AB4B0" d="M122.69,196.752v14.772h-1.874v-2.539c-0.796,0.969-1.69,1.697-2.681,2.187
		c-0.991,0.488-2.075,0.732-3.252,0.732c-2.091,0-3.876-0.758-5.356-2.273c-1.48-1.517-2.22-3.361-2.22-5.533
		c0-2.127,0.747-3.946,2.24-5.458c1.494-1.511,3.29-2.268,5.39-2.268c1.213,0,2.311,0.258,3.292,0.774
		c0.982,0.516,1.844,1.29,2.586,2.322v-2.715H122.69z M115.094,198.205c-1.058,0-2.034,0.26-2.929,0.78
		c-0.896,0.52-1.607,1.25-2.136,2.191c-0.529,0.939-0.793,1.935-0.793,2.982c0,1.041,0.267,2.035,0.8,2.984s1.25,1.688,2.149,2.217
		c0.899,0.529,1.865,0.794,2.896,0.794c1.04,0,2.025-0.263,2.957-0.786c0.931-0.525,1.647-1.234,2.149-2.13
		c0.501-0.896,0.752-1.903,0.752-3.024c0-1.709-0.562-3.137-1.688-4.285C118.125,198.779,116.739,198.205,115.094,198.205z"/>
	<path fill="#6AB4B0" d="M128.624,191.267h1.901v5.485h3.014v1.643h-3.014v13.129h-1.901v-13.129h-2.593v-1.643h2.593V191.267z"/>
	<path fill="#6AB4B0" d="M151.515,198.368l-1.222,1.263c-1.017-0.986-2.01-1.48-2.981-1.48c-0.617,0-1.146,0.204-1.586,0.611
		c-0.44,0.408-0.66,0.883-0.66,1.426c0,0.48,0.181,0.938,0.544,1.371c0.363,0.443,1.125,0.965,2.286,1.562
		c1.415,0.733,2.376,1.439,2.884,2.118c0.499,0.688,0.748,1.462,0.748,2.322c0,1.213-0.426,2.24-1.278,3.082
		c-0.852,0.842-1.917,1.262-3.195,1.262c-0.852,0-1.666-0.186-2.441-0.557s-1.417-0.883-1.924-1.534l1.195-1.357
		c0.971,1.095,2,1.643,3.089,1.643c0.762,0,1.411-0.244,1.946-0.733c0.535-0.488,0.803-1.062,0.803-1.725
		c0-0.543-0.177-1.026-0.53-1.452c-0.354-0.416-1.152-0.941-2.395-1.575c-1.333-0.688-2.241-1.366-2.721-2.036
		c-0.481-0.67-0.721-1.435-0.721-2.294c0-1.123,0.383-2.055,1.149-2.797c0.766-0.742,1.734-1.114,2.903-1.114
		C148.767,196.372,150.136,197.038,151.515,198.368z"/>
	<path fill="#6AB4B0" d="M155.54,190.67c0.434,0,0.803,0.154,1.109,0.461c0.307,0.308,0.459,0.679,0.459,1.113
		c0,0.426-0.152,0.792-0.459,1.1s-0.676,0.461-1.109,0.461c-0.423,0-0.788-0.154-1.094-0.461c-0.307-0.308-0.46-0.674-0.46-1.1
		c0-0.434,0.154-0.805,0.46-1.113C154.752,190.824,155.117,190.67,155.54,190.67z M154.597,196.752h1.901v14.772h-1.901V196.752z"/>
	<path fill="#6AB4B0" d="M162.104,191.267h1.901v5.485h3.015v1.643h-3.015v13.129h-1.901v-13.129h-2.593v-1.643h2.593V191.267z"/>
	<path fill="#6AB4B0" d="M171.527,191.267h1.901v5.485h3.014v1.643h-3.014v13.129h-1.901v-13.129h-2.593v-1.643h2.593V191.267z"/>
	<path fill="#6AB4B0" d="M179.952,190.67c0.433,0,0.803,0.154,1.108,0.461c0.307,0.308,0.46,0.679,0.46,1.113
		c0,0.426-0.153,0.792-0.46,1.1c-0.306,0.308-0.676,0.461-1.108,0.461c-0.424,0-0.789-0.154-1.095-0.461
		c-0.307-0.308-0.46-0.674-0.46-1.1c0-0.434,0.153-0.805,0.46-1.113C179.163,190.824,179.528,190.67,179.952,190.67z
		 M179.009,196.752h1.9v14.772h-1.9V196.752z"/>
	<path fill="#6AB4B0" d="M184.86,196.752h1.9v2.648c0.761-1.014,1.603-1.772,2.525-2.274c0.924-0.502,1.928-0.754,3.014-0.754
		c1.105,0,2.085,0.281,2.939,0.842c0.855,0.562,1.487,1.317,1.895,2.268c0.408,0.95,0.611,2.431,0.611,4.44v7.603h-1.9v-7.046
		c0-1.702-0.071-2.838-0.212-3.408c-0.22-0.979-0.644-1.713-1.268-2.207c-0.624-0.493-1.439-0.74-2.444-0.74
		c-1.149,0-2.18,0.38-3.09,1.14c-0.909,0.761-1.509,1.702-1.799,2.824c-0.181,0.733-0.271,2.073-0.271,4.02v5.417h-1.9V196.752z"/>
	<path fill="#6AB4B0" d="M214.554,196.752h1.9v11.771c0,2.073-0.181,3.59-0.543,4.549c-0.498,1.357-1.362,2.403-2.594,3.137
		c-1.23,0.732-2.711,1.1-4.439,1.1c-1.268,0-2.405-0.18-3.414-0.538c-1.01-0.358-1.831-0.84-2.465-1.443
		c-0.633-0.604-1.217-1.487-1.751-2.648h2.063c0.562,0.978,1.287,1.701,2.176,2.172c0.887,0.471,1.988,0.706,3.303,0.706
		c1.295,0,2.391-0.241,3.283-0.724c0.893-0.483,1.529-1.089,1.91-1.819c0.38-0.731,0.57-1.911,0.57-3.539v-0.761
		c-0.716,0.905-1.59,1.601-2.623,2.084c-1.033,0.484-2.129,0.727-3.289,0.727c-1.359,0-2.637-0.337-3.833-1.012
		c-1.196-0.674-2.12-1.581-2.772-2.722s-0.979-2.395-0.979-3.762c0-1.366,0.34-2.641,1.02-3.821s1.619-2.116,2.82-2.804
		c1.2-0.688,2.467-1.032,3.799-1.032c1.105,0,2.136,0.229,3.092,0.686c0.955,0.457,1.877,1.21,2.766,2.26V196.752z M208.946,198.205
		c-1.077,0-2.077,0.26-3,0.781c-0.924,0.52-1.648,1.241-2.173,2.159c-0.525,0.919-0.788,1.912-0.788,2.98
		c0,1.62,0.543,2.959,1.63,4.019c1.086,1.06,2.493,1.589,4.222,1.589c1.748,0,3.152-0.525,4.217-1.575
		c1.062-1.05,1.595-2.431,1.595-4.142c0-1.113-0.244-2.105-0.733-2.979c-0.488-0.874-1.181-1.563-2.076-2.071
		C210.942,198.458,209.978,198.205,208.946,198.205z"/>
</g>
<g>
	<path fill="#695C57" d="M60.624,353.326h1.209v13.025h-1.209V353.326z"/>
	<path fill="#695C57" d="M64.766,353.084c0.275,0,0.51,0.098,0.705,0.294s0.292,0.433,0.292,0.708c0,0.271-0.098,0.504-0.292,0.7
		s-0.43,0.294-0.705,0.294c-0.27,0-0.502-0.098-0.697-0.294s-0.292-0.429-0.292-0.7c0-0.275,0.098-0.512,0.292-0.708
		S64.496,353.084,64.766,353.084z M64.165,356.954h1.209v9.397h-1.209V356.954z"/>
	<path fill="#695C57" d="M68.941,353.465h1.209v3.489h1.917v1.045H70.15v8.353h-1.209v-8.353h-1.65v-1.045h1.65V353.465z"/>
	<path fill="#695C57" d="M74.936,353.465h1.209v3.489h1.917v1.045h-1.917v8.353h-1.209v-8.353h-1.65v-1.045h1.65V353.465z"/>
	<path fill="#695C57" d="M79.695,353.326h1.209v13.025h-1.209V353.326z"/>
	<path fill="#695C57" d="M91.33,363.233l1.02,0.536c-0.334,0.656-0.721,1.186-1.159,1.589s-0.931,0.71-1.479,0.92
		c-0.547,0.21-1.167,0.315-1.859,0.315c-1.533,0-2.731-0.502-3.596-1.508c-0.865-1.004-1.297-2.141-1.297-3.407
		c0-1.192,0.366-2.255,1.098-3.188c0.928-1.187,2.17-1.779,3.726-1.779c1.602,0,2.881,0.608,3.838,1.823
		c0.68,0.857,1.026,1.929,1.037,3.213h-8.456c0.023,1.092,0.372,1.986,1.046,2.684c0.675,0.699,1.508,1.047,2.5,1.047
		c0.479,0,0.944-0.082,1.396-0.249c0.453-0.166,0.837-0.388,1.154-0.663C90.618,364.292,90.961,363.848,91.33,363.233z
		 M91.33,360.703c-0.161-0.646-0.396-1.16-0.705-1.547c-0.309-0.385-0.716-0.696-1.224-0.933c-0.508-0.235-1.041-0.354-1.6-0.354
		c-0.922,0-1.715,0.297-2.378,0.891c-0.484,0.432-0.851,1.079-1.098,1.943H91.33z"/>
	<path fill="#695C57" d="M94.457,356.954h1.235v1.373c0.368-0.541,0.757-0.946,1.166-1.214c0.409-0.268,0.835-0.401,1.278-0.401
		c0.334,0,0.691,0.106,1.071,0.319l-0.63,1.02c-0.253-0.109-0.466-0.164-0.639-0.164c-0.403,0-0.792,0.166-1.166,0.496
		c-0.375,0.332-0.66,0.846-0.855,1.543c-0.15,0.535-0.225,1.617-0.225,3.247v3.179h-1.235V356.954z"/>
	<path fill="#695C57" d="M109.598,356.954v9.397h-1.192v-1.615c-0.507,0.616-1.075,1.08-1.706,1.391
		c-0.63,0.311-1.32,0.467-2.068,0.467c-1.331,0-2.466-0.482-3.408-1.447s-1.412-2.138-1.412-3.52c0-1.354,0.475-2.511,1.425-3.473
		c0.95-0.961,2.093-1.442,3.429-1.442c0.772,0,1.47,0.164,2.095,0.493c0.625,0.328,1.173,0.82,1.646,1.477v-1.728H109.598z
		 M104.766,357.878c-0.673,0-1.294,0.165-1.864,0.497c-0.569,0.33-1.022,0.795-1.359,1.393s-0.504,1.23-0.504,1.898
		c0,0.661,0.169,1.294,0.509,1.898c0.339,0.604,0.795,1.074,1.368,1.41c0.572,0.336,1.186,0.504,1.842,0.504
		c0.662,0,1.289-0.166,1.881-0.5s1.048-0.785,1.367-1.354c0.319-0.57,0.479-1.211,0.479-1.925c0-1.087-0.358-1.995-1.074-2.726
		C106.694,358.244,105.812,357.878,104.766,357.878z"/>
	<path fill="#695C57" d="M117.044,357.982l-0.777,0.803c-0.647-0.627-1.279-0.941-1.896-0.941c-0.393,0-0.729,0.129-1.009,0.389
		c-0.28,0.259-0.42,0.562-0.42,0.906c0,0.306,0.116,0.597,0.346,0.873c0.231,0.282,0.716,0.613,1.454,0.993
		c0.9,0.466,1.512,0.915,1.835,1.348c0.317,0.438,0.476,0.93,0.476,1.478c0,0.771-0.271,1.424-0.813,1.96s-1.22,0.804-2.033,0.804
		c-0.542,0-1.06-0.119-1.553-0.354c-0.493-0.235-0.901-0.562-1.224-0.976l0.76-0.864c0.618,0.696,1.273,1.046,1.965,1.046
		c0.485,0,0.897-0.156,1.238-0.467c0.34-0.311,0.511-0.677,0.511-1.098c0-0.346-0.113-0.653-0.338-0.924
		c-0.225-0.265-0.733-0.599-1.523-1.002c-0.848-0.438-1.425-0.869-1.731-1.295c-0.306-0.427-0.459-0.913-0.459-1.461
		c0-0.713,0.244-1.307,0.731-1.779c0.487-0.472,1.103-0.708,1.847-0.708C115.296,356.712,116.167,357.135,117.044,357.982z"/>
	<path fill="#695C57" d="M128.307,358.906l-0.959,0.596c-0.828-1.1-1.958-1.65-3.391-1.65c-1.145,0-2.095,0.369-2.851,1.105
		s-1.135,1.631-1.135,2.683c0,0.685,0.174,1.329,0.522,1.933c0.348,0.604,0.826,1.072,1.432,1.406c0.607,0.334,1.287,0.5,2.041,0.5
		c1.38,0,2.508-0.549,3.382-1.648l0.959,0.63c-0.449,0.677-1.053,1.201-1.81,1.574c-0.757,0.372-1.62,0.56-2.587,0.56
		c-1.486,0-2.718-0.473-3.697-1.417c-0.979-0.944-1.469-2.093-1.469-3.446c0-0.91,0.229-1.755,0.687-2.535
		c0.458-0.78,1.087-1.389,1.887-1.826s1.696-0.657,2.686-0.657c0.622,0,1.222,0.095,1.801,0.285c0.579,0.19,1.069,0.438,1.473,0.743
		C127.682,358.045,128.025,358.434,128.307,358.906z"/>
	<path fill="#695C57" d="M139.994,356.954v9.397h-1.192v-1.615c-0.507,0.616-1.075,1.08-1.706,1.391
		c-0.63,0.311-1.32,0.467-2.068,0.467c-1.331,0-2.466-0.482-3.408-1.447s-1.412-2.138-1.412-3.52c0-1.354,0.475-2.511,1.425-3.473
		c0.95-0.961,2.093-1.442,3.429-1.442c0.772,0,1.47,0.164,2.095,0.493c0.625,0.328,1.173,0.82,1.646,1.477v-1.728H139.994z
		 M135.161,357.878c-0.673,0-1.294,0.165-1.864,0.497c-0.569,0.33-1.022,0.795-1.359,1.393s-0.504,1.23-0.504,1.898
		c0,0.661,0.169,1.294,0.509,1.898c0.339,0.604,0.795,1.074,1.368,1.41c0.572,0.336,1.186,0.504,1.842,0.504
		c0.662,0,1.289-0.166,1.881-0.5s1.048-0.785,1.367-1.354c0.319-0.57,0.479-1.211,0.479-1.925c0-1.087-0.358-1.995-1.074-2.726
		C137.089,358.244,136.208,357.878,135.161,357.878z"/>
	<path fill="#695C57" d="M142.533,353.326h1.209v13.025h-1.209V353.326z"/>
	<path fill="#695C57" d="M150.98,357.982l-0.777,0.803c-0.647-0.627-1.279-0.941-1.896-0.941c-0.393,0-0.729,0.129-1.009,0.389
		c-0.28,0.259-0.42,0.562-0.42,0.906c0,0.306,0.116,0.597,0.346,0.873c0.231,0.282,0.716,0.613,1.454,0.993
		c0.9,0.466,1.512,0.915,1.835,1.348c0.317,0.438,0.476,0.93,0.476,1.478c0,0.771-0.271,1.424-0.813,1.96s-1.22,0.804-2.033,0.804
		c-0.542,0-1.06-0.119-1.553-0.354c-0.493-0.235-0.901-0.562-1.224-0.976l0.76-0.864c0.618,0.696,1.273,1.046,1.965,1.046
		c0.485,0,0.897-0.156,1.238-0.467c0.34-0.311,0.511-0.677,0.511-1.098c0-0.346-0.113-0.653-0.338-0.924
		c-0.225-0.265-0.733-0.599-1.523-1.002c-0.848-0.438-1.425-0.869-1.731-1.295c-0.306-0.427-0.459-0.913-0.459-1.461
		c0-0.713,0.244-1.307,0.731-1.779c0.487-0.472,1.103-0.708,1.847-0.708C149.232,356.712,150.104,357.135,150.98,357.982z"/>
	<path fill="#695C57" d="M162.486,356.954v9.397h-1.192v-1.615c-0.507,0.616-1.075,1.08-1.706,1.391s-1.32,0.467-2.068,0.467
		c-1.33,0-2.467-0.482-3.408-1.447s-1.412-2.138-1.412-3.52c0-1.354,0.475-2.511,1.426-3.473c0.949-0.961,2.093-1.442,3.429-1.442
		c0.772,0,1.47,0.164,2.095,0.493c0.625,0.328,1.174,0.82,1.646,1.477v-1.728H162.486z M157.653,357.878
		c-0.673,0-1.294,0.165-1.864,0.497c-0.568,0.33-1.021,0.795-1.358,1.393s-0.505,1.23-0.505,1.898c0,0.661,0.17,1.294,0.51,1.898
		c0.339,0.604,0.795,1.074,1.367,1.41s1.186,0.504,1.842,0.504c0.662,0,1.289-0.166,1.881-0.5s1.049-0.785,1.367-1.354
		c0.319-0.57,0.479-1.211,0.479-1.925c0-1.087-0.357-1.995-1.074-2.726C159.582,358.244,158.7,357.878,157.653,357.878z"/>
	<path fill="#695C57" d="M165.051,356.954h1.21v4.388c0,1.071,0.058,1.809,0.173,2.211c0.173,0.576,0.503,1.031,0.99,1.365
		s1.068,0.501,1.743,0.501s1.247-0.163,1.718-0.488c0.469-0.325,0.794-0.753,0.973-1.282c0.121-0.363,0.182-1.132,0.182-2.307
		v-4.388h1.235v4.612c0,1.295-0.151,2.271-0.454,2.928c-0.302,0.656-0.757,1.171-1.364,1.542c-0.607,0.372-1.369,0.558-2.284,0.558
		c-0.916,0-1.681-0.186-2.293-0.558c-0.613-0.371-1.072-0.89-1.374-1.555s-0.454-1.665-0.454-3.001V356.954z"/>
	<path fill="#695C57" d="M180.686,357.982l-0.777,0.803c-0.646-0.627-1.279-0.941-1.896-0.941c-0.393,0-0.729,0.129-1.01,0.389
		c-0.279,0.259-0.42,0.562-0.42,0.906c0,0.306,0.116,0.597,0.347,0.873c0.231,0.282,0.716,0.613,1.454,0.993
		c0.9,0.466,1.512,0.915,1.836,1.348c0.316,0.438,0.475,0.93,0.475,1.478c0,0.771-0.271,1.424-0.812,1.96s-1.22,0.804-2.033,0.804
		c-0.542,0-1.06-0.119-1.553-0.354c-0.492-0.235-0.9-0.562-1.224-0.976l0.76-0.864c0.618,0.696,1.272,1.046,1.966,1.046
		c0.484,0,0.896-0.156,1.238-0.467c0.34-0.311,0.51-0.677,0.51-1.098c0-0.346-0.112-0.653-0.338-0.924
		c-0.225-0.265-0.732-0.599-1.523-1.002c-0.848-0.438-1.425-0.869-1.73-1.295c-0.306-0.427-0.459-0.913-0.459-1.461
		c0-0.713,0.244-1.307,0.731-1.779c0.487-0.472,1.103-0.708,1.847-0.708C178.938,356.712,179.809,357.135,180.686,357.982z"/>
	<path fill="#695C57" d="M183.881,353.465h1.209v3.489h1.918v1.045h-1.918v8.353h-1.209v-8.353h-1.649v-1.045h1.649V353.465z"/>
	<path fill="#695C57" d="M189.24,353.084c0.275,0,0.511,0.098,0.705,0.294c0.195,0.196,0.293,0.433,0.293,0.708
		c0,0.271-0.098,0.504-0.293,0.7c-0.194,0.196-0.43,0.294-0.705,0.294c-0.27,0-0.502-0.098-0.696-0.294s-0.292-0.429-0.292-0.7
		c0-0.275,0.098-0.512,0.292-0.708S188.971,353.084,189.24,353.084z M188.641,356.954h1.209v9.397h-1.209V356.954z"/>
	<path fill="#695C57" d="M192.363,356.954h1.209v1.685c0.484-0.645,1.02-1.127,1.606-1.447c0.587-0.319,1.227-0.479,1.917-0.479
		c0.703,0,1.326,0.179,1.871,0.536c0.544,0.356,0.945,0.838,1.205,1.441c0.259,0.605,0.389,1.547,0.389,2.825v4.837h-1.21v-4.482
		c0-1.083-0.045-1.806-0.134-2.168c-0.141-0.623-0.41-1.09-0.807-1.404c-0.397-0.313-0.916-0.471-1.555-0.471
		c-0.732,0-1.387,0.242-1.966,0.726s-0.96,1.083-1.145,1.797c-0.115,0.466-0.173,1.318-0.173,2.557v3.446h-1.209V356.954z"/>
	<path fill="#695C57" d="M204.482,364.451c0.293,0,0.543,0.104,0.751,0.311c0.207,0.208,0.312,0.461,0.312,0.761
		c0,0.294-0.104,0.546-0.312,0.756c-0.208,0.21-0.458,0.315-0.751,0.315c-0.295,0-0.545-0.105-0.752-0.315s-0.311-0.462-0.311-0.756
		c0-0.3,0.104-0.553,0.311-0.761C203.938,364.555,204.188,364.451,204.482,364.451z"/>
	<path fill="#695C57" d="M217.17,358.906l-0.959,0.596c-0.828-1.1-1.958-1.65-3.391-1.65c-1.145,0-2.094,0.369-2.851,1.105
		s-1.135,1.631-1.135,2.683c0,0.685,0.175,1.329,0.522,1.933s0.825,1.072,1.432,1.406c0.607,0.334,1.287,0.5,2.041,0.5
		c1.38,0,2.508-0.549,3.381-1.648l0.959,0.63c-0.449,0.677-1.053,1.201-1.809,1.574c-0.758,0.372-1.62,0.56-2.588,0.56
		c-1.485,0-2.718-0.473-3.696-1.417c-0.979-0.944-1.469-2.093-1.469-3.446c0-0.91,0.229-1.755,0.687-2.535
		c0.458-0.78,1.088-1.389,1.888-1.826s1.696-0.657,2.687-0.657c0.621,0,1.222,0.095,1.801,0.285c0.578,0.19,1.069,0.438,1.473,0.743
		C216.545,358.045,216.889,358.434,217.17,358.906z"/>
	<path fill="#695C57" d="M223.941,356.712c1.448,0,2.648,0.524,3.6,1.572c0.865,0.956,1.299,2.087,1.299,3.395
		c0,1.313-0.458,2.46-1.372,3.442c-0.915,0.981-2.09,1.473-3.526,1.473c-1.441,0-2.62-0.491-3.534-1.473
		c-0.915-0.982-1.372-2.129-1.372-3.442c0-1.302,0.434-2.431,1.299-3.386C221.285,357.238,222.488,356.712,223.941,356.712z
		 M223.938,357.896c-1.006,0-1.869,0.372-2.592,1.114s-1.084,1.641-1.084,2.695c0,0.68,0.165,1.312,0.494,1.9
		c0.33,0.587,0.775,1.04,1.336,1.359c0.561,0.32,1.176,0.48,1.846,0.48s1.285-0.16,1.846-0.48c0.561-0.319,1.006-0.772,1.336-1.359
		c0.328-0.588,0.494-1.221,0.494-1.9c0-1.055-0.363-1.953-1.088-2.695C225.799,358.268,224.938,357.896,223.938,357.896z"/>
	<path fill="#695C57" d="M231.068,356.954h1.209v1.624c0.42-0.6,0.854-1.037,1.297-1.312c0.611-0.369,1.254-0.554,1.928-0.554
		c0.456,0,0.889,0.089,1.298,0.269c0.409,0.178,0.743,0.416,1.003,0.712c0.26,0.297,0.484,0.722,0.675,1.274
		c0.401-0.737,0.904-1.297,1.508-1.68c0.603-0.383,1.253-0.575,1.947-0.575c0.649,0,1.222,0.164,1.72,0.493
		c0.496,0.328,0.865,0.785,1.107,1.373c0.24,0.587,0.361,1.469,0.361,2.643v5.131h-1.235v-5.131c0-1.008-0.071-1.699-0.216-2.077
		c-0.143-0.377-0.389-0.681-0.735-0.911s-0.762-0.346-1.244-0.346c-0.585,0-1.12,0.173-1.605,0.519
		c-0.485,0.345-0.839,0.806-1.063,1.382c-0.224,0.576-0.336,1.537-0.336,2.885v3.68h-1.209v-4.811c0-1.135-0.07-1.905-0.211-2.311
		c-0.142-0.406-0.388-0.732-0.738-0.977c-0.352-0.244-0.77-0.367-1.253-0.367c-0.559,0-1.081,0.168-1.567,0.506
		c-0.487,0.336-0.848,0.79-1.08,1.359c-0.233,0.57-0.35,1.443-0.35,2.617v3.982h-1.209V356.954z"/>
</g>
</svg>
