<?xml version="1.0" encoding="UTF-8" standalone="no"?>
<!-- Generator: Adobe Illustrator 14.0.0, SVG Export Plug-In . SVG Version: 6.00 Build 43363)  -->

<svg
   xmlns:dc="http://purl.org/dc/elements/1.1/"
   xmlns:cc="http://creativecommons.org/ns#"
   xmlns:rdf="http://www.w3.org/1999/02/22-rdf-syntax-ns#"
   xmlns:svg="http://www.w3.org/2000/svg"
   xmlns="http://www.w3.org/2000/svg"
   xmlns:sodipodi="http://sodipodi.sourceforge.net/DTD/sodipodi-0.dtd"
   xmlns:inkscape="http://www.inkscape.org/namespaces/inkscape"
   version="1.1"
   id="Layer_1"
   x="0px"
   y="0px"
   width="202.5"
   height="337.5"
   viewBox="0 0 202.5 337.5"
   enable-background="new 0 0 144 252"
   xml:space="preserve"
   inkscape:version="0.48.5 r10040"
   sodipodi:docname="little_rascals.cat.card.back.modified.inkscape.svg"><metadata
     id="metadata17"><rdf:RDF><cc:Work
         rdf:about=""><dc:format>image/svg+xml</dc:format><dc:type
           rdf:resource="http://purl.org/dc/dcmitype/StillImage" /><dc:title></dc:title></cc:Work></rdf:RDF></metadata><defs
     id="defs15" /><sodipodi:namedview
     pagecolor="#6cb4b0"
     bordercolor="#666666"
     borderopacity="1"
     objecttolerance="10"
     gridtolerance="10"
     guidetolerance="10"
     inkscape:pageopacity="1"
     inkscape:pageshadow="2"
     inkscape:window-width="2870"
     inkscape:window-height="1737"
     id="namedview13"
     showgrid="true"
     inkscape:zoom="2.6488444"
     inkscape:cx="271.61444"
     inkscape:cy="88.198464"
     inkscape:window-x="0"
     inkscape:window-y="24"
     inkscape:window-maximized="0"
     inkscape:current-layer="Layer_1"
     units="in"
     inkscape:document-units="in"
     showguides="false"><sodipodi:guide
       position="0,0"
       orientation="0,202.5"
       id="guide3027" /><sodipodi:guide
       position="202.5,0"
       orientation="-337.5,0"
       id="guide3029" /><sodipodi:guide
       position="202.5,337.5"
       orientation="0,-202.5"
       id="guide3031" /><sodipodi:guide
       position="0,337.5"
       orientation="337.5,0"
       id="guide3033" /><inkscape:grid
       type="xygrid"
       id="grid3035"
       empspacing="4"
       visible="true"
       enabled="true"
       snapvisiblegridlinesonly="true"
       units="in"
       spacingx="0.125in"
       spacingy="0.125in"
       dotted="false"
       originx="0.125in"
       originy="0.125in"
       empcolor="#0000a6"
       empopacity="0.83921569" /></sodipodi:namedview><g
     id="g3023"
     transform="translate(22.955302,49.06603)"><path
       style="fill:#edcd48;fill-rule:evenodd"
       inkscape:connector-curvature="0"
       id="path9"
       d="m 52.28303,102.56563 c 21.8325,13.25375 47.2625,14.14 65.18875,5.74625 9.2675,-4.34125 19.31375,-11.31375 23.75375,-25.515 4.39625,-14.05875 0.33,-24.87625 -4.59375,-33.86 -9.19875,-16.7975 -30.98625,-31.93625 -55.9025,-33.575 -11.00125,-0.71125 -20.98,0.62625 -30.8425,5.16375 -7.78625,3.57625 -21.0075,12.345 -24.0375,27.665 -3.32375,16.80375 4.25,29.8375 9.84375,41.235 -3.2025,17.80625 -13.8475,26.59 -22.20625,34.76 13.585,-3.4375 27.17,-11.10125 38.79625,-21.62 z"
       clip-rule="evenodd" /><path
       style="fill:#ffffff"
       inkscape:connector-curvature="0"
       id="path11"
       d="m 75.54303,92.41438 c -6.83125,-11.3575 -15.38375,-22.89 -18.3325,-36.13875 -2.06125,-9.29375 0.69,-24.67125 13.87,-20.93875 7.61125,2.1575 10.23625,9.68625 13.1325,16.10875 l 1.7875,3.9275 c 6.83125,-4.3375 16.325,-8.99875 24.52875,-5.58 5.59375,2.34125 7.23625,8.84875 5.20625,13.965 -3.59875,9.01875 -11.88,13.91375 -20.13,18.12 -1.69,0.855 -20.20625,10.29375 -20.0625,10.53625 z" /></g></svg>