<?xml version="1.0" encoding="utf-8"?>
<!-- Generator: Adobe Illustrator 14.0.0, SVG Export Plug-In . SVG Version: 6.00 Build 43363)  -->
<!DOCTYPE svg PUBLIC "-//W3C//DTD SVG 1.1//EN" "http://www.w3.org/Graphics/SVG/1.1/DTD/svg11.dtd">
<svg version="1.1" id="Layer_1" xmlns="http://www.w3.org/2000/svg" xmlns:xlink="http://www.w3.org/1999/xlink" x="0px" y="0px"
	 width="338.4px" height="201.6px" viewBox="0 0 338.4 201.6" enable-background="new 0 0 338.4 201.6" xml:space="preserve">
<g>
	<path fill="#6CB6B3" d="M70.574,169.248h2.148v3.069c0.849-1.166,1.825-2.041,2.929-2.624c1.104-0.584,2.335-0.875,3.694-0.875
		c2.371,0,4.4,0.854,6.086,2.562c1.687,1.709,2.53,3.766,2.53,6.17c0,2.455-0.836,4.539-2.507,6.253s-3.687,2.57-6.048,2.57
		c-1.329,0-2.55-0.276-3.664-0.828c-1.114-0.553-2.121-1.376-3.021-2.471v8.977h-2.148V169.248z M79.168,170.891
		c-1.857,0-3.422,0.648-4.692,1.946s-1.906,2.913-1.906,4.844c0,1.268,0.283,2.406,0.85,3.418c0.567,1.013,1.378,1.814,2.435,2.407
		s2.172,0.889,3.346,0.889c1.153,0,2.237-0.299,3.253-0.896s1.825-1.434,2.427-2.507c0.603-1.072,0.903-2.196,0.903-3.372
		c0-1.186-0.298-2.31-0.896-3.372s-1.401-1.888-2.411-2.476C81.465,171.185,80.362,170.891,79.168,170.891z"/>
	<path fill="#6CB6B3" d="M107.925,180.405l1.811,0.951c-0.594,1.166-1.279,2.107-2.058,2.823s-1.654,1.261-2.627,1.635
		c-0.973,0.373-2.074,0.56-3.303,0.56c-2.724,0-4.854-0.893-6.39-2.678s-2.304-3.803-2.304-6.054c0-2.118,0.649-4.006,1.95-5.662
		c1.648-2.108,3.855-3.162,6.62-3.162c2.847,0,5.12,1.08,6.82,3.238c1.208,1.524,1.822,3.428,1.843,5.708H95.265
		c0.04,1.939,0.66,3.529,1.858,4.77c1.199,1.24,2.679,1.86,4.44,1.86c0.851,0,1.678-0.147,2.481-0.443
		c0.805-0.295,1.487-0.688,2.052-1.177C106.66,182.285,107.27,181.495,107.925,180.405z M107.925,175.908
		c-0.287-1.146-0.704-2.062-1.252-2.747c-0.549-0.686-1.273-1.237-2.175-1.657c-0.901-0.419-1.849-0.629-2.842-0.629
		c-1.64,0-3.048,0.526-4.226,1.58c-0.86,0.768-1.511,1.919-1.951,3.453H107.925z"/>
	<path fill="#6CB6B3" d="M118.052,163.048h2.148v6.2h3.407v1.856H120.2v14.84h-2.148v-14.84h-2.931v-1.856h2.931V163.048z"/>
	<path fill="#6CB6B3" d="M147.696,171.074l-1.381,1.428c-1.149-1.116-2.272-1.673-3.369-1.673c-0.698,0-1.295,0.229-1.793,0.69
		s-0.746,0.997-0.746,1.611c0,0.542,0.205,1.059,0.615,1.55c0.41,0.501,1.271,1.089,2.584,1.765c1.599,0.829,2.686,1.627,3.26,2.394
		c0.563,0.778,0.846,1.653,0.846,2.625c0,1.371-0.481,2.532-1.444,3.483c-0.964,0.951-2.168,1.427-3.612,1.427
		c-0.963,0-1.883-0.209-2.759-0.629c-0.876-0.419-1.601-0.997-2.175-1.734l1.351-1.534c1.098,1.238,2.261,1.856,3.492,1.856
		c0.86,0,1.594-0.275,2.199-0.828c0.604-0.553,0.907-1.202,0.907-1.949c0-0.613-0.2-1.161-0.6-1.642
		c-0.4-0.471-1.302-1.064-2.706-1.781c-1.508-0.777-2.533-1.544-3.076-2.302c-0.544-0.756-0.815-1.621-0.815-2.593
		c0-1.269,0.433-2.322,1.299-3.161c0.866-0.84,1.96-1.259,3.282-1.259C144.592,168.818,146.14,169.57,147.696,171.074z"/>
	<path fill="#6CB6B3" d="M167.445,180.405l1.81,0.951c-0.593,1.166-1.279,2.107-2.057,2.823c-0.779,0.716-1.654,1.261-2.627,1.635
		c-0.974,0.373-2.074,0.56-3.303,0.56c-2.724,0-4.854-0.893-6.39-2.678s-2.304-3.803-2.304-6.054c0-2.118,0.649-4.006,1.95-5.662
		c1.648-2.108,3.855-3.162,6.62-3.162c2.847,0,5.12,1.08,6.819,3.238c1.208,1.524,1.823,3.428,1.843,5.708h-15.023
		c0.04,1.939,0.66,3.529,1.858,4.77s2.679,1.86,4.44,1.86c0.851,0,1.678-0.147,2.481-0.443c0.805-0.295,1.487-0.688,2.051-1.177
		C166.181,182.285,166.79,181.495,167.445,180.405z M167.445,175.908c-0.287-1.146-0.704-2.062-1.253-2.747
		c-0.548-0.686-1.272-1.237-2.174-1.657c-0.901-0.419-1.849-0.629-2.843-0.629c-1.639,0-3.047,0.526-4.225,1.58
		c-0.861,0.768-1.512,1.919-1.952,3.453H167.445z"/>
	<path fill="#6CB6B3" d="M174.887,169.248h2.194v2.439c0.655-0.961,1.346-1.68,2.072-2.155s1.483-0.714,2.271-0.714
		c0.593,0,1.228,0.189,1.902,0.568l-1.12,1.811c-0.45-0.194-0.829-0.292-1.136-0.292c-0.716,0-1.407,0.295-2.071,0.882
		c-0.666,0.589-1.172,1.502-1.52,2.74c-0.266,0.951-0.399,2.875-0.399,5.77v5.647h-2.194V169.248z"/>
	<path fill="#6CB6B3" d="M185.459,169.248h2.286l5.604,12.171l5.537-12.171h2.302l-7.643,16.696h-0.398L185.459,169.248z"/>
	<path fill="#6CB6B3" d="M207.088,162.373c0.488,0,0.906,0.174,1.252,0.522c0.347,0.347,0.52,0.767,0.52,1.258
		c0,0.48-0.173,0.896-0.52,1.243c-0.346,0.348-0.764,0.521-1.252,0.521c-0.479,0-0.892-0.174-1.238-0.521s-0.52-0.763-0.52-1.243
		c0-0.491,0.173-0.911,0.52-1.258C206.196,162.547,206.608,162.373,207.088,162.373z M206.021,169.248h2.148v16.696h-2.148V169.248z
		"/>
	<path fill="#6CB6B3" d="M230.727,172.716l-1.704,1.06c-1.471-1.954-3.479-2.931-6.024-2.931c-2.033,0-3.722,0.653-5.065,1.962
		c-1.344,1.308-2.016,2.896-2.016,4.767c0,1.216,0.309,2.361,0.927,3.434c0.619,1.073,1.467,1.906,2.545,2.499
		s2.286,0.889,3.625,0.889c2.452,0,4.455-0.977,6.009-2.931l1.704,1.12c-0.799,1.202-1.87,2.134-3.216,2.797
		c-1.345,0.662-2.877,0.993-4.596,0.993c-2.64,0-4.829-0.839-6.568-2.517s-2.608-3.719-2.608-6.123c0-1.616,0.406-3.117,1.22-4.504
		c0.813-1.386,1.931-2.468,3.353-3.246c1.423-0.776,3.013-1.166,4.773-1.166c1.104,0,2.171,0.169,3.199,0.507
		c1.028,0.337,1.9,0.777,2.617,1.319C229.616,171.188,230.225,171.878,230.727,172.716z"/>
	<path fill="#6CB6B3" d="M250.797,180.405l1.811,0.951c-0.594,1.166-1.279,2.107-2.059,2.823c-0.778,0.716-1.653,1.261-2.626,1.635
		c-0.974,0.373-2.074,0.56-3.303,0.56c-2.724,0-4.854-0.893-6.39-2.678s-2.304-3.803-2.304-6.054c0-2.118,0.649-4.006,1.95-5.662
		c1.648-2.108,3.855-3.162,6.62-3.162c2.847,0,5.12,1.08,6.819,3.238c1.209,1.524,1.823,3.428,1.844,5.708h-15.024
		c0.041,1.939,0.661,3.529,1.859,4.77s2.679,1.86,4.44,1.86c0.851,0,1.678-0.147,2.481-0.443c0.805-0.295,1.487-0.688,2.051-1.177
		S250.142,181.495,250.797,180.405z M250.797,175.908c-0.287-1.146-0.705-2.062-1.253-2.747s-1.272-1.237-2.174-1.657
		c-0.901-0.419-1.849-0.629-2.843-0.629c-1.639,0-3.047,0.526-4.225,1.58c-0.861,0.768-1.512,1.919-1.952,3.453H250.797z"/>
	<path fill="#6CB6B3" d="M267.445,171.074l-1.381,1.428c-1.149-1.116-2.272-1.673-3.369-1.673c-0.698,0-1.296,0.229-1.793,0.69
		c-0.498,0.461-0.746,0.997-0.746,1.611c0,0.542,0.205,1.059,0.615,1.55c0.41,0.501,1.271,1.089,2.583,1.765
		c1.6,0.829,2.687,1.627,3.261,2.394c0.563,0.778,0.846,1.653,0.846,2.625c0,1.371-0.481,2.532-1.444,3.483
		c-0.964,0.951-2.168,1.427-3.612,1.427c-0.963,0-1.883-0.209-2.759-0.629c-0.876-0.419-1.601-0.997-2.175-1.734l1.351-1.534
		c1.098,1.238,2.261,1.856,3.491,1.856c0.861,0,1.595-0.275,2.2-0.828c0.604-0.553,0.907-1.202,0.907-1.949
		c0-0.613-0.2-1.161-0.6-1.642c-0.4-0.471-1.302-1.064-2.706-1.781c-1.508-0.777-2.533-1.544-3.076-2.302
		c-0.544-0.756-0.815-1.621-0.815-2.593c0-1.269,0.433-2.322,1.299-3.161c0.866-0.84,1.96-1.259,3.282-1.259
		C264.34,168.818,265.889,169.57,267.445,171.074z"/>
</g>
<g>
	<g>
		<path fill="#695C57" d="M31.471,134.423c0,3.309,0,12.915,0.064,14.888c0.062,1.082,0.317,1.973,1.653,1.973h2.863
			c0.572,0,0.7,0.19,0.7,0.572v1.081c0,0.382-0.128,0.637-0.382,0.637c-0.445,0-3.245-0.19-7.189-0.19
			c-4.072,0-6.617,0.19-7.189,0.19c-0.318,0-0.445-0.255-0.445-0.637v-1.081c0-0.445,0.127-0.572,0.827-0.572h3.054
			c0.7,0,1.336-0.446,1.399-1.591c0.063-1.973,0.063-12.915,0.063-16.605v-4.008c0-4.518-0.063-10.307-0.19-11.962
			c-0.127-2.163-1.146-3.181-3.182-3.817l-1.272-0.445c-0.317-0.127-0.381-0.19-0.381-0.317v-0.509c0-0.191,0.19-0.318,0.572-0.445
			c2.227-1.019,5.09-2.164,7.443-3.69c0.573-0.382,0.955-0.51,1.337-0.51c0.444,0,0.572,0.318,0.509,1.146
			c-0.064,3.5-0.255,16.732-0.255,20.232V134.423z"/>
		<path fill="#695C57" d="M43.559,134.868c0-2.163-0.382-3.308-3.562-3.817c-0.445-0.063-0.573-0.19-0.573-0.445v-0.572
			c0-0.191,0.128-0.318,0.446-0.446c2.035-0.763,4.453-1.781,6.871-3.117c0.508-0.254,0.826-0.381,1.208-0.381
			c0.318,0,0.382,0.317,0.318,0.763c-0.127,1.082-0.127,5.09-0.127,10.371v6.935c0,2.481,0,4.771,0.063,5.472
			c0.127,1.208,0.318,1.654,1.019,1.654h2.926c0.509,0,0.637,0.19,0.637,0.572v1.081c0,0.446-0.128,0.637-0.572,0.637
			c-0.51,0-3.437-0.19-6.108-0.19c-3.69,0-6.172,0.19-6.871,0.19c-0.318,0-0.509-0.127-0.509-0.509v-1.272
			c0-0.382,0.19-0.509,0.636-0.509h3.118c0.699,0,0.954-0.255,1.018-1.272c0.063-1.909,0.063-3.881,0.063-5.79V134.868z
			 M40.695,115.464c0-1.591,1.336-3.309,3.881-3.309c2.228,0,3.309,1.718,3.309,3.117c0,1.654-1.145,3.5-3.69,3.5
			C42.795,118.772,40.695,117.499,40.695,115.464z"/>
		<path fill="#695C57" d="M64.809,145.43c0,4.771,2.163,5.599,3.309,5.599c1.463,0,3.308-0.255,4.199-0.827
			c0.317-0.19,0.572-0.127,0.763,0.128l0.318,0.572c0.19,0.254,0.064,0.509-0.127,0.699c-0.637,0.637-3.245,2.546-7.062,2.546
			c-3.117,0-6.171-2.991-6.171-5.408c0-2.608,0.19-8.208,0.19-9.098v-1.4c0-1.146,0.063-5.408,0.128-8.08h-3.881
			c-0.573,0-0.955-0.255-0.955-0.763c0-0.51,0.382-0.7,1.146-1.146c1.526-0.892,6.426-5.854,7.253-8.017
			c0.19-0.509,0.509-0.637,0.891-0.637c0.509,0,0.636,0.445,0.636,0.955l-0.317,6.298h8.843c0.383,0,0.573,0.318,0.446,0.572
			l-0.637,2.228c-0.063,0.318-0.191,0.509-0.572,0.509H65c-0.128,2.927-0.191,5.98-0.191,8.907V145.43z"/>
		<path fill="#695C57" d="M85.103,145.43c0,4.771,2.163,5.599,3.309,5.599c1.464,0,3.309-0.255,4.199-0.827
			c0.318-0.19,0.572-0.127,0.763,0.128l0.318,0.572c0.191,0.254,0.064,0.509-0.127,0.699c-0.636,0.637-3.245,2.546-7.062,2.546
			c-3.118,0-6.172-2.991-6.172-5.408c0-2.608,0.191-8.208,0.191-9.098v-1.4c0-1.146,0.063-5.408,0.127-8.08h-3.881
			c-0.573,0-0.955-0.255-0.955-0.763c0-0.51,0.382-0.7,1.146-1.146c1.527-0.892,6.426-5.854,7.253-8.017
			c0.191-0.509,0.51-0.637,0.891-0.637c0.51,0,0.637,0.445,0.637,0.955l-0.318,6.298h8.844c0.382,0,0.572,0.318,0.445,0.572
			l-0.637,2.228c-0.063,0.318-0.19,0.509-0.572,0.509h-8.207c-0.128,2.927-0.191,5.98-0.191,8.907V145.43z"/>
		<path fill="#695C57" d="M105.333,134.423c0,3.309,0,12.915,0.064,14.888c0.063,1.082,0.318,1.973,1.653,1.973h2.863
			c0.572,0,0.7,0.19,0.7,0.572v1.081c0,0.382-0.128,0.637-0.382,0.637c-0.445,0-3.245-0.19-7.189-0.19
			c-4.072,0-6.617,0.19-7.189,0.19c-0.318,0-0.445-0.255-0.445-0.637v-1.081c0-0.445,0.127-0.572,0.827-0.572h3.054
			c0.7,0,1.336-0.446,1.399-1.591c0.064-1.973,0.064-12.915,0.064-16.605v-4.008c0-4.518-0.064-10.307-0.191-11.962
			c-0.127-2.163-1.145-3.181-3.182-3.817l-1.271-0.445c-0.318-0.127-0.382-0.19-0.382-0.317v-0.509c0-0.191,0.19-0.318,0.572-0.445
			c2.227-1.019,5.09-2.164,7.443-3.69c0.573-0.382,0.955-0.51,1.337-0.51c0.445,0,0.572,0.318,0.509,1.146
			c-0.063,3.5-0.255,16.732-0.255,20.232V134.423z"/>
		<path fill="#695C57" d="M118.249,136.459c-0.127,0.572-0.191,1.59-0.191,3.054c0,6.235,3.945,10.942,9.034,10.942
			c3.881,0,6.617-2.226,7.699-4.325c0.127-0.255,0.381-0.382,0.572-0.318l0.827,0.445c0.19,0.063,0.317,0.254,0,0.954
			c-1.146,2.545-4.453,6.936-10.116,6.936c-3.626,0-7.635-1.082-9.988-4.518c-2.227-3.245-2.8-5.599-2.8-10.053
			c0-2.481,0.637-6.744,4.009-10.115c2.735-2.8,5.916-3.372,9.098-3.372c7.316,0,9.353,6.871,9.353,9.353
			c0,0.89-0.764,1.018-1.781,1.018H118.249z M128.364,134.55c1.209,0,1.718-0.317,1.718-0.89c0-1.464-0.763-5.663-4.898-5.663
			c-2.799,0-5.472,1.845-6.681,6.553H128.364z"/>
		<path fill="#695C57" d="M160.365,136.459c0-3.245-0.509-3.881-2.29-4.836l-1.209-0.636c-0.382-0.127-0.509-0.19-0.509-0.445
			v-0.382c0-0.255,0.127-0.382,0.509-0.573l6.299-3.244c0.382-0.19,0.636-0.254,0.891-0.254c0.382,0,0.445,0.381,0.445,0.763
			l0.318,4.391h0.254c1.909-2.927,4.899-5.536,7.636-5.536c2.163,0,3.244,1.337,3.244,2.8c0,1.846-1.527,3.117-2.672,3.117
			c-0.7,0-1.337-0.254-1.846-0.509c-0.509-0.317-1.272-0.509-2.099-0.509c-1.019,0-2.673,0.637-3.755,2.673
			c-0.381,0.699-0.636,1.845-0.636,2.035v13.36c0,1.973,0.445,2.609,1.781,2.609h2.99c0.382,0,0.445,0.19,0.445,0.572v1.146
			c0,0.382-0.063,0.572-0.318,0.572c-0.381,0-3.308-0.19-6.743-0.19c-3.945,0-6.617,0.19-6.999,0.19
			c-0.254,0-0.381-0.127-0.381-0.637v-1.081c0-0.445,0.127-0.572,0.699-0.572h2.481c0.954,0,1.399-0.382,1.399-1.209
			c0.063-2.1,0.063-4.326,0.063-7.635V136.459z"/>
		<path fill="#695C57" d="M197.583,145.812c0,3.626,0.764,4.771,1.909,4.771c1.018,0,1.908-0.509,2.227-0.954
			c0.255-0.318,0.382-0.445,0.637-0.255l0.636,0.509c0.19,0.191,0.318,0.51-0.063,1.146c-0.509,0.954-1.718,3.118-4.963,3.118
			c-2.29,0-3.944-1.654-4.518-4.264h-0.127c-1.336,1.591-3.436,2.927-6.299,3.881c-1.209,0.383-2.354,0.383-3.753,0.383
			c-1.527,0-3.818-1.273-3.818-5.281c0-2.927,1.337-5.472,6.362-7.698c2.863-1.272,6.172-2.8,7.19-3.69v-4.071
			c-0.128-1.082-0.191-2.736-0.892-3.563c-0.699-0.826-1.972-1.399-3.817-1.399c-1.272,0-3.244,0.509-4.135,1.336
			s-0.318,1.782-0.318,2.927c0,2.227-0.764,3.626-3.372,3.626c-1.019,0-1.527-0.571-1.527-2.035c0-2.036,1.782-4.454,4.391-5.98
			c2.672-1.591,4.898-2.227,7.762-2.227c2.99,0,4.199,0.891,5.09,1.717c1.336,1.337,1.399,2.8,1.399,4.518v9.734V145.812z
			 M192.939,139.386c-2.291,1.718-8.526,2.99-8.526,8.271c0,2.354,1.399,3.499,3.309,3.499c1.845,0,5.218-2.227,5.218-3.944V139.386
			z"/>
		<path fill="#695C57" d="M207.508,152.301c-0.318-0.19-0.318-0.572-0.382-0.891l-1.082-6.044c-0.063-0.318,0.128-0.445,0.382-0.509
			l0.827-0.191c0.255-0.063,0.445,0.063,0.572,0.382l1.591,3.118c1.272,2.354,2.163,3.944,5.535,3.944
			c2.227,0,5.026-1.337,5.026-4.326c0-2.863-1.399-4.518-6.171-5.854c-3.754-1.082-7.508-3.054-7.508-8.081
			c0-4.389,4.136-7.761,8.907-7.761c3.054,0,4.708,0.763,5.854,1.335c0.954,0.446,1.081,0.764,1.145,1.146l0.955,4.454
			c0,0.255-0.128,0.445-0.446,0.572l-0.763,0.254c-0.255,0.064-0.382,0-0.573-0.317l-2.163-2.927
			c-0.764-1.208-1.973-2.481-4.453-2.481c-2.418,0-4.899,1.463-4.899,4.199c0,3.69,2.991,4.391,6.108,5.281
			c4.644,1.336,7.57,3.244,7.634,8.144c-0.063,5.153-4.263,8.398-9.67,8.398C210.816,154.146,208.271,152.873,207.508,152.301z"/>
		<path fill="#695C57" d="M233.02,137.985c0,3.437,1.526,7.317,3.244,9.671c2.1,2.736,4.772,3.245,6.936,3.245
			c3.181,0,4.835-0.7,6.998-2.735c0.127-0.128,0.318-0.191,0.509,0l0.637,0.636c0.254,0.254,0.318,0.445,0,0.827
			c-1.845,2.1-5.917,4.518-10.243,4.518c-3.372,0-6.936-0.764-9.862-4.454c-2.354-3.118-2.862-5.789-2.862-8.652
			c0-7.444,5.217-14.951,13.615-14.951c6.616,0,8.652,3.816,8.652,5.153c-0.063,1.463-1.019,2.227-2.354,2.227
			c-1.464,0-2.546-0.827-3.5-2.545c-1.399-2.608-2.735-2.8-4.263-2.8C236.9,128.124,233.02,131.433,233.02,137.985z"/>
		<path fill="#695C57" d="M274.182,145.812c0,3.626,0.764,4.771,1.909,4.771c1.018,0,1.908-0.509,2.227-0.954
			c0.255-0.318,0.382-0.445,0.636-0.255l0.637,0.509c0.19,0.191,0.317,0.51-0.063,1.146c-0.51,0.954-1.719,3.118-4.963,3.118
			c-2.29,0-3.944-1.654-4.518-4.264h-0.127c-1.336,1.591-3.436,2.927-6.299,3.881c-1.209,0.383-2.354,0.383-3.753,0.383
			c-1.527,0-3.818-1.273-3.818-5.281c0-2.927,1.337-5.472,6.362-7.698c2.863-1.272,6.172-2.8,7.189-3.69v-4.071
			c-0.127-1.082-0.19-2.736-0.891-3.563c-0.699-0.826-1.972-1.399-3.817-1.399c-1.272,0-3.244,0.509-4.135,1.336
			s-0.318,1.782-0.318,2.927c0,2.227-0.764,3.626-3.372,3.626c-1.019,0-1.527-0.571-1.527-2.035c0-2.036,1.782-4.454,4.39-5.98
			c2.673-1.591,4.899-2.227,7.763-2.227c2.99,0,4.199,0.891,5.09,1.717c1.336,1.337,1.399,2.8,1.399,4.518v9.734V145.812z
			 M269.537,139.386c-2.29,1.718-8.525,2.99-8.525,8.271c0,2.354,1.399,3.499,3.309,3.499c1.845,0,5.217-2.227,5.217-3.944V139.386z
			"/>
		<path fill="#695C57" d="M290.658,134.423c0,3.309,0,12.915,0.064,14.888c0.063,1.082,0.318,1.973,1.653,1.973h2.863
			c0.572,0,0.7,0.19,0.7,0.572v1.081c0,0.382-0.128,0.637-0.382,0.637c-0.445,0-3.245-0.19-7.189-0.19
			c-4.072,0-6.616,0.19-7.189,0.19c-0.318,0-0.445-0.255-0.445-0.637v-1.081c0-0.445,0.127-0.572,0.827-0.572h3.054
			c0.7,0,1.337-0.446,1.399-1.591c0.063-1.973,0.063-12.915,0.063-16.605v-4.008c0-4.518-0.063-10.307-0.19-11.962
			c-0.127-2.163-1.145-3.181-3.181-3.817l-1.272-0.445c-0.318-0.127-0.382-0.19-0.382-0.317v-0.509c0-0.191,0.19-0.318,0.572-0.445
			c2.228-1.019,5.09-2.164,7.444-3.69c0.572-0.382,0.954-0.51,1.336-0.51c0.445,0,0.572,0.318,0.509,1.146
			c-0.063,3.5-0.255,16.732-0.255,20.232V134.423z"/>
		<path fill="#695C57" d="M300.393,152.301c-0.317-0.19-0.317-0.572-0.382-0.891l-1.081-6.044c-0.063-0.318,0.127-0.445,0.382-0.509
			l0.827-0.191c0.254-0.063,0.445,0.063,0.572,0.382l1.591,3.118c1.272,2.354,2.163,3.944,5.535,3.944
			c2.227,0,5.026-1.337,5.026-4.326c0-2.863-1.4-4.518-6.172-5.854c-3.754-1.082-7.507-3.054-7.507-8.081
			c0-4.389,4.135-7.761,8.907-7.761c3.054,0,4.707,0.763,5.853,1.335c0.954,0.446,1.082,0.764,1.146,1.146l0.954,4.454
			c0,0.255-0.127,0.445-0.445,0.572l-0.764,0.254c-0.254,0.064-0.382,0-0.572-0.317l-2.163-2.927
			c-0.764-1.208-1.973-2.481-4.454-2.481c-2.417,0-4.898,1.463-4.898,4.199c0,3.69,2.99,4.391,6.107,5.281
			c4.645,1.336,7.571,3.244,7.635,8.144c-0.063,5.153-4.263,8.398-9.67,8.398C303.701,154.146,301.156,152.873,300.393,152.301z"/>
	</g>
	<rect x="36.724" y="104.612" fill="#FFFFFF" width="13.812" height="18.414"/>
	<path fill="#E45A2F" d="M46.743,120.739c-1.988-1.569-4.297-3.056-5.715-5.225c-0.999-1.523-1.54-4.458,1.066-4.682
		c1.506-0.127,2.48,1.042,3.433,1.994l0.585,0.585c0.927-1.237,2.311-2.71,4.014-2.651c1.156,0.041,1.888,1.092,1.868,2.145
		c-0.031,1.856-1.184,3.288-2.38,4.597C49.372,117.77,46.698,120.705,46.743,120.739z"/>
</g>
<g>
	<path fill="#DFD5C4" d="M109.777,58.425c-2.247,0.536-4.492,1.014-6.77,1.387c-6.009,0.974-11.794,0-17.824-0.165
		c-5.897-0.16-11.81-0.5-17.713-0.415c-11.171,0.17-26.797,0.127-30.677,13.641c-0.495,1.729-0.106,3.523-0.292,5.285
		c-0.458,4.476,1.485,8.957,5.897,10.746c1.613,0.654,3.188,1.224,4.354-0.484c2.619-3.843-3.204-5.498-5.86-5.333
		c1.979-0.123,5.104-4.093,6.344-5.508l1.341-1.336c9.952,2.07,19.772,3.593,29.98,3.455c7.876-0.096,15.492-0.681,23.29-1.831
		c10.042-1.479,19.655-4.311,29.378-7.137l-8.851-15.356C118.144,56.259,113.977,57.425,109.777,58.425z"/>
	<path fill="#DFD5C4" d="M50.743,74.07c-0.196,2.731-0.718,5.456-0.639,8.202c0.048,1.65,0.82,3.4,1.325,5.024
		c0.98,3.177,3.917,3.944,6.472,4.082c1.507,0.085,5.551,0.298,5.978-2.134c0.181-1.048-0.847-3.305-1.48-3.959
		c-1.181-1.203-2.869-0.697-4.306-0.75l2.507-7.504"/>
	<path fill="#DFD5C4" d="M117.032,73.905c-0.234,2.288-0.958,4.561-1.193,6.844c-0.351,3.375,4.115,1.831,5.194,4.071
		c0.99,2.05-1.378,4.284-3.124,4.923c-4.257,1.549-7.781-2.182-8.116-6.077c-0.213-2.401,0.133-4.854,0.223-7.255"/>
	<path fill="#DFD5C4" d="M122.375,70.962c-0.075,4.167-1.554,12.049,0.666,15.567c0.606,0.963,2.038,2.374,2.89,2.592
		c2.214,0.564,7.658,0.697,8.787-2.358c0.522-1.41-0.473-3.949-1.31-4.901c-1.362-1.549-3.315-0.975-5.024-1.054l2.842-11.081"/>
	<path fill="#DFD5C4" d="M44.9,64.634c-4.035-3.145-6.936-6.833-10.522-10.275c-2.625-2.517-5.11-1.529-6.254,2.244
		c-2.415,7.952,7.995,10.123,13.525,11.039"/>
	<path fill="#DFD5C4" d="M126.144,41.759c2.873-1.461,5.907-1.546,9.127-0.546c7.562,2.358,10.542,9.921,18.25,12.125l4.923,1.402
		h5.274c1,5.652,0.106,13.098-6.046,16.015c-2.821,1.341-7.951,2.672-10.969,2.486c-7.111-0.437-16.776-2.406-22.411-6.52
		c-1.581-1.149-5.865-2.517-6.813-4.098C113.418,55.881,119.932,44.917,126.144,41.759z"/>
	<path fill="#695C57" d="M160.205,54.386c0,1.945,1.571,3.523,3.514,3.523c1.948,0,3.518-1.578,3.518-3.523
		c0-1.94-1.57-3.516-3.518-3.516C161.775,50.871,160.205,52.446,160.205,54.386z"/>
	<path fill="#695C57" d="M141.194,53.002c0,1.844-1.5,3.342-3.343,3.342c-1.847,0-3.342-1.498-3.342-3.342
		c0-1.844,1.495-3.337,3.342-3.337C139.694,49.665,141.194,51.158,141.194,53.002z"/>
	<path fill="#695C57" d="M158.896,69.541c-2.326,0-4.987-0.288-6.541-1.9c-0.975-1.017-1.421-2.47-1.315-4.311
		c0.021-0.277,0.25-0.495,0.527-0.474c0.277,0.016,0.489,0.25,0.474,0.527c-0.091,1.581,0.25,2.746,1.043,3.561
		c1.123,1.165,3.113,1.66,6.466,1.591c0.277,0.026,0.495,0.207,0.506,0.49c0.005,0.277-0.213,0.506-0.49,0.511
		C159.348,69.536,159.124,69.541,158.896,69.541L158.896,69.541z"/>
	<polygon fill="#E45A2F" points="109.799,82.059 117.143,81.724 118.149,73.373 107.819,72.527 	"/>
	<polygon fill="#E45A2F" points="121.821,81.199 129.167,80.822 130.172,71.475 119.841,70.521 	"/>
	<path fill="#6CB6B3" d="M113.71,56.006c0,0,2.789,3.837,2.789,3.837l4.179,3.486l3.842,1.394l8.062,6.297l-10.505,2.757
		c-5.333,1.31-10.712,2.501-16.011,3.942c-5.861,1.593-12.445,1.461-18.487,1.987l-17.771,0.346l-2.443-20.906l13.939,0.346
		c0,0,12.51,0.695,12.55,0.697c4.19,0.233,8.271-0.183,12.237-1.57C106.738,58.394,113.48,55.69,113.71,56.006z"/>
	<path fill="#695C57" d="M126.792,38.914c0.937-0.447,2.214,10.006,2.193,10.807c-0.102,4.627-1.118,9.59-3.188,13.752
		c-4.413,8.882-19.539,9.298-17.063-3.23C111.086,48.375,116.291,43.97,126.792,38.914z"/>
	<polygon fill="#E45A2F" points="74.736,64.543 75.821,63.974 75.614,65.182 76.492,66.044 75.284,66.22 74.736,67.316 
		74.198,66.22 72.979,66.044 73.853,65.182 73.65,63.974 	"/>
	<polygon fill="#E45A2F" points="106.052,66.321 107.138,65.746 106.93,66.96 107.802,67.817 106.595,67.998 106.052,69.094 
		105.504,67.998 104.291,67.817 105.167,66.96 104.961,65.746 	"/>
	<polygon fill="#E45A2F" points="102.698,70.388 103.784,69.818 103.577,71.031 104.455,71.883 103.241,72.059 102.698,73.16 
		102.155,72.059 100.943,71.883 101.815,71.031 101.607,69.818 	"/>
	<polygon fill="#E45A2F" points="89.517,72.021 90.474,70.967 90.723,72.373 92.022,72.958 90.771,73.634 90.607,75.044 
		89.58,74.054 88.18,74.341 88.803,73.059 88.105,71.819 	"/>
	<polygon fill="#E45A2F" points="85.306,63.016 85.672,61.643 86.536,62.771 87.961,62.708 87.146,63.873 87.653,65.208 
		86.291,64.799 85.172,65.688 85.151,64.267 83.954,63.484 	"/>
	<polygon fill="#E45A2F" points="99.953,64.399 101.364,63.666 101.092,65.23 102.23,66.337 100.66,66.566 99.953,67.987 
		99.25,66.566 97.68,66.337 98.813,65.23 98.548,63.666 	"/>
	<polygon fill="#E45A2F" points="75.012,74.448 76.593,73.618 76.295,75.379 77.573,76.625 75.806,76.88 75.012,78.487 74.22,76.88 
		72.453,76.625 73.73,75.379 73.432,73.618 	"/>
	<path fill="#E45A2F" d="M97.77,75.842l-1.682-1.032l-1.804,0.808l0.463-1.921l-1.33-1.464l1.969-0.16l0.984-1.708l0.767,1.815
		l1.926,0.415l-1.495,1.283L97.77,75.842L97.77,75.842z M96.104,74.528l1.369,0.831l-0.17-1.586l1.213-1.038l-1.565-0.336
		l-0.618-1.469l-0.792,1.383l-1.591,0.128l1.064,1.181l-0.367,1.56L96.104,74.528L96.104,74.528z"/>
	<path fill="#E45A2F" d="M83.091,71.872l-1.687-1.027l-1.799,0.803l0.453-1.921l-1.32-1.463l1.969-0.16l0.985-1.714l0.756,1.826
		l1.932,0.41l-1.5,1.282L83.091,71.872L83.091,71.872z M81.42,70.558l1.362,0.835l-0.165-1.586l1.214-1.043l-1.56-0.33l-0.611-1.474
		l-0.804,1.384l-1.591,0.133l1.069,1.182l-0.372,1.554L81.42,70.558L81.42,70.558z"/>
	<path fill="#E45A2F" d="M126.505,71.872l-1.688-1.027l-1.798,0.803l0.452-1.921l-1.319-1.463l1.969-0.16l0.979-1.714l0.761,1.826
		l1.937,0.41l-1.506,1.282L126.505,71.872L126.505,71.872z M124.839,70.558l1.357,0.835l-0.17-1.586l1.219-1.043l-1.565-0.33
		l-0.617-1.474l-0.793,1.384l-1.591,0.133l1.07,1.182l-0.374,1.554L124.839,70.558L124.839,70.558z"/>
	<path fill="#E45A2F" d="M95.109,66.858l-1.676-1.021l-1.805,0.798l0.452-1.911l-1.319-1.468l1.97-0.16l0.984-1.708l0.756,1.82
		l1.932,0.404l-1.5,1.288L95.109,66.858L95.109,66.858z M93.449,65.549l1.362,0.835l-0.176-1.586l1.224-1.043l-1.57-0.335
		l-0.612-1.469l-0.798,1.389l-1.591,0.122l1.075,1.188l-0.378,1.554L93.449,65.549L93.449,65.549z"/>
	<path fill="#DFD5C4" d="M188.268,78.562c-1.314-0.357-3.82,0.016-4.949,0.745c-1.874,1.192-0.548,3.199,0.026,4.917
		c-1.549,0.155-3.311,0.203-4.779,0.804c0.798,2.171,3.806,2.198,5.658,2.571c2.097,0.42,4.188,0.835,6.28,1.25l5.667-0.453
		c0,0-1.043,2.991,4.174,3.587c2.287,0.255,10.781,1.958,11.336-1.794c0.298-2.017-5.567-1.985-6.408-1.793
		c0.367-0.08,1.83-2.182,1.969-2.582c0.475-1.277-0.271-2.863-1.33-3.608c-1.49-1.049-3.151-0.219-4.822-0.219
		C201.089,81.989,188.29,78.567,188.268,78.562z"/>
	<path fill="#DFD5C4" d="M192.894,69.61c-1.113,1.756-2.385,3.48-3.316,5.333c-1.4,2.794-1.703,5.982-2.134,9.032
		c-0.33,2.379-1.687,7.829,1.379,8.76c2.438,0.74,2.528-1.783,3.172-3.438c0.063-0.128,3.044,0.271,3.134,0.447
		c0.724,1.544,2.55,4.769,4.652,3.492c3.593-2.183,2.581-10.464,2.075-13.87c-0.127-0.82-2.405-10.847-2.709-10.799L192.894,69.61z"
		/>
	<path fill="#DFD5C4" d="M202.286,81.84l3.577,4.024c2.395-2.054,5.188-3.891,7.265-6.275c4.577-5.269,0.687-10.458-3.252-14.609
		c0.373,1.432,0.725,2.89,0.996,4.343c0.372,2.033,0.553,4.029-0.57,5.759c-1.958,3.034-4.321,4.88-7.419,6.61"/>
	<path fill="#6CB6B3" d="M192.894,67.88l6.951,0.356l2.597,12.055c0,0-14.247-0.298-14.27-0.298
		C187.857,79.983,192.19,69.189,192.894,67.88z"/>
	<path fill="#DFD5C4" d="M182.749,49.322c-0.516-1.405-7.723-19.312-0.873-17.486c3.529,0.939,4.045,6.562,5.291,9.354
		c0.638,1.403,1.404,2.744,2.139,4.095c-1.038-1.945,11.299-1.743,11.187-1.479c0,0,1.783-3.707,1.794-3.73
		c1.039-2.164,2.295-4.487,4.577-5.551c1.214-0.567,2.465-0.846,3.773-1.161c0.261,2.26,0.442,4.341,0.395,6.603
		c-0.086,4.316-1.22,8.252-2.486,12.342c-1.702,5.555-0.394,11.486-5.747,15.414c-4.471,3.289-10.085,2.873-13.477-1.661
		C185.702,61.217,184.782,54.886,182.749,49.322z"/>
	<path fill="#695C57" d="M195.698,52.79c0,1.003-0.814,1.817-1.815,1.817c-1.006,0-1.82-0.814-1.82-1.817
		c0-1.001,0.814-1.821,1.82-1.821C194.884,50.969,195.698,51.789,195.698,52.79z"/>
	<path fill="#695C57" d="M200.626,52.531c0,1.001-0.813,1.813-1.814,1.813c-1.012,0-1.815-0.812-1.815-1.813
		c0-1.005,0.804-1.814,1.815-1.814C199.812,50.716,200.626,51.525,200.626,52.531z"/>
	<path fill="#695C57" d="M198.551,63.686c0,1.006-0.814,1.821-1.814,1.821c-1.006,0-1.815-0.814-1.815-1.821
		c0-1,0.81-1.814,1.815-1.814C197.736,61.872,198.551,62.686,198.551,63.686z"/>
	<path fill="#695C57" d="M196.342,67.913c-0.128,0-0.271,0-0.404-0.016c-0.149-0.011-0.25-0.139-0.239-0.282
		c0.005-0.139,0.144-0.25,0.281-0.234c1.82,0.139,3.29-0.814,4.37-2.831c0.068-0.128,0.224-0.17,0.352-0.106
		c0.121,0.069,0.17,0.224,0.111,0.356C199.7,66.864,198.199,67.913,196.342,67.913L196.342,67.913z"/>
	<polygon fill="#6CB6B3" points="205.746,44.167 205.288,44.016 205.358,43.494 205.336,42.908 205.112,42.185 204.707,41.645 
		204.012,40.91 203.223,40.354 201.92,39.486 201.051,40.458 199.742,42.19 199.189,42.983 199.588,43.407 200.067,43.821 
		200.573,44.132 201.413,44.236 200.194,44.955 199.312,45.852 198.45,46.823 197.598,47.625 196.99,48.252 199.333,48.821 
		199.439,49.91 199.621,50.655 199.839,51.201 200.488,50.546 201.175,49.801 202.207,48.777 202.894,48.135 203.569,47.422 
		204.16,46.858 204.634,46.293 204.798,46.025 204.921,45.666 204.921,45.229 205.103,45.218 205.256,45.309 205.263,46.145 
		205.283,47.704 205.64,49.346 205.879,51.525 206.055,53.074 205.954,53.364 206.715,52.821 207.401,52.292 207.911,51.957 
		208.822,52.475 209.515,52.787 210.445,53.135 209.956,51.268 209.621,49.346 209.392,48.183 209.115,47.18 209.823,47.129 
		210.419,46.969 210.723,46.927 210.845,46.025 210.893,45.243 210.781,44.593 210.729,43.885 210.686,43.255 210.648,42.408 
		209.711,42.384 208.577,42.512 207.769,42.784 206.769,43.172 206.071,43.733 	"/>
	<path fill-rule="evenodd" clip-rule="evenodd" fill="#DFD5C4" d="M237.248,5.289c4.918,2.389,1.666,7.296,2.741,10.95
		c2.229,7.555,8.93,11.076,11.863,17.342c15.413,8.324,40.145,7.323,47.468,23.729c3.982,1.192,8.068,2.278,10.948,4.566
		c-3.545,8.148-15.913,1.543-18.255-2.741c0.085,8.398,10.31,30.438-1.825,31.034c3.927-7.494,2.47-16.669-4.562-20.081
		c-4.14,3.774,2.188,18.011-7.303,16.43c-2.629-3.518,2.901-5.189,2.736-9.123c-0.437-8.388-9.937-7.707-10.038-16.435
		c-5.312,0.474-8.968,2.597-13.688,3.657c-3.188,14.327,3.149,39.799-10.954,37.42c6.26-7.52,5.179-25.344,0.91-34.685
		c-5.492,7.898,1.399,28.17-11.869,28.293c-2.293-3.428,3.343-5.413,3.651-9.127c-0.409-21.789-3.868-40.545-12.773-53.85
		c-4.416-0.756-9.176-1.163-11.867-3.651c0.664-2.789-1.57-2.685-0.91-5.477c7.228-3.414,16.982-4.308,17.338-14.601
		c1.853,0.58,0.603,4.268,2.737,4.561C235.114,11.058,236.706,8.698,237.248,5.289z"/>
	<path fill="#695C57" d="M227.727,21.378c0,0.907-0.739,1.644-1.644,1.644c-0.912,0-1.65-0.737-1.65-1.644
		c0-0.915,0.738-1.65,1.65-1.65C226.987,19.728,227.727,20.463,227.727,21.378z"/>
	<path fill="#695C57" d="M213.347,25.104c0,0.865,0.771,1.567,1.725,1.567c0.947,0,1.719-0.703,1.719-1.567
		c0-0.863-0.771-1.568-1.719-1.568C214.118,23.536,213.347,24.241,213.347,25.104z"/>
	<polygon fill="#E45A2F" points="241.49,35.117 240.729,35.681 239.968,34.989 239.005,34.361 237.583,33.914 236.269,33.959 
		234.311,34.25 232.527,34.901 229.669,36.005 230.26,38.504 231.579,42.55 232.234,44.332 233.368,44.162 234.566,43.856 
		235.646,43.391 236.743,42.161 236.524,44.917 236.987,47.342 237.578,49.83 237.914,52.095 238.238,53.779 241.782,50.647 
		243.646,51.693 245.062,52.241 246.174,52.507 245.86,50.725 245.423,48.79 244.933,45.969 244.673,44.151 244.279,42.265 
		244.028,40.692 243.662,39.29 243.406,38.723 242.976,38.127 242.267,37.64 242.464,37.336 242.772,37.188 244.124,38.111 
		246.663,39.83 249.691,41.099 253.476,43.151 256.147,44.606 256.509,45.093 256.493,43.26 256.403,41.565 256.445,40.367 
		258.298,39.492 259.569,38.718 261.183,37.6 257.622,36.312 254.151,34.691 252.038,33.752 250.117,33.084 250.819,31.884 
		251.23,30.748 251.501,30.21 250.192,29.001 248.989,28.054 247.813,27.498 246.62,26.791 245.562,26.154 244.156,25.271 
		243.071,26.743 242.006,28.706 241.533,30.319 241.038,32.355 241.16,34.116 	"/>
	<polygon fill="#E45A2F" points="67.364,59.147 69.807,80.053 67.96,80.154 65.187,59.171 	"/>
	<polygon fill="#FFFFFF" points="132.583,71.021 130.134,71.682 129.167,80.822 	"/>
</g>
</svg>
