<?xml version="1.0" encoding="utf-8"?>
<!-- Generator: Adobe Illustrator 14.0.0, SVG Export Plug-In . SVG Version: 6.00 Build 43363)  -->
<!DOCTYPE svg PUBLIC "-//W3C//DTD SVG 1.1//EN" "http://www.w3.org/Graphics/SVG/1.1/DTD/svg11.dtd">
<svg version="1.1" id="Layer_1" xmlns="http://www.w3.org/2000/svg" xmlns:xlink="http://www.w3.org/1999/xlink" x="0px" y="0px"
	 width="144px" height="252px" viewBox="0 0 144 252" enable-background="new 0 0 144 252" xml:space="preserve">
<rect x="-0.025" fill="#FFFFFF" width="144" height="252"/>
<g>
	<g>
		<path fill="#695C57" d="M17.434,94.85c0,1.312,0,5.121,0.024,5.903c0.026,0.429,0.127,0.782,0.657,0.782h1.135
			c0.227,0,0.278,0.075,0.278,0.228v0.429c0,0.15-0.052,0.252-0.152,0.252c-0.177,0-1.286-0.075-2.851-0.075
			c-1.614,0-2.624,0.075-2.851,0.075c-0.127,0-0.176-0.102-0.176-0.252v-0.429c0-0.177,0.049-0.228,0.328-0.228h1.21
			c0.278,0,0.529-0.178,0.556-0.631c0.025-0.782,0.025-5.121,0.025-6.584v-1.59c0-1.791-0.025-4.086-0.076-4.743
			c-0.051-0.857-0.454-1.261-1.262-1.513l-0.506-0.178c-0.124-0.05-0.149-0.075-0.149-0.125v-0.201c0-0.076,0.076-0.127,0.227-0.178
			c0.882-0.403,2.019-0.857,2.951-1.463c0.227-0.151,0.379-0.202,0.53-0.202c0.177,0,0.228,0.127,0.202,0.454
			c-0.025,1.389-0.102,6.635-0.102,8.023V94.85z"/>
		<path fill="#695C57" d="M30.654,99.214c0,1.893,0.857,2.221,1.312,2.221c0.58,0,1.312-0.101,1.665-0.328
			c0.126-0.075,0.227-0.051,0.303,0.051l0.126,0.227c0.075,0.101,0.025,0.202-0.05,0.276c-0.253,0.253-1.288,1.011-2.802,1.011
			c-1.234,0-2.446-1.187-2.446-2.146c0-1.033,0.076-3.254,0.076-3.607v-0.554c0-0.455,0.024-2.145,0.051-3.205h-1.54
			c-0.227,0-0.378-0.101-0.378-0.303c0-0.2,0.151-0.277,0.454-0.454c0.605-0.353,2.549-2.32,2.876-3.178
			c0.075-0.201,0.201-0.253,0.354-0.253c0.201,0,0.252,0.177,0.252,0.378l-0.127,2.498h3.506c0.153,0,0.229,0.126,0.178,0.227
			l-0.252,0.884c-0.026,0.127-0.076,0.202-0.227,0.202h-3.255c-0.051,1.161-0.075,2.372-0.075,3.532V99.214z"/>
		<path fill="#695C57" d="M38.7,99.214c0,1.893,0.858,2.221,1.312,2.221c0.582,0,1.312-0.101,1.666-0.328
			c0.127-0.075,0.228-0.051,0.304,0.051l0.126,0.227c0.075,0.101,0.024,0.202-0.052,0.276c-0.251,0.253-1.287,1.011-2.8,1.011
			c-1.237,0-2.447-1.187-2.447-2.146c0-1.033,0.076-3.254,0.076-3.607v-0.554c0-0.455,0.025-2.145,0.051-3.205h-1.539
			c-0.228,0-0.379-0.101-0.379-0.303c0-0.2,0.151-0.277,0.454-0.454c0.606-0.353,2.547-2.32,2.877-3.178
			c0.075-0.201,0.201-0.253,0.352-0.253c0.202,0,0.254,0.177,0.254,0.378l-0.127,2.498h3.507c0.151,0,0.227,0.126,0.177,0.227
			l-0.253,0.884c-0.025,0.127-0.075,0.202-0.227,0.202h-3.255c-0.051,1.161-0.076,2.372-0.076,3.532V99.214z"/>
		<path fill="#695C57" d="M46.722,94.85c0,1.312,0,5.121,0.025,5.903c0.024,0.429,0.126,0.782,0.656,0.782h1.135
			c0.227,0,0.277,0.075,0.277,0.228v0.429c0,0.15-0.051,0.252-0.151,0.252c-0.177,0-1.286-0.075-2.851-0.075
			c-1.613,0-2.624,0.075-2.852,0.075c-0.126,0-0.176-0.102-0.176-0.252v-0.429c0-0.177,0.05-0.228,0.328-0.228h1.211
			c0.277,0,0.53-0.178,0.555-0.631c0.025-0.782,0.025-5.121,0.025-6.584v-1.59c0-1.791-0.025-4.086-0.076-4.743
			c-0.05-0.857-0.453-1.261-1.261-1.513l-0.505-0.178c-0.126-0.05-0.15-0.075-0.15-0.125v-0.201c0-0.076,0.075-0.127,0.227-0.178
			c0.883-0.403,2.019-0.857,2.952-1.463c0.227-0.151,0.378-0.202,0.53-0.202c0.176,0,0.226,0.127,0.201,0.454
			c-0.025,1.389-0.102,6.635-0.102,8.023V94.85z"/>
		<path fill="#695C57" d="M51.843,95.657c-0.05,0.228-0.076,0.63-0.076,1.21c0,2.474,1.564,4.34,3.583,4.34
			c1.539,0,2.624-0.883,3.052-1.715c0.052-0.102,0.152-0.151,0.228-0.126l0.328,0.176c0.076,0.025,0.125,0.102,0,0.379
			c-0.454,1.01-1.766,2.75-4.012,2.75c-1.438,0-3.026-0.43-3.96-1.791c-0.883-1.287-1.11-2.221-1.11-3.987
			c0-0.983,0.253-2.673,1.59-4.01c1.085-1.111,2.347-1.338,3.606-1.338c2.902,0,3.71,2.726,3.71,3.709
			c0,0.353-0.303,0.403-0.707,0.403H51.843z M55.855,94.899c0.479,0,0.681-0.126,0.681-0.353c0-0.58-0.303-2.244-1.942-2.244
			c-1.109,0-2.17,0.73-2.649,2.597H55.855z"/>
		<path fill="#695C57" d="M68.543,95.657c0-1.287-0.201-1.54-0.908-1.917l-0.479-0.253c-0.153-0.05-0.202-0.075-0.202-0.176V93.16
			c0-0.101,0.049-0.152,0.202-0.227l2.497-1.286c0.151-0.076,0.251-0.102,0.354-0.102c0.15,0,0.176,0.151,0.176,0.303l0.126,1.741
			h0.102c0.757-1.161,1.942-2.194,3.027-2.194c0.858,0,1.287,0.528,1.287,1.108c0,0.732-0.605,1.237-1.06,1.237
			c-0.277,0-0.53-0.102-0.732-0.202c-0.202-0.126-0.504-0.202-0.833-0.202c-0.403,0-1.06,0.253-1.488,1.061
			c-0.15,0.276-0.253,0.731-0.253,0.807v5.298c0,0.781,0.178,1.034,0.706,1.034h1.187c0.152,0,0.178,0.075,0.178,0.228v0.453
			c0,0.152-0.025,0.228-0.126,0.228c-0.151,0-1.312-0.075-2.676-0.075c-1.563,0-2.624,0.075-2.774,0.075
			c-0.101,0-0.151-0.05-0.151-0.252v-0.429c0-0.177,0.051-0.228,0.277-0.228h0.984c0.379,0,0.555-0.151,0.555-0.479
			c0.025-0.832,0.025-1.715,0.025-3.027V95.657z"/>
		<path fill="#695C57" d="M83.302,99.366c0,1.438,0.303,1.891,0.757,1.891c0.403,0,0.757-0.201,0.882-0.377
			c0.103-0.127,0.153-0.177,0.254-0.102l0.251,0.202c0.076,0.075,0.128,0.201-0.024,0.454c-0.202,0.378-0.682,1.236-1.968,1.236
			c-0.908,0-1.564-0.655-1.792-1.69h-0.05c-0.531,0.63-1.362,1.159-2.498,1.538c-0.479,0.152-0.932,0.152-1.488,0.152
			c-0.605,0-1.513-0.506-1.513-2.095c0-1.16,0.529-2.17,2.521-3.053c1.136-0.504,2.446-1.109,2.852-1.463v-1.614
			c-0.051-0.429-0.075-1.085-0.353-1.413c-0.277-0.327-0.782-0.555-1.514-0.555c-0.506,0-1.287,0.202-1.641,0.529
			c-0.354,0.328-0.127,0.707-0.127,1.161c0,0.883-0.301,1.438-1.336,1.438c-0.403,0-0.605-0.227-0.605-0.807
			c0-0.808,0.707-1.767,1.741-2.372c1.06-0.63,1.942-0.883,3.077-0.883c1.186,0,1.665,0.354,2.019,0.681
			c0.528,0.53,0.555,1.11,0.555,1.792v3.86V99.366z M81.46,96.817c-0.908,0.682-3.381,1.186-3.381,3.279
			c0,0.935,0.555,1.388,1.312,1.388c0.732,0,2.069-0.883,2.069-1.563V96.817z"/>
		<path fill="#695C57" d="M87.236,101.939c-0.125-0.076-0.125-0.228-0.151-0.354l-0.429-2.396c-0.025-0.127,0.051-0.177,0.151-0.201
			l0.328-0.076c0.101-0.027,0.177,0.025,0.228,0.15l0.631,1.237c0.505,0.933,0.857,1.563,2.195,1.563
			c0.883,0,1.992-0.529,1.992-1.715c0-1.136-0.555-1.791-2.446-2.322c-1.487-0.429-2.978-1.211-2.978-3.203
			c0-1.74,1.641-3.078,3.532-3.078c1.211,0,1.867,0.303,2.321,0.529c0.377,0.177,0.429,0.304,0.453,0.455l0.38,1.766
			c0,0.102-0.053,0.177-0.177,0.227l-0.303,0.102c-0.102,0.025-0.152,0-0.229-0.126l-0.856-1.161
			c-0.304-0.479-0.783-0.983-1.767-0.983c-0.959,0-1.943,0.58-1.943,1.665c0,1.463,1.187,1.74,2.424,2.094
			c1.84,0.53,3.001,1.286,3.025,3.229c-0.024,2.043-1.689,3.33-3.834,3.33C88.549,102.671,87.541,102.165,87.236,101.939z"/>
		<path fill="#695C57" d="M97.354,96.263c0,1.362,0.604,2.901,1.285,3.834c0.834,1.085,1.895,1.287,2.751,1.287
			c1.261,0,1.917-0.277,2.775-1.084c0.05-0.052,0.126-0.076,0.201,0l0.253,0.252c0.101,0.102,0.125,0.176,0,0.328
			c-0.732,0.832-2.347,1.791-4.062,1.791c-1.338,0-2.751-0.303-3.911-1.767c-0.933-1.237-1.135-2.295-1.135-3.431
			c0-2.952,2.069-5.929,5.398-5.929c2.623,0,3.432,1.514,3.432,2.044c-0.025,0.58-0.404,0.883-0.935,0.883
			c-0.58,0-1.009-0.328-1.387-1.01c-0.555-1.034-1.085-1.109-1.69-1.109C98.893,92.353,97.354,93.664,97.354,96.263z"/>
		<path fill="#695C57" d="M113.675,99.366c0,1.438,0.304,1.891,0.758,1.891c0.403,0,0.756-0.201,0.883-0.377
			c0.1-0.127,0.151-0.177,0.253-0.102l0.251,0.202c0.076,0.075,0.127,0.201-0.025,0.454c-0.201,0.378-0.682,1.236-1.967,1.236
			c-0.909,0-1.564-0.655-1.792-1.69h-0.051c-0.529,0.63-1.361,1.159-2.497,1.538c-0.479,0.152-0.933,0.152-1.488,0.152
			c-0.605,0-1.514-0.506-1.514-2.095c0-1.16,0.529-2.17,2.523-3.053c1.135-0.504,2.446-1.109,2.85-1.463v-1.614
			c-0.05-0.429-0.074-1.085-0.354-1.413c-0.276-0.327-0.782-0.555-1.513-0.555c-0.505,0-1.286,0.202-1.641,0.529
			c-0.353,0.328-0.125,0.707-0.125,1.161c0,0.883-0.303,1.438-1.337,1.438c-0.404,0-0.606-0.227-0.606-0.807
			c0-0.808,0.706-1.767,1.74-2.372c1.061-0.63,1.943-0.883,3.078-0.883c1.186,0,1.665,0.354,2.019,0.681
			c0.53,0.53,0.555,1.11,0.555,1.792v3.86V99.366z M111.833,96.817c-0.907,0.682-3.38,1.186-3.38,3.279
			c0,0.935,0.556,1.388,1.312,1.388c0.731,0,2.068-0.883,2.068-1.563V96.817z"/>
		<path fill="#695C57" d="M120.208,94.85c0,1.312,0,5.121,0.024,5.903c0.026,0.429,0.128,0.782,0.657,0.782h1.136
			c0.227,0,0.277,0.075,0.277,0.228v0.429c0,0.15-0.051,0.252-0.152,0.252c-0.175,0-1.287-0.075-2.851-0.075
			c-1.614,0-2.624,0.075-2.85,0.075c-0.128,0-0.178-0.102-0.178-0.252v-0.429c0-0.177,0.05-0.228,0.329-0.228h1.21
			c0.278,0,0.53-0.178,0.556-0.631c0.025-0.782,0.025-5.121,0.025-6.584v-1.59c0-1.791-0.025-4.086-0.077-4.743
			c-0.05-0.857-0.453-1.261-1.26-1.513l-0.506-0.178c-0.125-0.05-0.15-0.075-0.15-0.125v-0.201c0-0.076,0.075-0.127,0.227-0.178
			c0.884-0.403,2.018-0.857,2.951-1.463c0.229-0.151,0.379-0.202,0.53-0.202c0.177,0,0.228,0.127,0.202,0.454
			c-0.025,1.389-0.102,6.635-0.102,8.023V94.85z"/>
		<path fill="#695C57" d="M124.068,101.939c-0.126-0.076-0.126-0.228-0.152-0.354l-0.427-2.396c-0.026-0.127,0.05-0.177,0.149-0.201
			l0.329-0.076c0.101-0.027,0.177,0.025,0.227,0.15l0.632,1.237c0.503,0.933,0.856,1.563,2.194,1.563
			c0.883,0,1.993-0.529,1.993-1.715c0-1.136-0.556-1.791-2.448-2.322c-1.487-0.429-2.976-1.211-2.976-3.203
			c0-1.74,1.639-3.078,3.531-3.078c1.211,0,1.866,0.303,2.32,0.529c0.379,0.177,0.43,0.304,0.455,0.455l0.377,1.766
			c0,0.102-0.049,0.177-0.176,0.227l-0.302,0.102c-0.102,0.025-0.153,0-0.228-0.126l-0.858-1.161
			c-0.303-0.479-0.782-0.983-1.766-0.983c-0.958,0-1.943,0.58-1.943,1.665c0,1.463,1.187,1.74,2.422,2.094
			c1.842,0.53,3.002,1.286,3.028,3.229c-0.026,2.043-1.689,3.33-3.834,3.33C125.38,102.671,124.371,102.165,124.068,101.939z"/>
		<path fill="#695C57" d="M25.632,101.535h-1.159c-0.278,0-0.354-0.178-0.404-0.655c-0.024-0.278-0.024-1.187-0.024-2.17v-2.75
			c0-2.094,0-3.683,0.05-4.112c0.025-0.177,0-0.303-0.127-0.303c-0.15,0-0.277,0.051-0.479,0.151
			c-0.958,0.529-1.916,0.934-2.723,1.236c-0.126,0.05-0.178,0.101-0.178,0.178v0.226c0,0.102,0.052,0.151,0.228,0.176
			c1.261,0.203,1.412,0.657,1.412,1.514v3.709c0,0.758,0,1.539-0.024,2.297c-0.026,0.403-0.127,0.504-0.404,0.504h-1.236
			c-0.176,0-0.253,0.051-0.253,0.202v0.504c0,0.152,0.077,0.202,0.203,0.202c0.277,0,1.261-0.075,2.724-0.075
			c1.06,0,2.221,0.075,2.423,0.075c0.175,0,0.228-0.075,0.228-0.252v-0.429C25.886,101.61,25.833,101.535,25.632,101.535z"/>
		<path fill="#E2592F" d="M23.49,89.424c-0.788-0.623-1.703-1.212-2.266-2.071c-0.396-0.604-0.61-1.769,0.424-1.856
			c0.596-0.051,0.981,0.413,1.359,0.79l0.233,0.233c0.366-0.491,0.915-1.075,1.59-1.052c0.46,0.016,0.749,0.433,0.742,0.85
			c-0.013,0.735-0.47,1.305-0.944,1.823C24.533,88.247,23.473,89.41,23.49,89.424z"/>
	</g>
	<g>
		<path fill-rule="evenodd" clip-rule="evenodd" fill="#EDCD48" d="M95.858,37.451c3.361,2.041,7.277,2.178,10.038,0.885
			c1.427-0.669,2.974-1.742,3.657-3.929c0.677-2.165,0.051-3.83-0.707-5.214c-1.417-2.587-4.771-4.918-8.607-5.17
			c-1.694-0.109-3.231,0.097-4.75,0.795c-1.198,0.551-3.234,1.901-3.701,4.26c-0.512,2.588,0.654,4.595,1.516,6.35
			c-0.493,2.741-2.132,4.095-3.419,5.353C91.977,40.251,94.068,39.071,95.858,37.451z"/>
		<path fill="#FFFFFF" d="M99.44,35.889c-1.053-1.749-2.369-3.525-2.823-5.565c-0.317-1.431,0.106-3.799,2.136-3.224
			c1.172,0.332,1.576,1.491,2.021,2.479l0.275,0.605c1.052-0.668,2.514-1.386,3.777-0.859c0.861,0.36,1.114,1.362,0.802,2.15
			c-0.555,1.389-1.829,2.143-3.1,2.79C102.27,34.397,99.418,35.851,99.44,35.889z"/>
		<g>
			<path fill="#DCD3C1" d="M41.271,74.03c2.674-3.773,2.31-5.193,2.917-8.456c0.455-2.442-1.463-9.325-0.792-13.687
				c-0.976-3.262-4.902-3.203-7.27-1.455c-2.588,1.912-5.031,7.154-6.598,9.843c-1.536,2.64-4.77,3.982-6.264,6.599
				c-0.818,1.436-1.111,3.547-0.52,5.301c-0.994,0.482-2.022,0.523-3.069,0.109c-2.525-0.996-4.753-4.418-5.369-7.015
				c-1.314-5.534,0.842-9.807,6.993-13.854c0.31-0.203,0.396-0.619,0.192-0.93c-0.205-0.31-0.62-0.396-0.93-0.192
				c-4.506,2.965-9.439,7.381-7.562,15.285c0.6,2.525,2.915,6.663,6.184,7.954c0.642,0.253,1.287,0.38,1.928,0.38
				c0.759,0,1.508-0.179,2.232-0.53c0.459,0.661,1.103,1.209,1.97,1.551c2.33,0.92,7.724,0.03,10.254-0.008
				c-1.405,1.121-5.368,5.48-0.928,5.268c1.792-0.085,3.612-3.659,3.879-5.3c1.111,1.291,3.609,5.846,5.988,4.93
				C47.646,78.616,42.285,74.794,41.271,74.03z"/>
			<path fill="#DCD3C1" d="M26.99,36.084c-0.204,1.405,0.032,3.451,1.288,4.181c1.265,0.734,3.819-2.053,4.475-1.466
				C30.967,37.204,29.587,35.887,26.99,36.084z"/>
			<path fill="#E977AF" d="M30.143,37.858c-0.6-0.388-1.256-0.616-2.151-0.549c-0.119,0.822,0.011,2.002,0.701,2.483
				C28.999,39.091,29.494,38.433,30.143,37.858z"/>
			<path fill="#DCD3C1" d="M49.612,32.717c0.604,1.287,0.974,3.312-0.016,4.374c-0.995,1.072-4.25-0.851-4.708-0.098
				C46.132,34.948,47.07,33.285,49.612,32.717z"/>
			<path fill="#E977AF" d="M49.012,36.552c0.005-0.003,0.01-0.007,0.014-0.012c0.602-0.645,0.376-1.875,0.01-2.656
				c-0.908,0.203-1.479,0.638-1.948,1.213C47.869,35.467,48.527,35.96,49.012,36.552z"/>
			<g>
				<path fill="#DCD3C1" d="M51.252,40.916c-0.687-4.608-6.471-7.566-12.92-6.606c-6.45,0.959-11.123,5.474-10.438,10.082
					c0.359,2.421,2.13,4.385,4.662,5.566c0.128-6.396,4.794-12.268,6.256-12.485c1.317-0.196,7.375,3.414,9.615,10.111
					C50.498,45.719,51.612,43.331,51.252,40.916z"/>
				<path fill="#DCD3C1" d="M38.813,37.473c-1.462,0.218-6.128,6.089-6.256,12.485c2.287,1.066,5.196,1.495,8.259,1.04
					c3.068-0.457,5.734-1.72,7.612-3.414C46.188,40.887,40.13,37.276,38.813,37.473z"/>
			</g>
			<path fill="#E977AF" d="M41.51,47.315c0.086,0.568-0.459,1.121-0.974,1.197c-0.515,0.077-1.196-0.292-1.28-0.862
				c-0.085-0.569,0.376-0.715,0.999-0.808C40.878,46.751,41.426,46.746,41.51,47.315z"/>
			<g>
				<g>
					<path fill="none" stroke="#695C57" d="M38.476,48.086c0,0-10.374-0.9-17.343,0.137"/>
					<path fill="none" stroke="#695C57" d="M38.548,49.133c0,0-10.286,1.618-16.802,4.299"/>
				</g>
				<g>
					<path fill="none" stroke="#695C57" d="M42.383,47.505c0,0,9.663-3.883,16.631-4.92"/>
					<path fill="none" stroke="#695C57" d="M42.62,48.527c0,0,10.311-1.447,17.325-0.779"/>
				</g>
			</g>
			<ellipse fill="#FFFFFF" cx="39.205" cy="64.749" rx="3.185" ry="5.927"/>
			<g>
				<path fill="#58595B" d="M93.948,65.644c0.465,0.049,1.043-1.806,1.292-4.146c-0.538,0.033-1.11,0.066-1.719,0.09
					C93.318,63.808,93.499,65.596,93.948,65.644z"/>
				<path fill="#58595B" d="M96.642,65.927c0.469,0.049,1.051-1.825,1.299-4.187c0.01-0.103,0.02-0.205,0.028-0.306
					c-0.519-0.037-1.086-0.027-1.711,0.004c-0.004,0.042-0.01,0.082-0.013,0.123C95.996,63.923,96.174,65.877,96.642,65.927z"/>
				<path fill="#58595B" d="M91.147,66.362c0.469,0.049,1.05-1.825,1.298-4.187c0.021-0.191,0.035-0.38,0.051-0.566
					c-0.54,0.004-1.105-0.008-1.698-0.043c-0.017,0.143-0.033,0.285-0.049,0.431C90.501,64.358,90.68,66.313,91.147,66.362z"/>
				<path fill="#58595B" d="M99.231,67.213c0.47,0.049,1.048-1.825,1.298-4.188c0.062-0.589,0.097-1.154,0.108-1.669
					c-0.581,0.047-1.121,0.09-1.611,0.104c-0.075,0.435-0.142,0.899-0.192,1.387C98.585,65.207,98.764,67.163,99.231,67.213z"/>
			</g>
			<path fill="#DCD3C1" d="M128.179,54.077l-0.021-0.306c-0.026-0.37-0.334-0.646-0.716-0.623c-0.37,0.025-0.649,0.345-0.623,0.716
				l0.021,0.306c0.239,3.427,0.465,6.666-1.578,9.508c-1.824,2.538-4.679,4.398-7.634,4.977c-1.144,0.223-2.577,0.23-3.926-0.039
				c-0.25-1.881-1.071-3.911-2.901-5.193c-3.69-2.585-7.386-2.291-10.163-2.065c-0.012,0.515-0.047,1.08-0.108,1.669
				c-0.25,2.362-0.828,4.236-1.298,4.188c-0.468-0.05-0.646-2.006-0.397-4.365c0.051-0.487,0.117-0.952,0.192-1.387
				c-0.329,0.011-0.637,0.008-0.921-0.018c-0.045-0.005-0.091-0.007-0.137-0.009c-0.009,0.101-0.019,0.204-0.028,0.306
				c-0.248,2.361-0.83,4.235-1.299,4.187c-0.468-0.05-0.646-2.004-0.396-4.365c0.003-0.041,0.009-0.081,0.013-0.123
				c-0.323,0.016-0.663,0.037-1.018,0.059c-0.249,2.341-0.827,4.195-1.292,4.146c-0.449-0.048-0.63-1.836-0.427-4.057
				c-0.332,0.012-0.672,0.021-1.025,0.022c-0.016,0.187-0.03,0.375-0.051,0.566c-0.248,2.361-0.829,4.235-1.298,4.187
				c-0.468-0.049-0.646-2.004-0.398-4.365c0.016-0.146,0.032-0.288,0.049-0.431c-2.309-0.131-5.02-0.609-8.183-1.94
				c-2.243-0.944-2.336,0.013-4.412,0.013l-0.244,0.121c0.313,5.315-4.477,6.216-8.396,6.417c-0.865,0.045-2.089-0.56-2.796-0.56
				c-1.678,0-2.038,0.586-2.213,1.614c-0.528,3.09,9.093,1.92,10.963,2.298c-0.269,0.579-1.46,1.688-2.913,2.482
				c-0.603,0.33-1.537,0.169-2.012,0.588c-0.973,0.854-1.223,2.364-0.881,2.99c1.19,2.176,7.087-0.411,8.613-1.538
				c2.491-1.839,3.506-4.552,6.588-3.181c5.393,2.399,11.433-1.358,13.746,0.538c3.239,2.657-1.14,3.708-3.971,4.47
				c-0.895,0.24-1.268-0.751-2.118,0.159c-3.607,3.859,4.476,2.539,6.207,2.433c4.907-0.302,14.34-2.056,14.954-7.478
				c0.036-0.313,0.056-0.652,0.057-1.003c0.678,0.112,1.358,0.171,2.013,0.171c0.748,0,1.46-0.068,2.084-0.19
				c3.283-0.642,6.447-2.701,8.467-5.509C128.677,61.224,128.423,57.591,128.179,54.077z"/>
			<path fill="#DCD3C1" d="M64.648,49.832c0.042,1.42,0.627,3.395,1.989,3.896c1.372,0.507,3.408-2.678,4.156-2.214
				C68.76,50.251,67.173,49.19,64.648,49.832z"/>
			<path fill="#E977AF" d="M68.06,51.038c-0.656-0.279-1.343-0.392-2.213-0.172c0.024,0.832,0.355,1.971,1.117,2.327
				C67.145,52.449,67.52,51.715,68.06,51.038z"/>
			<path fill="#DCD3C1" d="M86.355,42.624c0.815,1.163,1.529,3.096,0.737,4.312c-0.797,1.229-4.333-0.107-4.656,0.713
				C83.312,45.42,83.95,43.621,86.355,42.624z"/>
			<path fill="#E977AF" d="M86.426,46.505c0.002-0.005,0.008-0.008,0.012-0.014c0.479-0.739,0.047-1.912-0.448-2.618
				c-0.86,0.356-1.347,0.881-1.712,1.528C85.11,45.633,85.845,46.006,86.426,46.505z"/>
			<g>
				<path fill="#DCD3C1" d="M86.696,52.742c-0.126-0.379,1.085-1.132,2.829-1.81c-0.049-0.237-0.109-0.476-0.188-0.71
					c-0.033-0.102-0.072-0.203-0.112-0.303c-1.818,0.509-3.257,0.632-3.383,0.251c-0.12-0.36,0.965-1.06,2.569-1.708
					c-1.621-2.165-4.655-3.382-8.123-3.346c0.317,1.394,0.352,2.417,0.033,2.523c-0.349,0.114-1.014-0.899-1.646-2.419
					c-0.352,0.041-0.707,0.095-1.064,0.163c0.676,2.131,0.883,3.923,0.456,4.066c-0.437,0.146-1.373-1.484-2.112-3.663
					c-0.162,0.048-0.321,0.097-0.481,0.15c-0.161,0.054-0.318,0.11-0.476,0.168c0.71,2.188,0.935,4.053,0.497,4.198
					c-0.426,0.142-1.334-1.418-2.067-3.53c-0.325,0.159-0.643,0.329-0.951,0.506c0.403,1.595,0.478,2.806,0.128,2.922
					c-0.317,0.105-0.903-0.734-1.483-2.041c-2.799,2.046-4.503,4.834-4.507,7.54c1.674-0.439,2.961-0.529,3.081-0.169
					c0.126,0.382-1.099,1.143-2.861,1.823c0.027,0.104,0.057,0.207,0.09,0.311c0.078,0.234,0.173,0.459,0.276,0.68
					c1.803-0.501,3.223-0.621,3.349-0.241c0.115,0.349-0.906,1.018-2.433,1.652c2.461,2.88,7.573,3.888,12.673,2.194
					c5.101-1.694,8.594-5.559,8.844-9.341C88.031,53.017,86.812,53.091,86.696,52.742z"/>
				<path fill="#DCD3C1" d="M78.068,49.45c0.427-0.143,0.22-1.935-0.456-4.066c-0.549,0.104-1.102,0.238-1.656,0.403
					C76.695,47.966,77.632,49.596,78.068,49.45z"/>
				<path fill="#DCD3C1" d="M75.496,50.304c0.438-0.146,0.213-2.01-0.497-4.198c-0.544,0.198-1.067,0.423-1.57,0.668
					C74.162,48.886,75.07,50.445,75.496,50.304z"/>
				<path fill="#DCD3C1" d="M80.322,47.641c0.318-0.106,0.284-1.13-0.033-2.523c-0.528,0.005-1.067,0.04-1.612,0.104
					C79.309,46.741,79.974,47.755,80.322,47.641z"/>
				<path fill="#DCD3C1" d="M72.606,50.201c0.35-0.116,0.275-1.327-0.128-2.922c-0.476,0.274-0.928,0.569-1.355,0.881
					C71.703,49.467,72.289,50.307,72.606,50.201z"/>
				<path fill="#DCD3C1" d="M69.697,55.531c-0.12-0.36-1.407-0.271-3.081,0.169c0,0.559,0.071,1.111,0.22,1.654
					C68.598,56.674,69.823,55.913,69.697,55.531z"/>
				<path fill="#DCD3C1" d="M70.55,58.104c-0.126-0.38-1.546-0.26-3.349,0.241c0.239,0.51,0.549,0.98,0.916,1.411
					C69.644,59.121,70.666,58.452,70.55,58.104z"/>
				<path fill="#DCD3C1" d="M85.843,50.171c0.126,0.381,1.564,0.258,3.383-0.251c-0.205-0.524-0.479-1.011-0.813-1.457
					C86.808,49.111,85.723,49.811,85.843,50.171z"/>
				<path fill="#DCD3C1" d="M86.696,52.742c0.116,0.349,1.335,0.274,2.938-0.133c0.037-0.563,0.002-1.124-0.109-1.677
					C87.781,51.61,86.57,52.363,86.696,52.742z"/>
			</g>
			<path fill="#E977AF" d="M80.519,57.682c0.182,0.546-0.26,1.183-0.754,1.347c-0.495,0.165-1.229-0.083-1.41-0.63
				c-0.182-0.545,0.248-0.768,0.845-0.967C79.797,57.234,80.335,57.135,80.519,57.682z"/>
			<g>
				<g>
					<path fill="none" stroke="#695C57" d="M77.782,58.581c0,0-9.287,0.95-15.303,2.946"/>
					<path fill="none" stroke="#695C57" d="M77.986,59.436c0,0-8.866,3.021-14.259,6.305"/>
				</g>
				<g>
					<path fill="none" stroke="#695C57" d="M81.154,57.461c0,0,8.01-4.794,14.025-6.791"/>
					<path fill="none" stroke="#695C57" d="M81.5,58.27c0,0,8.914-2.884,15.199-3.478"/>
				</g>
			</g>
			<g>
				<path fill="none" stroke="#231E20" d="M77.115,56.047c0,0-1.421-1.358-2.686-1.053c-1.263,0.304-1.762,1.763-1.762,1.763"/>
				<path fill="none" stroke="#231E20" d="M85.039,54.135c0,0-1.423-1.357-2.686-1.054c-1.262,0.305-1.763,1.762-1.763,1.762"/>
			</g>
			<g>
				<path fill="none" stroke="#231E20" d="M38.164,44.029c0,0-1.16-1.587-2.458-1.51c-1.297,0.077-2.044,1.424-2.044,1.424"/>
				<path fill="none" stroke="#231E20" d="M46.301,43.546c0,0-1.161-1.589-2.458-1.512c-1.297,0.078-2.046,1.425-2.046,1.425"/>
			</g>
			<polygon fill="#6CB4B0" points="128.131,57.201 127.843,57.105 127.887,56.778 127.873,56.41 127.733,55.956 127.479,55.618 
				127.042,55.156 126.547,54.809 125.729,54.264 125.185,54.873 124.364,55.96 124.017,56.458 124.267,56.724 124.567,56.984 
				124.884,57.178 125.412,57.244 124.646,57.695 124.093,58.257 123.552,58.867 123.018,59.37 122.637,59.764 124.106,60.121 
				124.173,60.804 124.288,61.271 124.424,61.614 124.831,61.202 125.262,60.735 125.909,60.093 126.34,59.69 126.764,59.243 
				127.135,58.889 127.433,58.534 127.535,58.366 127.613,58.141 127.613,57.866 127.727,57.859 127.822,57.917 127.827,58.441 
				127.84,59.42 128.063,60.449 128.214,61.817 128.324,62.789 128.261,62.971 128.738,62.63 129.169,62.298 129.489,62.088 
				130.061,62.413 130.495,62.608 131.078,62.828 130.771,61.655 130.562,60.449 130.418,59.721 130.245,59.091 130.689,59.06 
				131.062,58.958 131.253,58.933 131.33,58.366 131.359,57.875 131.29,57.468 131.257,57.022 131.23,56.628 131.207,56.097 
				130.618,56.082 129.906,56.161 129.398,56.333 128.772,56.576 128.334,56.929 			"/>
			<polygon fill="#E2592F" points="39.54,53.729 39.149,53.767 39.028,53.357 38.822,52.928 38.413,52.464 37.937,52.197 
				37.18,51.881 36.407,51.728 35.157,51.506 34.83,52.519 34.428,54.237 34.278,55.009 34.716,55.193 35.208,55.342 35.69,55.408 
				36.343,55.208 35.674,56.14 35.318,57.099 34.993,58.108 34.626,58.983 34.379,59.65 36.308,59.301 36.746,60.071 37.129,60.57 
				37.467,60.903 37.739,60.204 38,59.423 38.431,58.318 38.729,57.618 38.995,56.862 39.243,56.252 39.415,55.675 39.446,55.42 
				39.42,55.115 39.274,54.791 39.41,54.726 39.55,54.738 39.832,55.356 40.363,56.512 41.165,57.612 42.066,59.153 42.701,60.243 
				42.725,60.494 43.113,59.84 43.445,59.219 43.717,58.803 44.562,58.892 45.179,58.889 45.992,58.838 45.004,57.618 
				44.122,56.298 43.575,55.511 43.038,54.86 43.543,54.586 43.933,54.271 44.145,54.139 43.94,53.43 43.717,52.834 43.419,52.385 
				43.148,51.878 42.909,51.424 42.6,50.81 41.9,51.098 41.1,51.566 40.585,52.037 39.973,52.651 39.638,53.304 			"/>
		</g>
	</g>
</g>
<g>
	<path fill="#695C57" d="M42.317,199.273h1.157v0.529c0.198-0.217,0.417-0.38,0.659-0.487c0.242-0.106,0.505-0.161,0.791-0.161
		c0.288,0,0.548,0.07,0.78,0.212s0.418,0.348,0.56,0.619c0.184-0.271,0.409-0.478,0.676-0.619c0.268-0.142,0.56-0.212,0.876-0.212
		c0.328,0,0.616,0.076,0.865,0.229c0.249,0.153,0.427,0.353,0.536,0.598c0.109,0.246,0.164,0.646,0.164,1.199v2.704h-1.166v-2.339
		c0-0.523-0.065-0.877-0.195-1.062c-0.13-0.185-0.325-0.277-0.585-0.277c-0.198,0-0.375,0.057-0.532,0.17s-0.273,0.27-0.35,0.469
		s-0.114,0.519-0.114,0.959v2.081h-1.166v-2.233c0-0.412-0.03-0.711-0.091-0.896c-0.061-0.185-0.152-0.322-0.274-0.412
		c-0.122-0.092-0.269-0.137-0.442-0.137c-0.192,0-0.367,0.058-0.524,0.172c-0.157,0.115-0.275,0.275-0.353,0.48
		c-0.078,0.207-0.117,0.531-0.117,0.975v2.052h-1.157V199.273z"/>
	<path fill="#695C57" d="M50.935,197.375c0.203,0,0.377,0.073,0.522,0.221c0.145,0.146,0.217,0.324,0.217,0.533
		c0,0.207-0.072,0.383-0.215,0.527c-0.144,0.146-0.315,0.219-0.516,0.219c-0.206,0-0.381-0.074-0.526-0.223s-0.218-0.328-0.218-0.54
		c0-0.204,0.072-0.378,0.215-0.521C50.559,197.447,50.732,197.375,50.935,197.375z M50.356,199.273h1.157v4.61h-1.157V199.273z"/>
	<path fill="#695C57" d="M57.078,200.205l-0.963,0.53c-0.181-0.189-0.36-0.321-0.537-0.394c-0.177-0.074-0.384-0.111-0.622-0.111
		c-0.433,0-0.783,0.129-1.05,0.388c-0.267,0.258-0.401,0.589-0.401,0.992c0,0.392,0.129,0.712,0.386,0.96s0.595,0.373,1.014,0.373
		c0.518,0,0.92-0.177,1.209-0.53l0.912,0.625c-0.494,0.644-1.192,0.964-2.093,0.964c-0.811,0-1.446-0.24-1.905-0.72
		c-0.459-0.48-0.688-1.042-0.688-1.687c0-0.447,0.111-0.857,0.334-1.233s0.535-0.671,0.935-0.886s0.847-0.322,1.341-0.322
		c0.458,0,0.869,0.092,1.233,0.273C56.548,199.61,56.846,199.869,57.078,200.205z"/>
	<path fill="#695C57" d="M58.124,197.493h1.148v2.246c0.226-0.194,0.454-0.341,0.683-0.438c0.229-0.098,0.46-0.146,0.695-0.146
		c0.458,0,0.843,0.158,1.157,0.475c0.269,0.274,0.403,0.677,0.403,1.208v3.047h-1.14v-2.021c0-0.534-0.025-0.896-0.076-1.085
		s-0.138-0.33-0.261-0.424c-0.123-0.093-0.275-0.14-0.456-0.14c-0.234,0-0.436,0.077-0.604,0.233
		c-0.168,0.155-0.285,0.367-0.35,0.635c-0.034,0.139-0.051,0.455-0.051,0.949v1.853h-1.148V197.493z"/>
	<path fill="#695C57" d="M67.947,201.913H64.23c0.054,0.328,0.197,0.589,0.43,0.782s0.53,0.29,0.892,0.29
		c0.432,0,0.804-0.151,1.114-0.454l0.975,0.459c-0.243,0.344-0.534,0.6-0.873,0.764c-0.339,0.166-0.742,0.248-1.208,0.248
		c-0.723,0-1.312-0.228-1.767-0.684c-0.455-0.457-0.682-1.027-0.682-1.715c0-0.703,0.227-1.287,0.68-1.752s1.022-0.697,1.706-0.697
		c0.726,0,1.316,0.232,1.771,0.697c0.455,0.465,0.682,1.078,0.682,1.842L67.947,201.913z M66.79,201.002
		c-0.076-0.257-0.227-0.466-0.452-0.627s-0.486-0.242-0.783-0.242c-0.322,0-0.605,0.092-0.849,0.271
		c-0.153,0.113-0.294,0.312-0.425,0.598H66.79z"/>
	<path fill="#695C57" d="M68.756,197.493h1.157v6.391h-1.157V197.493z"/>
	<path fill="#695C57" d="M70.837,197.493h1.157v6.391h-1.157V197.493z"/>
	<path fill="#695C57" d="M77.664,201.913h-3.717c0.055,0.328,0.197,0.589,0.431,0.782s0.53,0.29,0.892,0.29
		c0.433,0,0.805-0.151,1.115-0.454l0.975,0.459c-0.243,0.344-0.534,0.6-0.873,0.764c-0.34,0.166-0.742,0.248-1.208,0.248
		c-0.724,0-1.312-0.228-1.767-0.684c-0.455-0.457-0.683-1.027-0.683-1.715c0-0.703,0.227-1.287,0.681-1.752
		c0.453-0.465,1.021-0.697,1.705-0.697c0.727,0,1.316,0.232,1.771,0.697s0.682,1.078,0.682,1.842L77.664,201.913z M76.508,201.002
		c-0.076-0.257-0.228-0.466-0.453-0.627c-0.225-0.161-0.485-0.242-0.783-0.242c-0.322,0-0.605,0.092-0.848,0.271
		c-0.153,0.113-0.295,0.312-0.426,0.598H76.508z"/>
	<path fill="#695C57" d="M81.033,197.493h1.148v2.246c0.227-0.194,0.453-0.341,0.683-0.438c0.229-0.098,0.46-0.146,0.694-0.146
		c0.458,0,0.844,0.158,1.157,0.475c0.269,0.274,0.403,0.677,0.403,1.208v3.047h-1.141v-2.021c0-0.534-0.025-0.896-0.076-1.085
		s-0.138-0.33-0.261-0.424c-0.123-0.093-0.274-0.14-0.456-0.14c-0.234,0-0.436,0.077-0.604,0.233
		c-0.168,0.155-0.285,0.367-0.35,0.635c-0.033,0.139-0.051,0.455-0.051,0.949v1.853h-1.148V197.493z"/>
	<path fill="#695C57" d="M89.641,199.273h1.156v4.61h-1.156v-0.487c-0.227,0.215-0.453,0.369-0.68,0.464
		c-0.228,0.095-0.474,0.142-0.738,0.142c-0.596,0-1.111-0.23-1.545-0.692c-0.436-0.462-0.652-1.036-0.652-1.723
		c0-0.712,0.21-1.296,0.631-1.75c0.42-0.455,0.931-0.683,1.531-0.683c0.277,0,0.537,0.053,0.779,0.157s0.467,0.261,0.674,0.47
		V199.273z M88.424,200.223c-0.357,0-0.654,0.127-0.891,0.379c-0.236,0.253-0.355,0.577-0.355,0.973
		c0,0.398,0.121,0.727,0.361,0.983s0.537,0.386,0.889,0.386c0.363,0,0.664-0.127,0.904-0.379c0.239-0.254,0.359-0.585,0.359-0.994
		c0-0.401-0.12-0.727-0.359-0.975C89.092,200.347,88.79,200.223,88.424,200.223z"/>
	<path fill="#695C57" d="M91.932,199.273h1.158v4.763c0,0.438-0.044,0.765-0.13,0.981c-0.087,0.216-0.223,0.382-0.409,0.498
		c-0.187,0.115-0.411,0.174-0.674,0.174c-0.231,0-0.52-0.059-0.864-0.174v-0.912c0.181,0.088,0.341,0.132,0.479,0.132
		c0.146,0,0.256-0.044,0.33-0.132c0.073-0.087,0.109-0.248,0.109-0.482V199.273z M92.509,197.375c0.206,0,0.382,0.073,0.527,0.22
		s0.218,0.323,0.218,0.532c0,0.205-0.072,0.382-0.216,0.528s-0.316,0.22-0.517,0.22c-0.207,0-0.383-0.074-0.527-0.225
		c-0.146-0.148-0.219-0.329-0.219-0.541c0-0.202,0.071-0.375,0.214-0.52C92.132,197.447,92.305,197.375,92.509,197.375z"/>
	<path fill="#695C57" d="M93.949,199.273h0.992v0.58c0.107-0.229,0.25-0.402,0.428-0.521c0.178-0.118,0.373-0.178,0.584-0.178
		c0.15,0,0.307,0.04,0.471,0.119l-0.359,0.996c-0.137-0.068-0.248-0.102-0.336-0.102c-0.178,0-0.328,0.109-0.451,0.33
		s-0.184,0.652-0.184,1.297l0.004,0.225v1.864h-1.148V199.273z"/>
	<path fill="#695C57" d="M100.399,199.273h1.157v4.61h-1.157v-0.487c-0.226,0.215-0.452,0.369-0.68,0.464s-0.474,0.142-0.738,0.142
		c-0.596,0-1.11-0.23-1.545-0.692s-0.651-1.036-0.651-1.723c0-0.712,0.209-1.296,0.63-1.75c0.421-0.455,0.931-0.683,1.532-0.683
		c0.277,0,0.536,0.053,0.779,0.157c0.242,0.104,0.467,0.261,0.673,0.47V199.273z M99.184,200.223c-0.357,0-0.655,0.127-0.892,0.379
		c-0.236,0.253-0.354,0.577-0.354,0.973c0,0.398,0.12,0.727,0.361,0.983c0.24,0.257,0.537,0.386,0.889,0.386
		c0.363,0,0.664-0.127,0.904-0.379c0.238-0.254,0.358-0.585,0.358-0.994c0-0.401-0.12-0.727-0.358-0.975
		C99.852,200.347,99.549,200.223,99.184,200.223z"/>
	<path fill="#695C57" d="M49.756,209.65v0.594h-2.215l-0.312,1.699c0.271-0.08,0.515-0.119,0.732-0.119
		c0.567,0,1.035,0.189,1.403,0.57c0.368,0.379,0.552,0.866,0.552,1.459c0,0.41-0.095,0.785-0.284,1.127
		c-0.189,0.343-0.446,0.604-0.769,0.787c-0.324,0.182-0.697,0.273-1.121,0.273c-0.506,0-0.932-0.155-1.28-0.465
		c-0.348-0.309-0.555-0.709-0.623-1.201h0.64c0.048,0.24,0.129,0.436,0.244,0.585s0.267,0.271,0.458,0.362
		c0.191,0.092,0.391,0.138,0.6,0.138c0.41,0,0.761-0.155,1.055-0.466s0.441-0.697,0.441-1.164c0-0.42-0.133-0.762-0.398-1.023
		s-0.62-0.394-1.063-0.394c-0.368,0-0.812,0.112-1.335,0.335l0.576-3.098H49.756z"/>
	<path fill="#695C57" d="M51.905,209.65h1.225v6.233h-0.619v-5.624h-0.979L51.905,209.65z"/>
	<path fill="#695C57" d="M56.113,211.6h-0.598c0.017-0.615,0.223-1.119,0.617-1.514s0.881-0.593,1.46-0.593
		c0.573,0,1.038,0.186,1.392,0.556s0.532,0.807,0.532,1.311c0,0.353-0.084,0.684-0.253,0.994c-0.169,0.309-0.498,0.729-0.985,1.256
		l-1.553,1.673h2.875v0.602h-4.233l2.382-2.573c0.483-0.518,0.797-0.902,0.943-1.152s0.218-0.514,0.218-0.791
		c0-0.35-0.131-0.652-0.392-0.905s-0.581-0.38-0.96-0.38c-0.398,0-0.729,0.133-0.994,0.398S56.15,211.119,56.113,211.6z"/>
	<path fill="#695C57" d="M61.232,214.951c0.144,0,0.267,0.051,0.369,0.152c0.102,0.102,0.153,0.227,0.153,0.373
		c0,0.145-0.051,0.268-0.153,0.371c-0.102,0.104-0.225,0.154-0.369,0.154s-0.267-0.051-0.369-0.154
		c-0.102-0.104-0.152-0.227-0.152-0.371c0-0.146,0.051-0.271,0.152-0.373C60.965,215.002,61.088,214.951,61.232,214.951z"/>
	<path fill="#695C57" d="M63.326,211.6h-0.598c0.017-0.615,0.223-1.119,0.617-1.514s0.881-0.593,1.46-0.593
		c0.573,0,1.038,0.186,1.392,0.556s0.532,0.807,0.532,1.311c0,0.353-0.084,0.684-0.253,0.994c-0.169,0.309-0.498,0.729-0.985,1.256
		l-1.553,1.673h2.875v0.602H62.58l2.382-2.573c0.483-0.518,0.797-0.902,0.943-1.152s0.218-0.514,0.218-0.791
		c0-0.35-0.131-0.652-0.392-0.905s-0.581-0.38-0.96-0.38c-0.398,0-0.729,0.133-0.994,0.398S63.362,211.119,63.326,211.6z"/>
	<path fill="#695C57" d="M68.135,211.6h-0.598c0.017-0.615,0.223-1.119,0.617-1.514s0.881-0.593,1.46-0.593
		c0.573,0,1.038,0.186,1.392,0.556s0.532,0.807,0.532,1.311c0,0.353-0.084,0.684-0.253,0.994c-0.169,0.309-0.498,0.729-0.985,1.256
		l-1.553,1.673h2.875v0.602h-4.233l2.382-2.573c0.483-0.518,0.797-0.902,0.943-1.152s0.218-0.514,0.218-0.791
		c0-0.35-0.131-0.652-0.392-0.905s-0.581-0.38-0.96-0.38c-0.398,0-0.729,0.133-0.994,0.398S68.172,211.119,68.135,211.6z"/>
	<path fill="#695C57" d="M75.276,212.464c0.421,0.21,0.723,0.448,0.905,0.716c0.182,0.27,0.273,0.574,0.273,0.916
		c0,0.48-0.157,0.904-0.471,1.271c-0.385,0.449-0.934,0.674-1.648,0.674c-0.689,0-1.213-0.197-1.569-0.592s-0.534-0.828-0.534-1.303
		c0-0.348,0.093-0.66,0.28-0.939c0.186-0.277,0.498-0.525,0.932-0.743c-0.305-0.158-0.534-0.354-0.687-0.589
		s-0.229-0.486-0.229-0.754c0-0.271,0.082-0.537,0.244-0.795c0.163-0.259,0.388-0.462,0.674-0.61
		c0.287-0.148,0.598-0.223,0.931-0.223c0.325,0,0.626,0.075,0.903,0.225c0.276,0.149,0.493,0.354,0.65,0.61
		c0.156,0.258,0.234,0.527,0.234,0.81s-0.074,0.534-0.223,0.755C75.795,212.112,75.573,212.303,75.276,212.464z M74.376,212.777
		c-0.429,0-0.788,0.14-1.079,0.418c-0.291,0.277-0.437,0.602-0.437,0.973c0,0.229,0.062,0.444,0.187,0.648
		c0.125,0.203,0.298,0.359,0.521,0.47c0.223,0.11,0.48,0.165,0.773,0.165c0.455,0,0.815-0.134,1.084-0.402
		c0.268-0.268,0.401-0.582,0.401-0.94c0-0.348-0.142-0.656-0.425-0.927C75.119,212.912,74.776,212.777,74.376,212.777z
		 M74.346,210.1c-0.342,0-0.625,0.101-0.851,0.303s-0.337,0.443-0.337,0.723c0,0.277,0.121,0.527,0.362,0.752
		c0.242,0.225,0.524,0.337,0.847,0.337c0.207,0,0.402-0.051,0.586-0.152s0.328-0.241,0.432-0.417
		c0.103-0.178,0.154-0.354,0.154-0.532c0-0.251-0.102-0.483-0.306-0.695S74.734,210.1,74.346,210.1z"/>
	<path fill="#695C57" d="M78.064,214.951c0.145,0,0.268,0.051,0.369,0.152s0.152,0.227,0.152,0.373c0,0.145-0.051,0.268-0.152,0.371
		s-0.225,0.154-0.369,0.154s-0.267-0.051-0.369-0.154c-0.102-0.104-0.152-0.227-0.152-0.371c0-0.146,0.051-0.271,0.152-0.373
		C77.798,215.002,77.92,214.951,78.064,214.951z"/>
	<path fill="#695C57" d="M82.34,209.493l0.514,0.335l-1.686,2.551c0.226-0.076,0.438-0.114,0.636-0.114
		c0.495,0,0.915,0.179,1.261,0.536s0.518,0.797,0.518,1.32c0,0.358-0.084,0.683-0.25,0.973c-0.167,0.289-0.404,0.52-0.711,0.69
		s-0.637,0.257-0.99,0.257c-0.342,0-0.66-0.083-0.953-0.248c-0.292-0.166-0.521-0.398-0.689-0.697
		c-0.166-0.299-0.25-0.62-0.25-0.962c0-0.255,0.052-0.522,0.155-0.804c0.103-0.281,0.288-0.619,0.554-1.014L82.34,209.493z
		 M81.656,212.812c-0.363,0-0.672,0.128-0.928,0.384s-0.384,0.565-0.384,0.93c0,0.361,0.128,0.67,0.384,0.926
		s0.565,0.384,0.928,0.384s0.672-0.128,0.928-0.384s0.384-0.564,0.384-0.926c0-0.364-0.128-0.674-0.384-0.93
		C82.327,212.939,82.018,212.812,81.656,212.812z"/>
	<path fill="#695C57" d="M84.238,212.77c0-0.822,0.089-1.458,0.266-1.907c0.176-0.449,0.426-0.79,0.748-1.021
		s0.682-0.348,1.08-0.348c0.404,0,0.77,0.116,1.098,0.35s0.587,0.583,0.777,1.049c0.191,0.466,0.287,1.093,0.287,1.878
		c0,0.782-0.095,1.405-0.283,1.868c-0.188,0.464-0.446,0.813-0.777,1.049c-0.33,0.235-0.697,0.354-1.102,0.354
		c-0.398,0-0.757-0.115-1.076-0.344s-0.568-0.57-0.748-1.023S84.238,213.586,84.238,212.77z M84.828,212.779
		c0,0.705,0.062,1.236,0.188,1.598c0.126,0.359,0.312,0.634,0.558,0.82c0.245,0.187,0.506,0.279,0.779,0.279
		c0.277,0,0.535-0.091,0.775-0.273c0.24-0.182,0.422-0.455,0.547-0.82c0.155-0.443,0.232-0.979,0.232-1.604
		c0-0.627-0.068-1.141-0.207-1.541s-0.33-0.693-0.574-0.878s-0.502-0.278-0.773-0.278c-0.277,0-0.537,0.094-0.779,0.278
		c-0.244,0.185-0.429,0.458-0.556,0.818S84.828,212.072,84.828,212.779z"/>
	<path fill="#695C57" d="M91.959,209.493l0.514,0.335l-1.686,2.551c0.226-0.076,0.438-0.114,0.636-0.114
		c0.495,0,0.915,0.179,1.261,0.536s0.518,0.797,0.518,1.32c0,0.358-0.084,0.683-0.25,0.973c-0.167,0.289-0.404,0.52-0.711,0.69
		s-0.637,0.257-0.99,0.257c-0.342,0-0.66-0.083-0.953-0.248c-0.292-0.166-0.521-0.398-0.689-0.697
		c-0.166-0.299-0.25-0.62-0.25-0.962c0-0.255,0.052-0.522,0.155-0.804c0.103-0.281,0.288-0.619,0.554-1.014L91.959,209.493z
		 M91.275,212.812c-0.363,0-0.672,0.128-0.928,0.384s-0.384,0.565-0.384,0.93c0,0.361,0.128,0.67,0.384,0.926
		s0.565,0.384,0.928,0.384s0.672-0.128,0.928-0.384s0.384-0.564,0.384-0.926c0-0.364-0.128-0.674-0.384-0.93
		C91.946,212.939,91.637,212.812,91.275,212.812z"/>
	<path fill="#695C57" d="M96.77,209.493l0.513,0.335l-1.686,2.551c0.226-0.076,0.438-0.114,0.636-0.114
		c0.496,0,0.916,0.179,1.262,0.536c0.345,0.357,0.518,0.797,0.518,1.32c0,0.358-0.084,0.683-0.25,0.973
		c-0.168,0.289-0.404,0.52-0.711,0.69s-0.637,0.257-0.99,0.257c-0.343,0-0.66-0.083-0.953-0.248
		c-0.293-0.166-0.522-0.398-0.689-0.697c-0.166-0.299-0.25-0.62-0.25-0.962c0-0.255,0.051-0.522,0.154-0.804
		s0.288-0.619,0.555-1.014L96.77,209.493z M96.085,212.812c-0.362,0-0.671,0.128-0.927,0.384s-0.385,0.565-0.385,0.93
		c0,0.361,0.129,0.67,0.385,0.926s0.564,0.384,0.928,0.384c0.361,0,0.671-0.128,0.927-0.384c0.257-0.256,0.384-0.564,0.384-0.926
		c0-0.364-0.128-0.674-0.384-0.93C96.756,212.939,96.447,212.812,96.085,212.812z"/>
	<path fill="#695C57" d="M5.226,221.688h0.593v0.797c0.207-0.294,0.418-0.508,0.637-0.645c0.3-0.18,0.615-0.271,0.946-0.271
		c0.224,0,0.436,0.044,0.636,0.132c0.201,0.087,0.365,0.203,0.492,0.35c0.127,0.145,0.238,0.354,0.331,0.625
		c0.197-0.362,0.444-0.637,0.74-0.824c0.296-0.188,0.615-0.282,0.956-0.282c0.318,0,0.6,0.08,0.843,0.241
		c0.244,0.161,0.425,0.386,0.543,0.674c0.118,0.288,0.177,0.721,0.177,1.297v2.518h-0.606v-2.518c0-0.494-0.035-0.834-0.105-1.02
		c-0.07-0.185-0.191-0.334-0.361-0.447c-0.17-0.112-0.374-0.169-0.61-0.169c-0.288,0-0.55,0.085-0.788,0.255
		c-0.238,0.169-0.412,0.395-0.521,0.678c-0.11,0.282-0.165,0.754-0.165,1.415v1.806H8.37v-2.361c0-0.557-0.035-0.934-0.104-1.133
		s-0.19-0.359-0.362-0.479c-0.172-0.121-0.377-0.181-0.614-0.181c-0.274,0-0.531,0.083-0.769,0.248
		c-0.239,0.165-0.416,0.388-0.53,0.667c-0.115,0.279-0.172,0.708-0.172,1.284v1.954H5.226V221.688z"/>
	<path fill="#695C57" d="M13.576,219.789c0.135,0,0.25,0.049,0.346,0.145c0.096,0.096,0.144,0.211,0.144,0.348
		c0,0.133-0.048,0.247-0.144,0.343c-0.095,0.097-0.211,0.144-0.346,0.144c-0.132,0-0.246-0.047-0.342-0.144
		c-0.096-0.096-0.144-0.21-0.144-0.343c0-0.137,0.048-0.252,0.144-0.348S13.444,219.789,13.576,219.789z M13.282,221.688h0.593
		v4.611h-0.593V221.688z"/>
	<path fill="#695C57" d="M19.583,222.646l-0.471,0.292c-0.406-0.539-0.96-0.809-1.664-0.809c-0.562,0-1.028,0.18-1.398,0.541
		c-0.371,0.361-0.557,0.801-0.557,1.316c0,0.336,0.085,0.652,0.256,0.949c0.171,0.295,0.405,0.525,0.703,0.689
		s0.631,0.245,1.001,0.245c0.677,0,1.23-0.27,1.659-0.81l0.471,0.31c-0.221,0.332-0.517,0.589-0.888,0.772
		c-0.371,0.184-0.794,0.274-1.269,0.274c-0.729,0-1.333-0.231-1.813-0.694c-0.48-0.464-0.721-1.027-0.721-1.691
		c0-0.446,0.112-0.861,0.337-1.244s0.533-0.682,0.926-0.896c0.393-0.215,0.832-0.321,1.318-0.321c0.305,0,0.6,0.046,0.883,0.14
		c0.284,0.094,0.525,0.215,0.723,0.364S19.444,222.414,19.583,222.646z"/>
	<path fill="#695C57" d="M20.723,219.908h0.593v2.605c0.24-0.316,0.504-0.553,0.792-0.709c0.288-0.157,0.6-0.235,0.937-0.235
		c0.345,0,0.65,0.087,0.917,0.263c0.267,0.175,0.464,0.41,0.591,0.705c0.127,0.295,0.191,0.758,0.191,1.389v2.373h-0.593V224.1
		c0-0.531-0.021-0.887-0.063-1.064c-0.074-0.305-0.207-0.534-0.4-0.688c-0.194-0.153-0.447-0.231-0.761-0.231
		c-0.359,0-0.68,0.119-0.964,0.356c-0.284,0.237-0.471,0.531-0.562,0.882c-0.056,0.226-0.084,0.644-0.084,1.254v1.691h-0.593
		V219.908z"/>
	<path fill="#695C57" d="M29.897,224.769l0.5,0.263c-0.164,0.322-0.354,0.582-0.568,0.779c-0.215,0.198-0.457,0.349-0.726,0.451
		c-0.269,0.104-0.573,0.155-0.912,0.155c-0.752,0-1.34-0.247-1.765-0.739c-0.424-0.493-0.636-1.051-0.636-1.672
		c0-0.585,0.18-1.105,0.539-1.564c0.455-0.581,1.064-0.872,1.828-0.872c0.786,0,1.414,0.298,1.883,0.894
		c0.333,0.422,0.503,0.947,0.509,1.576h-4.148c0.011,0.536,0.182,0.975,0.513,1.317s0.74,0.514,1.226,0.514
		c0.235,0,0.463-0.04,0.685-0.122c0.222-0.082,0.411-0.189,0.566-0.325C29.548,225.287,29.716,225.07,29.897,224.769z
		 M29.897,223.527c-0.08-0.316-0.195-0.57-0.346-0.759c-0.151-0.189-0.351-0.342-0.6-0.458c-0.249-0.115-0.511-0.174-0.785-0.174
		c-0.453,0-0.841,0.146-1.167,0.437c-0.238,0.212-0.417,0.53-0.539,0.954H29.897z"/>
	<path fill="#695C57" d="M31.567,219.908h0.593v6.391h-0.593V219.908z"/>
	<path fill="#695C57" d="M33.305,219.908h0.593v6.391h-0.593V219.908z"/>
	<path fill="#695C57" d="M39.013,224.769l0.5,0.263c-0.164,0.322-0.354,0.582-0.568,0.779c-0.215,0.198-0.457,0.349-0.726,0.451
		c-0.269,0.104-0.573,0.155-0.912,0.155c-0.752,0-1.34-0.247-1.765-0.739c-0.424-0.493-0.636-1.051-0.636-1.672
		c0-0.585,0.18-1.105,0.539-1.564c0.455-0.581,1.064-0.872,1.828-0.872c0.786,0,1.414,0.298,1.883,0.894
		c0.333,0.422,0.503,0.947,0.509,1.576h-4.148c0.011,0.536,0.182,0.975,0.513,1.317s0.74,0.514,1.226,0.514
		c0.235,0,0.463-0.04,0.685-0.122c0.222-0.082,0.411-0.189,0.566-0.325C38.663,225.287,38.832,225.07,39.013,224.769z
		 M39.013,223.527c-0.08-0.316-0.195-0.57-0.346-0.759c-0.151-0.189-0.351-0.342-0.6-0.458c-0.249-0.115-0.511-0.174-0.785-0.174
		c-0.453,0-0.841,0.146-1.167,0.437c-0.238,0.212-0.417,0.53-0.539,0.954H39.013z"/>
	<path fill="#695C57" d="M46.229,225.027h0.449c-0.378,0.472-0.729,0.803-1.051,0.991c-0.458,0.266-0.979,0.398-1.564,0.398
		c-0.619,0-1.189-0.146-1.712-0.438c-0.522-0.293-0.93-0.692-1.223-1.198s-0.438-1.059-0.438-1.658c0-0.607,0.147-1.173,0.443-1.696
		c0.295-0.522,0.697-0.93,1.206-1.219c0.508-0.29,1.065-0.435,1.669-0.435c0.854,0,1.574,0.273,2.162,0.82
		c0.587,0.548,0.881,1.185,0.881,1.911c0,0.528-0.123,0.984-0.367,1.367c-0.245,0.383-0.576,0.682-0.994,0.893
		c-0.319,0.164-0.592,0.246-0.818,0.246c-0.164,0-0.294-0.043-0.39-0.131c-0.074-0.065-0.112-0.178-0.114-0.34
		c-0.096,0.122-0.228,0.224-0.396,0.306c-0.168,0.082-0.342,0.123-0.523,0.123c-0.407,0-0.743-0.141-1.008-0.423
		c-0.266-0.281-0.398-0.653-0.398-1.117c0-0.501,0.161-0.957,0.483-1.371c0.322-0.412,0.765-0.619,1.33-0.619
		c0.248,0,0.457,0.047,0.624,0.141c0.168,0.093,0.327,0.255,0.477,0.486l0.112-0.584h0.458l-0.491,2.771
		c-0.014,0.09-0.021,0.148-0.021,0.174c0,0.066,0.02,0.118,0.06,0.155c0.04,0.038,0.09,0.056,0.152,0.056
		c0.167,0,0.384-0.096,0.65-0.29c0.267-0.194,0.475-0.442,0.623-0.747c0.148-0.303,0.223-0.641,0.223-1.012
		c0-0.718-0.278-1.312-0.835-1.785c-0.52-0.438-1.153-0.658-1.898-0.658c-0.554,0-1.056,0.127-1.506,0.381
		c-0.451,0.252-0.807,0.609-1.068,1.068c-0.262,0.459-0.392,0.956-0.392,1.49c0,0.54,0.131,1.039,0.394,1.495
		s0.626,0.815,1.091,1.075c0.464,0.26,0.977,0.39,1.536,0.39c0.41,0,0.781-0.073,1.114-0.22
		C45.49,225.677,45.848,225.411,46.229,225.027z M43.661,224.488c0.187,0,0.361-0.059,0.525-0.176
		c0.164-0.117,0.293-0.294,0.39-0.529c0.124-0.309,0.187-0.619,0.187-0.93c0-0.285-0.08-0.518-0.24-0.695
		c-0.159-0.178-0.366-0.268-0.62-0.268c-0.339,0-0.632,0.141-0.879,0.418c-0.247,0.279-0.371,0.627-0.371,1.043
		c0,0.348,0.094,0.625,0.282,0.83C43.122,224.387,43.364,224.488,43.661,224.488z"/>
	<path fill="#695C57" d="M48.208,219.908h0.593v6.391h-0.593V219.908z"/>
	<path fill="#695C57" d="M50.24,219.789c0.135,0,0.25,0.049,0.346,0.145c0.096,0.096,0.144,0.211,0.144,0.348
		c0,0.133-0.048,0.247-0.144,0.343c-0.095,0.097-0.211,0.144-0.346,0.144c-0.132,0-0.246-0.047-0.342-0.144
		c-0.096-0.096-0.144-0.21-0.144-0.343c0-0.137,0.048-0.252,0.144-0.348S50.108,219.789,50.24,219.789z M49.946,221.688h0.593v4.611
		h-0.593V221.688z"/>
	<path fill="#695C57" d="M52.289,219.976h0.593v1.712h0.94v0.514h-0.94v4.098h-0.593v-4.098h-0.81v-0.514h0.81V219.976z"/>
	<path fill="#695C57" d="M55.23,219.976h0.593v1.712h0.94v0.514h-0.94v4.098H55.23v-4.098h-0.81v-0.514h0.81V219.976z"/>
	<path fill="#695C57" d="M57.565,219.908h0.593v6.391h-0.593V219.908z"/>
	<path fill="#695C57" d="M63.273,224.769l0.5,0.263c-0.164,0.322-0.354,0.582-0.568,0.779c-0.215,0.198-0.457,0.349-0.726,0.451
		c-0.269,0.104-0.573,0.155-0.912,0.155c-0.752,0-1.34-0.247-1.765-0.739c-0.424-0.493-0.636-1.051-0.636-1.672
		c0-0.585,0.18-1.105,0.539-1.564c0.455-0.581,1.064-0.872,1.828-0.872c0.786,0,1.414,0.298,1.883,0.894
		c0.333,0.422,0.503,0.947,0.509,1.576h-4.148c0.011,0.536,0.182,0.975,0.513,1.317s0.74,0.514,1.226,0.514
		c0.235,0,0.463-0.04,0.685-0.122c0.222-0.082,0.411-0.189,0.566-0.325C62.924,225.287,63.092,225.07,63.273,224.769z
		 M63.273,223.527c-0.08-0.316-0.195-0.57-0.346-0.759c-0.151-0.189-0.351-0.342-0.6-0.458c-0.249-0.115-0.511-0.174-0.785-0.174
		c-0.453,0-0.841,0.146-1.167,0.437c-0.238,0.212-0.417,0.53-0.539,0.954H63.273z"/>
	<path fill="#695C57" d="M64.807,221.688h0.606v0.674c0.181-0.266,0.372-0.464,0.572-0.596c0.2-0.131,0.409-0.196,0.627-0.196
		c0.164,0,0.339,0.052,0.525,0.157l-0.309,0.5c-0.125-0.055-0.229-0.081-0.314-0.081c-0.198,0-0.388,0.081-0.572,0.243
		c-0.184,0.163-0.324,0.415-0.419,0.757c-0.074,0.263-0.11,0.794-0.11,1.593v1.561h-0.606V221.688z"/>
	<path fill="#695C57" d="M72.236,221.688v4.611h-0.585v-0.793c-0.249,0.303-0.528,0.529-0.837,0.682
		c-0.31,0.153-0.648,0.229-1.015,0.229c-0.652,0-1.209-0.237-1.671-0.71s-0.693-1.049-0.693-1.727c0-0.664,0.233-1.232,0.699-1.703
		c0.466-0.473,1.027-0.708,1.682-0.708c0.378,0,0.721,0.08,1.028,0.241c0.306,0.161,0.575,0.402,0.807,0.725v-0.848H72.236z
		 M69.865,222.141c-0.33,0-0.635,0.082-0.915,0.244c-0.279,0.162-0.501,0.391-0.667,0.684s-0.248,0.604-0.248,0.932
		c0,0.324,0.083,0.635,0.25,0.931s0.39,0.526,0.671,0.692c0.281,0.164,0.582,0.247,0.904,0.247c0.325,0,0.632-0.081,0.923-0.245
		s0.514-0.385,0.671-0.664s0.235-0.595,0.235-0.944c0-0.534-0.176-0.979-0.527-1.338C70.811,222.32,70.378,222.141,69.865,222.141z"
		/>
	<path fill="#695C57" d="M75.889,222.191l-0.381,0.395c-0.317-0.308-0.627-0.462-0.93-0.462c-0.193,0-0.358,0.063-0.496,0.19
		c-0.137,0.127-0.205,0.275-0.205,0.445c0,0.15,0.057,0.293,0.17,0.428c0.112,0.139,0.351,0.301,0.713,0.488
		c0.441,0.229,0.742,0.449,0.9,0.66c0.155,0.215,0.233,0.457,0.233,0.725c0,0.379-0.134,0.699-0.399,0.963
		c-0.266,0.262-0.598,0.394-0.997,0.394c-0.267,0-0.521-0.058-0.762-0.174c-0.242-0.116-0.442-0.275-0.601-0.479l0.373-0.423
		c0.303,0.342,0.624,0.513,0.964,0.513c0.237,0,0.44-0.076,0.607-0.229s0.251-0.332,0.251-0.539c0-0.169-0.056-0.32-0.166-0.453
		c-0.11-0.13-0.359-0.293-0.747-0.491c-0.417-0.215-0.7-0.427-0.85-0.636s-0.226-0.447-0.226-0.717c0-0.35,0.12-0.641,0.359-0.873
		c0.238-0.23,0.541-0.347,0.906-0.347C75.031,221.569,75.459,221.777,75.889,222.191z"/>
	<path fill="#695C57" d="M81.415,222.646l-0.471,0.292c-0.406-0.539-0.96-0.809-1.663-0.809c-0.562,0-1.028,0.18-1.398,0.541
		c-0.371,0.361-0.557,0.801-0.557,1.316c0,0.336,0.084,0.652,0.256,0.949c0.17,0.295,0.404,0.525,0.702,0.689
		s0.632,0.245,1.001,0.245c0.678,0,1.23-0.27,1.659-0.81l0.471,0.31c-0.221,0.332-0.517,0.589-0.888,0.772s-0.795,0.274-1.27,0.274
		c-0.729,0-1.334-0.231-1.813-0.694c-0.48-0.464-0.721-1.027-0.721-1.691c0-0.446,0.112-0.861,0.337-1.244s0.533-0.682,0.926-0.896
		s0.832-0.321,1.318-0.321c0.305,0,0.6,0.046,0.883,0.14c0.285,0.094,0.525,0.215,0.723,0.364
		C81.108,222.223,81.276,222.414,81.415,222.646z"/>
	<path fill="#695C57" d="M87.148,221.688v4.611h-0.585v-0.793c-0.249,0.303-0.528,0.529-0.837,0.682
		c-0.31,0.153-0.648,0.229-1.016,0.229c-0.652,0-1.209-0.237-1.671-0.71s-0.692-1.049-0.692-1.727c0-0.664,0.232-1.232,0.699-1.703
		c0.465-0.473,1.026-0.708,1.682-0.708c0.379,0,0.721,0.08,1.027,0.241s0.576,0.402,0.808,0.725v-0.848H87.148z M84.777,222.141
		c-0.33,0-0.635,0.082-0.914,0.244s-0.502,0.391-0.667,0.684s-0.247,0.604-0.247,0.932c0,0.324,0.082,0.635,0.249,0.931
		s0.39,0.526,0.671,0.692c0.281,0.164,0.582,0.247,0.904,0.247c0.324,0,0.632-0.081,0.922-0.245
		c0.291-0.164,0.515-0.385,0.672-0.664c0.156-0.279,0.234-0.595,0.234-0.944c0-0.534-0.176-0.979-0.527-1.338
		S85.291,222.141,84.777,222.141z"/>
	<path fill="#695C57" d="M88.395,219.908h0.594v6.391h-0.594V219.908z"/>
	<path fill="#695C57" d="M92.539,222.191l-0.382,0.395c-0.317-0.308-0.628-0.462-0.931-0.462c-0.192,0-0.357,0.063-0.494,0.19
		c-0.139,0.127-0.207,0.275-0.207,0.445c0,0.15,0.057,0.293,0.17,0.428c0.113,0.139,0.352,0.301,0.714,0.488
		c0.441,0.229,0.741,0.449,0.9,0.66c0.155,0.215,0.233,0.457,0.233,0.725c0,0.379-0.133,0.699-0.398,0.963
		c-0.267,0.262-0.6,0.394-0.998,0.394c-0.266,0-0.52-0.058-0.762-0.174s-0.442-0.275-0.601-0.479l0.373-0.423
		c0.303,0.342,0.624,0.513,0.964,0.513c0.238,0,0.44-0.076,0.607-0.229s0.251-0.332,0.251-0.539c0-0.169-0.056-0.32-0.166-0.453
		c-0.11-0.13-0.359-0.293-0.747-0.491c-0.416-0.215-0.699-0.427-0.85-0.636s-0.225-0.447-0.225-0.717
		c0-0.35,0.119-0.641,0.358-0.873c0.239-0.23,0.541-0.347,0.906-0.347C91.682,221.569,92.108,221.777,92.539,222.191z"/>
	<path fill="#695C57" d="M98.184,221.688v4.611h-0.585v-0.793c-0.249,0.303-0.528,0.529-0.837,0.682
		c-0.31,0.153-0.648,0.229-1.016,0.229c-0.652,0-1.209-0.237-1.671-0.71s-0.692-1.049-0.692-1.727c0-0.664,0.232-1.232,0.699-1.703
		c0.465-0.473,1.026-0.708,1.682-0.708c0.379,0,0.721,0.08,1.027,0.241s0.576,0.402,0.808,0.725v-0.848H98.184z M95.812,222.141
		c-0.33,0-0.635,0.082-0.914,0.244s-0.502,0.391-0.667,0.684s-0.247,0.604-0.247,0.932c0,0.324,0.082,0.635,0.249,0.931
		s0.39,0.526,0.671,0.692c0.281,0.164,0.582,0.247,0.904,0.247c0.324,0,0.632-0.081,0.922-0.245
		c0.291-0.164,0.515-0.385,0.672-0.664c0.156-0.279,0.234-0.595,0.234-0.944c0-0.534-0.176-0.979-0.527-1.338
		S96.326,222.141,95.812,222.141z"/>
	<path fill="#695C57" d="M99.441,221.688h0.594v2.152c0,0.526,0.028,0.888,0.085,1.086c0.085,0.282,0.247,0.506,0.485,0.669
		c0.239,0.164,0.524,0.246,0.855,0.246s0.611-0.08,0.842-0.239c0.231-0.16,0.391-0.369,0.479-0.629
		c0.059-0.179,0.089-0.556,0.089-1.133v-2.152h0.606v2.264c0,0.635-0.074,1.113-0.223,1.436s-0.372,0.574-0.67,0.757
		c-0.299,0.183-0.672,0.273-1.121,0.273s-0.824-0.091-1.125-0.273s-0.525-0.437-0.674-0.763s-0.223-0.816-0.223-1.473V221.688z"/>
	<path fill="#695C57" d="M107.111,222.191l-0.381,0.395c-0.317-0.308-0.627-0.462-0.93-0.462c-0.193,0-0.358,0.063-0.496,0.19
		c-0.137,0.127-0.205,0.275-0.205,0.445c0,0.15,0.057,0.293,0.17,0.428c0.112,0.139,0.351,0.301,0.713,0.488
		c0.441,0.229,0.742,0.449,0.9,0.66c0.155,0.215,0.233,0.457,0.233,0.725c0,0.379-0.134,0.699-0.399,0.963
		c-0.266,0.262-0.598,0.394-0.997,0.394c-0.267,0-0.521-0.058-0.762-0.174c-0.242-0.116-0.442-0.275-0.601-0.479l0.373-0.423
		c0.303,0.342,0.624,0.513,0.964,0.513c0.237,0,0.44-0.076,0.607-0.229s0.251-0.332,0.251-0.539c0-0.169-0.056-0.32-0.166-0.453
		c-0.11-0.13-0.359-0.293-0.747-0.491c-0.417-0.215-0.7-0.427-0.85-0.636s-0.226-0.447-0.226-0.717c0-0.35,0.12-0.641,0.359-0.873
		c0.238-0.23,0.541-0.347,0.906-0.347C106.254,221.569,106.682,221.777,107.111,222.191z"/>
	<path fill="#695C57" d="M108.68,219.976h0.594v1.712h0.94v0.514h-0.94v4.098h-0.594v-4.098h-0.809v-0.514h0.809V219.976z"/>
	<path fill="#695C57" d="M111.31,219.789c0.135,0,0.251,0.049,0.346,0.145c0.096,0.096,0.144,0.211,0.144,0.348
		c0,0.133-0.048,0.247-0.144,0.343c-0.095,0.097-0.211,0.144-0.346,0.144c-0.132,0-0.246-0.047-0.342-0.144
		c-0.096-0.096-0.144-0.21-0.144-0.343c0-0.137,0.048-0.252,0.144-0.348S111.178,219.789,111.31,219.789z M111.016,221.688h0.593
		v4.611h-0.593V221.688z"/>
	<path fill="#695C57" d="M112.842,221.688h0.593v0.826c0.237-0.316,0.5-0.553,0.788-0.709c0.288-0.157,0.602-0.235,0.941-0.235
		c0.344,0,0.65,0.087,0.917,0.263c0.267,0.175,0.464,0.41,0.591,0.707s0.191,0.759,0.191,1.387v2.373h-0.594V224.1
		c0-0.531-0.021-0.887-0.066-1.064c-0.068-0.305-0.2-0.534-0.395-0.688c-0.195-0.153-0.449-0.231-0.764-0.231
		c-0.359,0-0.68,0.119-0.964,0.356s-0.472,0.531-0.562,0.882c-0.057,0.229-0.085,0.646-0.085,1.254v1.691h-0.593V221.688z"/>
	<path fill="#695C57" d="M118.787,225.366c0.144,0,0.267,0.051,0.368,0.152c0.103,0.102,0.153,0.226,0.153,0.373
		c0,0.144-0.051,0.268-0.153,0.37c-0.102,0.104-0.225,0.155-0.368,0.155c-0.145,0-0.268-0.052-0.369-0.155
		c-0.102-0.103-0.152-0.227-0.152-0.37c0-0.147,0.051-0.271,0.152-0.373S118.643,225.366,118.787,225.366z"/>
	<path fill="#695C57" d="M125.012,222.646l-0.471,0.292c-0.406-0.539-0.96-0.809-1.663-0.809c-0.562,0-1.028,0.18-1.398,0.541
		c-0.371,0.361-0.557,0.801-0.557,1.316c0,0.336,0.085,0.652,0.256,0.949c0.171,0.295,0.405,0.525,0.702,0.689
		c0.299,0.164,0.632,0.245,1.002,0.245c0.677,0,1.23-0.27,1.658-0.81l0.471,0.31c-0.221,0.332-0.516,0.589-0.888,0.772
		c-0.371,0.184-0.794,0.274-1.269,0.274c-0.729,0-1.334-0.231-1.814-0.694c-0.48-0.464-0.721-1.027-0.721-1.691
		c0-0.446,0.113-0.861,0.338-1.244s0.533-0.682,0.926-0.896s0.832-0.321,1.318-0.321c0.305,0,0.6,0.046,0.883,0.14
		c0.284,0.094,0.525,0.215,0.723,0.364S124.873,222.414,125.012,222.646z"/>
	<path fill="#695C57" d="M128.334,221.569c0.711,0,1.299,0.257,1.766,0.771c0.426,0.47,0.637,1.024,0.637,1.666
		c0,0.645-0.224,1.207-0.672,1.688c-0.449,0.481-1.025,0.723-1.73,0.723c-0.707,0-1.285-0.241-1.734-0.723
		c-0.448-0.481-0.672-1.044-0.672-1.688c0-0.639,0.212-1.192,0.637-1.661C127.031,221.828,127.621,221.569,128.334,221.569z
		 M128.332,222.15c-0.493,0-0.917,0.182-1.271,0.546s-0.531,0.806-0.531,1.322c0,0.333,0.08,0.644,0.242,0.933
		c0.162,0.287,0.38,0.51,0.654,0.667c0.275,0.157,0.578,0.235,0.906,0.235s0.631-0.078,0.906-0.235
		c0.274-0.157,0.492-0.38,0.654-0.667c0.162-0.289,0.242-0.6,0.242-0.933c0-0.517-0.178-0.958-0.533-1.322
		S128.822,222.15,128.332,222.15z"/>
	<path fill="#695C57" d="M131.83,221.688h0.594v0.797c0.206-0.294,0.418-0.508,0.637-0.645c0.299-0.18,0.614-0.271,0.945-0.271
		c0.224,0,0.436,0.044,0.637,0.132c0.201,0.087,0.365,0.203,0.492,0.35c0.127,0.145,0.237,0.354,0.33,0.625
		c0.197-0.362,0.444-0.637,0.74-0.824c0.296-0.188,0.615-0.282,0.955-0.282c0.318,0,0.6,0.08,0.844,0.241s0.425,0.386,0.543,0.674
		c0.119,0.288,0.178,0.721,0.178,1.297v2.518h-0.605v-2.518c0-0.494-0.035-0.834-0.105-1.02c-0.07-0.185-0.191-0.334-0.361-0.447
		c-0.17-0.112-0.374-0.169-0.61-0.169c-0.288,0-0.55,0.085-0.788,0.255c-0.238,0.169-0.412,0.395-0.521,0.678
		c-0.109,0.282-0.164,0.754-0.164,1.415v1.806h-0.594v-2.361c0-0.557-0.035-0.934-0.104-1.133c-0.07-0.199-0.19-0.359-0.363-0.479
		c-0.172-0.121-0.377-0.181-0.613-0.181c-0.275,0-0.531,0.083-0.77,0.248s-0.416,0.388-0.529,0.667
		c-0.115,0.279-0.172,0.708-0.172,1.284v1.954h-0.594V221.688z"/>
	<path fill="#695C57" d="M14.12,232.103h0.61l1.413,3.348l1.471-3.348h0.107l1.481,3.348l1.44-3.348h0.617l-2.003,4.61h-0.11
		l-1.474-3.301l-1.473,3.301h-0.111L14.12,232.103z"/>
	<path fill="#695C57" d="M21.333,232.103h0.61l1.413,3.348l1.471-3.348h0.107l1.481,3.348l1.44-3.348h0.617l-2.003,4.61h-0.11
		l-1.474-3.301l-1.473,3.301h-0.111L21.333,232.103z"/>
	<path fill="#695C57" d="M28.545,232.103h0.61l1.413,3.348l1.471-3.348h0.107l1.481,3.348l1.44-3.348h0.617l-2.003,4.61h-0.11
		l-1.474-3.301l-1.473,3.301h-0.111L28.545,232.103z"/>
	<path fill="#695C57" d="M37.033,235.781c0.144,0,0.267,0.051,0.369,0.152c0.102,0.102,0.153,0.226,0.153,0.373
		c0,0.144-0.051,0.268-0.153,0.37c-0.102,0.103-0.225,0.155-0.369,0.155s-0.267-0.053-0.369-0.155
		c-0.102-0.103-0.152-0.227-0.152-0.37c0-0.147,0.051-0.271,0.152-0.373C36.767,235.832,36.889,235.781,37.033,235.781z"/>
	<path fill="#695C57" d="M38.694,230.322h0.593v6.391h-0.593V230.322z"/>
	<path fill="#695C57" d="M40.727,230.203c0.135,0,0.25,0.049,0.346,0.145c0.096,0.096,0.144,0.212,0.144,0.348
		c0,0.133-0.048,0.248-0.144,0.344c-0.095,0.096-0.211,0.144-0.346,0.144c-0.132,0-0.246-0.048-0.342-0.144
		s-0.144-0.211-0.144-0.344c0-0.136,0.048-0.252,0.144-0.348S40.594,230.203,40.727,230.203z M40.432,232.103h0.593v4.61h-0.593
		V232.103z"/>
	<path fill="#695C57" d="M42.775,230.391h0.593v1.712h0.94v0.513h-0.94v4.098h-0.593v-4.098h-0.81v-0.513h0.81V230.391z"/>
	<path fill="#695C57" d="M45.716,230.391h0.593v1.712h0.94v0.513h-0.94v4.098h-0.593v-4.098h-0.81v-0.513h0.81V230.391z"/>
	<path fill="#695C57" d="M48.051,230.322h0.593v6.391h-0.593V230.322z"/>
	<path fill="#695C57" d="M53.759,235.184l0.5,0.262c-0.164,0.322-0.354,0.582-0.568,0.78c-0.215,0.198-0.457,0.349-0.726,0.451
		s-0.573,0.155-0.912,0.155c-0.752,0-1.34-0.247-1.765-0.74c-0.424-0.492-0.636-1.05-0.636-1.672c0-0.584,0.18-1.105,0.539-1.563
		c0.455-0.581,1.064-0.872,1.828-0.872c0.786,0,1.414,0.297,1.883,0.894c0.333,0.421,0.503,0.946,0.509,1.576h-4.148
		c0.011,0.536,0.182,0.975,0.513,1.317c0.331,0.342,0.74,0.514,1.226,0.514c0.235,0,0.463-0.041,0.685-0.123
		c0.222-0.081,0.411-0.189,0.566-0.324C53.41,235.702,53.578,235.484,53.759,235.184z M53.759,233.941
		c-0.08-0.316-0.195-0.569-0.346-0.758c-0.151-0.189-0.351-0.342-0.6-0.459c-0.249-0.115-0.511-0.174-0.785-0.174
		c-0.453,0-0.841,0.146-1.167,0.438c-0.238,0.211-0.417,0.529-0.539,0.953H53.759z"/>
	<path fill="#695C57" d="M55.293,232.103h0.606v0.673c0.181-0.265,0.372-0.463,0.572-0.595c0.2-0.132,0.409-0.196,0.627-0.196
		c0.164,0,0.339,0.052,0.525,0.156l-0.309,0.5c-0.125-0.054-0.229-0.08-0.314-0.08c-0.198,0-0.388,0.08-0.572,0.243
		s-0.324,0.415-0.419,0.757c-0.074,0.262-0.11,0.793-0.11,1.593v1.56h-0.606V232.103z"/>
	<path fill="#695C57" d="M62.722,232.103v4.61h-0.585v-0.793c-0.249,0.303-0.528,0.53-0.837,0.683
		c-0.31,0.153-0.648,0.229-1.015,0.229c-0.652,0-1.209-0.237-1.671-0.711c-0.462-0.473-0.693-1.049-0.693-1.727
		c0-0.664,0.233-1.231,0.699-1.703c0.466-0.472,1.027-0.707,1.682-0.707c0.378,0,0.721,0.08,1.028,0.24
		c0.306,0.162,0.575,0.403,0.807,0.725v-0.847H62.722z M60.351,232.556c-0.33,0-0.635,0.081-0.915,0.243
		c-0.279,0.162-0.501,0.391-0.667,0.684c-0.165,0.294-0.248,0.604-0.248,0.932c0,0.324,0.083,0.635,0.25,0.932
		c0.167,0.296,0.39,0.526,0.671,0.691s0.582,0.248,0.904,0.248c0.325,0,0.632-0.082,0.923-0.246s0.514-0.385,0.671-0.664
		s0.235-0.594,0.235-0.943c0-0.534-0.176-0.98-0.527-1.338C61.297,232.734,60.865,232.556,60.351,232.556z"/>
	<path fill="#695C57" d="M66.375,232.606L65.993,233c-0.317-0.307-0.627-0.461-0.93-0.461c-0.193,0-0.358,0.063-0.495,0.19
		c-0.138,0.127-0.206,0.275-0.206,0.444c0,0.15,0.057,0.293,0.17,0.429c0.113,0.138,0.351,0.301,0.713,0.487
		c0.441,0.229,0.742,0.449,0.9,0.661c0.155,0.215,0.233,0.456,0.233,0.725c0,0.378-0.133,0.699-0.399,0.962
		c-0.266,0.263-0.599,0.395-0.998,0.395c-0.266,0-0.52-0.059-0.762-0.174c-0.242-0.116-0.442-0.275-0.601-0.479l0.373-0.423
		c0.303,0.342,0.624,0.512,0.964,0.512c0.238,0,0.44-0.076,0.607-0.229s0.251-0.332,0.251-0.538c0-0.169-0.056-0.321-0.166-0.454
		c-0.11-0.129-0.359-0.293-0.747-0.49c-0.417-0.215-0.7-0.428-0.85-0.637s-0.225-0.447-0.225-0.716c0-0.351,0.12-0.642,0.359-0.873
		c0.239-0.231,0.541-0.347,0.906-0.347C65.517,231.984,65.944,232.191,66.375,232.606z"/>
	<path fill="#695C57" d="M71.901,233.061l-0.471,0.292c-0.406-0.54-0.96-0.81-1.664-0.81c-0.562,0-1.028,0.181-1.398,0.542
		c-0.371,0.361-0.557,0.8-0.557,1.316c0,0.336,0.085,0.651,0.256,0.948c0.171,0.296,0.405,0.525,0.703,0.689
		s0.631,0.246,1.001,0.246c0.677,0,1.23-0.27,1.659-0.81l0.471,0.31c-0.221,0.332-0.517,0.589-0.888,0.771
		c-0.371,0.184-0.794,0.275-1.269,0.275c-0.729,0-1.333-0.232-1.813-0.695c-0.48-0.463-0.721-1.027-0.721-1.691
		c0-0.445,0.112-0.86,0.337-1.243s0.533-0.682,0.926-0.896c0.393-0.215,0.832-0.321,1.318-0.321c0.305,0,0.6,0.046,0.883,0.139
		c0.284,0.094,0.525,0.215,0.723,0.365C71.594,232.638,71.762,232.828,71.901,233.061z"/>
	<path fill="#695C57" d="M77.635,232.103v4.61H77.05v-0.793c-0.249,0.303-0.528,0.53-0.837,0.683
		c-0.31,0.153-0.648,0.229-1.016,0.229c-0.652,0-1.209-0.237-1.671-0.711c-0.462-0.473-0.693-1.049-0.693-1.727
		c0-0.664,0.233-1.231,0.7-1.703c0.465-0.472,1.026-0.707,1.682-0.707c0.379,0,0.721,0.08,1.027,0.24
		c0.307,0.162,0.576,0.403,0.808,0.725v-0.847H77.635z M75.264,232.556c-0.33,0-0.635,0.081-0.914,0.243s-0.502,0.391-0.667,0.684
		c-0.165,0.294-0.247,0.604-0.247,0.932c0,0.324,0.082,0.635,0.249,0.932c0.167,0.296,0.39,0.526,0.671,0.691
		s0.582,0.248,0.904,0.248c0.324,0,0.632-0.082,0.922-0.246c0.291-0.164,0.515-0.385,0.672-0.664
		c0.156-0.279,0.234-0.594,0.234-0.943c0-0.534-0.176-0.98-0.527-1.338C76.209,232.734,75.777,232.556,75.264,232.556z"/>
	<path fill="#695C57" d="M78.881,230.322h0.594v6.391h-0.594V230.322z"/>
	<path fill="#695C57" d="M83.025,232.606L82.644,233c-0.317-0.307-0.628-0.461-0.931-0.461c-0.192,0-0.357,0.063-0.494,0.19
		c-0.139,0.127-0.207,0.275-0.207,0.444c0,0.15,0.057,0.293,0.17,0.429c0.113,0.138,0.352,0.301,0.714,0.487
		c0.441,0.229,0.741,0.449,0.9,0.661c0.155,0.215,0.233,0.456,0.233,0.725c0,0.378-0.133,0.699-0.398,0.962
		c-0.267,0.263-0.6,0.395-0.998,0.395c-0.266,0-0.52-0.059-0.762-0.174c-0.242-0.116-0.442-0.275-0.601-0.479l0.373-0.423
		c0.303,0.342,0.624,0.512,0.964,0.512c0.238,0,0.44-0.076,0.607-0.229s0.251-0.332,0.251-0.538c0-0.169-0.056-0.321-0.166-0.454
		c-0.11-0.129-0.359-0.293-0.747-0.49c-0.416-0.215-0.699-0.428-0.85-0.637s-0.225-0.447-0.225-0.716
		c0-0.351,0.119-0.642,0.358-0.873s0.541-0.347,0.906-0.347C82.168,231.984,82.595,232.191,83.025,232.606z"/>
	<path fill="#695C57" d="M88.67,232.103v4.61h-0.586v-0.793c-0.248,0.303-0.527,0.53-0.836,0.683
		c-0.311,0.153-0.648,0.229-1.016,0.229c-0.652,0-1.209-0.237-1.672-0.711c-0.461-0.473-0.692-1.049-0.692-1.727
		c0-0.664,0.233-1.231,0.699-1.703s1.026-0.707,1.683-0.707c0.378,0,0.721,0.08,1.027,0.24c0.307,0.162,0.575,0.403,0.807,0.725
		v-0.847H88.67z M86.299,232.556c-0.33,0-0.635,0.081-0.915,0.243c-0.279,0.162-0.501,0.391-0.667,0.684
		c-0.164,0.294-0.247,0.604-0.247,0.932c0,0.324,0.083,0.635,0.249,0.932c0.167,0.296,0.391,0.526,0.672,0.691
		c0.28,0.165,0.582,0.248,0.903,0.248c0.325,0,0.632-0.082,0.923-0.246s0.514-0.385,0.671-0.664s0.235-0.594,0.235-0.943
		c0-0.534-0.176-0.98-0.527-1.338C87.244,232.734,86.812,232.556,86.299,232.556z"/>
	<path fill="#695C57" d="M89.928,232.103h0.594v2.152c0,0.526,0.028,0.888,0.085,1.085c0.085,0.283,0.247,0.506,0.485,0.67
		c0.239,0.164,0.524,0.246,0.855,0.246s0.611-0.08,0.842-0.24c0.231-0.159,0.391-0.369,0.479-0.629
		c0.059-0.178,0.089-0.555,0.089-1.132v-2.152h0.606v2.263c0,0.636-0.074,1.114-0.223,1.437s-0.372,0.574-0.67,0.757
		c-0.299,0.182-0.672,0.273-1.121,0.273s-0.824-0.092-1.125-0.273c-0.301-0.183-0.525-0.438-0.674-0.764s-0.223-0.816-0.223-1.473
		V232.103z"/>
	<path fill="#695C57" d="M97.598,232.606L97.217,233c-0.317-0.307-0.627-0.461-0.93-0.461c-0.193,0-0.358,0.063-0.496,0.19
		c-0.137,0.127-0.205,0.275-0.205,0.444c0,0.15,0.057,0.293,0.17,0.429c0.112,0.138,0.351,0.301,0.713,0.487
		c0.441,0.229,0.742,0.449,0.9,0.661c0.155,0.215,0.233,0.456,0.233,0.725c0,0.378-0.134,0.699-0.399,0.962
		s-0.598,0.395-0.997,0.395c-0.267,0-0.521-0.059-0.762-0.174c-0.242-0.116-0.442-0.275-0.601-0.479l0.373-0.423
		c0.303,0.342,0.624,0.512,0.964,0.512c0.237,0,0.44-0.076,0.607-0.229s0.251-0.332,0.251-0.538c0-0.169-0.056-0.321-0.166-0.454
		c-0.11-0.129-0.359-0.293-0.747-0.49c-0.417-0.215-0.7-0.428-0.85-0.637s-0.226-0.447-0.226-0.716c0-0.351,0.12-0.642,0.359-0.873
		c0.238-0.231,0.541-0.347,0.906-0.347C96.74,231.984,97.168,232.191,97.598,232.606z"/>
	<path fill="#695C57" d="M99.166,230.391h0.594v1.712h0.939v0.513H99.76v4.098h-0.594v-4.098h-0.81v-0.513h0.81V230.391z"/>
	<path fill="#695C57" d="M101.795,230.203c0.135,0,0.251,0.049,0.346,0.145c0.096,0.096,0.145,0.212,0.145,0.348
		c0,0.133-0.049,0.248-0.145,0.344c-0.095,0.096-0.211,0.144-0.346,0.144c-0.132,0-0.246-0.048-0.342-0.144
		s-0.143-0.211-0.143-0.344c0-0.136,0.047-0.252,0.143-0.348S101.663,230.203,101.795,230.203z M101.501,232.103h0.593v4.61h-0.593
		V232.103z"/>
	<path fill="#695C57" d="M103.328,232.103h0.593v0.826c0.237-0.316,0.5-0.554,0.788-0.71s0.602-0.234,0.941-0.234
		c0.344,0,0.65,0.087,0.917,0.262c0.267,0.176,0.464,0.411,0.591,0.708c0.127,0.296,0.191,0.759,0.191,1.386v2.373h-0.594v-2.199
		c0-0.531-0.021-0.886-0.066-1.064c-0.068-0.305-0.2-0.533-0.395-0.688c-0.195-0.154-0.449-0.231-0.764-0.231
		c-0.359,0-0.68,0.118-0.964,0.356c-0.284,0.236-0.472,0.531-0.562,0.881c-0.057,0.229-0.085,0.646-0.085,1.254v1.691h-0.593
		V232.103z"/>
	<path fill="#695C57" d="M109.272,235.781c0.144,0,0.267,0.051,0.368,0.152c0.103,0.102,0.153,0.226,0.153,0.373
		c0,0.144-0.051,0.268-0.153,0.37c-0.102,0.103-0.225,0.155-0.368,0.155s-0.267-0.053-0.368-0.155s-0.152-0.227-0.152-0.37
		c0-0.147,0.051-0.271,0.152-0.373S109.129,235.781,109.272,235.781z"/>
	<path fill="#695C57" d="M115.498,233.061l-0.471,0.292c-0.406-0.54-0.961-0.81-1.664-0.81c-0.561,0-1.027,0.181-1.398,0.542
		s-0.557,0.8-0.557,1.316c0,0.336,0.086,0.651,0.256,0.948c0.172,0.296,0.405,0.525,0.703,0.689s0.631,0.246,1.001,0.246
		c0.677,0,1.23-0.27,1.659-0.81l0.471,0.31c-0.221,0.332-0.517,0.589-0.889,0.771c-0.371,0.184-0.794,0.275-1.269,0.275
		c-0.729,0-1.333-0.232-1.813-0.695s-0.721-1.027-0.721-1.691c0-0.445,0.112-0.86,0.337-1.243s0.533-0.682,0.927-0.896
		c0.393-0.215,0.831-0.321,1.317-0.321c0.305,0,0.6,0.046,0.884,0.139c0.283,0.094,0.524,0.215,0.723,0.365
		C115.191,232.638,115.359,232.828,115.498,233.061z"/>
	<path fill="#695C57" d="M118.82,231.984c0.711,0,1.299,0.256,1.766,0.771c0.426,0.47,0.637,1.024,0.637,1.665
		c0,0.645-0.224,1.207-0.672,1.689c-0.449,0.481-1.025,0.723-1.73,0.723c-0.707,0-1.285-0.241-1.734-0.723
		c-0.448-0.482-0.672-1.045-0.672-1.689c0-0.639,0.212-1.191,0.637-1.66C117.518,232.242,118.107,231.984,118.82,231.984z
		 M118.818,232.564c-0.493,0-0.917,0.182-1.271,0.547c-0.354,0.363-0.531,0.805-0.531,1.322c0,0.333,0.08,0.644,0.242,0.932
		s0.38,0.511,0.654,0.668c0.275,0.156,0.578,0.234,0.906,0.234s0.631-0.078,0.906-0.234c0.274-0.157,0.492-0.38,0.654-0.668
		s0.242-0.599,0.242-0.932c0-0.518-0.178-0.959-0.533-1.322C119.732,232.746,119.309,232.564,118.818,232.564z"/>
	<path fill="#695C57" d="M122.316,232.103h0.594v0.796c0.206-0.293,0.418-0.508,0.637-0.644c0.299-0.181,0.614-0.271,0.945-0.271
		c0.224,0,0.436,0.043,0.637,0.131s0.365,0.204,0.492,0.35s0.237,0.354,0.33,0.625c0.197-0.361,0.444-0.637,0.74-0.824
		s0.615-0.281,0.955-0.281c0.318,0,0.6,0.08,0.844,0.24c0.244,0.162,0.425,0.387,0.543,0.674c0.119,0.289,0.178,0.721,0.178,1.297
		v2.518h-0.605v-2.518c0-0.494-0.035-0.834-0.105-1.019s-0.191-0.335-0.361-0.447s-0.374-0.169-0.61-0.169
		c-0.288,0-0.55,0.084-0.788,0.254s-0.412,0.396-0.521,0.678c-0.109,0.283-0.164,0.754-0.164,1.416v1.805h-0.594v-2.36
		c0-0.557-0.035-0.935-0.104-1.134c-0.07-0.199-0.19-0.358-0.363-0.479c-0.172-0.12-0.377-0.18-0.613-0.18
		c-0.275,0-0.531,0.082-0.77,0.248c-0.238,0.164-0.416,0.387-0.529,0.666c-0.115,0.28-0.172,0.709-0.172,1.285v1.953h-0.594V232.103
		z"/>
</g>
<g>
	<path fill="#6AB4B0" d="M47.53,111.651l-0.759,0.472c-0.655-0.871-1.55-1.306-2.684-1.306c-0.906,0-1.658,0.292-2.256,0.874
		s-0.898,1.291-0.898,2.124c0,0.542,0.138,1.052,0.413,1.53c0.275,0.478,0.653,0.849,1.133,1.113
		c0.48,0.264,1.019,0.396,1.615,0.396c1.093,0,1.985-0.435,2.677-1.306l0.759,0.499c-0.355,0.535-0.833,0.951-1.432,1.246
		c-0.599,0.295-1.282,0.443-2.047,0.443c-1.176,0-2.151-0.374-2.926-1.121s-1.162-1.657-1.162-2.728c0-0.72,0.181-1.389,0.543-2.006
		s0.86-1.1,1.494-1.446s1.342-0.52,2.126-0.52c0.492,0,0.967,0.075,1.425,0.226s0.847,0.346,1.166,0.588
		S47.307,111.278,47.53,111.651z"/>
	<path fill="#6AB4B0" d="M56.779,110.106v7.438h-0.943v-1.278c-0.401,0.488-0.851,0.854-1.35,1.101s-1.045,0.369-1.637,0.369
		c-1.053,0-1.952-0.382-2.697-1.145s-1.118-1.692-1.118-2.786c0-1.071,0.376-1.987,1.128-2.748s1.657-1.142,2.714-1.142
		c0.611,0,1.163,0.13,1.658,0.39s0.929,0.649,1.302,1.169v-1.367H56.779z M52.954,110.838c-0.533,0-1.024,0.131-1.475,0.393
		s-0.809,0.629-1.075,1.103c-0.266,0.473-0.399,0.974-0.399,1.502c0,0.523,0.134,1.024,0.403,1.502
		c0.269,0.478,0.629,0.85,1.082,1.116c0.453,0.266,0.939,0.399,1.458,0.399c0.523,0,1.02-0.132,1.489-0.396
		c0.469-0.264,0.829-0.622,1.082-1.072c0.252-0.451,0.379-0.958,0.379-1.523c0-0.86-0.283-1.58-0.85-2.158
		S53.783,110.838,52.954,110.838z"/>
	<path fill="#6AB4B0" d="M59.766,107.345h0.957v2.762h1.518v0.827h-1.518v6.61h-0.957v-6.61H58.46v-0.827h1.306V107.345z"/>
	<path fill="#6AB4B0" d="M71.292,110.92l-0.615,0.636c-0.512-0.497-1.012-0.745-1.501-0.745c-0.311,0-0.577,0.103-0.798,0.308
		c-0.222,0.205-0.333,0.444-0.333,0.718c0,0.242,0.091,0.472,0.274,0.69c0.183,0.223,0.566,0.485,1.151,0.786
		c0.712,0.369,1.197,0.725,1.452,1.066c0.251,0.346,0.377,0.736,0.377,1.169c0,0.611-0.214,1.128-0.644,1.552
		s-0.965,0.636-1.609,0.636c-0.429,0-0.839-0.093-1.229-0.28s-0.713-0.444-0.969-0.772l0.602-0.684
		c0.489,0.551,1.007,0.827,1.555,0.827c0.384,0,0.71-0.123,0.98-0.369s0.404-0.536,0.404-0.868c0-0.273-0.089-0.517-0.267-0.731
		c-0.178-0.209-0.58-0.474-1.206-0.793c-0.671-0.346-1.128-0.688-1.37-1.025c-0.242-0.337-0.363-0.722-0.363-1.155
		c0-0.565,0.193-1.035,0.579-1.408s0.873-0.561,1.462-0.561C69.908,109.915,70.598,110.25,71.292,110.92z"/>
	<path fill="#6AB4B0" d="M73.318,107.044c0.218,0,0.403,0.078,0.558,0.232s0.232,0.342,0.232,0.561c0,0.214-0.078,0.399-0.232,0.554
		s-0.34,0.232-0.558,0.232c-0.213,0-0.397-0.078-0.551-0.232s-0.231-0.339-0.231-0.554c0-0.219,0.077-0.406,0.231-0.561
		S73.105,107.044,73.318,107.044z M72.843,110.106H73.8v7.438h-0.957V110.106z"/>
	<path fill="#6AB4B0" d="M76.624,107.345h0.957v2.762h1.518v0.827h-1.518v6.61h-0.957v-6.61h-1.307v-0.827h1.307V107.345z"/>
	<path fill="#6AB4B0" d="M81.368,107.345h0.957v2.762h1.518v0.827h-1.518v6.61h-0.957v-6.61h-1.307v-0.827h1.307V107.345z"/>
	<path fill="#6AB4B0" d="M85.609,107.044c0.218,0,0.403,0.078,0.558,0.232s0.232,0.342,0.232,0.561c0,0.214-0.078,0.399-0.232,0.554
		s-0.34,0.232-0.558,0.232c-0.214,0-0.397-0.078-0.552-0.232s-0.23-0.339-0.23-0.554c0-0.219,0.076-0.406,0.23-0.561
		S85.396,107.044,85.609,107.044z M85.134,110.106h0.957v7.438h-0.957V110.106z"/>
	<path fill="#6AB4B0" d="M88.081,110.106h0.957v1.333c0.383-0.51,0.807-0.892,1.271-1.145s0.971-0.379,1.518-0.379
		c0.556,0,1.049,0.141,1.479,0.424s0.749,0.663,0.954,1.142s0.307,1.224,0.307,2.235v3.828H93.61v-3.548
		c0-0.857-0.035-1.429-0.105-1.716c-0.111-0.492-0.324-0.862-0.639-1.111s-0.725-0.373-1.23-0.373c-0.579,0-1.098,0.191-1.556,0.574
		s-0.76,0.857-0.905,1.422c-0.092,0.369-0.137,1.043-0.137,2.023v2.728h-0.957V110.106z"/>
	<path fill="#6AB4B0" d="M103.03,110.106h0.957v5.927c0,1.043-0.091,1.807-0.273,2.29c-0.25,0.684-0.686,1.21-1.305,1.579
		c-0.62,0.369-1.365,0.554-2.236,0.554c-0.638,0-1.211-0.09-1.719-0.271c-0.508-0.18-0.922-0.423-1.24-0.727
		c-0.319-0.304-0.613-0.749-0.883-1.333h1.039c0.283,0.492,0.648,0.857,1.096,1.094s1.002,0.355,1.663,0.355
		c0.652,0,1.203-0.122,1.653-0.364c0.449-0.243,0.77-0.549,0.961-0.917c0.191-0.368,0.287-0.962,0.287-1.782v-0.383
		c-0.359,0.456-0.801,0.806-1.32,1.049s-1.072,0.366-1.656,0.366c-0.684,0-1.327-0.17-1.93-0.509
		c-0.602-0.339-1.066-0.796-1.396-1.371s-0.493-1.206-0.493-1.894s0.172-1.33,0.514-1.924s0.815-1.065,1.42-1.412
		s1.242-0.52,1.912-0.52c0.557,0,1.076,0.115,1.557,0.345c0.482,0.23,0.945,0.609,1.393,1.138V110.106z M100.208,110.838
		c-0.543,0-1.047,0.131-1.512,0.393s-0.829,0.625-1.094,1.087c-0.264,0.462-0.396,0.963-0.396,1.5c0,0.816,0.273,1.49,0.82,2.023
		s1.256,0.8,2.127,0.8c0.879,0,1.586-0.264,2.122-0.793s0.804-1.224,0.804-2.085c0-0.561-0.123-1.061-0.369-1.5
		s-0.596-0.787-1.047-1.042S100.728,110.838,100.208,110.838z"/>
</g>
</svg>
