<?xml version="1.0" encoding="utf-8"?>
<!-- Generator: Adobe Illustrator 14.0.0, SVG Export Plug-In . SVG Version: 6.00 Build 43363)  -->
<!DOCTYPE svg PUBLIC "-//W3C//DTD SVG 1.1//EN" "http://www.w3.org/Graphics/SVG/1.1/DTD/svg11.dtd">
<svg version="1.1" id="Layer_1" xmlns="http://www.w3.org/2000/svg" xmlns:xlink="http://www.w3.org/1999/xlink" x="0px" y="0px"
	 width="200px" height="200px" viewBox="0 0 200 200" enable-background="new 0 0 200 200" xml:space="preserve">
<rect x="0.485" fill="#FFFFFF" width="200" height="200"/>
<g>
	<g>
		<g>
			<path fill="#695C57" d="M13.978,136.557c0,2.081,0,8.121,0.039,9.362c0.042,0.68,0.202,1.241,1.042,1.241h1.8
				c0.359,0,0.441,0.119,0.441,0.361v0.679c0,0.238-0.082,0.399-0.242,0.399c-0.28,0-2.04-0.118-4.521-0.118
				c-2.561,0-4.162,0.118-4.521,0.118c-0.202,0-0.279-0.161-0.279-0.399v-0.679c0-0.281,0.078-0.361,0.521-0.361h1.919
				c0.441,0,0.839-0.282,0.881-1.001c0.041-1.241,0.041-8.123,0.041-10.443v-2.521c0-2.842-0.041-6.48-0.121-7.524
				c-0.081-1.359-0.72-1.999-2.002-2.399l-0.802-0.281c-0.197-0.079-0.237-0.119-0.237-0.198v-0.319c0-0.12,0.121-0.2,0.359-0.281
				c1.399-0.641,3.202-1.36,4.681-2.32c0.359-0.24,0.601-0.321,0.841-0.321c0.281,0,0.361,0.201,0.321,0.72
				c-0.04,2.203-0.161,10.524-0.161,12.727V136.557z"/>
			<path fill="#695C57" d="M34.946,143.479c0,3.002,1.36,3.522,2.08,3.522c0.92,0,2.082-0.16,2.641-0.521
				c0.2-0.12,0.359-0.081,0.48,0.08l0.2,0.359c0.119,0.159,0.04,0.32-0.079,0.438c-0.401,0.401-2.043,1.604-4.445,1.604
				c-1.957,0-3.879-1.883-3.879-3.403c0-1.64,0.121-5.161,0.121-5.723v-0.878c0-0.722,0.039-3.401,0.08-5.083h-2.442
				c-0.36,0-0.6-0.16-0.6-0.48c0-0.318,0.24-0.439,0.72-0.721c0.96-0.558,4.043-3.68,4.562-5.04
				c0.119-0.318,0.319-0.401,0.561-0.401c0.319,0,0.4,0.28,0.4,0.6l-0.202,3.963h5.561c0.243,0,0.364,0.199,0.282,0.358l-0.4,1.401
				c-0.042,0.202-0.121,0.32-0.359,0.32h-5.163c-0.08,1.841-0.119,3.763-0.119,5.603V143.479z"/>
			<path fill="#695C57" d="M47.708,143.479c0,3.002,1.361,3.522,2.08,3.522c0.923,0,2.082-0.16,2.642-0.521
				c0.202-0.12,0.361-0.081,0.482,0.08l0.2,0.359c0.119,0.159,0.039,0.32-0.083,0.438c-0.398,0.401-2.042,1.604-4.441,1.604
				c-1.962,0-3.881-1.883-3.881-3.403c0-1.64,0.121-5.161,0.121-5.723v-0.878c0-0.722,0.041-3.401,0.081-5.083h-2.441
				c-0.361,0-0.601-0.16-0.601-0.48c0-0.318,0.24-0.439,0.72-0.721c0.962-0.558,4.04-3.68,4.563-5.04
				c0.12-0.318,0.319-0.401,0.558-0.401c0.32,0,0.403,0.28,0.403,0.6l-0.202,3.963h5.562c0.24,0,0.359,0.199,0.28,0.358
				l-0.401,1.401c-0.04,0.202-0.119,0.32-0.359,0.32h-5.162c-0.081,1.841-0.121,3.763-0.121,5.603V143.479z"/>
			<path fill="#695C57" d="M60.431,136.557c0,2.081,0,8.121,0.041,9.362c0.039,0.68,0.2,1.241,1.041,1.241h1.8
				c0.359,0,0.439,0.119,0.439,0.361v0.679c0,0.238-0.081,0.399-0.24,0.399c-0.28,0-2.04-0.118-4.521-0.118
				c-2.559,0-4.162,0.118-4.522,0.118c-0.2,0-0.279-0.161-0.279-0.399v-0.679c0-0.281,0.079-0.361,0.521-0.361h1.92
				c0.44,0,0.841-0.282,0.88-1.001c0.041-1.241,0.041-8.123,0.041-10.443v-2.521c0-2.842-0.041-6.48-0.121-7.524
				c-0.079-1.359-0.719-1.999-2-2.399l-0.8-0.281c-0.2-0.079-0.238-0.119-0.238-0.198v-0.319c0-0.12,0.119-0.2,0.359-0.281
				c1.4-0.641,3.202-1.36,4.682-2.32c0.36-0.24,0.6-0.321,0.842-0.321c0.278,0,0.358,0.201,0.319,0.72
				c-0.041,2.203-0.162,10.524-0.162,12.727V136.557z"/>
			<path fill="#695C57" d="M68.554,137.837c-0.079,0.36-0.121,0.999-0.121,1.919c0,3.923,2.482,6.883,5.684,6.883
				c2.441,0,4.162-1.399,4.84-2.72c0.082-0.161,0.242-0.24,0.361-0.199l0.52,0.278c0.121,0.041,0.198,0.161,0,0.601
				c-0.72,1.603-2.8,4.363-6.362,4.363c-2.28,0-4.801-0.682-6.281-2.841c-1.4-2.042-1.761-3.523-1.761-6.324
				c0-1.561,0.401-4.24,2.521-6.36c1.721-1.763,3.722-2.122,5.72-2.122c4.604,0,5.885,4.323,5.885,5.883
				c0,0.559-0.481,0.64-1.122,0.64H68.554z M74.917,136.635c0.759,0,1.079-0.2,1.079-0.559c0-0.92-0.48-3.56-3.081-3.56
				c-1.76,0-3.441,1.158-4.202,4.118H74.917z"/>
			<path fill="#695C57" d="M95.042,137.837c0-2.042-0.319-2.443-1.441-3.041l-0.759-0.4c-0.243-0.08-0.32-0.119-0.32-0.279v-0.241
				c0-0.16,0.078-0.24,0.32-0.36l3.961-2.039c0.241-0.122,0.398-0.161,0.561-0.161c0.238,0,0.278,0.239,0.278,0.48l0.2,2.762h0.161
				c1.201-1.842,3.081-3.481,4.801-3.481c1.361,0,2.042,0.84,2.042,1.759c0,1.161-0.961,1.962-1.682,1.962
				c-0.44,0-0.841-0.161-1.16-0.32c-0.321-0.199-0.8-0.321-1.321-0.321c-0.64,0-1.681,0.402-2.36,1.683
				c-0.239,0.438-0.401,1.16-0.401,1.277v8.405c0,1.239,0.282,1.641,1.12,1.641h1.882c0.242,0,0.281,0.119,0.281,0.361v0.719
				c0,0.241-0.039,0.359-0.199,0.359c-0.24,0-2.082-0.118-4.244-0.118c-2.48,0-4.162,0.118-4.4,0.118
				c-0.159,0-0.24-0.078-0.24-0.399v-0.679c0-0.281,0.081-0.361,0.44-0.361h1.561c0.601,0,0.879-0.24,0.879-0.761
				c0.041-1.32,0.041-2.721,0.041-4.802V137.837z"/>
			<path fill="#695C57" d="M118.449,143.72c0,2.28,0.48,2.999,1.2,2.999c0.641,0,1.201-0.319,1.399-0.598
				c0.163-0.202,0.244-0.283,0.403-0.161l0.397,0.321c0.121,0.118,0.203,0.317-0.039,0.72c-0.32,0.599-1.081,1.961-3.12,1.961
				c-1.44,0-2.481-1.04-2.842-2.681h-0.079c-0.843,0.998-2.161,1.838-3.964,2.439c-0.76,0.241-1.477,0.241-2.359,0.241
				c-0.961,0-2.399-0.804-2.399-3.323c0-1.84,0.84-3.441,3.999-4.842c1.802-0.8,3.881-1.759,4.522-2.321v-2.559
				c-0.08-0.681-0.118-1.722-0.559-2.242c-0.44-0.519-1.24-0.88-2.401-0.88c-0.803,0-2.041,0.32-2.603,0.84
				c-0.56,0.52-0.201,1.121-0.201,1.842c0,1.4-0.476,2.279-2.118,2.279c-0.64,0-0.961-0.358-0.961-1.279
				c0-1.28,1.122-2.802,2.762-3.762c1.683-0.999,3.081-1.4,4.882-1.4c1.879,0,2.641,0.561,3.201,1.08
				c0.838,0.84,0.879,1.76,0.879,2.842v6.123V143.72z M115.529,139.678c-1.44,1.08-5.363,1.879-5.363,5.201
				c0,1.481,0.88,2.2,2.08,2.2c1.162,0,3.283-1.4,3.283-2.48V139.678z"/>
			<path fill="#695C57" d="M124.691,147.801c-0.199-0.12-0.199-0.36-0.241-0.561l-0.679-3.801c-0.041-0.201,0.079-0.28,0.239-0.319
				l0.521-0.12c0.16-0.043,0.28,0.04,0.361,0.238l1,1.963c0.801,1.479,1.359,2.479,3.482,2.479c1.399,0,3.159-0.84,3.159-2.72
				c0-1.802-0.88-2.842-3.88-3.684c-2.359-0.681-4.722-1.919-4.722-5.081c0-2.76,2.602-4.882,5.602-4.882
				c1.921,0,2.962,0.48,3.682,0.839c0.598,0.281,0.68,0.481,0.719,0.723l0.603,2.8c0,0.161-0.084,0.28-0.279,0.359l-0.48,0.161
				c-0.161,0.04-0.242,0-0.363-0.2l-1.357-1.842c-0.482-0.76-1.243-1.559-2.803-1.559c-1.521,0-3.082,0.919-3.082,2.641
				c0,2.32,1.882,2.76,3.844,3.321c2.918,0.84,4.76,2.039,4.799,5.121c-0.039,3.241-2.68,5.283-6.082,5.283
				C126.771,148.962,125.175,148.158,124.691,147.801z"/>
			<path fill="#695C57" d="M140.737,138.797c0,2.161,0.959,4.602,2.039,6.082c1.322,1.72,3.005,2.041,4.363,2.041
				c2,0,3.04-0.439,4.402-1.719c0.078-0.081,0.199-0.122,0.318,0l0.401,0.398c0.16,0.161,0.198,0.279,0,0.521
				c-1.161,1.319-3.722,2.841-6.442,2.841c-2.122,0-4.362-0.48-6.203-2.803c-1.479-1.963-1.801-3.64-1.801-5.441
				c0-4.683,3.283-9.403,8.563-9.403c4.161,0,5.442,2.4,5.442,3.242c-0.04,0.92-0.641,1.399-1.481,1.399
				c-0.921,0-1.602-0.52-2.2-1.601c-0.88-1.641-1.722-1.76-2.681-1.76C143.179,132.596,140.737,134.676,140.737,138.797z"/>
			<path fill="#695C57" d="M166.625,143.72c0,2.28,0.481,2.999,1.201,2.999c0.641,0,1.2-0.319,1.401-0.598
				c0.157-0.202,0.24-0.283,0.401-0.161l0.397,0.321c0.121,0.118,0.202,0.317-0.04,0.72c-0.318,0.599-1.082,1.961-3.12,1.961
				c-1.442,0-2.48-1.04-2.843-2.681h-0.079c-0.84,0.998-2.159,1.838-3.962,2.439c-0.759,0.241-1.479,0.241-2.359,0.241
				c-0.961,0-2.401-0.804-2.401-3.323c0-1.84,0.839-3.441,4.002-4.842c1.801-0.8,3.881-1.759,4.521-2.321v-2.559
				c-0.08-0.681-0.118-1.722-0.561-2.242c-0.439-0.519-1.24-0.88-2.399-0.88c-0.802,0-2.041,0.32-2.603,0.84
				c-0.559,0.52-0.199,1.121-0.199,1.842c0,1.4-0.479,2.279-2.12,2.279c-0.641,0-0.962-0.358-0.962-1.279
				c0-1.28,1.12-2.802,2.761-3.762c1.683-0.999,3.082-1.4,4.883-1.4c1.881,0,2.641,0.561,3.201,1.08c0.84,0.84,0.88,1.76,0.88,2.842
				v6.123V143.72z M163.703,139.678c-1.438,1.08-5.36,1.879-5.36,5.201c0,1.481,0.881,2.2,2.081,2.2c1.159,0,3.279-1.4,3.279-2.48
				V139.678z"/>
			<path fill="#695C57" d="M176.987,136.557c0,2.081,0,8.121,0.039,9.362c0.041,0.68,0.202,1.241,1.042,1.241h1.802
				c0.359,0,0.439,0.119,0.439,0.361v0.679c0,0.238-0.08,0.399-0.241,0.399c-0.277,0-2.042-0.118-4.522-0.118
				c-2.56,0-4.161,0.118-4.519,0.118c-0.203,0-0.282-0.161-0.282-0.399v-0.679c0-0.281,0.079-0.361,0.521-0.361h1.92
				c0.441,0,0.841-0.282,0.881-1.001c0.041-1.241,0.041-8.123,0.041-10.443v-2.521c0-2.842-0.041-6.48-0.123-7.524
				c-0.079-1.359-0.718-1.999-1.998-2.399l-0.802-0.281c-0.198-0.079-0.239-0.119-0.239-0.198v-0.319c0-0.12,0.119-0.2,0.36-0.281
				c1.401-0.641,3.2-1.36,4.68-2.32c0.362-0.24,0.601-0.321,0.842-0.321c0.279,0,0.361,0.201,0.32,0.72
				c-0.041,2.203-0.161,10.524-0.161,12.727V136.557z"/>
			<path fill="#695C57" d="M183.11,147.801c-0.2-0.12-0.2-0.36-0.241-0.561l-0.678-3.801c-0.041-0.201,0.079-0.28,0.237-0.319
				l0.521-0.12c0.16-0.043,0.28,0.04,0.36,0.238l1.001,1.963c0.799,1.479,1.358,2.479,3.481,2.479c1.4,0,3.161-0.84,3.161-2.72
				c0-1.802-0.882-2.842-3.884-3.684c-2.358-0.681-4.72-1.919-4.72-5.081c0-2.76,2.6-4.882,5.603-4.882
				c1.92,0,2.959,0.48,3.68,0.839c0.601,0.281,0.681,0.481,0.722,0.723l0.598,2.8c0,0.161-0.077,0.28-0.278,0.359l-0.479,0.161
				c-0.161,0.04-0.242,0-0.361-0.2l-1.36-1.842c-0.48-0.76-1.241-1.559-2.802-1.559c-1.52,0-3.082,0.919-3.082,2.641
				c0,2.32,1.882,2.76,3.841,3.321c2.923,0.84,4.764,2.039,4.804,5.121c-0.04,3.241-2.679,5.283-6.08,5.283
				C185.191,148.962,183.59,148.158,183.11,147.801z"/>
			<path fill="#695C57" d="M26.981,147.16h-1.839c-0.441,0-0.561-0.282-0.641-1.039c-0.039-0.442-0.039-1.883-0.039-3.442v-4.361
				c0-3.321,0-5.842,0.079-6.522c0.041-0.281,0-0.48-0.201-0.48c-0.238,0-0.44,0.08-0.76,0.239c-1.52,0.841-3.039,1.482-4.318,1.961
				c-0.2,0.08-0.282,0.16-0.282,0.282v0.357c0,0.161,0.082,0.241,0.361,0.279c1.999,0.322,2.239,1.043,2.239,2.401v5.885
				c0,1.199,0,2.438-0.039,3.641c-0.042,0.641-0.202,0.8-0.642,0.8h-1.96c-0.279,0-0.401,0.08-0.401,0.321v0.799
				c0,0.241,0.122,0.319,0.322,0.319c0.44,0,2-0.118,4.32-0.118c1.681,0,3.522,0.118,3.843,0.118c0.278,0,0.361-0.118,0.361-0.399
				v-0.679C27.383,147.279,27.3,147.16,26.981,147.16z"/>
			<path fill="#E2592F" d="M23.583,127.95c-1.25-0.989-2.702-1.922-3.594-3.284c-0.629-0.96-0.968-2.806,0.672-2.945
				c0.945-0.081,1.557,0.654,2.157,1.253l0.37,0.37c0.581-0.779,1.451-1.705,2.521-1.668c0.73,0.024,1.188,0.686,1.177,1.347
				c-0.02,1.167-0.745,2.069-1.498,2.893C25.236,126.083,23.556,127.928,23.583,127.95z"/>
		</g>
		<g>
			<path fill-rule="evenodd" clip-rule="evenodd" fill="#EDCD48" d="M138.366,45.516c5.331,3.236,11.542,3.455,15.922,1.403
				c2.263-1.061,4.716-2.763,5.801-6.231c1.073-3.434,0.08-6.074-1.122-8.269c-2.248-4.103-7.567-7.801-13.651-8.201
				c-2.688-0.173-5.126,0.154-7.535,1.261c-1.9,0.875-5.129,3.017-5.869,6.757c-0.812,4.104,1.037,7.287,2.403,10.071
				c-0.783,4.347-3.381,6.495-5.424,8.49C132.21,49.957,135.527,48.086,138.366,45.516z"/>
			<path fill="#FFFFFF" d="M144.048,43.038c-1.67-2.774-3.759-5.59-4.478-8.827c-0.504-2.27,0.168-6.026,3.387-5.114
				c1.858,0.526,2.5,2.365,3.206,3.933l0.438,0.96c1.668-1.06,3.987-2.198,5.991-1.363c1.365,0.572,1.768,2.161,1.271,3.412
				c-0.879,2.202-2.9,3.398-4.917,4.424C148.536,40.672,144.013,42.977,144.048,43.038z"/>
			<g>
				<path fill="#DCD3C1" d="M51.785,103.534c4.241-5.985,3.664-8.238,4.627-13.413c0.722-3.873-2.32-14.79-1.257-21.708
					c-1.547-5.173-7.775-5.08-11.529-2.308c-4.105,3.033-7.98,11.348-10.465,15.612c-2.437,4.186-7.565,6.316-9.935,10.466
					c-1.298,2.278-1.763,5.626-0.824,8.408c-1.577,0.765-3.208,0.83-4.869,0.173c-4.005-1.579-7.538-7.007-8.516-11.127
					c-2.085-8.777,1.335-15.553,11.092-21.972c0.491-0.322,0.627-0.982,0.305-1.475c-0.325-0.491-0.984-0.627-1.475-0.305
					C11.793,70.588,3.968,77.593,6.945,90.13c0.952,4.006,4.625,10.566,9.809,12.615c1.018,0.402,2.042,0.604,3.057,0.604
					c1.204,0,2.392-0.284,3.541-0.842c0.729,1.05,1.749,1.919,3.125,2.46c3.696,1.459,12.25,0.048,16.264-0.013
					c-2.229,1.779-8.514,8.692-1.472,8.355c2.843-0.135,5.729-5.804,6.153-8.406c1.763,2.048,5.725,9.271,9.498,7.818
					C61.897,110.808,53.393,104.745,51.785,103.534z"/>
				<path fill="#DCD3C1" d="M29.134,43.348c-0.324,2.229,0.051,5.473,2.043,6.63c2.005,1.165,6.058-3.256,7.097-2.325
					C35.443,45.124,33.254,43.035,29.134,43.348z"/>
				<path fill="#E977AF" d="M34.135,46.162c-0.951-0.614-1.992-0.978-3.412-0.87c-0.189,1.304,0.017,3.175,1.112,3.938
					C32.32,48.116,33.105,47.073,34.135,46.162z"/>
				<path fill="#DCD3C1" d="M65.015,38.006c0.957,2.042,1.544,5.254-0.024,6.938c-1.578,1.7-6.741-1.349-7.467-0.154
					C59.496,41.546,60.983,38.909,65.015,38.006z"/>
				<path fill="#E977AF" d="M64.064,44.089c0.008-0.004,0.015-0.01,0.021-0.017c0.954-1.023,0.596-2.976,0.016-4.215
					c-1.441,0.322-2.346,1.012-3.091,1.924C62.25,42.37,63.294,43.151,64.064,44.089z"/>
				<g>
					<path fill="#DCD3C1" d="M67.617,51.011c-1.089-7.309-10.264-12.001-20.493-10.479c-10.23,1.521-17.642,8.682-16.555,15.992
						c0.57,3.84,3.378,6.954,7.395,8.829c0.203-10.146,7.604-19.458,9.922-19.804c2.09-0.311,11.698,5.415,15.251,16.038
						C66.42,58.629,68.187,54.841,67.617,51.011z"/>
					<path fill="#DCD3C1" d="M47.886,45.55c-2.318,0.345-9.719,9.658-9.922,19.804c3.627,1.691,8.242,2.371,13.1,1.649
						c4.867-0.725,9.095-2.728,12.074-5.416C59.584,50.965,49.976,45.239,47.886,45.55z"/>
				</g>
				<path fill="#E977AF" d="M52.165,61.162c0.137,0.901-0.728,1.778-1.544,1.899c-0.816,0.123-1.897-0.463-2.031-1.368
					c-0.134-0.903,0.596-1.134,1.585-1.279C51.163,60.267,52.032,60.259,52.165,61.162z"/>
				<g>
					<g>
						<path fill="none" stroke="#695C57" d="M47.353,62.383c0,0-16.455-1.429-27.508,0.217"/>
						<path fill="none" stroke="#695C57" d="M47.467,64.044c0,0-16.315,2.566-26.65,6.819"/>
					</g>
					<g>
						<path fill="none" stroke="#695C57" d="M53.55,61.462c0,0,15.326-6.158,26.378-7.804"/>
						<path fill="none" stroke="#695C57" d="M53.925,63.084c0,0,16.354-2.295,27.479-1.236"/>
					</g>
				</g>
				<path fill="#FFFFFF" d="M53.559,88.814c0,5.191-2.26,9.398-5.049,9.398s-5.052-4.207-5.052-9.398
					c0-5.193,2.263-9.403,5.052-9.403S53.559,83.621,53.559,88.814z"/>
				<g>
					<path fill="#58595B" d="M135.337,90.231c0.737,0.078,1.654-2.864,2.049-6.577c-0.854,0.053-1.762,0.106-2.726,0.143
						C134.337,87.32,134.624,90.156,135.337,90.231z"/>
					<path fill="#58595B" d="M139.608,90.682c0.744,0.076,1.667-2.896,2.061-6.641c0.016-0.163,0.03-0.325,0.045-0.485
						c-0.823-0.059-1.723-0.044-2.714,0.006c-0.006,0.067-0.016,0.131-0.021,0.195C138.584,87.503,138.867,90.603,139.608,90.682z"
						/>
					<path fill="#58595B" d="M130.895,91.373c0.743,0.074,1.665-2.896,2.058-6.642c0.032-0.303,0.057-0.603,0.081-0.898
						c-0.857,0.006-1.754-0.013-2.693-0.068c-0.026,0.226-0.053,0.452-0.078,0.683C129.868,88.194,130.152,91.294,130.895,91.373z"
						/>
					<path fill="#58595B" d="M143.717,92.721c0.744,0.078,1.661-2.895,2.058-6.642c0.098-0.934,0.153-1.831,0.172-2.647
						c-0.921,0.074-1.778,0.143-2.555,0.166c-0.12,0.688-0.226,1.426-0.306,2.199C142.69,89.54,142.975,92.643,143.717,92.721z"/>
				</g>
				<path fill="#DCD3C1" d="M189.63,71.886l-0.034-0.484c-0.042-0.588-0.53-1.024-1.135-0.989c-0.588,0.041-1.03,0.547-0.988,1.135
					l0.033,0.485c0.38,5.435,0.737,10.573-2.503,15.08c-2.893,4.026-7.421,6.977-12.107,7.895c-1.814,0.353-4.088,0.365-6.227-0.062
					c-0.396-2.983-1.7-6.204-4.603-8.237c-5.854-4.1-11.714-3.634-16.12-3.276c-0.019,0.816-0.074,1.713-0.172,2.647
					c-0.396,3.747-1.313,6.72-2.058,6.642c-0.742-0.078-1.026-3.181-0.631-6.923c0.08-0.773,0.186-1.511,0.306-2.199
					c-0.522,0.017-1.011,0.013-1.462-0.028c-0.071-0.008-0.144-0.011-0.216-0.014c-0.015,0.16-0.029,0.322-0.045,0.485
					c-0.394,3.745-1.316,6.717-2.061,6.641c-0.741-0.079-1.024-3.179-0.629-6.925c0.005-0.064,0.015-0.128,0.021-0.195
					c-0.513,0.025-1.052,0.059-1.614,0.093c-0.395,3.713-1.312,6.655-2.049,6.577c-0.713-0.075-1-2.912-0.677-6.434
					c-0.527,0.019-1.066,0.033-1.627,0.036c-0.024,0.295-0.049,0.595-0.081,0.898c-0.393,3.746-1.314,6.716-2.058,6.642
					c-0.742-0.079-1.026-3.179-0.633-6.925c0.025-0.231,0.052-0.457,0.078-0.683c-3.662-0.208-7.962-0.966-12.979-3.078
					c-3.559-1.498-3.706,0.021-6.997,0.021l-0.388,0.193c0.497,8.429-7.102,9.857-13.317,10.177
					c-1.373,0.07-3.313-0.888-4.435-0.888c-2.661,0-3.233,0.929-3.51,2.561c-0.838,4.9,14.422,3.044,17.389,3.644
					c-0.426,0.919-2.315,2.68-4.619,3.938c-0.955,0.523-2.437,0.269-3.191,0.933c-1.543,1.356-1.938,3.75-1.396,4.743
					c1.888,3.451,11.239-0.651,13.659-2.439c3.951-2.917,5.561-7.221,10.448-5.045c8.554,3.806,18.135-2.154,21.805,0.854
					c5.137,4.214-1.809,5.881-6.298,7.089c-1.42,0.382-2.012-1.19-3.36,0.253c-5.722,6.121,7.098,4.026,9.845,3.858
					c7.783-0.479,22.745-3.261,23.719-11.859c0.058-0.497,0.089-1.036,0.09-1.591c1.075,0.178,2.154,0.271,3.192,0.271
					c1.186,0,2.316-0.108,3.306-0.302c5.207-1.019,10.226-4.285,13.43-8.737C190.42,83.222,190.017,77.459,189.63,71.886z"/>
				<path fill="#DCD3C1" d="M88.863,65.153c0.067,2.252,0.995,5.384,3.156,6.181c2.176,0.804,5.406-4.248,6.593-3.512
					C95.387,65.818,92.87,64.136,88.863,65.153z"/>
				<path fill="#E977AF" d="M94.275,67.066c-1.041-0.443-2.129-0.621-3.509-0.272c0.039,1.32,0.564,3.125,1.772,3.691
					C92.825,69.304,93.418,68.141,94.275,67.066z"/>
				<path fill="#DCD3C1" d="M123.293,53.721c1.294,1.844,2.426,4.91,1.17,6.838c-1.264,1.948-6.872-0.17-7.385,1.13
					C118.466,58.155,119.479,55.302,123.293,53.721z"/>
				<path fill="#E977AF" d="M123.405,59.876c0.003-0.008,0.012-0.013,0.018-0.022c0.762-1.172,0.075-3.032-0.71-4.152
					c-1.365,0.565-2.136,1.397-2.715,2.424C121.318,58.493,122.483,59.084,123.405,59.876z"/>
				<g>
					<path fill="#DCD3C1" d="M123.834,69.769c-0.199-0.601,1.721-1.796,4.488-2.871c-0.078-0.376-0.175-0.754-0.298-1.126
						c-0.054-0.161-0.115-0.322-0.179-0.48c-2.884,0.808-5.165,1.002-5.366,0.399c-0.189-0.572,1.531-1.681,4.077-2.709
						c-2.572-3.434-7.384-5.364-12.886-5.306c0.504,2.209,0.559,3.833,0.054,4.002c-0.554,0.182-1.607-1.427-2.61-3.837
						c-0.558,0.065-1.121,0.15-1.688,0.258c1.072,3.38,1.4,6.223,0.723,6.449c-0.692,0.23-2.177-2.354-3.349-5.81
						c-0.259,0.075-0.511,0.154-0.765,0.238c-0.256,0.085-0.506,0.175-0.754,0.266c1.126,3.472,1.482,6.428,0.789,6.659
						c-0.677,0.225-2.116-2.249-3.28-5.599c-0.516,0.252-1.019,0.522-1.507,0.802c0.639,2.53,0.758,4.45,0.203,4.635
						c-0.504,0.167-1.434-1.164-2.354-3.238c-4.439,3.246-7.142,7.667-7.148,11.96c2.655-0.697,4.696-0.839,4.887-0.267
						c0.2,0.604-1.743,1.811-4.539,2.89c0.043,0.164,0.09,0.328,0.143,0.493c0.124,0.372,0.273,0.729,0.438,1.078
						c2.858-0.795,5.112-0.985,5.312-0.383c0.182,0.553-1.438,1.615-3.86,2.621c3.903,4.568,12.01,6.166,20.101,3.481
						c8.09-2.688,13.631-8.817,14.027-14.816C125.951,70.205,124.018,70.322,123.834,69.769z"/>
					<path fill="#DCD3C1" d="M110.148,64.548c0.678-0.226,0.35-3.069-0.723-6.449c-0.871,0.165-1.747,0.377-2.626,0.639
						C107.972,62.193,109.456,64.778,110.148,64.548z"/>
					<path fill="#DCD3C1" d="M106.07,65.901c0.693-0.231,0.337-3.188-0.789-6.659c-0.863,0.314-1.693,0.671-2.491,1.06
						C103.954,63.652,105.394,66.126,106.07,65.901z"/>
					<path fill="#DCD3C1" d="M113.725,61.678c0.505-0.169,0.45-1.793-0.054-4.002c-0.837,0.007-1.692,0.062-2.557,0.165
						C112.117,60.251,113.171,61.859,113.725,61.678z"/>
					<path fill="#DCD3C1" d="M101.486,65.739c0.555-0.185,0.436-2.105-0.203-4.635c-0.754,0.435-1.471,0.904-2.15,1.397
						C100.053,64.575,100.982,65.906,101.486,65.739z"/>
					<path fill="#DCD3C1" d="M96.872,74.194c-0.191-0.573-2.232-0.43-4.887,0.267c0,0.886,0.113,1.762,0.349,2.624
						C95.129,76.005,97.072,74.799,96.872,74.194z"/>
					<path fill="#DCD3C1" d="M98.227,78.272c-0.2-0.602-2.454-0.412-5.312,0.383c0.379,0.809,0.871,1.555,1.452,2.238
						C96.788,79.887,98.409,78.826,98.227,78.272z"/>
					<path fill="#DCD3C1" d="M122.479,65.691c0.201,0.604,2.482,0.409,5.366-0.399c-0.324-0.831-0.759-1.603-1.289-2.311
						C124.011,64.01,122.29,65.119,122.479,65.691z"/>
					<path fill="#DCD3C1" d="M123.834,69.769c0.184,0.553,2.117,0.436,4.661-0.211c0.059-0.893,0.003-1.783-0.173-2.66
						C125.555,67.973,123.635,69.168,123.834,69.769z"/>
				</g>
				<path fill="#E977AF" d="M114.035,77.604c0.289,0.866-0.412,1.875-1.195,2.136c-0.785,0.262-1.948-0.131-2.236-0.998
					c-0.289-0.866,0.393-1.219,1.339-1.535C112.891,76.894,113.745,76.736,114.035,77.604z"/>
				<g>
					<g>
						<path fill="none" stroke="#695C57" d="M109.694,79.03c0,0-14.728,1.507-24.271,4.673"/>
						<path fill="none" stroke="#695C57" d="M110.02,80.385c0,0-14.062,4.791-22.616,10"/>
					</g>
					<g>
						<path fill="none" stroke="#695C57" d="M115.044,77.253c0,0,12.704-7.604,22.246-10.771"/>
						<path fill="none" stroke="#695C57" d="M115.592,78.536c0,0,14.139-4.574,24.107-5.516"/>
					</g>
				</g>
				<g>
					<path fill="none" stroke="#231E20" d="M108.638,75.011c0,0-2.255-2.155-4.26-1.67c-2.003,0.482-2.794,2.795-2.794,2.795"/>
					<path fill="none" stroke="#231E20" d="M121.205,71.978c0,0-2.257-2.153-4.259-1.672c-2.002,0.483-2.797,2.796-2.797,2.796"/>
				</g>
				<g>
					<path fill="none" stroke="#231E20" d="M46.857,55.949c0,0-1.84-2.517-3.898-2.395c-2.057,0.123-3.242,2.258-3.242,2.258"/>
					<path fill="none" stroke="#231E20" d="M59.764,55.183c0,0-1.842-2.52-3.899-2.397c-2.057,0.124-3.245,2.26-3.245,2.26"/>
				</g>
				<polygon fill="#6CB4B0" points="189.554,76.842 189.097,76.69 189.166,76.17 189.144,75.587 188.924,74.867 188.519,74.329 
					187.826,73.598 187.041,73.047 185.745,72.183 184.88,73.149 183.58,74.873 183.028,75.663 183.425,76.084 183.902,76.498 
					184.403,76.804 185.241,76.91 184.026,77.625 183.149,78.516 182.29,79.484 181.443,80.282 180.839,80.906 183.171,81.473 
					183.276,82.556 183.459,83.297 183.674,83.841 184.319,83.188 185.003,82.447 186.03,81.428 186.714,80.789 187.385,80.08 
					187.975,79.519 188.446,78.956 188.608,78.689 188.733,78.332 188.733,77.896 188.912,77.885 189.064,77.977 189.071,78.809 
					189.092,80.36 189.447,81.993 189.686,84.164 189.86,85.705 189.76,85.993 190.518,85.452 191.2,84.925 191.708,84.592 
					192.614,85.109 193.304,85.418 194.229,85.766 193.742,83.906 193.408,81.993 193.181,80.837 192.907,79.838 193.612,79.789 
					194.204,79.628 194.507,79.588 194.628,78.689 194.675,77.91 194.563,77.265 194.513,76.558 194.47,75.932 194.433,75.09 
					193.499,75.066 192.37,75.191 191.564,75.464 190.571,75.85 189.876,76.409 				"/>
				<polygon fill="#E2592F" points="49.04,71.335 48.42,71.394 48.228,70.745 47.901,70.063 47.252,69.327 46.497,68.904 
					45.297,68.403 44.07,68.16 42.088,67.808 41.569,69.415 40.932,72.14 40.694,73.364 41.389,73.657 42.168,73.892 42.934,73.997 
					43.97,73.68 42.909,75.158 42.343,76.679 41.827,78.28 41.247,79.668 40.855,80.727 43.914,80.172 44.608,81.394 45.217,82.186 
					45.752,82.713 46.183,81.605 46.596,80.365 47.281,78.613 47.754,77.501 48.175,76.304 48.568,75.336 48.841,74.421 
					48.891,74.016 48.85,73.535 48.618,73.019 48.833,72.915 49.056,72.935 49.502,73.916 50.345,75.748 51.617,77.493 
					53.046,79.938 54.053,81.666 54.092,82.064 54.707,81.027 55.233,80.042 55.665,79.382 57.005,79.522 57.984,79.519 
					59.273,79.438 57.707,77.501 56.307,75.409 55.439,74.16 54.587,73.128 55.39,72.693 56.008,72.194 56.344,71.984 
					56.019,70.859 55.665,69.915 55.193,69.202 54.763,68.398 54.383,67.678 53.894,66.704 52.783,67.162 51.515,67.904 
					50.698,68.651 49.727,69.625 49.195,70.66 				"/>
			</g>
		</g>
	</g>
	<g>
		<path fill="#6AB4B0" d="M61.712,161.86l-1.203,0.749c-1.04-1.381-2.458-2.07-4.257-2.07c-1.437,0-2.629,0.462-3.579,1.386
			c-0.949,0.923-1.424,2.046-1.424,3.367c0,0.859,0.218,1.669,0.655,2.427c0.437,0.758,1.036,1.346,1.797,1.766
			c0.762,0.419,1.616,0.628,2.561,0.628c1.734,0,3.149-0.69,4.246-2.071l1.203,0.791c-0.563,0.849-1.322,1.509-2.272,1.976
			c-0.95,0.47-2.033,0.704-3.247,0.704c-1.865,0-3.411-0.594-4.641-1.779c-1.229-1.186-1.843-2.628-1.843-4.326
			c0-1.143,0.288-2.201,0.862-3.183c0.575-0.979,1.364-1.744,2.369-2.293c1.004-0.549,2.128-0.824,3.372-0.824
			c0.78,0,1.534,0.12,2.261,0.358c0.726,0.238,1.343,0.549,1.848,0.932C60.927,160.78,61.358,161.269,61.712,161.86z"/>
		<path fill="#6AB4B0" d="M76.382,159.411v11.796h-1.497v-2.027c-0.636,0.773-1.35,1.354-2.141,1.745
			c-0.792,0.391-1.658,0.587-2.597,0.587c-1.669,0-3.095-0.607-4.277-1.816c-1.182-1.211-1.773-2.685-1.773-4.419
			c0-1.698,0.596-3.15,1.789-4.359c1.193-1.206,2.627-1.811,4.304-1.811c0.969,0,1.845,0.206,2.629,0.618
			c0.785,0.412,1.473,1.029,2.065,1.854v-2.168H76.382z M70.315,160.57c-0.846,0-1.625,0.208-2.339,0.623
			c-0.715,0.415-1.284,0.999-1.706,1.749c-0.422,0.751-0.633,1.545-0.633,2.383c0,0.83,0.213,1.624,0.639,2.383
			c0.426,0.758,0.999,1.348,1.716,1.771c0.718,0.423,1.489,0.634,2.312,0.634c0.83,0,1.617-0.209,2.361-0.628
			c0.744-0.42,1.316-0.985,1.717-1.7c0.4-0.715,0.601-1.521,0.601-2.416c0-1.365-0.449-2.505-1.348-3.422
			C72.735,161.028,71.63,160.57,70.315,160.57z"/>
		<path fill="#6AB4B0" d="M81.12,155.03h1.518v4.381h2.407v1.312h-2.407v10.484H81.12v-10.484h-2.071v-1.312h2.071V155.03z"/>
		<path fill="#6AB4B0" d="M99.401,160.701l-0.976,1.009c-0.812-0.788-1.606-1.184-2.381-1.184c-0.493,0-0.916,0.163-1.267,0.488
			c-0.352,0.325-0.527,0.705-0.527,1.139c0,0.383,0.145,0.748,0.434,1.095c0.291,0.354,0.899,0.771,1.826,1.248
			c1.13,0.585,1.899,1.148,2.304,1.691c0.398,0.549,0.598,1.166,0.598,1.854c0,0.969-0.34,1.789-1.021,2.461
			c-0.68,0.672-1.531,1.01-2.552,1.01c-0.681,0-1.331-0.149-1.95-0.446c-0.619-0.295-1.131-0.704-1.535-1.225l0.954-1.084
			c0.774,0.874,1.597,1.312,2.465,1.312c0.609,0,1.127-0.194,1.555-0.585c0.428-0.39,0.642-0.85,0.642-1.377
			c0-0.434-0.142-0.82-0.424-1.16c-0.282-0.333-0.919-0.752-1.912-1.258c-1.065-0.549-1.79-1.092-2.173-1.626
			c-0.384-0.535-0.577-1.146-0.577-1.833c0-0.896,0.306-1.642,0.918-2.234c0.612-0.592,1.385-0.889,2.319-0.889
			C97.207,159.106,98.3,159.638,99.401,160.701z"/>
		<path fill="#6AB4B0" d="M102.615,154.552c0.347,0,0.642,0.125,0.885,0.369c0.245,0.246,0.367,0.543,0.367,0.89
			c0,0.341-0.122,0.633-0.367,0.878c-0.243,0.246-0.538,0.369-0.885,0.369c-0.339,0-0.63-0.123-0.874-0.369
			c-0.245-0.245-0.367-0.537-0.367-0.878c0-0.347,0.122-0.644,0.367-0.89C101.985,154.677,102.276,154.552,102.615,154.552z
			 M101.861,159.411h1.519v11.796h-1.519V159.411z"/>
		<path fill="#6AB4B0" d="M107.858,155.03h1.518v4.381h2.406v1.312h-2.406v10.484h-1.518v-10.484h-2.071v-1.312h2.071V155.03z"/>
		<path fill="#6AB4B0" d="M115.383,155.03h1.518v4.381h2.408v1.312H116.9v10.484h-1.518v-10.484h-2.071v-1.312h2.071V155.03z"/>
		<path fill="#6AB4B0" d="M122.109,154.552c0.346,0,0.641,0.125,0.887,0.369c0.244,0.246,0.366,0.543,0.366,0.89
			c0,0.341-0.122,0.633-0.366,0.878c-0.246,0.246-0.541,0.369-0.887,0.369c-0.337,0-0.629-0.123-0.874-0.369
			c-0.244-0.245-0.367-0.537-0.367-0.878c0-0.347,0.123-0.644,0.367-0.89C121.48,154.677,121.772,154.552,122.109,154.552z
			 M121.356,159.411h1.519v11.796h-1.519V159.411z"/>
		<path fill="#6AB4B0" d="M126.029,159.411h1.519v2.114c0.606-0.81,1.278-1.416,2.017-1.816c0.737-0.401,1.54-0.603,2.406-0.603
			c0.884,0,1.665,0.225,2.348,0.674c0.684,0.447,1.188,1.051,1.513,1.81c0.326,0.758,0.488,1.941,0.488,3.546v6.071h-1.519v-5.627
			c0-1.358-0.056-2.267-0.168-2.723c-0.177-0.778-0.513-1.367-1.013-1.761c-0.499-0.395-1.149-0.591-1.952-0.591
			c-0.917,0-1.741,0.303-2.467,0.911c-0.727,0.606-1.206,1.358-1.438,2.255c-0.144,0.585-0.216,1.655-0.216,3.209v4.326h-1.519
			V159.411z"/>
		<path fill="#6AB4B0" d="M149.742,159.411h1.518v9.399c0,1.655-0.144,2.867-0.434,3.633c-0.396,1.083-1.087,1.919-2.071,2.504
			c-0.982,0.586-2.164,0.879-3.545,0.879c-1.012,0-1.921-0.144-2.727-0.43c-0.807-0.286-1.462-0.671-1.968-1.152
			c-0.506-0.482-0.972-1.188-1.399-2.115h1.649c0.447,0.78,1.026,1.359,1.736,1.734c0.709,0.375,1.589,0.564,2.638,0.564
			c1.034,0,1.908-0.193,2.622-0.579c0.713-0.385,1.222-0.869,1.524-1.453c0.304-0.583,0.456-1.525,0.456-2.825v-0.608
			c-0.572,0.723-1.27,1.279-2.095,1.664c-0.825,0.388-1.7,0.581-2.627,0.581c-1.084,0-2.105-0.27-3.06-0.809
			c-0.956-0.537-1.693-1.263-2.215-2.173c-0.521-0.911-0.781-1.912-0.781-3.004c0-1.091,0.271-2.107,0.814-3.052
			c0.542-0.942,1.293-1.69,2.252-2.239c0.958-0.549,1.97-0.824,3.034-0.824c0.882,0,1.705,0.183,2.468,0.548
			c0.764,0.365,1.499,0.967,2.209,1.806V159.411z M145.265,160.57c-0.86,0-1.66,0.208-2.396,0.623
			c-0.737,0.417-1.315,0.99-1.734,1.725c-0.42,0.733-0.63,1.526-0.63,2.381c0,1.293,0.434,2.362,1.303,3.208
			c0.866,0.847,1.989,1.269,3.371,1.269c1.395,0,2.518-0.419,3.366-1.257c0.85-0.839,1.273-1.941,1.273-3.307
			c0-0.89-0.194-1.683-0.584-2.382c-0.391-0.696-0.944-1.247-1.659-1.652C146.858,160.773,146.089,160.57,145.265,160.57z"/>
	</g>
</g>
</svg>
